M48
INCH,TZ
T1C0.0079
%
G90
G05
T1
X51496Y-12811
X51732Y-13311
X51969Y-12811
X52205Y-13311
X52441Y-12811
X52677Y-13311
X52913Y-12811
X53150Y-13311
X53386Y-12811
X53622Y-13311
X53858Y-12811
X54094Y-13311
X54331Y-12811
X54567Y-13311
X54803Y-12811
X55039Y-13311
X55276Y-11811
X55512Y-12311
X55748Y-11811
X55984Y-12311
X56220Y-11811
X56457Y-12311
X56693Y-11811
X56929Y-12311
X57165Y-11811
X57402Y-12311
X57638Y-11811
X57874Y-12311
X58110Y-11811
X58346Y-12311
X58583Y-11811
X58819Y-12311
T0
M30
