M48
INCH,TZ
T1C0.0079
%
G90
G05
T1
X12063Y-11429
X12315Y-11429
X12567Y-11429
X12819Y-11429
X13071Y-11429
X13323Y-11429
X13575Y-11429
X13827Y-11429
X14079Y-11429
X14331Y-11429
X14583Y-11429
X14835Y-11429
X15087Y-11429
X15339Y-11429
X15339Y-13701
X15591Y-11429
X15591Y-13701
X15843Y-11429
X15843Y-13701
X16094Y-13701
X16346Y-13701
X16598Y-13701
X16850Y-13701
X17102Y-13701
X17354Y-13701
X17606Y-13701
X17858Y-13701
X18110Y-13701
X18362Y-13701
X18614Y-13701
X18866Y-13701
X19118Y-13701
X19622Y-11429
X19874Y-11429
X20126Y-11429
X20378Y-11429
X20630Y-11429
X20882Y-11429
X21134Y-11429
X21386Y-11429
X21638Y-11429
X21890Y-11429
X22142Y-11429
X22394Y-11429
X22646Y-11429
X22898Y-11429
X22898Y-13701
X23150Y-11429
X23150Y-13701
X23402Y-11429
X23402Y-13701
X23654Y-13701
X23906Y-13701
X24157Y-13701
X24409Y-13701
X24661Y-13701
X24913Y-13701
X25165Y-13701
X25417Y-13701
X25669Y-13701
X25921Y-13701
X26173Y-13701
X26425Y-13701
X26677Y-13701
X27181Y-11429
X27433Y-11429
X27685Y-11429
X27937Y-11429
X28189Y-11429
X28441Y-11429
X28693Y-11429
X28945Y-11429
X29197Y-11429
X29449Y-11429
X29701Y-11429
X29953Y-11429
X30205Y-11429
X30457Y-11429
X30457Y-13701
X30709Y-11429
X30709Y-13701
X30961Y-11429
X30961Y-13701
X31213Y-13701
X31465Y-13701
X31717Y-13701
X31969Y-13701
X32220Y-13701
X32472Y-13701
X32724Y-13701
X32976Y-13701
X33228Y-13701
X33480Y-13701
X33732Y-13701
X33984Y-13701
X34236Y-13701
X36157Y-10831
X36409Y-10831
X36661Y-10831
X36913Y-10831
X37165Y-10831
X37417Y-10831
X37669Y-10831
X37921Y-10831
X38173Y-10831
X38425Y-10831
X38677Y-10831
X38929Y-10831
X39181Y-10831
X39433Y-10831
X39685Y-10831
X39937Y-10831
X40039Y-14299
X40291Y-14299
X40543Y-14299
X40795Y-14299
X41047Y-14299
X41299Y-14299
X41551Y-14299
X41803Y-14299
X42055Y-14299
X42307Y-14299
X42559Y-14299
X42811Y-14299
X43063Y-14299
X43315Y-14299
X43567Y-14299
X43717Y-10831
X43819Y-14299
X43969Y-10831
X44220Y-10831
X44472Y-10831
X44724Y-10831
X44976Y-10831
X45228Y-10831
X45480Y-10831
X45732Y-10831
X45984Y-10831
X46236Y-10831
X46488Y-10831
X46740Y-10831
X46992Y-10831
X47244Y-10831
X47496Y-10831
X47598Y-14299
X47850Y-14299
X48102Y-14299
X48354Y-14299
X48606Y-14299
X48858Y-14299
X49110Y-14299
X49362Y-14299
X49614Y-14299
X49866Y-14299
X50118Y-14299
X50370Y-14299
X50622Y-14299
X50874Y-14299
X51126Y-14299
X51276Y-10831
X51378Y-14299
X51528Y-10831
X51780Y-10831
X52031Y-10831
X52283Y-10831
X52535Y-10831
X52787Y-10831
X53039Y-10831
X53291Y-10831
X53543Y-10831
X53795Y-10831
X54047Y-10831
X54299Y-10831
X54551Y-10831
X54803Y-10831
X55055Y-10831
X55157Y-14299
X55409Y-14299
X55661Y-14299
X55913Y-14299
X56165Y-14299
X56417Y-14299
X56669Y-14299
X56921Y-14299
X57173Y-14299
X57425Y-14299
X57677Y-14299
X57929Y-14299
X58181Y-14299
X58433Y-14299
X58685Y-14299
X58937Y-14299
T0
M30
