G04 #@! TF.GenerationSoftware,KiCad,Pcbnew,7.0.2*
G04 #@! TF.CreationDate,2023-07-25T20:27:36-04:00*
G04 #@! TF.ProjectId,AxionAdapter,4178696f-6e41-4646-9170-7465722e6b69,rev?*
G04 #@! TF.SameCoordinates,Original*
G04 #@! TF.FileFunction,Copper,L2,Inr*
G04 #@! TF.FilePolarity,Positive*
%FSLAX46Y46*%
G04 Gerber Fmt 4.6, Leading zero omitted, Abs format (unit mm)*
G04 Created by KiCad (PCBNEW 7.0.2) date 2023-07-25 20:27:36*
%MOMM*%
%LPD*%
G01*
G04 APERTURE LIST*
G04 #@! TA.AperFunction,ViaPad*
%ADD10C,0.584200*%
G04 #@! TD*
G04 #@! TA.AperFunction,ViaPad*
%ADD11C,0.700000*%
G04 #@! TD*
G04 #@! TA.AperFunction,ViaPad*
%ADD12C,0.380000*%
G04 #@! TD*
G04 #@! TA.AperFunction,ViaPad*
%ADD13C,0.400000*%
G04 #@! TD*
G04 #@! TA.AperFunction,Conductor*
%ADD14C,0.080000*%
G04 #@! TD*
G04 APERTURE END LIST*
D10*
G04 #@! TO.N,GND*
X60600000Y-26400000D03*
X151200000Y-35100000D03*
X29100000Y-27600000D03*
X57450000Y-37500000D03*
D11*
X91200000Y-30000000D03*
G04 #@! TO.N,REF*
X91200000Y-32540000D03*
D12*
G04 #@! TO.N,GND*
X140480000Y-29030000D03*
X129600000Y-27510000D03*
G04 #@! TO.N,REF*
X140480000Y-27510000D03*
X129600000Y-29030000D03*
G04 #@! TO.N,GND*
X121280000Y-29030000D03*
X110400000Y-27510000D03*
G04 #@! TO.N,REF*
X121280000Y-27510000D03*
X110400000Y-29030000D03*
G04 #@! TO.N,GND*
X102080000Y-29030000D03*
X91200000Y-27510000D03*
G04 #@! TO.N,REF*
X102080000Y-27510000D03*
X91200000Y-29030000D03*
G04 #@! TO.N,GND*
X79280000Y-29030000D03*
X68400000Y-27510000D03*
G04 #@! TO.N,REF*
X79280000Y-27510000D03*
X68400000Y-29030000D03*
G04 #@! TO.N,GND*
X60080000Y-29030000D03*
X49200000Y-27510000D03*
G04 #@! TO.N,REF*
X60080000Y-27510000D03*
X49200000Y-29030000D03*
X139460000Y-36320000D03*
X150340000Y-34800000D03*
G04 #@! TO.N,GND*
X150340000Y-36320000D03*
X139460000Y-34800000D03*
G04 #@! TO.N,REF*
X120260000Y-36320000D03*
X131140000Y-34800000D03*
G04 #@! TO.N,GND*
X131140000Y-36320000D03*
X120260000Y-34800000D03*
G04 #@! TO.N,REF*
X101060000Y-36320000D03*
X111940000Y-34800000D03*
G04 #@! TO.N,GND*
X111940000Y-36320000D03*
X101060000Y-34800000D03*
G04 #@! TO.N,REF*
X76720000Y-36320000D03*
X87600000Y-34800000D03*
G04 #@! TO.N,GND*
X87600000Y-36320000D03*
X76720000Y-34800000D03*
G04 #@! TO.N,REF*
X57520000Y-36320000D03*
X68400000Y-34800000D03*
G04 #@! TO.N,GND*
X68400000Y-36320000D03*
X57520000Y-34800000D03*
X49200000Y-36320000D03*
G04 #@! TO.N,REF*
X49200000Y-34800000D03*
X38320000Y-36320000D03*
G04 #@! TO.N,GND*
X38320000Y-34800000D03*
D13*
G04 #@! TO.N,*
X147600000Y-30000000D03*
D11*
X127200000Y-32540000D03*
X93600000Y-32540000D03*
X57600000Y-30000000D03*
X81600000Y-30000000D03*
X145800000Y-33810000D03*
X123600000Y-32540000D03*
D13*
X132600000Y-33810000D03*
D11*
X87000000Y-33810000D03*
D13*
X138000000Y-30000000D03*
D11*
X121800000Y-31270000D03*
X30600000Y-33810000D03*
D13*
X149400000Y-31270000D03*
D11*
X70200000Y-33810000D03*
X63000000Y-31270000D03*
X75000000Y-31270000D03*
X39000000Y-33810000D03*
X109200000Y-32540000D03*
D13*
X135000000Y-33810000D03*
X134400000Y-30000000D03*
D11*
X111000000Y-31270000D03*
D13*
X143400000Y-31270000D03*
D11*
X134400000Y-30000000D03*
X132000000Y-32540000D03*
X48600000Y-33810000D03*
X113400000Y-33810000D03*
X97200000Y-30000000D03*
X79800000Y-31270000D03*
X68400000Y-32560000D03*
X101400000Y-31270000D03*
X81600000Y-32540000D03*
X145800000Y-31270000D03*
X120000000Y-30000000D03*
X82800000Y-32540000D03*
X125400000Y-33810000D03*
X48000000Y-32540000D03*
D13*
X136800000Y-32540000D03*
X144000000Y-32540000D03*
X142200000Y-31270000D03*
D11*
X60000000Y-32560000D03*
X85200000Y-32540000D03*
X108600000Y-33810000D03*
X147000000Y-33810000D03*
X33000000Y-31270000D03*
X103200000Y-32540000D03*
X42000000Y-32540000D03*
X117600000Y-30000000D03*
X57600000Y-32560000D03*
X94800000Y-30000000D03*
X64200000Y-33810000D03*
X110400000Y-32540000D03*
D13*
X131400000Y-33810000D03*
D11*
X40800000Y-32540000D03*
X48600000Y-31270000D03*
X141600000Y-30000000D03*
X56400000Y-32560000D03*
X58800000Y-30000000D03*
X69000000Y-33810000D03*
X31800000Y-33810000D03*
X84600000Y-33810000D03*
X73200000Y-30000000D03*
X82200000Y-31270000D03*
X145200000Y-30000000D03*
D13*
X136200000Y-33810000D03*
X133200000Y-32540000D03*
D11*
X101400000Y-33810000D03*
X72600000Y-31270000D03*
X67800000Y-31270000D03*
X96600000Y-33810000D03*
X124200000Y-33810000D03*
X37800000Y-33810000D03*
X41400000Y-33810000D03*
X124800000Y-30000000D03*
X68400000Y-30000000D03*
X132600000Y-33810000D03*
X143400000Y-33810000D03*
X57000000Y-33810000D03*
X135600000Y-32540000D03*
X113400000Y-31270000D03*
X46200000Y-31270000D03*
X62400000Y-30000000D03*
D13*
X133800000Y-33810000D03*
D11*
X129600000Y-30000000D03*
X109200000Y-30000000D03*
X72000000Y-32560000D03*
X30600000Y-31270000D03*
X64200000Y-31270000D03*
X138600000Y-33810000D03*
X78000000Y-30000000D03*
X70800000Y-32560000D03*
X73200000Y-32560000D03*
X133800000Y-31270000D03*
X45600000Y-32540000D03*
X105600000Y-32540000D03*
X111600000Y-30000000D03*
X66000000Y-30000000D03*
X49800000Y-33810000D03*
X49200000Y-32540000D03*
X52800000Y-32560000D03*
X128400000Y-30000000D03*
X98400000Y-32540000D03*
D13*
X147000000Y-31270000D03*
D11*
X60600000Y-33810000D03*
X58800000Y-32560000D03*
X49800000Y-31270000D03*
X115800000Y-31270000D03*
D13*
X148200000Y-31270000D03*
X146400000Y-32540000D03*
D11*
X62400000Y-32560000D03*
X34200000Y-33810000D03*
X99000000Y-33810000D03*
D13*
X142800000Y-32540000D03*
D11*
X36600000Y-33810000D03*
X115200000Y-30000000D03*
D13*
X147000000Y-33810000D03*
D11*
X106200000Y-31270000D03*
X130200000Y-33810000D03*
X43200000Y-30000000D03*
X74400000Y-30000000D03*
X135000000Y-31270000D03*
X118200000Y-31270000D03*
X64800000Y-30000000D03*
X93000000Y-33810000D03*
X84000000Y-30000000D03*
D13*
X140400000Y-30000000D03*
D11*
X70800000Y-30000000D03*
X91800000Y-33810000D03*
X74400000Y-32560000D03*
X36000000Y-30000000D03*
X32400000Y-30000000D03*
X61200000Y-32560000D03*
X106200000Y-33810000D03*
X97800000Y-33810000D03*
X96600000Y-31270000D03*
X50400000Y-30000000D03*
X137400000Y-31270000D03*
D13*
X137400000Y-33810000D03*
D11*
X111000000Y-33810000D03*
X123000000Y-33810000D03*
X102000000Y-30000000D03*
D13*
X140400000Y-32540000D03*
D11*
X37800000Y-31270000D03*
D13*
X141600000Y-32540000D03*
D11*
X139200000Y-32540000D03*
X39000000Y-31270000D03*
X138000000Y-30000000D03*
X142200000Y-31270000D03*
X148200000Y-31270000D03*
X114600000Y-31270000D03*
X71400000Y-33810000D03*
X41400000Y-31270000D03*
X81000000Y-33810000D03*
D13*
X145800000Y-33810000D03*
D11*
X136200000Y-33810000D03*
X47400000Y-31270000D03*
D13*
X132000000Y-30000000D03*
D11*
X46800000Y-30000000D03*
X132600000Y-31270000D03*
X31200000Y-32540000D03*
X118800000Y-30000000D03*
X38400000Y-32540000D03*
X105600000Y-30000000D03*
X95400000Y-31270000D03*
X148800000Y-32540000D03*
X72600000Y-33810000D03*
X54600000Y-31270000D03*
X60000000Y-30000000D03*
X82200000Y-33810000D03*
X78600000Y-31270000D03*
X92400000Y-30000000D03*
D13*
X134400000Y-32540000D03*
D11*
X115800000Y-33810000D03*
X82800000Y-30000000D03*
X92400000Y-32540000D03*
D13*
X132600000Y-31270000D03*
X131400000Y-31270000D03*
D11*
X120600000Y-33810000D03*
X134400000Y-32540000D03*
X64800000Y-32560000D03*
X34200000Y-31270000D03*
D13*
X141600000Y-30000000D03*
D11*
X121200000Y-30000000D03*
X120000000Y-32540000D03*
X61800000Y-33810000D03*
X76800000Y-30000000D03*
X66600000Y-33810000D03*
X97200000Y-32540000D03*
X141000000Y-33810000D03*
X133800000Y-33810000D03*
X75600000Y-30000000D03*
X54000000Y-32560000D03*
X109800000Y-33810000D03*
X33600000Y-32540000D03*
X142800000Y-30000000D03*
X52800000Y-30000000D03*
X129000000Y-33810000D03*
X63000000Y-33810000D03*
X40200000Y-33810000D03*
X131400000Y-31270000D03*
X48000000Y-30000000D03*
D13*
X137400000Y-31270000D03*
D11*
X129600000Y-32540000D03*
X83400000Y-31270000D03*
X130800000Y-30000000D03*
X139800000Y-31270000D03*
D13*
X133200000Y-30000000D03*
X148800000Y-30000000D03*
D11*
X102600000Y-33810000D03*
X67800000Y-33810000D03*
X118200000Y-33810000D03*
X55200000Y-32560000D03*
X32400000Y-32540000D03*
X45600000Y-30000000D03*
X112800000Y-32540000D03*
X141600000Y-32540000D03*
X86400000Y-32540000D03*
X114000000Y-30000000D03*
X51000000Y-33810000D03*
X93000000Y-31270000D03*
X96000000Y-30000000D03*
X99600000Y-30000000D03*
X146400000Y-30000000D03*
X124800000Y-32540000D03*
X85800000Y-31270000D03*
X130200000Y-31270000D03*
X104400000Y-30000000D03*
X80400000Y-32540000D03*
X120600000Y-31270000D03*
X129000000Y-31270000D03*
X42600000Y-33810000D03*
X94200000Y-33810000D03*
D13*
X144000000Y-30000000D03*
D11*
X102600000Y-31270000D03*
X125400000Y-31270000D03*
X127800000Y-31270000D03*
X140400000Y-32540000D03*
X34800000Y-32540000D03*
X85200000Y-30000000D03*
X69600000Y-30000000D03*
X123000000Y-31270000D03*
X147000000Y-31270000D03*
X51600000Y-30000000D03*
X52200000Y-33810000D03*
X146400000Y-32540000D03*
X40800000Y-30000000D03*
X42000000Y-30000000D03*
X133200000Y-32540000D03*
X94200000Y-31270000D03*
X110400000Y-30000000D03*
D13*
X148200000Y-33810000D03*
D11*
X147600000Y-32540000D03*
X124200000Y-31270000D03*
X122400000Y-32540000D03*
X54600000Y-33810000D03*
X117600000Y-32540000D03*
X143400000Y-31270000D03*
X43800000Y-31270000D03*
X70200000Y-31270000D03*
D13*
X139200000Y-32540000D03*
X147600000Y-32540000D03*
D11*
X94800000Y-32540000D03*
X135000000Y-33810000D03*
X116400000Y-32540000D03*
X85800000Y-33810000D03*
D13*
X91800000Y-31270000D03*
D11*
X112200000Y-33810000D03*
X37200000Y-32540000D03*
X78600000Y-33810000D03*
X84600000Y-31270000D03*
X53400000Y-31270000D03*
X103200000Y-30000000D03*
X138600000Y-31270000D03*
X105000000Y-31270000D03*
X142800000Y-32540000D03*
D13*
X148800000Y-32540000D03*
X136200000Y-31270000D03*
D11*
X71400000Y-31270000D03*
X58200000Y-33810000D03*
D13*
X135600000Y-30000000D03*
D11*
X123600000Y-30000000D03*
X149400000Y-33810000D03*
X59400000Y-31270000D03*
D13*
X141000000Y-33810000D03*
D11*
X47400000Y-33810000D03*
X115200000Y-32540000D03*
X61200000Y-30000000D03*
X65400000Y-33810000D03*
X76200000Y-33810000D03*
X114600000Y-33810000D03*
X111600000Y-32540000D03*
D13*
X141000000Y-31270000D03*
D11*
X59400000Y-33810000D03*
X139200000Y-30000000D03*
X57000000Y-31270000D03*
X127800000Y-33810000D03*
X67200000Y-30000000D03*
D13*
X149400000Y-33810000D03*
D11*
X33000000Y-33810000D03*
X79200000Y-30000000D03*
X99600000Y-32540000D03*
D13*
X144600000Y-33810000D03*
D11*
X144600000Y-31270000D03*
D13*
X135000000Y-31270000D03*
D11*
X54000000Y-30000000D03*
X138000000Y-32540000D03*
X144600000Y-33810000D03*
X36000000Y-32540000D03*
X36600000Y-31270000D03*
X79800000Y-33810000D03*
D13*
X145200000Y-30000000D03*
D11*
X75600000Y-32560000D03*
X66600000Y-31270000D03*
D13*
X144600000Y-31270000D03*
D11*
X58200000Y-31270000D03*
X72000000Y-30000000D03*
X131400000Y-33810000D03*
X67200000Y-32560000D03*
X106800000Y-32540000D03*
X55200000Y-30000000D03*
X148800000Y-30000000D03*
X108600000Y-31270000D03*
X45000000Y-31270000D03*
X114000000Y-32540000D03*
X142200000Y-33810000D03*
X136200000Y-31270000D03*
D13*
X135600000Y-32540000D03*
D11*
X96000000Y-32540000D03*
X65400000Y-31270000D03*
D13*
X139800000Y-33810000D03*
D11*
X100200000Y-33810000D03*
D13*
X139800000Y-31270000D03*
D11*
X100800000Y-32540000D03*
X77400000Y-31270000D03*
X51000000Y-31270000D03*
D13*
X138600000Y-33810000D03*
D11*
X139800000Y-33810000D03*
X77400000Y-33810000D03*
X126000000Y-32540000D03*
X107400000Y-31270000D03*
X135600000Y-30000000D03*
X118800000Y-32540000D03*
X46200000Y-33810000D03*
D13*
X130800000Y-32540000D03*
D11*
X39600000Y-32540000D03*
X60600000Y-31270000D03*
X121800000Y-33810000D03*
X56400000Y-30000000D03*
X69000000Y-31270000D03*
D13*
X138600000Y-31270000D03*
D11*
X52200000Y-31270000D03*
X93600000Y-30000000D03*
X83400000Y-33810000D03*
X105000000Y-33810000D03*
D13*
X138000000Y-32540000D03*
D11*
X51600000Y-32560000D03*
X119400000Y-31270000D03*
X55800000Y-31270000D03*
X148200000Y-33810000D03*
D13*
X133800000Y-31270000D03*
D11*
X140400000Y-30000000D03*
D13*
X139200000Y-30000000D03*
D11*
X100800000Y-30000000D03*
X145200000Y-32540000D03*
X98400000Y-30000000D03*
X69600000Y-32560000D03*
X119400000Y-33810000D03*
X35400000Y-31270000D03*
X80400000Y-30000000D03*
X122400000Y-30000000D03*
X136800000Y-32540000D03*
X102000000Y-32540000D03*
X75000000Y-33810000D03*
X112200000Y-31270000D03*
X31800000Y-31270000D03*
X106800000Y-30000000D03*
D13*
X145800000Y-31270000D03*
D11*
X130800000Y-32540000D03*
X128400000Y-32540000D03*
X49200000Y-30000000D03*
X117000000Y-31270000D03*
X76800000Y-32560000D03*
X61800000Y-31270000D03*
D13*
X136800000Y-30000000D03*
D11*
X44400000Y-30000000D03*
X104400000Y-32540000D03*
X91800000Y-31270000D03*
X108000000Y-30000000D03*
X31200000Y-30000000D03*
X63600000Y-30000000D03*
D13*
X132000000Y-32540000D03*
D11*
X137400000Y-33810000D03*
X144000000Y-30000000D03*
X136800000Y-30000000D03*
X37200000Y-30000000D03*
X66000000Y-32560000D03*
X109800000Y-31270000D03*
X81000000Y-31270000D03*
G04 #@! TO.N,GND*
X87600000Y-30000000D03*
D13*
G04 #@! TO.N,*
X145200000Y-32540000D03*
D11*
X103800000Y-33810000D03*
X39600000Y-30000000D03*
X42600000Y-31270000D03*
X117000000Y-33810000D03*
X95400000Y-33810000D03*
G04 #@! TO.N,REF*
X87600000Y-32540000D03*
G04 #@! TO.N,*
X63600000Y-32560000D03*
X127200000Y-30000000D03*
X99000000Y-31270000D03*
D13*
X142200000Y-33810000D03*
X143400000Y-33810000D03*
D11*
X73800000Y-31270000D03*
X112800000Y-30000000D03*
X126600000Y-31270000D03*
X50400000Y-32560000D03*
X126000000Y-30000000D03*
D13*
X146400000Y-30000000D03*
D11*
X79200000Y-32540000D03*
X84000000Y-32540000D03*
X45000000Y-33810000D03*
X121200000Y-32540000D03*
X46800000Y-32540000D03*
X40200000Y-31270000D03*
X103800000Y-31270000D03*
X35400000Y-33810000D03*
X116400000Y-30000000D03*
D13*
X142800000Y-30000000D03*
D11*
X144000000Y-32540000D03*
X86400000Y-30000000D03*
X141000000Y-31270000D03*
X38400000Y-30000000D03*
X73800000Y-33810000D03*
X78000000Y-32560000D03*
X55800000Y-33810000D03*
X100200000Y-31270000D03*
X44400000Y-32540000D03*
X149400000Y-31270000D03*
X76200000Y-31270000D03*
X147600000Y-30000000D03*
X108000000Y-32540000D03*
X53400000Y-33810000D03*
X132000000Y-30000000D03*
D13*
X130800000Y-30000000D03*
D11*
X34800000Y-30000000D03*
X126600000Y-33810000D03*
X43200000Y-32540000D03*
X133200000Y-30000000D03*
X43800000Y-33810000D03*
X87000000Y-31270000D03*
X33600000Y-30000000D03*
X97800000Y-31270000D03*
X107400000Y-33810000D03*
D12*
X133440000Y-27510000D03*
X109380000Y-36320000D03*
X38960000Y-29030000D03*
X76720000Y-29030000D03*
D13*
X83120000Y-34800000D03*
X62640000Y-34800000D03*
D12*
X132160000Y-27510000D03*
X35120000Y-29030000D03*
D13*
X65200000Y-34800000D03*
D12*
X70960000Y-29030000D03*
D13*
X63280000Y-34800000D03*
D12*
X122180000Y-36320000D03*
X142020000Y-36320000D03*
X121540000Y-36320000D03*
D13*
X67120000Y-34800000D03*
D12*
X111040000Y-27510000D03*
X140740000Y-36320000D03*
D13*
X81840000Y-34800000D03*
X67760000Y-34800000D03*
D12*
X40240000Y-29030000D03*
X31280000Y-29030000D03*
D13*
X85040000Y-34800000D03*
D12*
X52400000Y-29030000D03*
X92480000Y-27510000D03*
D13*
X42160000Y-34800000D03*
X46000000Y-34800000D03*
D12*
X54320000Y-29030000D03*
X69680000Y-29030000D03*
D13*
X40880000Y-34800000D03*
D12*
X149060000Y-36320000D03*
X59440000Y-29030000D03*
X112320000Y-27510000D03*
D13*
X38960000Y-34800000D03*
X47920000Y-34800000D03*
X63920000Y-34800000D03*
D12*
X147780000Y-36320000D03*
D13*
X60080000Y-34800000D03*
D12*
X101700000Y-36320000D03*
D13*
X66480000Y-34800000D03*
D12*
X112960000Y-27510000D03*
X56240000Y-29030000D03*
D13*
X85680000Y-34800000D03*
D12*
X31920000Y-29030000D03*
X145860000Y-36320000D03*
X118080000Y-27510000D03*
X70320000Y-29030000D03*
D13*
X47280000Y-34800000D03*
D12*
X127300000Y-36320000D03*
X137280000Y-27510000D03*
X108100000Y-36320000D03*
X53040000Y-29030000D03*
X34480000Y-29030000D03*
D13*
X80560000Y-34800000D03*
D12*
X53680000Y-29030000D03*
X36400000Y-29030000D03*
X130500000Y-36320000D03*
X72880000Y-29030000D03*
X75440000Y-29030000D03*
X98240000Y-27510000D03*
X71600000Y-29030000D03*
X32560000Y-29030000D03*
X39600000Y-29030000D03*
X78000000Y-29030000D03*
D13*
X81200000Y-34800000D03*
X78640000Y-34800000D03*
D12*
X58160000Y-29030000D03*
X124740000Y-36320000D03*
X106820000Y-36320000D03*
X106180000Y-36320000D03*
X111300000Y-36320000D03*
X104260000Y-36320000D03*
X35760000Y-29030000D03*
X143940000Y-36320000D03*
X33840000Y-29030000D03*
X129860000Y-36320000D03*
X125380000Y-36320000D03*
X55600000Y-29030000D03*
X142660000Y-36320000D03*
X108740000Y-36320000D03*
X99520000Y-27510000D03*
X144580000Y-36320000D03*
X117440000Y-27510000D03*
X145220000Y-36320000D03*
D13*
X82480000Y-34800000D03*
D12*
X132800000Y-27510000D03*
X115520000Y-27510000D03*
X76080000Y-29030000D03*
X126660000Y-36320000D03*
D13*
X79280000Y-34800000D03*
X79920000Y-34800000D03*
D12*
X105540000Y-36320000D03*
X110020000Y-36320000D03*
X95680000Y-27510000D03*
D13*
X64560000Y-34800000D03*
D12*
X128580000Y-36320000D03*
X113600000Y-27510000D03*
X94400000Y-27510000D03*
X30640000Y-29030000D03*
X118720000Y-27510000D03*
X126020000Y-36320000D03*
D13*
X65840000Y-34800000D03*
D12*
X134080000Y-27510000D03*
D13*
X58800000Y-34800000D03*
D12*
X93760000Y-27510000D03*
G04 #@! TO.N,REF*
X30000000Y-29030000D03*
G04 #@! TO.N,*
X91840000Y-27510000D03*
D13*
X42800000Y-34800000D03*
X43440000Y-34800000D03*
D12*
X129220000Y-36320000D03*
X51760000Y-29030000D03*
X147140000Y-36320000D03*
X134720000Y-27510000D03*
D13*
X78000000Y-34800000D03*
X41520000Y-34800000D03*
D12*
X72240000Y-29030000D03*
X102980000Y-36320000D03*
X33200000Y-29030000D03*
D13*
X77360000Y-34800000D03*
D12*
X37680000Y-29030000D03*
D13*
X59440000Y-34800000D03*
D12*
X51120000Y-29030000D03*
X50480000Y-29030000D03*
D13*
X44080000Y-34800000D03*
D12*
X93120000Y-27510000D03*
X148420000Y-36320000D03*
X57520000Y-29030000D03*
X104900000Y-36320000D03*
X56880000Y-29030000D03*
X96320000Y-27510000D03*
X101440000Y-27510000D03*
X107460000Y-36320000D03*
X127940000Y-36320000D03*
X37040000Y-29030000D03*
X130880000Y-27510000D03*
X124100000Y-36320000D03*
X100160000Y-27510000D03*
X98880000Y-27510000D03*
X69040000Y-29030000D03*
X146500000Y-36320000D03*
D13*
X86960000Y-34800000D03*
D12*
X49840000Y-29030000D03*
X111680000Y-27510000D03*
D13*
X61360000Y-34800000D03*
D12*
X140100000Y-36320000D03*
X130240000Y-27510000D03*
X95040000Y-27510000D03*
X131520000Y-27510000D03*
D13*
X58160000Y-34800000D03*
X40240000Y-34800000D03*
X83760000Y-34800000D03*
D12*
X97600000Y-27510000D03*
X141380000Y-36320000D03*
X139200000Y-27510000D03*
X54960000Y-29030000D03*
X78640000Y-29030000D03*
D13*
X44720000Y-34800000D03*
D12*
X119360000Y-27510000D03*
X73520000Y-29030000D03*
X136640000Y-27510000D03*
X136000000Y-27510000D03*
D13*
X62000000Y-34800000D03*
D12*
X77360000Y-29030000D03*
X120900000Y-36320000D03*
X96960000Y-27510000D03*
X137920000Y-27510000D03*
X74160000Y-29030000D03*
X116800000Y-27510000D03*
X100800000Y-27510000D03*
X114880000Y-27510000D03*
D13*
X48560000Y-34800000D03*
X60720000Y-34800000D03*
D12*
X122820000Y-36320000D03*
X120000000Y-27510000D03*
X143300000Y-36320000D03*
X102340000Y-36320000D03*
D13*
X86320000Y-34800000D03*
D12*
X138560000Y-27510000D03*
D13*
X39600000Y-34800000D03*
D12*
X38320000Y-29030000D03*
X116160000Y-27510000D03*
D13*
X45360000Y-34800000D03*
X46640000Y-34800000D03*
D12*
X110660000Y-36320000D03*
X103620000Y-36320000D03*
X114240000Y-27510000D03*
X139840000Y-27510000D03*
X123460000Y-36320000D03*
X149700000Y-36320000D03*
X135360000Y-27510000D03*
X120640000Y-27510000D03*
X74800000Y-29030000D03*
X58800000Y-29030000D03*
D13*
X84400000Y-34800000D03*
D12*
G04 #@! TO.N,REF*
X40880000Y-27510000D03*
G04 #@! TO.N,GND*
X30000000Y-27510000D03*
X40880000Y-29030000D03*
D10*
X108150000Y-37500000D03*
X122100000Y-28050000D03*
X89700000Y-34800000D03*
X61800000Y-29250000D03*
X54000000Y-34500000D03*
X41550000Y-26550000D03*
X88500000Y-29250000D03*
X145800000Y-29250000D03*
X36750000Y-26400000D03*
X50400000Y-34500000D03*
X49200000Y-37500000D03*
X48450000Y-26700000D03*
X104550000Y-37500000D03*
X31200000Y-34500000D03*
X139500000Y-26250000D03*
X126150000Y-37500000D03*
X81300000Y-37500000D03*
X147000000Y-29250000D03*
X46200000Y-29100000D03*
X45600000Y-37500000D03*
X126600000Y-29250000D03*
X115500000Y-26250000D03*
X49500000Y-26400000D03*
X96000000Y-26250000D03*
X99600000Y-26250000D03*
X55200000Y-34500000D03*
X77700000Y-37500000D03*
X148200000Y-37500000D03*
X102900000Y-29100000D03*
X105000000Y-29100000D03*
X117900000Y-26250000D03*
X123000000Y-29250000D03*
X56700000Y-26400000D03*
X132300000Y-26250000D03*
X102150000Y-37500000D03*
X40800000Y-37500000D03*
X100800000Y-26250000D03*
X39600000Y-37500000D03*
X78150000Y-26400000D03*
X64200000Y-29250000D03*
X74550000Y-26400000D03*
X74400000Y-34500000D03*
X144600000Y-37500000D03*
X127350000Y-37500000D03*
X33150000Y-26400000D03*
X112800000Y-36900000D03*
X75750000Y-26400000D03*
X137100000Y-26250000D03*
X38400000Y-37500000D03*
X133200000Y-34650000D03*
X67050000Y-37500000D03*
X120300000Y-26250000D03*
X93600000Y-26250000D03*
X132000000Y-37050000D03*
X90300000Y-27150000D03*
X75750000Y-35550000D03*
X149700000Y-29550000D03*
X55500000Y-26400000D03*
X110550000Y-37500000D03*
X122087437Y-29218591D03*
X57900000Y-26400000D03*
X131100000Y-26250000D03*
X108600000Y-29100000D03*
X118800000Y-34500000D03*
X97200000Y-34500000D03*
X121500000Y-26250000D03*
X85800000Y-29250000D03*
X29400000Y-31270000D03*
X143400000Y-37500000D03*
X138750000Y-37500000D03*
X76500000Y-37500000D03*
X135900506Y-26246216D03*
X39150000Y-26400000D03*
X141300000Y-29250000D03*
X91050000Y-34500000D03*
X46800000Y-37500000D03*
X114000000Y-34500000D03*
X68550000Y-26400000D03*
X63450000Y-37500000D03*
X124200000Y-29250000D03*
X29100000Y-28800000D03*
X69750000Y-26400000D03*
X83700000Y-37500000D03*
X94800000Y-34500000D03*
X119100000Y-26250000D03*
X88580000Y-31100000D03*
X80100000Y-28500000D03*
X140700000Y-26250000D03*
X116400000Y-34500000D03*
X117600000Y-34500000D03*
X62250000Y-37500000D03*
X129750000Y-37500000D03*
X75600000Y-34500000D03*
X45000000Y-29100000D03*
X97200000Y-26250000D03*
X150150000Y-30600000D03*
X30000000Y-32560000D03*
X150150000Y-33000000D03*
X30750000Y-26400000D03*
X124950000Y-37500000D03*
X142350000Y-29250000D03*
X90448131Y-30730936D03*
X50700000Y-26400000D03*
X36000000Y-34500000D03*
X110700000Y-26250000D03*
X54300000Y-26400000D03*
X83400000Y-29250000D03*
X138000000Y-34650000D03*
X132000000Y-34650000D03*
X88500000Y-35550000D03*
X33600000Y-34500000D03*
X102900000Y-27750000D03*
X98400000Y-34500000D03*
X82200000Y-29250000D03*
X150150739Y-31800000D03*
X100200000Y-35550000D03*
X144600000Y-29250000D03*
X109350000Y-37500000D03*
X58650000Y-37500000D03*
X125400000Y-29250000D03*
X119400000Y-35400000D03*
X88500000Y-36900000D03*
X106200000Y-29100000D03*
X52800000Y-34500000D03*
X142200000Y-37500000D03*
X34800000Y-34500000D03*
X129900000Y-26250000D03*
X29400000Y-33810000D03*
X48000000Y-37500000D03*
X115200000Y-34500000D03*
X69300000Y-36750000D03*
X80100000Y-37500000D03*
X37500000Y-35700000D03*
X121350000Y-37500000D03*
X56550000Y-35550000D03*
X141300000Y-28200000D03*
X72000000Y-34500000D03*
X59850000Y-37500000D03*
X96000000Y-34500000D03*
X90300000Y-28500000D03*
X109650000Y-27900000D03*
X53100000Y-26400000D03*
X72150000Y-26400000D03*
X76950000Y-26400000D03*
X111750000Y-37500000D03*
X79350000Y-26400000D03*
X103950000Y-29100000D03*
X145800000Y-37500000D03*
X84600000Y-29250000D03*
X103350000Y-37500000D03*
X89700000Y-29700000D03*
X32390780Y-34512295D03*
X61050000Y-37500000D03*
X29550000Y-26400000D03*
X70950000Y-26400000D03*
X138300000Y-26250000D03*
X65850000Y-37500000D03*
X114300000Y-26250000D03*
X151200000Y-36300000D03*
X141000000Y-37500000D03*
X93600000Y-34500000D03*
X130950000Y-37500000D03*
X65400000Y-29250000D03*
X84900000Y-37500000D03*
X31950000Y-26400000D03*
X109650000Y-26700000D03*
X134700000Y-26250000D03*
X128850000Y-26850000D03*
X127800000Y-29250000D03*
X48450000Y-27900000D03*
X42600000Y-29100000D03*
X107400000Y-29100000D03*
X122550000Y-37500000D03*
X92400000Y-26250000D03*
X87300000Y-37500000D03*
X51900000Y-26400000D03*
X50100000Y-36750000D03*
X44400000Y-37500000D03*
X51600000Y-34500000D03*
X105750000Y-37500000D03*
X69600000Y-34500000D03*
X106950000Y-37500000D03*
X73200000Y-34500000D03*
X138600000Y-35400000D03*
X82500000Y-37500000D03*
X87000000Y-29250000D03*
X150600000Y-37500000D03*
X135600000Y-34650000D03*
X149400000Y-37500000D03*
X43800000Y-29100000D03*
X91200000Y-26250000D03*
X68250000Y-37500000D03*
X120150000Y-37500000D03*
X59100000Y-26400000D03*
X66600000Y-29250000D03*
X136800000Y-34650000D03*
X148200000Y-29250000D03*
X147000000Y-37500000D03*
X139800000Y-37500000D03*
X56400000Y-34500000D03*
X94800000Y-26250000D03*
X37200000Y-34500000D03*
X42000000Y-37500000D03*
X128850000Y-28050000D03*
X128550000Y-37500000D03*
X63000000Y-29250000D03*
X40350000Y-26400000D03*
X60900000Y-28200000D03*
X41700000Y-29100000D03*
X98400000Y-26250000D03*
X30140259Y-34514935D03*
X81000000Y-29250000D03*
X100950000Y-37500000D03*
X123750000Y-37500000D03*
X133500000Y-26250000D03*
X34350000Y-26400000D03*
X43200000Y-37500000D03*
X64650000Y-37500000D03*
X112800000Y-34500000D03*
X102000000Y-26250000D03*
X35550000Y-26400000D03*
X70800000Y-34500000D03*
X143400000Y-29250000D03*
X111900000Y-26250000D03*
X86100000Y-37500000D03*
X116700000Y-26250000D03*
X113100000Y-26250000D03*
X47400000Y-29100000D03*
X60900000Y-29175000D03*
X73350000Y-26400000D03*
X78900000Y-37500000D03*
X99600000Y-34500000D03*
X37950000Y-26400000D03*
X134400000Y-34650000D03*
X67650000Y-27000000D03*
X92400000Y-34500000D03*
G04 #@! TD*
D14*
G04 #@! TO.N,*
X34990000Y-32350000D02*
X34990000Y-31029400D01*
X35220000Y-30799400D02*
X35220000Y-29130000D01*
X48800000Y-32730000D02*
X49010000Y-32940000D01*
X92400000Y-30000000D02*
X92160000Y-29760000D01*
X146400000Y-34060000D02*
X146190000Y-34270000D01*
X108600000Y-33810000D02*
X108420000Y-33990000D01*
X128270000Y-32670000D02*
X128270000Y-36010000D01*
X67750000Y-33000000D02*
X67390000Y-33360000D01*
X64130000Y-32990000D02*
X63780000Y-33340000D01*
X39430000Y-30997600D02*
X39150000Y-30717600D01*
X58200000Y-31840000D02*
X58600000Y-31440000D01*
X35400000Y-32163200D02*
X35810000Y-31753200D01*
X112000000Y-27830000D02*
X111680000Y-27510000D01*
X144900000Y-34260000D02*
X144900000Y-36000000D01*
X55000000Y-31440000D02*
X55000000Y-31100000D01*
X52600000Y-31110000D02*
X52400000Y-30910000D01*
X44400000Y-30000000D02*
X44400000Y-32000000D01*
X77350000Y-29040000D02*
X77360000Y-29030000D01*
X59600000Y-32370000D02*
X59600000Y-32770000D01*
X116480000Y-27830000D02*
X116160000Y-27510000D01*
X53400000Y-31860000D02*
X53830000Y-31430000D01*
X124430000Y-36010000D02*
X124740000Y-36320000D01*
X64800000Y-31970000D02*
X64390000Y-32380000D01*
X44210000Y-32940000D02*
X44210000Y-34030000D01*
X39000000Y-33810000D02*
X39000000Y-32027800D01*
X78000000Y-32560000D02*
X78000000Y-30680000D01*
X70940000Y-30430000D02*
X71200000Y-30170000D01*
X49800000Y-33810000D02*
X49800000Y-31840000D01*
X107140000Y-36000000D02*
X107460000Y-36320000D01*
X98560000Y-29840000D02*
X98560000Y-27830000D01*
X130200000Y-33810000D02*
X130180000Y-33830000D01*
X109710000Y-36010000D02*
X110020000Y-36320000D01*
X129540000Y-32600000D02*
X129540000Y-36000000D01*
X30600000Y-33810000D02*
X30600000Y-32151900D01*
X58980000Y-34800000D02*
X58800000Y-34800000D01*
X95360000Y-31230000D02*
X95360000Y-27830000D01*
X54390000Y-30180000D02*
X54390000Y-29100000D01*
X53400000Y-33810000D02*
X53400000Y-31860000D01*
X147470000Y-36010000D02*
X147780000Y-36320000D01*
X61200000Y-30000000D02*
X61200000Y-31950000D01*
X75200000Y-29270000D02*
X75440000Y-29030000D01*
X85800000Y-31250000D02*
X85740000Y-31310000D01*
X63780000Y-33340000D02*
X63780000Y-34300000D01*
X138880000Y-29610000D02*
X138880000Y-27830000D01*
X44590000Y-34290000D02*
X44080000Y-34800000D01*
X130180000Y-36000000D02*
X130500000Y-36320000D01*
X84180000Y-34380000D02*
X83760000Y-34800000D01*
X53830000Y-31120000D02*
X53680000Y-30970000D01*
X51760000Y-29590000D02*
X51760000Y-29030000D01*
X56880000Y-30080000D02*
X56880000Y-29030000D01*
X120600000Y-29980000D02*
X120970000Y-29610000D01*
X141060000Y-34350000D02*
X141060000Y-36000000D01*
X80650000Y-34800000D02*
X80560000Y-34800000D01*
X95400000Y-31270000D02*
X95360000Y-31230000D01*
X145150000Y-32590000D02*
X145150000Y-34010000D01*
X70800000Y-32560000D02*
X70940000Y-32420000D01*
X82380000Y-32720000D02*
X82620000Y-32960000D01*
X105860000Y-36000000D02*
X106180000Y-36320000D01*
X44940000Y-33290000D02*
X44590000Y-33640000D01*
X42540000Y-31330000D02*
X42540000Y-33300000D01*
X69990000Y-30170000D02*
X69990000Y-29830000D01*
X78800000Y-32370000D02*
X78800000Y-32770000D01*
X116480000Y-29920000D02*
X116480000Y-27830000D01*
X78640000Y-30040000D02*
X78640000Y-29030000D01*
X128910000Y-36010000D02*
X129220000Y-36320000D01*
X109200000Y-32540000D02*
X109070000Y-32670000D01*
X138880000Y-27830000D02*
X138560000Y-27510000D01*
X80400000Y-30000000D02*
X80400000Y-31950000D01*
X144000000Y-32540000D02*
X143950000Y-32590000D01*
X130560000Y-27830000D02*
X130240000Y-27510000D01*
X105860000Y-34150000D02*
X105860000Y-36000000D01*
X65340000Y-31310000D02*
X65340000Y-33000000D01*
X107790000Y-34270000D02*
X107790000Y-36010000D01*
X92160000Y-29760000D02*
X92160000Y-27830000D01*
X83820000Y-34010000D02*
X83120000Y-34710000D01*
X42800000Y-32730000D02*
X43020000Y-32950000D01*
X130800000Y-30000000D02*
X130560000Y-29760000D01*
X81790000Y-34210000D02*
X81200000Y-34800000D01*
X118400000Y-31070000D02*
X118400000Y-27830000D01*
X49010000Y-32940000D02*
X49010000Y-34350000D01*
X35220000Y-29130000D02*
X35120000Y-29030000D01*
X129000000Y-33810000D02*
X128910000Y-33900000D01*
X85110000Y-34010000D02*
X84400000Y-34720000D01*
X117000000Y-31270000D02*
X117120000Y-31150000D01*
X64390000Y-32730000D02*
X64620000Y-32960000D01*
X81520000Y-33080000D02*
X81520000Y-33930000D01*
X45790000Y-34370000D02*
X45360000Y-34800000D01*
X107140000Y-34070000D02*
X107140000Y-36000000D01*
X38230000Y-32016700D02*
X38230000Y-31042600D01*
X71200000Y-30170000D02*
X71200000Y-29830000D01*
X103940000Y-34310000D02*
X103940000Y-36000000D01*
X139800000Y-29980000D02*
X140170000Y-29610000D01*
X121220000Y-36000000D02*
X121540000Y-36320000D01*
X148110000Y-36010000D02*
X148420000Y-36320000D01*
X82620000Y-33990000D02*
X81840000Y-34770000D01*
X121200000Y-32540000D02*
X121200000Y-33880000D01*
X49200000Y-31990000D02*
X48800000Y-32390000D01*
X64200000Y-31250000D02*
X64130000Y-31320000D01*
X41340000Y-33290000D02*
X40990000Y-33640000D01*
X34610000Y-30546500D02*
X34370000Y-30306500D01*
X141700000Y-36000000D02*
X142020000Y-36320000D01*
X42000000Y-31980000D02*
X41590000Y-32390000D01*
X60150000Y-34100000D02*
X59450000Y-34800000D01*
X50560000Y-32400000D02*
X50560000Y-30400000D01*
X52800000Y-32560000D02*
X52920000Y-32440000D01*
X74200000Y-31440000D02*
X74200000Y-31100000D01*
X31330000Y-30771100D02*
X31710000Y-30391100D01*
X114560000Y-31230000D02*
X114560000Y-27830000D01*
X101470000Y-34230000D02*
X101370000Y-34330000D01*
X131200000Y-31070000D02*
X131200000Y-27830000D01*
X69400000Y-31110000D02*
X69040000Y-30750000D01*
X126600000Y-33810000D02*
X126340000Y-34070000D01*
X120570000Y-35990000D02*
X120900000Y-36320000D01*
X47400000Y-31270000D02*
X47350000Y-31320000D01*
X53680000Y-30970000D02*
X53680000Y-29030000D01*
X80580000Y-33340000D02*
X80580000Y-34140000D01*
X31280000Y-29418300D02*
X31280000Y-29030000D01*
X37800000Y-32446700D02*
X38230000Y-32016700D01*
X93600000Y-30000000D02*
X93450000Y-29850000D01*
X64130000Y-31320000D02*
X64130000Y-32990000D01*
X59600000Y-32770000D02*
X59810000Y-32980000D01*
X39790000Y-32350000D02*
X39790000Y-31076900D01*
X62320000Y-33930000D02*
X61450000Y-34800000D01*
X66000000Y-30000000D02*
X66000000Y-31980000D01*
X72400000Y-29190000D02*
X72240000Y-29030000D01*
X85390000Y-33390000D02*
X85390000Y-34450000D01*
X70610000Y-31130000D02*
X70320000Y-30840000D01*
X143630000Y-34280000D02*
X143630000Y-36010000D01*
X64620000Y-32960000D02*
X64620000Y-34010000D01*
X92160000Y-27830000D02*
X91840000Y-27510000D01*
X33750000Y-32390000D02*
X33750000Y-30481100D01*
X97920000Y-31150000D02*
X97920000Y-27830000D01*
X51000000Y-31840000D02*
X51410000Y-31430000D01*
X41520000Y-34700000D02*
X41520000Y-34800000D01*
X79200000Y-30000000D02*
X79200000Y-31970000D01*
X50790000Y-29830000D02*
X50480000Y-29520000D01*
X43390000Y-33650000D02*
X43390000Y-34010000D01*
X61070000Y-33930000D02*
X60200000Y-34800000D01*
X119680000Y-29610000D02*
X119680000Y-27830000D01*
X77400000Y-31840000D02*
X77800000Y-31440000D01*
X63600000Y-30000000D02*
X63600000Y-31970000D01*
X57000000Y-33810000D02*
X57000000Y-31850000D01*
X126340000Y-34070000D02*
X126340000Y-36000000D01*
X47000000Y-34440000D02*
X46640000Y-34800000D01*
X139770000Y-34330000D02*
X139770000Y-35990000D01*
X75400000Y-31440000D02*
X75400000Y-31100000D01*
X67010000Y-32960000D02*
X67010000Y-34180000D01*
X145800000Y-33810000D02*
X145540000Y-34070000D01*
X84000000Y-30000000D02*
X84000000Y-31970000D01*
X140170000Y-27840000D02*
X139840000Y-27510000D01*
X46600000Y-32930000D02*
X46600000Y-34200000D01*
X97280000Y-29920000D02*
X97280000Y-27830000D01*
X82980000Y-34300000D02*
X82480000Y-34800000D01*
X48550000Y-31320000D02*
X48550000Y-33280000D01*
X60200000Y-34800000D02*
X60080000Y-34800000D01*
X136200000Y-31270000D02*
X136320000Y-31150000D01*
X69680000Y-29520000D02*
X69680000Y-29030000D01*
X92800000Y-31070000D02*
X92800000Y-27830000D01*
X31710000Y-29848300D02*
X31280000Y-29418300D01*
X139870000Y-34230000D02*
X139770000Y-34330000D01*
X69000000Y-31840000D02*
X69400000Y-31440000D01*
X146400000Y-32540000D02*
X146400000Y-34060000D01*
X61740000Y-32980000D02*
X61380000Y-33340000D01*
X57400000Y-31120000D02*
X57190000Y-30910000D01*
X65580000Y-32400000D02*
X65580000Y-32730000D01*
X115840000Y-31230000D02*
X115840000Y-27830000D01*
X40400000Y-32730000D02*
X40640000Y-32970000D01*
X146820000Y-36000000D02*
X147140000Y-36320000D01*
X144260000Y-34150000D02*
X144260000Y-36000000D01*
X54600000Y-31840000D02*
X55000000Y-31440000D01*
X117120000Y-27830000D02*
X116800000Y-27510000D01*
X126990000Y-36010000D02*
X127300000Y-36320000D01*
X63000000Y-31250000D02*
X62930000Y-31320000D01*
X125400000Y-33810000D02*
X125060000Y-34150000D01*
X73590000Y-30180000D02*
X73590000Y-29100000D01*
X135040000Y-31230000D02*
X135040000Y-27830000D01*
X120570000Y-34330000D02*
X120570000Y-35990000D01*
X63600000Y-31970000D02*
X63180000Y-32390000D01*
X126000000Y-32540000D02*
X125950000Y-32590000D01*
X132600000Y-31270000D02*
X132490000Y-31160000D01*
X148200000Y-33810000D02*
X148110000Y-33900000D01*
X69600000Y-32560000D02*
X69760000Y-32400000D01*
X69760000Y-32400000D02*
X69760000Y-30400000D01*
X119680000Y-27830000D02*
X119360000Y-27510000D01*
X80940000Y-31310000D02*
X80940000Y-32980000D01*
X64390000Y-32380000D02*
X64390000Y-32730000D01*
X56200000Y-31440000D02*
X56200000Y-31100000D01*
X118200000Y-31270000D02*
X118400000Y-31070000D01*
X48000000Y-31980000D02*
X47590000Y-32390000D01*
X123140000Y-36000000D02*
X123460000Y-36320000D01*
X127800000Y-33810000D02*
X127620000Y-33990000D01*
X145540000Y-34070000D02*
X145540000Y-36000000D01*
X74400000Y-30580000D02*
X74800000Y-30180000D01*
X39600000Y-32540000D02*
X39790000Y-32350000D01*
X121740000Y-33810000D02*
X121220000Y-34330000D01*
X84540000Y-31310000D02*
X84540000Y-33000000D01*
X69760000Y-30400000D02*
X69990000Y-30170000D01*
X41840000Y-32970000D02*
X41840000Y-33950000D01*
X99600000Y-30000000D02*
X99850000Y-29750000D01*
X77400000Y-33810000D02*
X77400000Y-31840000D01*
X50200000Y-31110000D02*
X49840000Y-30750000D01*
X129540000Y-36000000D02*
X129860000Y-36320000D01*
X75600000Y-30560000D02*
X76080000Y-30080000D01*
X37390000Y-32350000D02*
X37390000Y-31094800D01*
X52000000Y-29830000D02*
X51760000Y-29590000D01*
X38530000Y-31146400D02*
X38960000Y-30716400D01*
X63180000Y-32720000D02*
X63420000Y-32960000D01*
X44210000Y-34030000D02*
X43440000Y-34800000D01*
X73400000Y-32360000D02*
X73400000Y-30370000D01*
X146190000Y-36010000D02*
X146500000Y-36320000D01*
X32820000Y-29738300D02*
X32560000Y-29478300D01*
X142800000Y-33850000D02*
X142340000Y-34310000D01*
X141700000Y-34310000D02*
X141700000Y-36000000D01*
X86210000Y-32960000D02*
X86210000Y-34180000D01*
X79200000Y-31970000D02*
X78800000Y-32370000D01*
X72000000Y-32560000D02*
X72120000Y-32440000D01*
X81520000Y-33930000D02*
X80650000Y-34800000D01*
X35580000Y-30263200D02*
X35580000Y-29210000D01*
X122400000Y-33810000D02*
X121860000Y-34350000D01*
X105600000Y-32540000D02*
X105550000Y-32590000D01*
X33140000Y-29090000D02*
X33200000Y-29030000D01*
X86590000Y-34530000D02*
X86320000Y-34800000D01*
X98560000Y-27830000D02*
X98240000Y-27510000D01*
X102020000Y-36000000D02*
X102340000Y-36320000D01*
X64980000Y-33360000D02*
X64980000Y-34380000D01*
X70610000Y-31430000D02*
X70610000Y-31130000D01*
X57400000Y-31450000D02*
X57400000Y-31120000D01*
X85740000Y-33040000D02*
X85390000Y-33390000D01*
X138600000Y-31270000D02*
X138600000Y-29890000D01*
X124430000Y-34280000D02*
X124430000Y-36010000D01*
X45190000Y-32390000D02*
X45190000Y-32730000D01*
X116400000Y-30000000D02*
X116480000Y-29920000D01*
X51740000Y-32420000D02*
X51740000Y-30430000D01*
X85390000Y-34450000D02*
X85040000Y-34800000D01*
X93450000Y-27840000D02*
X93120000Y-27510000D01*
X135680000Y-29920000D02*
X135680000Y-27830000D01*
X79750000Y-33090000D02*
X79350000Y-33490000D01*
X39600000Y-29381800D02*
X39600000Y-29030000D01*
X132490000Y-31160000D02*
X132490000Y-27840000D01*
X57000000Y-31850000D02*
X57400000Y-31450000D01*
X54390000Y-29100000D02*
X54320000Y-29030000D01*
X33000000Y-32250800D02*
X33450000Y-31800800D01*
X54780000Y-29210000D02*
X54960000Y-29030000D01*
X122400000Y-32540000D02*
X122400000Y-33810000D01*
X33750000Y-30481100D02*
X34010000Y-30221100D01*
X32300000Y-30645100D02*
X31920000Y-30265100D01*
X45400000Y-32940000D02*
X45400000Y-34120000D01*
X60550000Y-33090000D02*
X60150000Y-33490000D01*
X72600000Y-33810000D02*
X72600000Y-31860000D01*
X119400000Y-29890000D02*
X119680000Y-29610000D01*
X76990000Y-30420000D02*
X77350000Y-30060000D01*
X106750000Y-32590000D02*
X106750000Y-34010000D01*
X47350000Y-31320000D02*
X47350000Y-33290000D01*
X38000000Y-30812600D02*
X38000000Y-29705300D01*
X51600000Y-32560000D02*
X51740000Y-32420000D01*
X39790000Y-34800000D02*
X39600000Y-34800000D01*
X39790000Y-31076900D02*
X40240000Y-30626900D01*
X130200000Y-33810000D02*
X130180000Y-33830000D01*
X77350000Y-30060000D02*
X77350000Y-29040000D01*
X132490000Y-27840000D02*
X132160000Y-27510000D01*
X67990000Y-32730000D02*
X68210000Y-32950000D01*
X45000000Y-31270000D02*
X44940000Y-31330000D01*
X79010000Y-32980000D02*
X79010000Y-33970000D01*
X65200000Y-34720000D02*
X65200000Y-34800000D01*
X66600000Y-31250000D02*
X66540000Y-31310000D01*
X138250000Y-27840000D02*
X137920000Y-27510000D01*
X82800000Y-30000000D02*
X82800000Y-31970000D01*
X85740000Y-31310000D02*
X85740000Y-33040000D01*
X100480000Y-29610000D02*
X100480000Y-27830000D01*
X76990000Y-32370000D02*
X76990000Y-30420000D01*
X37200000Y-32540000D02*
X37390000Y-32350000D01*
X49800000Y-31840000D02*
X50200000Y-31440000D01*
X73800000Y-33810000D02*
X73800000Y-31840000D01*
X96600000Y-31270000D02*
X96640000Y-31230000D01*
X97920000Y-27830000D02*
X97600000Y-27510000D01*
X136320000Y-27830000D02*
X136000000Y-27510000D01*
X108000000Y-32540000D02*
X108000000Y-34060000D01*
X33000000Y-33810000D02*
X33000000Y-32250800D01*
X86960000Y-36320000D02*
X89470000Y-33810000D01*
X62590000Y-33320000D02*
X62590000Y-34210000D01*
X31110000Y-30784800D02*
X30640000Y-30314800D01*
X128400000Y-32540000D02*
X128270000Y-32670000D01*
X60000000Y-30000000D02*
X60000000Y-31970000D01*
X112650000Y-29850000D02*
X112650000Y-27840000D01*
X33450000Y-30693200D02*
X33140000Y-30383200D01*
X58800000Y-32560000D02*
X58800000Y-30680000D01*
X52200000Y-33810000D02*
X52200000Y-31840000D01*
X130560000Y-29760000D02*
X130560000Y-27830000D01*
X41400000Y-31270000D02*
X41340000Y-31330000D01*
X68400000Y-30000000D02*
X68400000Y-31980000D01*
X45190000Y-32730000D02*
X45400000Y-32940000D01*
X83590000Y-32380000D02*
X83590000Y-32730000D01*
X138250000Y-29750000D02*
X138250000Y-27840000D01*
X35810000Y-31753200D02*
X35810000Y-30493200D01*
X136960000Y-29840000D02*
X136960000Y-27830000D01*
X34010000Y-29200000D02*
X33840000Y-29030000D01*
X120000000Y-30000000D02*
X120320000Y-29680000D01*
X59440000Y-30040000D02*
X59440000Y-29030000D01*
X49840000Y-30750000D02*
X49840000Y-29030000D01*
X32580000Y-32360000D02*
X32580000Y-30444900D01*
X70960000Y-29590000D02*
X70960000Y-29030000D01*
X148740000Y-36000000D02*
X149060000Y-36320000D01*
X139520000Y-29680000D02*
X139520000Y-27830000D01*
X145540000Y-36000000D02*
X145860000Y-36320000D01*
X66780000Y-32390000D02*
X66780000Y-32730000D01*
X57600000Y-32560000D02*
X57790000Y-32370000D01*
X38530000Y-32410000D02*
X38530000Y-31146400D01*
X52920000Y-30450000D02*
X53200000Y-30170000D01*
X125060000Y-36000000D02*
X125380000Y-36320000D01*
X41340000Y-31330000D02*
X41340000Y-33290000D01*
X36600000Y-32228100D02*
X37010000Y-31818100D01*
X47820000Y-34260000D02*
X47280000Y-34800000D01*
X55200000Y-32560000D02*
X55200000Y-30580000D01*
X125950000Y-32590000D02*
X125950000Y-34010000D01*
X40990000Y-34800000D02*
X40880000Y-34800000D01*
X123140000Y-34310000D02*
X123140000Y-36000000D01*
X34610000Y-31756500D02*
X34610000Y-30546500D01*
X79400000Y-34800000D02*
X79280000Y-34800000D01*
X50200000Y-31440000D02*
X50200000Y-31110000D01*
X107400000Y-33810000D02*
X107140000Y-34070000D01*
X121860000Y-36000000D02*
X122180000Y-36320000D01*
X99200000Y-27830000D02*
X98880000Y-27510000D01*
X56000000Y-29270000D02*
X56240000Y-29030000D01*
X99000000Y-31270000D02*
X99200000Y-31070000D01*
X110340000Y-32600000D02*
X110340000Y-36000000D01*
X109070000Y-36010000D02*
X109380000Y-36320000D01*
X61380000Y-33340000D02*
X61380000Y-34140000D01*
X119050000Y-29750000D02*
X119050000Y-27840000D01*
X34370000Y-29140000D02*
X34480000Y-29030000D01*
X66000000Y-31980000D02*
X65580000Y-32400000D01*
X31800000Y-32026800D02*
X32300000Y-31526800D01*
X48190000Y-34530000D02*
X47920000Y-34800000D01*
X62930000Y-32980000D02*
X62590000Y-33320000D01*
X58200000Y-33810000D02*
X58200000Y-31840000D01*
X123600000Y-33850000D02*
X123140000Y-34310000D01*
X58390000Y-29440000D02*
X58800000Y-29030000D01*
X115800000Y-31270000D02*
X115840000Y-31230000D01*
X101370000Y-34330000D02*
X101370000Y-35990000D01*
X40800000Y-31990000D02*
X40400000Y-32390000D01*
X113920000Y-29920000D02*
X113920000Y-27830000D01*
X120970000Y-27840000D02*
X120640000Y-27510000D01*
X72600000Y-31860000D02*
X73030000Y-31430000D01*
X94090000Y-31160000D02*
X94090000Y-27840000D01*
X86400000Y-31970000D02*
X85980000Y-32390000D01*
X113400000Y-31270000D02*
X113290000Y-31160000D01*
X32820000Y-30204900D02*
X32820000Y-29738300D01*
X75000000Y-33810000D02*
X75000000Y-31840000D01*
X76080000Y-30080000D02*
X76080000Y-29030000D01*
X72120000Y-32440000D02*
X72120000Y-30450000D01*
X83330000Y-31320000D02*
X83330000Y-32990000D01*
X73400000Y-30370000D02*
X73590000Y-30180000D01*
X84600000Y-31250000D02*
X84540000Y-31310000D01*
X71800000Y-31110000D02*
X71600000Y-30910000D01*
X125700000Y-34260000D02*
X125700000Y-36000000D01*
X84000000Y-31970000D02*
X83590000Y-32380000D01*
X36400000Y-30844000D02*
X36400000Y-29030000D01*
X62590000Y-34210000D02*
X62000000Y-34800000D01*
X104400000Y-33850000D02*
X103940000Y-34310000D01*
X94720000Y-29920000D02*
X94720000Y-27830000D01*
X128270000Y-36010000D02*
X128580000Y-36320000D01*
X86590000Y-33360000D02*
X86590000Y-34530000D01*
X117600000Y-30000000D02*
X117760000Y-29840000D01*
X40640000Y-32970000D02*
X40640000Y-33950000D01*
X140400000Y-33880000D02*
X140050000Y-34230000D01*
X138600000Y-29890000D02*
X138880000Y-29610000D01*
X32580000Y-30444900D02*
X32820000Y-30204900D01*
X87000000Y-31250000D02*
X86950000Y-31300000D01*
X110980000Y-33830000D02*
X110980000Y-36000000D01*
X104400000Y-32540000D02*
X104400000Y-33850000D01*
X31110000Y-31641900D02*
X31110000Y-30784800D01*
X148800000Y-32540000D02*
X148740000Y-32600000D01*
X120970000Y-29610000D02*
X120970000Y-27840000D01*
X47590000Y-32390000D02*
X47590000Y-32720000D01*
X101370000Y-35990000D02*
X101700000Y-36320000D01*
X143950000Y-33960000D02*
X143630000Y-34280000D01*
X135680000Y-27830000D02*
X135360000Y-27510000D01*
X49010000Y-34350000D02*
X48560000Y-34800000D01*
X145150000Y-34010000D02*
X144900000Y-34260000D01*
X82380000Y-32390000D02*
X82380000Y-32720000D01*
X43990000Y-32720000D02*
X44210000Y-32940000D01*
X80400000Y-31950000D02*
X79970000Y-32380000D01*
X74800000Y-30180000D02*
X74800000Y-29030000D01*
X72120000Y-30450000D02*
X72400000Y-30170000D01*
X42200000Y-33640000D02*
X42200000Y-34020000D01*
X40640000Y-33950000D02*
X39790000Y-34800000D01*
X43390000Y-34010000D02*
X42800000Y-34600000D01*
X85200000Y-31980000D02*
X84780000Y-32400000D01*
X69040000Y-30750000D02*
X69040000Y-29030000D01*
X125700000Y-36000000D02*
X126020000Y-36320000D01*
X30640000Y-30314800D02*
X30640000Y-29030000D01*
X80580000Y-34140000D02*
X79920000Y-34800000D01*
X76200000Y-33810000D02*
X76200000Y-31850000D01*
X140170000Y-29610000D02*
X140170000Y-27840000D01*
X42220000Y-34800000D02*
X42160000Y-34800000D01*
X63180000Y-32390000D02*
X63180000Y-32720000D01*
X51410000Y-31430000D02*
X51410000Y-31130000D01*
X66540000Y-31310000D02*
X66540000Y-33040000D01*
X30600000Y-32151900D02*
X31110000Y-31641900D01*
X94090000Y-27840000D02*
X93760000Y-27510000D01*
X55200000Y-30580000D02*
X55600000Y-30180000D01*
X127620000Y-36000000D02*
X127940000Y-36320000D01*
X36000000Y-32540000D02*
X36200000Y-32340000D01*
X100480000Y-27830000D02*
X100160000Y-27510000D01*
X127200000Y-34060000D02*
X126990000Y-34270000D01*
X83590000Y-32730000D02*
X83820000Y-32960000D01*
X75200000Y-30900000D02*
X75200000Y-29270000D01*
X115840000Y-27830000D02*
X115520000Y-27510000D01*
X39150000Y-30717600D02*
X39150000Y-29831800D01*
X141000000Y-33810000D02*
X140940000Y-33810000D01*
X69990000Y-29830000D02*
X69680000Y-29520000D01*
X124200000Y-33810000D02*
X123790000Y-34220000D01*
X53200000Y-30170000D02*
X53200000Y-29190000D01*
X110400000Y-32540000D02*
X110340000Y-32600000D01*
X100200000Y-29890000D02*
X100480000Y-29610000D01*
X33140000Y-30383200D02*
X33140000Y-29090000D01*
X81180000Y-32400000D02*
X81180000Y-32740000D01*
X61450000Y-34800000D02*
X61360000Y-34800000D01*
X125060000Y-34150000D02*
X125060000Y-36000000D01*
X51000000Y-33810000D02*
X51000000Y-31840000D01*
X94720000Y-27830000D02*
X94400000Y-27510000D01*
X61740000Y-31310000D02*
X61740000Y-32980000D01*
X45600000Y-31980000D02*
X45190000Y-32390000D01*
X50790000Y-30170000D02*
X50790000Y-29830000D01*
X131850000Y-27840000D02*
X131520000Y-27510000D01*
X77980000Y-33590000D02*
X77980000Y-34180000D01*
X42800000Y-32380000D02*
X42800000Y-32730000D01*
X96640000Y-31230000D02*
X96640000Y-27830000D01*
X106800000Y-32540000D02*
X106750000Y-32590000D01*
X126990000Y-34270000D02*
X126990000Y-36010000D01*
X63920000Y-34710000D02*
X63920000Y-34800000D01*
X80940000Y-32980000D02*
X80580000Y-33340000D01*
X124750000Y-33960000D02*
X124430000Y-34280000D01*
X36200000Y-31044000D02*
X36400000Y-30844000D01*
X40150000Y-33260000D02*
X38960000Y-34450000D01*
X110980000Y-36000000D02*
X111300000Y-36320000D01*
X120850000Y-34230000D02*
X120670000Y-34230000D01*
X84540000Y-33000000D02*
X84180000Y-33360000D01*
X136960000Y-27830000D02*
X136640000Y-27510000D01*
X52000000Y-30170000D02*
X52000000Y-29830000D01*
X64800000Y-30000000D02*
X64800000Y-31970000D01*
X41590000Y-32720000D02*
X41840000Y-32970000D01*
X104590000Y-36010000D02*
X104900000Y-36320000D01*
X41590000Y-32390000D02*
X41590000Y-32720000D01*
X75600000Y-32560000D02*
X75600000Y-30560000D01*
X61200000Y-31950000D02*
X60770000Y-32380000D01*
X68400000Y-31980000D02*
X67990000Y-32390000D01*
X74400000Y-32560000D02*
X74400000Y-30580000D01*
X101650000Y-34230000D02*
X101470000Y-34230000D01*
X133760000Y-27830000D02*
X133440000Y-27510000D01*
X82980000Y-33340000D02*
X82980000Y-34300000D01*
X117760000Y-27830000D02*
X117440000Y-27510000D01*
X52200000Y-31840000D02*
X52600000Y-31440000D01*
X43020000Y-32950000D02*
X43020000Y-34000000D01*
X145200000Y-32540000D02*
X145150000Y-32590000D01*
X59810000Y-32980000D02*
X59810000Y-33970000D01*
X42200000Y-34020000D02*
X41520000Y-34700000D01*
X123000000Y-33810000D02*
X122500000Y-34310000D01*
X119050000Y-27840000D02*
X118720000Y-27510000D01*
X101770000Y-27840000D02*
X101440000Y-27510000D01*
X83330000Y-32990000D02*
X82980000Y-33340000D01*
X43020000Y-34000000D02*
X42220000Y-34800000D01*
X39430000Y-31597800D02*
X39430000Y-30997600D01*
X40990000Y-33640000D02*
X40990000Y-34050000D01*
X64980000Y-34380000D02*
X64560000Y-34800000D01*
X53830000Y-31430000D02*
X53830000Y-31120000D01*
X71800000Y-31440000D02*
X71800000Y-31110000D01*
X79350000Y-34100000D02*
X78650000Y-34800000D01*
X47350000Y-33290000D02*
X47000000Y-33640000D01*
X39000000Y-32027800D02*
X39430000Y-31597800D01*
X140420000Y-36000000D02*
X140740000Y-36320000D01*
X136320000Y-31150000D02*
X136320000Y-27830000D01*
X73030000Y-31430000D02*
X73030000Y-31120000D01*
X89470000Y-33810000D02*
X91800000Y-33810000D01*
X146190000Y-34270000D02*
X146190000Y-36010000D01*
X67990000Y-32390000D02*
X67990000Y-32730000D01*
X37800000Y-33810000D02*
X37800000Y-32446700D01*
X142990000Y-36010000D02*
X143300000Y-36320000D01*
X110340000Y-36000000D02*
X110660000Y-36320000D01*
X79750000Y-31300000D02*
X79750000Y-33090000D01*
X43200000Y-31980000D02*
X42800000Y-32380000D01*
X118800000Y-30000000D02*
X119050000Y-29750000D01*
X82130000Y-32980000D02*
X81790000Y-33320000D01*
X46200000Y-31270000D02*
X46150000Y-31320000D01*
X82620000Y-32960000D02*
X82620000Y-33990000D01*
X124750000Y-32590000D02*
X124750000Y-33960000D01*
X85980000Y-32730000D02*
X86210000Y-32960000D01*
X73980000Y-30880000D02*
X73980000Y-29210000D01*
X142340000Y-34310000D02*
X142340000Y-36000000D01*
X121800000Y-33810000D02*
X121740000Y-33810000D01*
X72400000Y-30170000D02*
X72400000Y-29190000D01*
X51120000Y-30840000D02*
X51120000Y-29030000D01*
X86960000Y-34720000D02*
X86960000Y-34800000D01*
X144600000Y-33810000D02*
X144260000Y-34150000D01*
X58390000Y-30890000D02*
X58390000Y-29440000D01*
X143950000Y-32590000D02*
X143950000Y-33960000D01*
X54200000Y-30370000D02*
X54390000Y-30180000D01*
X82800000Y-31970000D02*
X82380000Y-32390000D01*
X139770000Y-35990000D02*
X140100000Y-36320000D01*
X66190000Y-34450000D02*
X65840000Y-34800000D01*
X101400000Y-31270000D02*
X101400000Y-29980000D01*
X105550000Y-32590000D02*
X105550000Y-33960000D01*
X54200000Y-32360000D02*
X54200000Y-30370000D01*
X36600000Y-33810000D02*
X36600000Y-32228100D01*
X148110000Y-33900000D02*
X148110000Y-36010000D01*
X65340000Y-33000000D02*
X64980000Y-33360000D01*
X142990000Y-34220000D02*
X142990000Y-36010000D01*
X35580000Y-29210000D02*
X35760000Y-29030000D01*
X65910000Y-34010000D02*
X65200000Y-34720000D01*
X61070000Y-33020000D02*
X61070000Y-33930000D01*
X63420000Y-32960000D02*
X63420000Y-33990000D01*
X79350000Y-33490000D02*
X79350000Y-34100000D01*
X59400000Y-31250000D02*
X59340000Y-31310000D01*
X128910000Y-33900000D02*
X128910000Y-36010000D01*
X139800000Y-31270000D02*
X139800000Y-29980000D01*
X60770000Y-32380000D02*
X60770000Y-32720000D01*
X107790000Y-36010000D02*
X108100000Y-36320000D01*
X148740000Y-32600000D02*
X148740000Y-36000000D01*
X44940000Y-31330000D02*
X44940000Y-33290000D01*
X45790000Y-33640000D02*
X45790000Y-34370000D01*
X121200000Y-33880000D02*
X120850000Y-34230000D01*
X96000000Y-27830000D02*
X95680000Y-27510000D01*
X81600000Y-31980000D02*
X81180000Y-32400000D01*
X102020000Y-34330000D02*
X102020000Y-36000000D01*
X103200000Y-33810000D02*
X102660000Y-34350000D01*
X101770000Y-29610000D02*
X101770000Y-27840000D01*
X94800000Y-30000000D02*
X94720000Y-29920000D01*
X55800000Y-31840000D02*
X56200000Y-31440000D01*
X85680000Y-34710000D02*
X85680000Y-34800000D01*
X126340000Y-36000000D02*
X126660000Y-36320000D01*
X129600000Y-32540000D02*
X129540000Y-32600000D01*
X56000000Y-30900000D02*
X56000000Y-29270000D01*
X112650000Y-27840000D02*
X112320000Y-27510000D01*
X67800000Y-31250000D02*
X67750000Y-31300000D01*
X149400000Y-33810000D02*
X149380000Y-33830000D01*
X60550000Y-31300000D02*
X60550000Y-33090000D01*
X84400000Y-34720000D02*
X84400000Y-34800000D01*
X38230000Y-31042600D02*
X38000000Y-30812600D01*
X111600000Y-30000000D02*
X111360000Y-29760000D01*
X133760000Y-31230000D02*
X133760000Y-27830000D01*
X46800000Y-31990000D02*
X46390000Y-32400000D01*
X52600000Y-31440000D02*
X52600000Y-31110000D01*
X115200000Y-27830000D02*
X114880000Y-27510000D01*
X57790000Y-30420000D02*
X58150000Y-30060000D01*
X103200000Y-32540000D02*
X103200000Y-33810000D01*
X31200000Y-32540000D02*
X31330000Y-32410000D01*
X76390000Y-30910000D02*
X76390000Y-29360000D01*
X36800000Y-29776400D02*
X37040000Y-29536400D01*
X58150000Y-29040000D02*
X58160000Y-29030000D01*
X103800000Y-33810000D02*
X103300000Y-34310000D01*
X67010000Y-34180000D02*
X66480000Y-34710000D01*
X140580000Y-36320000D02*
X140480000Y-36320000D01*
X58780000Y-33590000D02*
X58780000Y-34180000D01*
X69400000Y-31440000D02*
X69400000Y-31110000D01*
X114560000Y-27830000D02*
X114240000Y-27510000D01*
X86400000Y-30000000D02*
X86400000Y-31970000D01*
X105230000Y-34280000D02*
X105230000Y-36010000D01*
X112800000Y-30000000D02*
X112650000Y-29850000D01*
X143630000Y-36010000D02*
X143940000Y-36320000D01*
X59810000Y-33970000D02*
X58980000Y-34800000D01*
X94200000Y-31270000D02*
X94090000Y-31160000D01*
X80270000Y-33020000D02*
X80270000Y-33930000D01*
X114000000Y-30000000D02*
X113920000Y-29920000D01*
X142200000Y-33810000D02*
X141700000Y-34310000D01*
X37680000Y-30804800D02*
X37680000Y-29030000D01*
X54600000Y-33810000D02*
X54600000Y-31840000D01*
X137600000Y-31070000D02*
X137600000Y-27830000D01*
X106500000Y-36000000D02*
X106820000Y-36320000D01*
X45600000Y-30000000D02*
X45600000Y-31980000D01*
X79800000Y-31250000D02*
X79750000Y-31300000D01*
X113290000Y-31160000D02*
X113290000Y-27840000D01*
X103940000Y-36000000D02*
X104260000Y-36320000D01*
X133120000Y-27830000D02*
X132800000Y-27510000D01*
X80270000Y-33930000D02*
X79400000Y-34800000D01*
X70320000Y-30840000D02*
X70320000Y-29030000D01*
X32300000Y-31526800D02*
X32300000Y-30645100D01*
X105000000Y-33810000D02*
X104590000Y-34220000D01*
X131850000Y-29850000D02*
X131850000Y-27840000D01*
X112200000Y-31270000D02*
X112000000Y-31070000D01*
X135040000Y-27830000D02*
X134720000Y-27510000D01*
X122500000Y-34310000D02*
X122500000Y-36000000D01*
X49200000Y-30000000D02*
X49200000Y-31990000D01*
X131400000Y-31270000D02*
X131200000Y-31070000D01*
X59450000Y-34800000D02*
X59440000Y-34800000D01*
X120670000Y-34230000D02*
X120570000Y-34330000D01*
X62400000Y-30000000D02*
X62400000Y-31980000D01*
X142340000Y-36000000D02*
X142660000Y-36320000D01*
X66780000Y-32730000D02*
X67010000Y-32960000D01*
X84180000Y-33360000D02*
X84180000Y-34380000D01*
X61380000Y-34140000D02*
X60720000Y-34800000D01*
X62930000Y-31320000D02*
X62930000Y-32980000D01*
X48550000Y-33280000D02*
X48190000Y-33640000D01*
X102540000Y-33810000D02*
X102020000Y-34330000D01*
X40990000Y-34050000D02*
X40240000Y-34800000D01*
X138000000Y-30000000D02*
X138250000Y-29750000D01*
X71200000Y-29830000D02*
X70960000Y-29590000D01*
X37040000Y-29536400D02*
X37040000Y-29030000D01*
X57190000Y-30910000D02*
X57190000Y-29360000D01*
X59340000Y-33030000D02*
X58780000Y-33590000D01*
X77980000Y-34180000D02*
X77360000Y-34800000D01*
X78180000Y-34800000D02*
X78000000Y-34800000D01*
X63420000Y-33990000D02*
X62640000Y-34770000D01*
X50480000Y-29520000D02*
X50480000Y-29030000D01*
X97800000Y-31270000D02*
X97920000Y-31150000D01*
X58600000Y-31440000D02*
X58600000Y-31100000D01*
X84780000Y-32400000D02*
X84780000Y-32730000D01*
X109070000Y-32670000D02*
X109070000Y-36010000D01*
X147000000Y-33810000D02*
X146820000Y-33990000D01*
X83400000Y-31250000D02*
X83330000Y-31320000D01*
X123790000Y-34220000D02*
X123790000Y-36010000D01*
X56200000Y-31100000D02*
X56000000Y-30900000D01*
X79010000Y-33970000D02*
X78180000Y-34800000D01*
X66480000Y-34710000D02*
X66480000Y-34800000D01*
X101120000Y-27830000D02*
X100800000Y-27510000D01*
X79970000Y-32380000D02*
X79970000Y-32720000D01*
X133200000Y-30000000D02*
X133120000Y-29920000D01*
X51740000Y-30430000D02*
X52000000Y-30170000D01*
X60600000Y-31250000D02*
X60550000Y-31300000D01*
X140050000Y-34230000D02*
X139870000Y-34230000D01*
X135000000Y-31270000D02*
X135040000Y-31230000D01*
X44400000Y-32000000D02*
X43990000Y-32410000D01*
X70200000Y-33810000D02*
X70200000Y-31840000D01*
X144900000Y-36000000D02*
X145220000Y-36320000D01*
X111000000Y-33810000D02*
X110980000Y-33830000D01*
X133120000Y-29920000D02*
X133120000Y-27830000D01*
X31920000Y-30265100D02*
X31920000Y-29030000D01*
X38000000Y-29705300D02*
X38320000Y-29385300D01*
X103300000Y-36000000D02*
X103620000Y-36320000D01*
X57190000Y-29360000D02*
X57520000Y-29030000D01*
X106500000Y-34260000D02*
X106500000Y-36000000D01*
X37010000Y-31818100D02*
X37010000Y-30934000D01*
X93450000Y-29850000D02*
X93450000Y-27840000D01*
X73200000Y-32560000D02*
X73400000Y-32360000D01*
X100800000Y-30000000D02*
X101120000Y-29680000D01*
X79970000Y-32720000D02*
X80270000Y-33020000D01*
X58780000Y-34180000D02*
X58160000Y-34800000D01*
X118400000Y-27830000D02*
X118080000Y-27510000D01*
X38400000Y-32540000D02*
X38530000Y-32410000D01*
X51410000Y-31130000D02*
X51120000Y-30840000D01*
X127200000Y-32540000D02*
X127200000Y-34060000D01*
X96640000Y-27830000D02*
X96320000Y-27510000D01*
X71600000Y-30910000D02*
X71600000Y-29030000D01*
X111360000Y-27830000D02*
X111040000Y-27510000D01*
X60150000Y-33490000D02*
X60150000Y-34100000D01*
X82130000Y-31320000D02*
X82130000Y-32980000D01*
X42000000Y-30000000D02*
X42000000Y-31980000D01*
X71400000Y-33810000D02*
X71400000Y-31840000D01*
X46390000Y-32720000D02*
X46600000Y-32930000D01*
X67200000Y-31970000D02*
X66780000Y-32390000D01*
X38960000Y-34450000D02*
X38960000Y-34800000D01*
X62400000Y-31980000D02*
X61980000Y-32400000D01*
X95360000Y-27830000D02*
X95040000Y-27510000D01*
X76600000Y-31450000D02*
X76600000Y-31120000D01*
X109800000Y-33810000D02*
X109710000Y-33900000D01*
X143400000Y-33810000D02*
X142990000Y-34220000D01*
X72880000Y-30970000D02*
X72880000Y-29030000D01*
X140400000Y-32540000D02*
X140400000Y-33880000D01*
X58600000Y-31100000D02*
X58390000Y-30890000D01*
X100200000Y-31270000D02*
X100200000Y-29890000D01*
X141060000Y-36000000D02*
X141380000Y-36320000D01*
X106200000Y-33810000D02*
X105860000Y-34150000D01*
X34200000Y-33810000D02*
X34200000Y-32166500D01*
X76800000Y-32560000D02*
X76990000Y-32370000D01*
X38960000Y-30716400D02*
X38960000Y-29030000D01*
X92800000Y-27830000D02*
X92480000Y-27510000D01*
X86950000Y-33000000D02*
X86590000Y-33360000D01*
X73590000Y-29100000D02*
X73520000Y-29030000D01*
X46390000Y-32400000D02*
X46390000Y-32720000D01*
X97280000Y-27830000D02*
X96960000Y-27510000D01*
X58150000Y-30060000D02*
X58150000Y-29040000D01*
X99850000Y-27840000D02*
X99520000Y-27510000D01*
X67390000Y-34530000D02*
X67120000Y-34800000D01*
X46150000Y-33280000D02*
X45790000Y-33640000D01*
X149380000Y-36000000D02*
X149700000Y-36320000D01*
X85110000Y-33060000D02*
X85110000Y-34010000D01*
X42600000Y-31270000D02*
X42540000Y-31330000D01*
X34200000Y-32166500D02*
X34610000Y-31756500D01*
X139520000Y-27830000D02*
X139200000Y-27510000D01*
X86210000Y-34180000D02*
X85680000Y-34710000D01*
X43740000Y-31330000D02*
X43740000Y-33300000D01*
X81000000Y-31250000D02*
X80940000Y-31310000D01*
X36800000Y-30724000D02*
X36800000Y-29776400D01*
X137600000Y-27830000D02*
X137280000Y-27510000D01*
X102660000Y-34350000D02*
X102660000Y-36000000D01*
X46600000Y-34200000D02*
X46000000Y-34800000D01*
X68210000Y-34270000D02*
X67760000Y-34720000D01*
X84780000Y-32730000D02*
X85110000Y-33060000D01*
X45400000Y-34120000D02*
X44720000Y-34800000D01*
X117120000Y-31150000D02*
X117120000Y-27830000D01*
X106750000Y-34010000D02*
X106500000Y-34260000D01*
X65580000Y-32730000D02*
X65910000Y-33060000D01*
X66190000Y-33390000D02*
X66190000Y-34450000D01*
X105550000Y-33960000D02*
X105230000Y-34280000D01*
X102000000Y-33880000D02*
X101650000Y-34230000D01*
X61800000Y-31250000D02*
X61740000Y-31310000D01*
X43740000Y-33300000D02*
X43390000Y-33650000D01*
X76200000Y-31850000D02*
X76600000Y-31450000D01*
X76390000Y-29360000D02*
X76720000Y-29030000D01*
X62320000Y-33080000D02*
X62320000Y-33930000D01*
X48800000Y-32390000D02*
X48800000Y-32730000D01*
X120320000Y-29680000D02*
X120320000Y-27830000D01*
X120600000Y-31270000D02*
X120600000Y-29980000D01*
X81840000Y-34770000D02*
X81840000Y-34800000D01*
X75400000Y-31100000D02*
X75200000Y-30900000D01*
X75000000Y-31840000D02*
X75400000Y-31440000D01*
X97200000Y-30000000D02*
X97280000Y-29920000D01*
X137400000Y-31270000D02*
X137600000Y-31070000D01*
X40800000Y-30000000D02*
X40800000Y-31990000D01*
X35400000Y-33810000D02*
X35400000Y-32163200D01*
X112000000Y-31070000D02*
X112000000Y-27830000D01*
X78000000Y-30680000D02*
X78640000Y-30040000D01*
X31800000Y-33810000D02*
X31800000Y-32026800D01*
X146820000Y-33990000D02*
X146820000Y-36000000D01*
X60000000Y-31970000D02*
X59600000Y-32370000D01*
X140420000Y-34330000D02*
X140420000Y-36000000D01*
X36200000Y-32340000D02*
X36200000Y-31044000D01*
X33450000Y-31800800D02*
X33450000Y-30693200D01*
X57790000Y-32370000D02*
X57790000Y-30420000D01*
X55600000Y-30180000D02*
X55600000Y-29030000D01*
X119400000Y-31270000D02*
X119400000Y-29890000D01*
X130180000Y-33830000D02*
X130180000Y-36000000D01*
X70200000Y-31840000D02*
X70610000Y-31430000D01*
X78540000Y-31310000D02*
X78540000Y-33030000D01*
X85980000Y-32390000D02*
X85980000Y-32730000D01*
X70940000Y-32420000D02*
X70940000Y-30430000D01*
X46150000Y-31320000D02*
X46150000Y-33280000D01*
X77590000Y-29440000D02*
X78000000Y-29030000D01*
X54000000Y-32560000D02*
X54200000Y-32360000D01*
X108420000Y-36000000D02*
X108740000Y-36320000D01*
X50560000Y-30400000D02*
X50790000Y-30170000D01*
X99200000Y-31070000D02*
X99200000Y-27830000D01*
X82200000Y-31250000D02*
X82130000Y-31320000D01*
X67750000Y-31300000D02*
X67750000Y-33000000D01*
X99850000Y-29750000D02*
X99850000Y-27840000D01*
X98400000Y-30000000D02*
X98560000Y-29840000D01*
X53200000Y-29190000D02*
X53040000Y-29030000D01*
X40200000Y-31270000D02*
X40150000Y-31320000D01*
X81600000Y-30000000D02*
X81600000Y-31980000D01*
X43800000Y-31270000D02*
X43740000Y-31330000D01*
X78600000Y-31250000D02*
X78540000Y-31310000D01*
X34370000Y-30306500D02*
X34370000Y-29140000D01*
X78800000Y-32770000D02*
X79010000Y-32980000D01*
X48600000Y-31270000D02*
X48550000Y-31320000D01*
X52920000Y-32440000D02*
X52920000Y-30450000D01*
X38320000Y-29385300D02*
X38320000Y-29030000D01*
X117760000Y-29840000D02*
X117760000Y-27830000D01*
X131200000Y-27830000D02*
X130880000Y-27510000D01*
X55000000Y-31100000D02*
X54780000Y-30880000D01*
X142800000Y-32540000D02*
X142800000Y-33850000D01*
X61980000Y-32400000D02*
X61980000Y-32740000D01*
X58800000Y-30680000D02*
X59440000Y-30040000D01*
X83820000Y-32960000D02*
X83820000Y-34010000D01*
X42800000Y-34600000D02*
X42800000Y-34800000D01*
X43200000Y-30000000D02*
X43200000Y-31980000D01*
X78540000Y-33030000D02*
X77980000Y-33590000D01*
X42540000Y-33300000D02*
X42200000Y-33640000D01*
X103300000Y-34310000D02*
X103300000Y-36000000D01*
X102600000Y-33810000D02*
X102540000Y-33810000D01*
X40400000Y-32390000D02*
X40400000Y-32730000D01*
X109710000Y-33900000D02*
X109710000Y-36010000D01*
X65400000Y-31250000D02*
X65340000Y-31310000D01*
X141600000Y-32540000D02*
X141600000Y-33810000D01*
X134400000Y-27830000D02*
X134080000Y-27510000D01*
X93000000Y-31270000D02*
X92800000Y-31070000D01*
X144260000Y-36000000D02*
X144580000Y-36320000D01*
X50400000Y-32560000D02*
X50560000Y-32400000D01*
X115200000Y-30000000D02*
X115200000Y-27830000D01*
X122500000Y-36000000D02*
X122820000Y-36320000D01*
X44590000Y-33640000D02*
X44590000Y-34290000D01*
X55800000Y-33810000D02*
X55800000Y-31840000D01*
X127620000Y-33990000D02*
X127620000Y-36000000D01*
X101400000Y-29980000D02*
X101770000Y-29610000D01*
X147470000Y-32670000D02*
X147470000Y-36010000D01*
X136800000Y-30000000D02*
X136960000Y-29840000D01*
X113290000Y-27840000D02*
X112960000Y-27510000D01*
X34010000Y-30221100D02*
X34010000Y-29200000D01*
X74200000Y-31100000D02*
X73980000Y-30880000D01*
X113920000Y-27830000D02*
X113600000Y-27510000D01*
X108000000Y-34060000D02*
X107790000Y-34270000D01*
X105230000Y-36010000D02*
X105540000Y-36320000D01*
X83120000Y-34710000D02*
X83120000Y-34800000D01*
X59340000Y-31310000D02*
X59340000Y-33030000D01*
X73980000Y-29210000D02*
X74160000Y-29030000D01*
X102660000Y-36000000D02*
X102980000Y-36320000D01*
X63780000Y-34300000D02*
X63280000Y-34800000D01*
X34990000Y-31029400D02*
X35220000Y-30799400D01*
X37390000Y-31094800D02*
X37680000Y-30804800D01*
X77800000Y-31440000D02*
X77800000Y-31100000D01*
X35810000Y-30493200D02*
X35580000Y-30263200D01*
X40240000Y-30626900D02*
X40240000Y-29030000D01*
X81180000Y-32740000D02*
X81520000Y-33080000D01*
X139200000Y-30000000D02*
X139520000Y-29680000D01*
X108420000Y-33990000D02*
X108420000Y-36000000D01*
X37010000Y-30934000D02*
X36800000Y-30724000D01*
X32560000Y-29478300D02*
X32560000Y-29030000D01*
X120320000Y-27830000D02*
X120000000Y-27510000D01*
X135600000Y-30000000D02*
X135680000Y-29920000D01*
X47590000Y-32720000D02*
X47820000Y-32950000D01*
X123600000Y-32540000D02*
X123600000Y-33850000D01*
X85200000Y-30000000D02*
X85200000Y-31980000D01*
X66540000Y-33040000D02*
X66190000Y-33390000D01*
X133800000Y-31270000D02*
X133760000Y-31230000D01*
X69000000Y-33810000D02*
X69000000Y-31840000D01*
X101120000Y-29680000D02*
X101120000Y-27830000D01*
X34800000Y-32540000D02*
X34990000Y-32350000D01*
X102000000Y-32540000D02*
X102000000Y-33880000D01*
X104590000Y-34220000D02*
X104590000Y-36010000D01*
X67390000Y-33360000D02*
X67390000Y-34530000D01*
X81790000Y-33320000D02*
X81790000Y-34210000D01*
X73030000Y-31120000D02*
X72880000Y-30970000D01*
X48190000Y-33640000D02*
X48190000Y-34530000D01*
X121860000Y-34350000D02*
X121860000Y-36000000D01*
X43990000Y-32410000D02*
X43990000Y-32720000D01*
X41840000Y-33950000D02*
X40990000Y-34800000D01*
X132000000Y-30000000D02*
X131850000Y-29850000D01*
X48000000Y-30000000D02*
X48000000Y-31980000D01*
X124800000Y-32540000D02*
X124750000Y-32590000D01*
X121220000Y-34330000D02*
X121220000Y-36000000D01*
X77800000Y-31100000D02*
X77590000Y-30890000D01*
X33600000Y-32540000D02*
X33750000Y-32390000D01*
X68210000Y-32950000D02*
X68210000Y-34270000D01*
X67200000Y-30000000D02*
X67200000Y-31970000D01*
X64620000Y-34010000D02*
X63920000Y-34710000D01*
X125950000Y-34010000D02*
X125700000Y-34260000D01*
X56400000Y-30560000D02*
X56880000Y-30080000D01*
X31330000Y-32410000D02*
X31330000Y-30771100D01*
X54780000Y-30880000D02*
X54780000Y-29210000D01*
X147600000Y-32540000D02*
X147470000Y-32670000D01*
X78650000Y-34800000D02*
X78640000Y-34800000D01*
X56400000Y-32560000D02*
X56400000Y-30560000D01*
X67760000Y-34720000D02*
X67760000Y-34800000D01*
X39150000Y-29831800D02*
X39600000Y-29381800D01*
X76600000Y-31120000D02*
X76390000Y-30910000D01*
X60770000Y-32720000D02*
X61070000Y-33020000D01*
X62640000Y-34770000D02*
X62640000Y-34800000D01*
X52400000Y-30910000D02*
X52400000Y-29030000D01*
X141600000Y-33810000D02*
X141060000Y-34350000D01*
X114600000Y-31270000D02*
X114560000Y-31230000D01*
X96000000Y-30000000D02*
X96000000Y-27830000D01*
X149400000Y-33810000D02*
X149380000Y-33830000D01*
X111360000Y-29760000D02*
X111360000Y-27830000D01*
X73800000Y-31840000D02*
X74200000Y-31440000D01*
X47820000Y-32950000D02*
X47820000Y-34260000D01*
X77590000Y-30890000D02*
X77590000Y-29440000D01*
X140940000Y-33810000D02*
X140420000Y-34330000D01*
X134400000Y-30000000D02*
X134400000Y-27830000D01*
X40150000Y-31320000D02*
X40150000Y-33260000D01*
X123790000Y-36010000D02*
X124100000Y-36320000D01*
X86950000Y-31300000D02*
X86950000Y-33000000D01*
X46800000Y-30000000D02*
X46800000Y-31990000D01*
X32400000Y-32540000D02*
X32580000Y-32360000D01*
X47000000Y-33640000D02*
X47000000Y-34440000D01*
X65910000Y-33060000D02*
X65910000Y-34010000D01*
X61980000Y-32740000D02*
X62320000Y-33080000D01*
X31710000Y-30391100D02*
X31710000Y-29848300D01*
X71400000Y-31840000D02*
X71800000Y-31440000D01*
X149380000Y-33830000D02*
X149380000Y-36000000D01*
G04 #@! TD*
G04 #@! TA.AperFunction,Conductor*
G04 #@! TO.N,GND*
G36*
X152942539Y-24020185D02*
G01*
X152988294Y-24072989D01*
X152999500Y-24124500D01*
X152999500Y-38875500D01*
X152979815Y-38942539D01*
X152927011Y-38988294D01*
X152875500Y-38999500D01*
X151899500Y-38999500D01*
X151832461Y-38979815D01*
X151786706Y-38927011D01*
X151775500Y-38875500D01*
X151775500Y-26986687D01*
X151761548Y-26948355D01*
X151713951Y-26920875D01*
X151659828Y-26930418D01*
X151659827Y-26930419D01*
X151624500Y-26972518D01*
X151624500Y-38875500D01*
X151604815Y-38942539D01*
X151552011Y-38988294D01*
X151500500Y-38999500D01*
X27299500Y-38999500D01*
X27232461Y-38979815D01*
X27186706Y-38927011D01*
X27175500Y-38875500D01*
X27175500Y-36320000D01*
X37624428Y-36320000D01*
X37644641Y-36486461D01*
X37704101Y-36643248D01*
X37799358Y-36781250D01*
X37924869Y-36892443D01*
X37924871Y-36892444D01*
X38073347Y-36970370D01*
X38236158Y-37010500D01*
X38236159Y-37010500D01*
X38403841Y-37010500D01*
X38403842Y-37010500D01*
X38566653Y-36970370D01*
X38715129Y-36892444D01*
X38840642Y-36781249D01*
X38935898Y-36643248D01*
X38995359Y-36486461D01*
X39015571Y-36320000D01*
X56824428Y-36320000D01*
X56844641Y-36486461D01*
X56904101Y-36643248D01*
X56999358Y-36781250D01*
X57124869Y-36892443D01*
X57124871Y-36892444D01*
X57273347Y-36970370D01*
X57436158Y-37010500D01*
X57436159Y-37010500D01*
X57603841Y-37010500D01*
X57603842Y-37010500D01*
X57766653Y-36970370D01*
X57915129Y-36892444D01*
X58040642Y-36781249D01*
X58135898Y-36643248D01*
X58195359Y-36486461D01*
X58215571Y-36320000D01*
X76024428Y-36320000D01*
X76044641Y-36486461D01*
X76104101Y-36643248D01*
X76199358Y-36781250D01*
X76324869Y-36892443D01*
X76324871Y-36892444D01*
X76473347Y-36970370D01*
X76636158Y-37010500D01*
X76636159Y-37010500D01*
X76803841Y-37010500D01*
X76803842Y-37010500D01*
X76966653Y-36970370D01*
X77115129Y-36892444D01*
X77240642Y-36781249D01*
X77335898Y-36643248D01*
X77395359Y-36486461D01*
X77415571Y-36320000D01*
X77395359Y-36153539D01*
X77335898Y-35996752D01*
X77335898Y-35996751D01*
X77240641Y-35858749D01*
X77115130Y-35747556D01*
X76993423Y-35683680D01*
X76966653Y-35669630D01*
X76803842Y-35629500D01*
X76636158Y-35629500D01*
X76473347Y-35669630D01*
X76473345Y-35669630D01*
X76473345Y-35669631D01*
X76324869Y-35747556D01*
X76199358Y-35858749D01*
X76104101Y-35996751D01*
X76044641Y-36153538D01*
X76024428Y-36320000D01*
X58215571Y-36320000D01*
X58195359Y-36153539D01*
X58135898Y-35996752D01*
X58135898Y-35996751D01*
X58040641Y-35858749D01*
X57915130Y-35747556D01*
X57793423Y-35683680D01*
X57766653Y-35669630D01*
X57603842Y-35629500D01*
X57436158Y-35629500D01*
X57273347Y-35669630D01*
X57273345Y-35669630D01*
X57273345Y-35669631D01*
X57124869Y-35747556D01*
X56999358Y-35858749D01*
X56904101Y-35996751D01*
X56844641Y-36153538D01*
X56824428Y-36320000D01*
X39015571Y-36320000D01*
X38995359Y-36153539D01*
X38935898Y-35996752D01*
X38935898Y-35996751D01*
X38840641Y-35858749D01*
X38715130Y-35747556D01*
X38593423Y-35683680D01*
X38566653Y-35669630D01*
X38403842Y-35629500D01*
X38236158Y-35629500D01*
X38073347Y-35669630D01*
X38073345Y-35669630D01*
X38073345Y-35669631D01*
X37924869Y-35747556D01*
X37799358Y-35858749D01*
X37704101Y-35996751D01*
X37644641Y-36153538D01*
X37624428Y-36320000D01*
X27175500Y-36320000D01*
X27175500Y-29029999D01*
X29304428Y-29029999D01*
X29324641Y-29196461D01*
X29384101Y-29353248D01*
X29479358Y-29491250D01*
X29604869Y-29602443D01*
X29604871Y-29602444D01*
X29753347Y-29680370D01*
X29916158Y-29720500D01*
X29916159Y-29720500D01*
X29975500Y-29720500D01*
X30042539Y-29740185D01*
X30088294Y-29792989D01*
X30099500Y-29844500D01*
X30099500Y-30303438D01*
X30099428Y-30307669D01*
X30097279Y-30370595D01*
X30106801Y-30409673D01*
X30109171Y-30422140D01*
X30116971Y-30478878D01*
X30114289Y-30479246D01*
X30119774Y-30523213D01*
X30089566Y-30586215D01*
X30070275Y-30603591D01*
X30027770Y-30634473D01*
X29908140Y-30767334D01*
X29818749Y-30922164D01*
X29763503Y-31092195D01*
X29744815Y-31269999D01*
X29763503Y-31447804D01*
X29818749Y-31617835D01*
X29908140Y-31772665D01*
X30036490Y-31915210D01*
X30033849Y-31917587D01*
X30063110Y-31955533D01*
X30070909Y-32013205D01*
X30068147Y-32040065D01*
X30064200Y-32060831D01*
X30059500Y-32077608D01*
X30059500Y-32117826D01*
X30058850Y-32130506D01*
X30054735Y-32170526D01*
X30057697Y-32187699D01*
X30059500Y-32208769D01*
X30059500Y-33091634D01*
X30039815Y-33158673D01*
X30027650Y-33174606D01*
X29908140Y-33307334D01*
X29818749Y-33462164D01*
X29763503Y-33632195D01*
X29744815Y-33809999D01*
X29763503Y-33987804D01*
X29818749Y-34157835D01*
X29908140Y-34312665D01*
X30027771Y-34445527D01*
X30172403Y-34550610D01*
X30335735Y-34623330D01*
X30510607Y-34660500D01*
X30510609Y-34660500D01*
X30689393Y-34660500D01*
X30864264Y-34623330D01*
X30864265Y-34623329D01*
X30864267Y-34623329D01*
X31027593Y-34550612D01*
X31127115Y-34478304D01*
X31192919Y-34454824D01*
X31260974Y-34470649D01*
X31272878Y-34478299D01*
X31323519Y-34515092D01*
X31372406Y-34550612D01*
X31535735Y-34623330D01*
X31710607Y-34660500D01*
X31710609Y-34660500D01*
X31889393Y-34660500D01*
X32064264Y-34623330D01*
X32064265Y-34623329D01*
X32064267Y-34623329D01*
X32227593Y-34550612D01*
X32327115Y-34478304D01*
X32392919Y-34454824D01*
X32460974Y-34470649D01*
X32472878Y-34478299D01*
X32523519Y-34515092D01*
X32572406Y-34550612D01*
X32735735Y-34623330D01*
X32910607Y-34660500D01*
X32910609Y-34660500D01*
X33089393Y-34660500D01*
X33264264Y-34623330D01*
X33264265Y-34623329D01*
X33264267Y-34623329D01*
X33427593Y-34550612D01*
X33527115Y-34478304D01*
X33592919Y-34454824D01*
X33660974Y-34470649D01*
X33672878Y-34478299D01*
X33723519Y-34515092D01*
X33772406Y-34550612D01*
X33935735Y-34623330D01*
X34110607Y-34660500D01*
X34110609Y-34660500D01*
X34289393Y-34660500D01*
X34464264Y-34623330D01*
X34464265Y-34623329D01*
X34464267Y-34623329D01*
X34627593Y-34550612D01*
X34727115Y-34478304D01*
X34792919Y-34454824D01*
X34860974Y-34470649D01*
X34872878Y-34478299D01*
X34923519Y-34515092D01*
X34972406Y-34550612D01*
X35135735Y-34623330D01*
X35310607Y-34660500D01*
X35310609Y-34660500D01*
X35489393Y-34660500D01*
X35664264Y-34623330D01*
X35664265Y-34623329D01*
X35664267Y-34623329D01*
X35827593Y-34550612D01*
X35927115Y-34478304D01*
X35992919Y-34454824D01*
X36060974Y-34470649D01*
X36072878Y-34478299D01*
X36123519Y-34515092D01*
X36172406Y-34550612D01*
X36335735Y-34623330D01*
X36510607Y-34660500D01*
X36510609Y-34660500D01*
X36689393Y-34660500D01*
X36864264Y-34623330D01*
X36864265Y-34623329D01*
X36864267Y-34623329D01*
X37027593Y-34550612D01*
X37127115Y-34478304D01*
X37192919Y-34454824D01*
X37260974Y-34470649D01*
X37272878Y-34478299D01*
X37323519Y-34515092D01*
X37372406Y-34550612D01*
X37535735Y-34623330D01*
X37710607Y-34660500D01*
X37710609Y-34660500D01*
X37889393Y-34660500D01*
X38064262Y-34623330D01*
X38064261Y-34623330D01*
X38064267Y-34623329D01*
X38087988Y-34612767D01*
X38157235Y-34603482D01*
X38220512Y-34633110D01*
X38257727Y-34692244D01*
X38261519Y-34740993D01*
X38254354Y-34799998D01*
X38274860Y-34968872D01*
X38335182Y-35127930D01*
X38431815Y-35267927D01*
X38431816Y-35267928D01*
X38431817Y-35267929D01*
X38559148Y-35380734D01*
X38709775Y-35459790D01*
X38874944Y-35500500D01*
X38874945Y-35500500D01*
X39045055Y-35500500D01*
X39045056Y-35500500D01*
X39210225Y-35459790D01*
X39222374Y-35453413D01*
X39290879Y-35439687D01*
X39337624Y-35453412D01*
X39349775Y-35459790D01*
X39514944Y-35500500D01*
X39514945Y-35500500D01*
X39685055Y-35500500D01*
X39685056Y-35500500D01*
X39850225Y-35459790D01*
X39862374Y-35453413D01*
X39930879Y-35439687D01*
X39977624Y-35453412D01*
X39989775Y-35459790D01*
X40154944Y-35500500D01*
X40154945Y-35500500D01*
X40325055Y-35500500D01*
X40325056Y-35500500D01*
X40490225Y-35459790D01*
X40502374Y-35453413D01*
X40570879Y-35439687D01*
X40617624Y-35453412D01*
X40629775Y-35459790D01*
X40794944Y-35500500D01*
X40794945Y-35500500D01*
X40965055Y-35500500D01*
X40965056Y-35500500D01*
X41130225Y-35459790D01*
X41142374Y-35453413D01*
X41210879Y-35439687D01*
X41257624Y-35453412D01*
X41269775Y-35459790D01*
X41434944Y-35500500D01*
X41434945Y-35500500D01*
X41605055Y-35500500D01*
X41605056Y-35500500D01*
X41770225Y-35459790D01*
X41782374Y-35453413D01*
X41850879Y-35439687D01*
X41897624Y-35453412D01*
X41909775Y-35459790D01*
X42074944Y-35500500D01*
X42074945Y-35500500D01*
X42245055Y-35500500D01*
X42245056Y-35500500D01*
X42410225Y-35459790D01*
X42422374Y-35453413D01*
X42490879Y-35439687D01*
X42537624Y-35453412D01*
X42549775Y-35459790D01*
X42714944Y-35500500D01*
X42714945Y-35500500D01*
X42885055Y-35500500D01*
X42885056Y-35500500D01*
X43050225Y-35459790D01*
X43062374Y-35453413D01*
X43130879Y-35439687D01*
X43177624Y-35453412D01*
X43189775Y-35459790D01*
X43354944Y-35500500D01*
X43354945Y-35500500D01*
X43525055Y-35500500D01*
X43525056Y-35500500D01*
X43690225Y-35459790D01*
X43702374Y-35453413D01*
X43770879Y-35439687D01*
X43817624Y-35453412D01*
X43829775Y-35459790D01*
X43994944Y-35500500D01*
X43994945Y-35500500D01*
X44165055Y-35500500D01*
X44165056Y-35500500D01*
X44330225Y-35459790D01*
X44342374Y-35453413D01*
X44410879Y-35439687D01*
X44457624Y-35453412D01*
X44469775Y-35459790D01*
X44634944Y-35500500D01*
X44634945Y-35500500D01*
X44805055Y-35500500D01*
X44805056Y-35500500D01*
X44970225Y-35459790D01*
X44982374Y-35453413D01*
X45050879Y-35439687D01*
X45097624Y-35453412D01*
X45109775Y-35459790D01*
X45274944Y-35500500D01*
X45274945Y-35500500D01*
X45445055Y-35500500D01*
X45445056Y-35500500D01*
X45610225Y-35459790D01*
X45622374Y-35453413D01*
X45690879Y-35439687D01*
X45737624Y-35453412D01*
X45749775Y-35459790D01*
X45914944Y-35500500D01*
X45914945Y-35500500D01*
X46085055Y-35500500D01*
X46085056Y-35500500D01*
X46250225Y-35459790D01*
X46262374Y-35453413D01*
X46330879Y-35439687D01*
X46377624Y-35453412D01*
X46389775Y-35459790D01*
X46554944Y-35500500D01*
X46554945Y-35500500D01*
X46725055Y-35500500D01*
X46725056Y-35500500D01*
X46890225Y-35459790D01*
X46902374Y-35453413D01*
X46970879Y-35439687D01*
X47017624Y-35453412D01*
X47029775Y-35459790D01*
X47194944Y-35500500D01*
X47194945Y-35500500D01*
X47365055Y-35500500D01*
X47365056Y-35500500D01*
X47530225Y-35459790D01*
X47542374Y-35453413D01*
X47610879Y-35439687D01*
X47657624Y-35453412D01*
X47669775Y-35459790D01*
X47834944Y-35500500D01*
X47834945Y-35500500D01*
X48005055Y-35500500D01*
X48005056Y-35500500D01*
X48170225Y-35459790D01*
X48182374Y-35453413D01*
X48250879Y-35439687D01*
X48297624Y-35453412D01*
X48309775Y-35459790D01*
X48474944Y-35500500D01*
X48474945Y-35500500D01*
X48645055Y-35500500D01*
X48645056Y-35500500D01*
X48810225Y-35459790D01*
X48833135Y-35447765D01*
X48901641Y-35434040D01*
X48948384Y-35447765D01*
X48953347Y-35450370D01*
X49116158Y-35490500D01*
X49116159Y-35490500D01*
X49283841Y-35490500D01*
X49283842Y-35490500D01*
X49446653Y-35450370D01*
X49595129Y-35372444D01*
X49720642Y-35261249D01*
X49815898Y-35123248D01*
X49875359Y-34966461D01*
X49895571Y-34800000D01*
X49892580Y-34775373D01*
X49904041Y-34706450D01*
X49950945Y-34654664D01*
X49989892Y-34639137D01*
X50064267Y-34623329D01*
X50227593Y-34550612D01*
X50327115Y-34478304D01*
X50392919Y-34454824D01*
X50460974Y-34470649D01*
X50472878Y-34478299D01*
X50523519Y-34515092D01*
X50572406Y-34550612D01*
X50735735Y-34623330D01*
X50910607Y-34660500D01*
X50910609Y-34660500D01*
X51089393Y-34660500D01*
X51264264Y-34623330D01*
X51264265Y-34623329D01*
X51264267Y-34623329D01*
X51427593Y-34550612D01*
X51527115Y-34478304D01*
X51592919Y-34454824D01*
X51660974Y-34470649D01*
X51672878Y-34478299D01*
X51723519Y-34515092D01*
X51772406Y-34550612D01*
X51935735Y-34623330D01*
X52110607Y-34660500D01*
X52110609Y-34660500D01*
X52289393Y-34660500D01*
X52464264Y-34623330D01*
X52464265Y-34623329D01*
X52464267Y-34623329D01*
X52627593Y-34550612D01*
X52727115Y-34478304D01*
X52792919Y-34454824D01*
X52860974Y-34470649D01*
X52872878Y-34478299D01*
X52923519Y-34515092D01*
X52972406Y-34550612D01*
X53135735Y-34623330D01*
X53310607Y-34660500D01*
X53310609Y-34660500D01*
X53489393Y-34660500D01*
X53664264Y-34623330D01*
X53664265Y-34623329D01*
X53664267Y-34623329D01*
X53827593Y-34550612D01*
X53927115Y-34478304D01*
X53992919Y-34454824D01*
X54060974Y-34470649D01*
X54072878Y-34478299D01*
X54123519Y-34515092D01*
X54172406Y-34550612D01*
X54335735Y-34623330D01*
X54510607Y-34660500D01*
X54510609Y-34660500D01*
X54689393Y-34660500D01*
X54864264Y-34623330D01*
X54864265Y-34623329D01*
X54864267Y-34623329D01*
X55027593Y-34550612D01*
X55127115Y-34478304D01*
X55192919Y-34454824D01*
X55260974Y-34470649D01*
X55272878Y-34478299D01*
X55323519Y-34515092D01*
X55372406Y-34550612D01*
X55535735Y-34623330D01*
X55710607Y-34660500D01*
X55710609Y-34660500D01*
X55889393Y-34660500D01*
X56064264Y-34623330D01*
X56064265Y-34623329D01*
X56064267Y-34623329D01*
X56227593Y-34550612D01*
X56327115Y-34478304D01*
X56392919Y-34454824D01*
X56460974Y-34470649D01*
X56472878Y-34478299D01*
X56523519Y-34515092D01*
X56572406Y-34550612D01*
X56735735Y-34623330D01*
X56910607Y-34660500D01*
X56910609Y-34660500D01*
X57089393Y-34660500D01*
X57264262Y-34623330D01*
X57264261Y-34623330D01*
X57264267Y-34623329D01*
X57287988Y-34612767D01*
X57357235Y-34603482D01*
X57420512Y-34633110D01*
X57457727Y-34692244D01*
X57461519Y-34740993D01*
X57454354Y-34799998D01*
X57474860Y-34968872D01*
X57535182Y-35127930D01*
X57631815Y-35267927D01*
X57631816Y-35267928D01*
X57631817Y-35267929D01*
X57759148Y-35380734D01*
X57909775Y-35459790D01*
X58074944Y-35500500D01*
X58074945Y-35500500D01*
X58245055Y-35500500D01*
X58245056Y-35500500D01*
X58410225Y-35459790D01*
X58422374Y-35453413D01*
X58490879Y-35439687D01*
X58537624Y-35453412D01*
X58549775Y-35459790D01*
X58714944Y-35500500D01*
X58714945Y-35500500D01*
X58885055Y-35500500D01*
X58885056Y-35500500D01*
X59050225Y-35459790D01*
X59062374Y-35453413D01*
X59130879Y-35439687D01*
X59177624Y-35453412D01*
X59189775Y-35459790D01*
X59354944Y-35500500D01*
X59354945Y-35500500D01*
X59525055Y-35500500D01*
X59525056Y-35500500D01*
X59690225Y-35459790D01*
X59702374Y-35453413D01*
X59770879Y-35439687D01*
X59817624Y-35453412D01*
X59829775Y-35459790D01*
X59994944Y-35500500D01*
X59994945Y-35500500D01*
X60165055Y-35500500D01*
X60165056Y-35500500D01*
X60330225Y-35459790D01*
X60342374Y-35453413D01*
X60410879Y-35439687D01*
X60457624Y-35453412D01*
X60469775Y-35459790D01*
X60634944Y-35500500D01*
X60634945Y-35500500D01*
X60805055Y-35500500D01*
X60805056Y-35500500D01*
X60970225Y-35459790D01*
X60982374Y-35453413D01*
X61050879Y-35439687D01*
X61097624Y-35453412D01*
X61109775Y-35459790D01*
X61274944Y-35500500D01*
X61274945Y-35500500D01*
X61445055Y-35500500D01*
X61445056Y-35500500D01*
X61610225Y-35459790D01*
X61622374Y-35453413D01*
X61690879Y-35439687D01*
X61737624Y-35453412D01*
X61749775Y-35459790D01*
X61914944Y-35500500D01*
X61914945Y-35500500D01*
X62085055Y-35500500D01*
X62085056Y-35500500D01*
X62250225Y-35459790D01*
X62262374Y-35453413D01*
X62330879Y-35439687D01*
X62377624Y-35453412D01*
X62389775Y-35459790D01*
X62554944Y-35500500D01*
X62554945Y-35500500D01*
X62725055Y-35500500D01*
X62725056Y-35500500D01*
X62890225Y-35459790D01*
X62902374Y-35453413D01*
X62970879Y-35439687D01*
X63017624Y-35453412D01*
X63029775Y-35459790D01*
X63194944Y-35500500D01*
X63194945Y-35500500D01*
X63365055Y-35500500D01*
X63365056Y-35500500D01*
X63530225Y-35459790D01*
X63542374Y-35453413D01*
X63610879Y-35439687D01*
X63657624Y-35453412D01*
X63669775Y-35459790D01*
X63834944Y-35500500D01*
X63834945Y-35500500D01*
X64005055Y-35500500D01*
X64005056Y-35500500D01*
X64170225Y-35459790D01*
X64182374Y-35453413D01*
X64250879Y-35439687D01*
X64297624Y-35453412D01*
X64309775Y-35459790D01*
X64474944Y-35500500D01*
X64474945Y-35500500D01*
X64645055Y-35500500D01*
X64645056Y-35500500D01*
X64810225Y-35459790D01*
X64822374Y-35453413D01*
X64890879Y-35439687D01*
X64937624Y-35453412D01*
X64949775Y-35459790D01*
X65114944Y-35500500D01*
X65114945Y-35500500D01*
X65285055Y-35500500D01*
X65285056Y-35500500D01*
X65450225Y-35459790D01*
X65462374Y-35453413D01*
X65530879Y-35439687D01*
X65577624Y-35453412D01*
X65589775Y-35459790D01*
X65754944Y-35500500D01*
X65754945Y-35500500D01*
X65925055Y-35500500D01*
X65925056Y-35500500D01*
X66090225Y-35459790D01*
X66102374Y-35453413D01*
X66170879Y-35439687D01*
X66217624Y-35453412D01*
X66229775Y-35459790D01*
X66394944Y-35500500D01*
X66394945Y-35500500D01*
X66565055Y-35500500D01*
X66565056Y-35500500D01*
X66730225Y-35459790D01*
X66742374Y-35453413D01*
X66810879Y-35439687D01*
X66857624Y-35453412D01*
X66869775Y-35459790D01*
X67034944Y-35500500D01*
X67034945Y-35500500D01*
X67205055Y-35500500D01*
X67205056Y-35500500D01*
X67370225Y-35459790D01*
X67382374Y-35453413D01*
X67450879Y-35439687D01*
X67497624Y-35453412D01*
X67509775Y-35459790D01*
X67674944Y-35500500D01*
X67674945Y-35500500D01*
X67845055Y-35500500D01*
X67845056Y-35500500D01*
X68010225Y-35459790D01*
X68033135Y-35447765D01*
X68101641Y-35434040D01*
X68148384Y-35447765D01*
X68153347Y-35450370D01*
X68316158Y-35490500D01*
X68316159Y-35490500D01*
X68483841Y-35490500D01*
X68483842Y-35490500D01*
X68646653Y-35450370D01*
X68795129Y-35372444D01*
X68920642Y-35261249D01*
X69015898Y-35123248D01*
X69075359Y-34966461D01*
X69095571Y-34800000D01*
X69092580Y-34775373D01*
X69104041Y-34706450D01*
X69150945Y-34654664D01*
X69189892Y-34639137D01*
X69264267Y-34623329D01*
X69427593Y-34550612D01*
X69527115Y-34478304D01*
X69592919Y-34454824D01*
X69660974Y-34470649D01*
X69672878Y-34478299D01*
X69723519Y-34515092D01*
X69772406Y-34550612D01*
X69935735Y-34623330D01*
X70110607Y-34660500D01*
X70110609Y-34660500D01*
X70289393Y-34660500D01*
X70464264Y-34623330D01*
X70464265Y-34623329D01*
X70464267Y-34623329D01*
X70627593Y-34550612D01*
X70727115Y-34478304D01*
X70792919Y-34454824D01*
X70860974Y-34470649D01*
X70872878Y-34478299D01*
X70923519Y-34515092D01*
X70972406Y-34550612D01*
X71135735Y-34623330D01*
X71310607Y-34660500D01*
X71310609Y-34660500D01*
X71489393Y-34660500D01*
X71664264Y-34623330D01*
X71664265Y-34623329D01*
X71664267Y-34623329D01*
X71827593Y-34550612D01*
X71927115Y-34478304D01*
X71992919Y-34454824D01*
X72060974Y-34470649D01*
X72072878Y-34478299D01*
X72123519Y-34515092D01*
X72172406Y-34550612D01*
X72335735Y-34623330D01*
X72510607Y-34660500D01*
X72510609Y-34660500D01*
X72689393Y-34660500D01*
X72864264Y-34623330D01*
X72864265Y-34623329D01*
X72864267Y-34623329D01*
X73027593Y-34550612D01*
X73127115Y-34478304D01*
X73192919Y-34454824D01*
X73260974Y-34470649D01*
X73272878Y-34478299D01*
X73323519Y-34515092D01*
X73372406Y-34550612D01*
X73535735Y-34623330D01*
X73710607Y-34660500D01*
X73710609Y-34660500D01*
X73889393Y-34660500D01*
X74064264Y-34623330D01*
X74064265Y-34623329D01*
X74064267Y-34623329D01*
X74227593Y-34550612D01*
X74327115Y-34478304D01*
X74392919Y-34454824D01*
X74460974Y-34470649D01*
X74472878Y-34478299D01*
X74523519Y-34515092D01*
X74572406Y-34550612D01*
X74735735Y-34623330D01*
X74910607Y-34660500D01*
X74910609Y-34660500D01*
X75089393Y-34660500D01*
X75264264Y-34623330D01*
X75264265Y-34623329D01*
X75264267Y-34623329D01*
X75427593Y-34550612D01*
X75527116Y-34478303D01*
X75592918Y-34454824D01*
X75660972Y-34470648D01*
X75672885Y-34478304D01*
X75772407Y-34550612D01*
X75935735Y-34623330D01*
X76110607Y-34660500D01*
X76110609Y-34660500D01*
X76289393Y-34660500D01*
X76464262Y-34623330D01*
X76464261Y-34623330D01*
X76464267Y-34623329D01*
X76487988Y-34612767D01*
X76557235Y-34603482D01*
X76620512Y-34633110D01*
X76657727Y-34692244D01*
X76661519Y-34740993D01*
X76654354Y-34799998D01*
X76674860Y-34968872D01*
X76735182Y-35127930D01*
X76831815Y-35267927D01*
X76831816Y-35267928D01*
X76831817Y-35267929D01*
X76959148Y-35380734D01*
X77109775Y-35459790D01*
X77274944Y-35500500D01*
X77274945Y-35500500D01*
X77445055Y-35500500D01*
X77445056Y-35500500D01*
X77610225Y-35459790D01*
X77622374Y-35453413D01*
X77690879Y-35439687D01*
X77737624Y-35453412D01*
X77749775Y-35459790D01*
X77914944Y-35500500D01*
X77914945Y-35500500D01*
X78085055Y-35500500D01*
X78085056Y-35500500D01*
X78250225Y-35459790D01*
X78262374Y-35453413D01*
X78330879Y-35439687D01*
X78377624Y-35453412D01*
X78389775Y-35459790D01*
X78554944Y-35500500D01*
X78554945Y-35500500D01*
X78725055Y-35500500D01*
X78725056Y-35500500D01*
X78890225Y-35459790D01*
X78902374Y-35453413D01*
X78970879Y-35439687D01*
X79017624Y-35453412D01*
X79029775Y-35459790D01*
X79194944Y-35500500D01*
X79194945Y-35500500D01*
X79365055Y-35500500D01*
X79365056Y-35500500D01*
X79530225Y-35459790D01*
X79542374Y-35453413D01*
X79610879Y-35439687D01*
X79657624Y-35453412D01*
X79669775Y-35459790D01*
X79834944Y-35500500D01*
X79834945Y-35500500D01*
X80005055Y-35500500D01*
X80005056Y-35500500D01*
X80170225Y-35459790D01*
X80182374Y-35453413D01*
X80250879Y-35439687D01*
X80297624Y-35453412D01*
X80309775Y-35459790D01*
X80474944Y-35500500D01*
X80474945Y-35500500D01*
X80645055Y-35500500D01*
X80645056Y-35500500D01*
X80810225Y-35459790D01*
X80822374Y-35453413D01*
X80890879Y-35439687D01*
X80937624Y-35453412D01*
X80949775Y-35459790D01*
X81114944Y-35500500D01*
X81114945Y-35500500D01*
X81285055Y-35500500D01*
X81285056Y-35500500D01*
X81450225Y-35459790D01*
X81462374Y-35453413D01*
X81530879Y-35439687D01*
X81577624Y-35453412D01*
X81589775Y-35459790D01*
X81754944Y-35500500D01*
X81754945Y-35500500D01*
X81925055Y-35500500D01*
X81925056Y-35500500D01*
X82090225Y-35459790D01*
X82102374Y-35453413D01*
X82170879Y-35439687D01*
X82217624Y-35453412D01*
X82229775Y-35459790D01*
X82394944Y-35500500D01*
X82394945Y-35500500D01*
X82565055Y-35500500D01*
X82565056Y-35500500D01*
X82730225Y-35459790D01*
X82742374Y-35453413D01*
X82810879Y-35439687D01*
X82857624Y-35453412D01*
X82869775Y-35459790D01*
X83034944Y-35500500D01*
X83034945Y-35500500D01*
X83205055Y-35500500D01*
X83205056Y-35500500D01*
X83370225Y-35459790D01*
X83382374Y-35453413D01*
X83450879Y-35439687D01*
X83497624Y-35453412D01*
X83509775Y-35459790D01*
X83674944Y-35500500D01*
X83674945Y-35500500D01*
X83845055Y-35500500D01*
X83845056Y-35500500D01*
X84010225Y-35459790D01*
X84022374Y-35453413D01*
X84090879Y-35439687D01*
X84137624Y-35453412D01*
X84149775Y-35459790D01*
X84314944Y-35500500D01*
X84314945Y-35500500D01*
X84485055Y-35500500D01*
X84485056Y-35500500D01*
X84650225Y-35459790D01*
X84662374Y-35453413D01*
X84730879Y-35439687D01*
X84777624Y-35453412D01*
X84789775Y-35459790D01*
X84954944Y-35500500D01*
X84954945Y-35500500D01*
X85125055Y-35500500D01*
X85125056Y-35500500D01*
X85290225Y-35459790D01*
X85302374Y-35453413D01*
X85370879Y-35439687D01*
X85417624Y-35453412D01*
X85429775Y-35459790D01*
X85594944Y-35500500D01*
X85594945Y-35500500D01*
X85765055Y-35500500D01*
X85765056Y-35500500D01*
X85930225Y-35459790D01*
X85942374Y-35453413D01*
X86010879Y-35439687D01*
X86057624Y-35453412D01*
X86069775Y-35459790D01*
X86234944Y-35500500D01*
X86234945Y-35500500D01*
X86405055Y-35500500D01*
X86405056Y-35500500D01*
X86570225Y-35459790D01*
X86582374Y-35453413D01*
X86650879Y-35439687D01*
X86697624Y-35453412D01*
X86709775Y-35459790D01*
X86773931Y-35475603D01*
X86834310Y-35510758D01*
X86866099Y-35572977D01*
X86859203Y-35642506D01*
X86831936Y-35683680D01*
X86554663Y-35960953D01*
X86554656Y-35960960D01*
X86551664Y-35963953D01*
X86549111Y-35967319D01*
X86549102Y-35967330D01*
X86484437Y-36052606D01*
X86429930Y-36190823D01*
X86429930Y-36190826D01*
X86414736Y-36338627D01*
X86439982Y-36485047D01*
X86503794Y-36619226D01*
X86601442Y-36731212D01*
X86725681Y-36812701D01*
X86867300Y-36857649D01*
X87015794Y-36862721D01*
X87015794Y-36862720D01*
X87015795Y-36862721D01*
X87063912Y-36850994D01*
X87160149Y-36827543D01*
X87289660Y-36754722D01*
X88471405Y-35572977D01*
X89657564Y-34386819D01*
X89718887Y-34353334D01*
X89745245Y-34350500D01*
X91087000Y-34350500D01*
X91154039Y-34370185D01*
X91179145Y-34391523D01*
X91227770Y-34445526D01*
X91227773Y-34445528D01*
X91227774Y-34445529D01*
X91372403Y-34550610D01*
X91535735Y-34623330D01*
X91710607Y-34660500D01*
X91710609Y-34660500D01*
X91889393Y-34660500D01*
X92064264Y-34623330D01*
X92064265Y-34623329D01*
X92064267Y-34623329D01*
X92227593Y-34550612D01*
X92327115Y-34478304D01*
X92392919Y-34454824D01*
X92460974Y-34470649D01*
X92472878Y-34478299D01*
X92523519Y-34515092D01*
X92572406Y-34550612D01*
X92735735Y-34623330D01*
X92910607Y-34660500D01*
X92910609Y-34660500D01*
X93089393Y-34660500D01*
X93264264Y-34623330D01*
X93264265Y-34623329D01*
X93264267Y-34623329D01*
X93427593Y-34550612D01*
X93527115Y-34478304D01*
X93592919Y-34454824D01*
X93660974Y-34470649D01*
X93672878Y-34478299D01*
X93723519Y-34515092D01*
X93772406Y-34550612D01*
X93935735Y-34623330D01*
X94110607Y-34660500D01*
X94110609Y-34660500D01*
X94289393Y-34660500D01*
X94464264Y-34623330D01*
X94464265Y-34623329D01*
X94464267Y-34623329D01*
X94627593Y-34550612D01*
X94727116Y-34478303D01*
X94792918Y-34454824D01*
X94860972Y-34470648D01*
X94872885Y-34478304D01*
X94972407Y-34550612D01*
X95135735Y-34623330D01*
X95310607Y-34660500D01*
X95310609Y-34660500D01*
X95489393Y-34660500D01*
X95664264Y-34623330D01*
X95664265Y-34623329D01*
X95664267Y-34623329D01*
X95827593Y-34550612D01*
X95927115Y-34478304D01*
X95992919Y-34454824D01*
X96060974Y-34470649D01*
X96072878Y-34478299D01*
X96123519Y-34515092D01*
X96172406Y-34550612D01*
X96335735Y-34623330D01*
X96510607Y-34660500D01*
X96510609Y-34660500D01*
X96689393Y-34660500D01*
X96864264Y-34623330D01*
X96864265Y-34623329D01*
X96864267Y-34623329D01*
X97027593Y-34550612D01*
X97127115Y-34478304D01*
X97192919Y-34454824D01*
X97260974Y-34470649D01*
X97272878Y-34478299D01*
X97323519Y-34515092D01*
X97372406Y-34550612D01*
X97535735Y-34623330D01*
X97710607Y-34660500D01*
X97710609Y-34660500D01*
X97889393Y-34660500D01*
X98064264Y-34623330D01*
X98064265Y-34623329D01*
X98064267Y-34623329D01*
X98227593Y-34550612D01*
X98327115Y-34478304D01*
X98392919Y-34454824D01*
X98460974Y-34470649D01*
X98472878Y-34478299D01*
X98523519Y-34515092D01*
X98572406Y-34550612D01*
X98735735Y-34623330D01*
X98910607Y-34660500D01*
X98910609Y-34660500D01*
X99089393Y-34660500D01*
X99264264Y-34623330D01*
X99264265Y-34623329D01*
X99264267Y-34623329D01*
X99427593Y-34550612D01*
X99527116Y-34478303D01*
X99592918Y-34454824D01*
X99660972Y-34470648D01*
X99672885Y-34478304D01*
X99772407Y-34550612D01*
X99935735Y-34623330D01*
X100110607Y-34660500D01*
X100110609Y-34660500D01*
X100289393Y-34660500D01*
X100464264Y-34623330D01*
X100464265Y-34623329D01*
X100464267Y-34623329D01*
X100627593Y-34550612D01*
X100632612Y-34546965D01*
X100698419Y-34523484D01*
X100766473Y-34539309D01*
X100815169Y-34589414D01*
X100829500Y-34647282D01*
X100829500Y-35586191D01*
X100809815Y-35653230D01*
X100763126Y-35695987D01*
X100664871Y-35747555D01*
X100539358Y-35858749D01*
X100444101Y-35996751D01*
X100384641Y-36153538D01*
X100364428Y-36320000D01*
X100384641Y-36486461D01*
X100444101Y-36643248D01*
X100539358Y-36781250D01*
X100664869Y-36892443D01*
X100664871Y-36892444D01*
X100813347Y-36970370D01*
X100976158Y-37010500D01*
X100976159Y-37010500D01*
X101143841Y-37010500D01*
X101143842Y-37010500D01*
X101306653Y-36970370D01*
X101322374Y-36962118D01*
X101390882Y-36948393D01*
X101437625Y-36962118D01*
X101453347Y-36970370D01*
X101616158Y-37010500D01*
X101616159Y-37010500D01*
X101783841Y-37010500D01*
X101783842Y-37010500D01*
X101946653Y-36970370D01*
X101962374Y-36962118D01*
X102030882Y-36948393D01*
X102077625Y-36962118D01*
X102093347Y-36970370D01*
X102256158Y-37010500D01*
X102256159Y-37010500D01*
X102423841Y-37010500D01*
X102423842Y-37010500D01*
X102586653Y-36970370D01*
X102602374Y-36962118D01*
X102670882Y-36948393D01*
X102717625Y-36962118D01*
X102733347Y-36970370D01*
X102896158Y-37010500D01*
X102896159Y-37010500D01*
X103063841Y-37010500D01*
X103063842Y-37010500D01*
X103226653Y-36970370D01*
X103242374Y-36962118D01*
X103310882Y-36948393D01*
X103357625Y-36962118D01*
X103373347Y-36970370D01*
X103536158Y-37010500D01*
X103536159Y-37010500D01*
X103703841Y-37010500D01*
X103703842Y-37010500D01*
X103866653Y-36970370D01*
X103882374Y-36962118D01*
X103950882Y-36948393D01*
X103997625Y-36962118D01*
X104013347Y-36970370D01*
X104176158Y-37010500D01*
X104176159Y-37010500D01*
X104343841Y-37010500D01*
X104343842Y-37010500D01*
X104506653Y-36970370D01*
X104522374Y-36962118D01*
X104590882Y-36948393D01*
X104637625Y-36962118D01*
X104653347Y-36970370D01*
X104816158Y-37010500D01*
X104816159Y-37010500D01*
X104983841Y-37010500D01*
X104983842Y-37010500D01*
X105146653Y-36970370D01*
X105162374Y-36962118D01*
X105230882Y-36948393D01*
X105277625Y-36962118D01*
X105293347Y-36970370D01*
X105456158Y-37010500D01*
X105456159Y-37010500D01*
X105623841Y-37010500D01*
X105623842Y-37010500D01*
X105786653Y-36970370D01*
X105802374Y-36962118D01*
X105870882Y-36948393D01*
X105917625Y-36962118D01*
X105933347Y-36970370D01*
X106096158Y-37010500D01*
X106096159Y-37010500D01*
X106263841Y-37010500D01*
X106263842Y-37010500D01*
X106426653Y-36970370D01*
X106442374Y-36962118D01*
X106510882Y-36948393D01*
X106557625Y-36962118D01*
X106573347Y-36970370D01*
X106736158Y-37010500D01*
X106736159Y-37010500D01*
X106903841Y-37010500D01*
X106903842Y-37010500D01*
X107066653Y-36970370D01*
X107082374Y-36962118D01*
X107150882Y-36948393D01*
X107197625Y-36962118D01*
X107213347Y-36970370D01*
X107376158Y-37010500D01*
X107376159Y-37010500D01*
X107543841Y-37010500D01*
X107543842Y-37010500D01*
X107706653Y-36970370D01*
X107722374Y-36962118D01*
X107790882Y-36948393D01*
X107837625Y-36962118D01*
X107853347Y-36970370D01*
X108016158Y-37010500D01*
X108016159Y-37010500D01*
X108183841Y-37010500D01*
X108183842Y-37010500D01*
X108346653Y-36970370D01*
X108362374Y-36962118D01*
X108430882Y-36948393D01*
X108477625Y-36962118D01*
X108493347Y-36970370D01*
X108656158Y-37010500D01*
X108656159Y-37010500D01*
X108823841Y-37010500D01*
X108823842Y-37010500D01*
X108986653Y-36970370D01*
X109002374Y-36962118D01*
X109070882Y-36948393D01*
X109117625Y-36962118D01*
X109133347Y-36970370D01*
X109296158Y-37010500D01*
X109296159Y-37010500D01*
X109463841Y-37010500D01*
X109463842Y-37010500D01*
X109626653Y-36970370D01*
X109642374Y-36962118D01*
X109710882Y-36948393D01*
X109757625Y-36962118D01*
X109773347Y-36970370D01*
X109936158Y-37010500D01*
X109936159Y-37010500D01*
X110103841Y-37010500D01*
X110103842Y-37010500D01*
X110266653Y-36970370D01*
X110282374Y-36962118D01*
X110350882Y-36948393D01*
X110397625Y-36962118D01*
X110413347Y-36970370D01*
X110576158Y-37010500D01*
X110576159Y-37010500D01*
X110743841Y-37010500D01*
X110743842Y-37010500D01*
X110906653Y-36970370D01*
X110922374Y-36962118D01*
X110990882Y-36948393D01*
X111037625Y-36962118D01*
X111053347Y-36970370D01*
X111216158Y-37010500D01*
X111216159Y-37010500D01*
X111383841Y-37010500D01*
X111383842Y-37010500D01*
X111546653Y-36970370D01*
X111695129Y-36892444D01*
X111820642Y-36781249D01*
X111915898Y-36643248D01*
X111975359Y-36486461D01*
X111995571Y-36320000D01*
X111975359Y-36153539D01*
X111915898Y-35996752D01*
X111915898Y-35996751D01*
X111820641Y-35858749D01*
X111695128Y-35747555D01*
X111586874Y-35690738D01*
X111536661Y-35642153D01*
X111520500Y-35580942D01*
X111520500Y-35564773D01*
X111540185Y-35497734D01*
X111592989Y-35451979D01*
X111662147Y-35442035D01*
X111678583Y-35447356D01*
X111678729Y-35446766D01*
X111693343Y-35450368D01*
X111693347Y-35450370D01*
X111856158Y-35490500D01*
X111856159Y-35490500D01*
X112023841Y-35490500D01*
X112023842Y-35490500D01*
X112186653Y-35450370D01*
X112335129Y-35372444D01*
X112460642Y-35261249D01*
X112555898Y-35123248D01*
X112615359Y-34966461D01*
X112635571Y-34800000D01*
X112615888Y-34637898D01*
X112627348Y-34568977D01*
X112666098Y-34522636D01*
X112727115Y-34478304D01*
X112792919Y-34454824D01*
X112860973Y-34470649D01*
X112872885Y-34478304D01*
X112972407Y-34550612D01*
X113135735Y-34623330D01*
X113310607Y-34660500D01*
X113310609Y-34660500D01*
X113489393Y-34660500D01*
X113664264Y-34623330D01*
X113664265Y-34623329D01*
X113664267Y-34623329D01*
X113827593Y-34550612D01*
X113927116Y-34478303D01*
X113992918Y-34454824D01*
X114060972Y-34470648D01*
X114072885Y-34478304D01*
X114172407Y-34550612D01*
X114335735Y-34623330D01*
X114510607Y-34660500D01*
X114510609Y-34660500D01*
X114689393Y-34660500D01*
X114864264Y-34623330D01*
X114864265Y-34623329D01*
X114864267Y-34623329D01*
X115027593Y-34550612D01*
X115127115Y-34478304D01*
X115192919Y-34454824D01*
X115260974Y-34470649D01*
X115272878Y-34478299D01*
X115323519Y-34515092D01*
X115372406Y-34550612D01*
X115535735Y-34623330D01*
X115710607Y-34660500D01*
X115710609Y-34660500D01*
X115889393Y-34660500D01*
X116064264Y-34623330D01*
X116064265Y-34623329D01*
X116064267Y-34623329D01*
X116227593Y-34550612D01*
X116327115Y-34478304D01*
X116392919Y-34454824D01*
X116460974Y-34470649D01*
X116472878Y-34478299D01*
X116523519Y-34515092D01*
X116572406Y-34550612D01*
X116735735Y-34623330D01*
X116910607Y-34660500D01*
X116910609Y-34660500D01*
X117089393Y-34660500D01*
X117264264Y-34623330D01*
X117264265Y-34623329D01*
X117264267Y-34623329D01*
X117427593Y-34550612D01*
X117527115Y-34478304D01*
X117592919Y-34454824D01*
X117660974Y-34470649D01*
X117672878Y-34478299D01*
X117723519Y-34515092D01*
X117772406Y-34550612D01*
X117935735Y-34623330D01*
X118110607Y-34660500D01*
X118110609Y-34660500D01*
X118289393Y-34660500D01*
X118464264Y-34623330D01*
X118464265Y-34623329D01*
X118464267Y-34623329D01*
X118627593Y-34550612D01*
X118727116Y-34478303D01*
X118792918Y-34454824D01*
X118860972Y-34470648D01*
X118872885Y-34478304D01*
X118972407Y-34550612D01*
X119135735Y-34623330D01*
X119310607Y-34660500D01*
X119310609Y-34660500D01*
X119489393Y-34660500D01*
X119664264Y-34623330D01*
X119664265Y-34623329D01*
X119664267Y-34623329D01*
X119827593Y-34550612D01*
X119832612Y-34546965D01*
X119898419Y-34523484D01*
X119966473Y-34539309D01*
X120015169Y-34589414D01*
X120029500Y-34647282D01*
X120029500Y-35586191D01*
X120009815Y-35653230D01*
X119963126Y-35695987D01*
X119864871Y-35747555D01*
X119739358Y-35858749D01*
X119644101Y-35996751D01*
X119584641Y-36153538D01*
X119564428Y-36320000D01*
X119584641Y-36486461D01*
X119644101Y-36643248D01*
X119739358Y-36781250D01*
X119864869Y-36892443D01*
X119864871Y-36892444D01*
X120013347Y-36970370D01*
X120176158Y-37010500D01*
X120176159Y-37010500D01*
X120343841Y-37010500D01*
X120343842Y-37010500D01*
X120506653Y-36970370D01*
X120522374Y-36962118D01*
X120590882Y-36948393D01*
X120637625Y-36962118D01*
X120653347Y-36970370D01*
X120816158Y-37010500D01*
X120816159Y-37010500D01*
X120983841Y-37010500D01*
X120983842Y-37010500D01*
X121146653Y-36970370D01*
X121162374Y-36962118D01*
X121230882Y-36948393D01*
X121277625Y-36962118D01*
X121293347Y-36970370D01*
X121456158Y-37010500D01*
X121456159Y-37010500D01*
X121623841Y-37010500D01*
X121623842Y-37010500D01*
X121786653Y-36970370D01*
X121802374Y-36962118D01*
X121870882Y-36948393D01*
X121917625Y-36962118D01*
X121933347Y-36970370D01*
X122096158Y-37010500D01*
X122096159Y-37010500D01*
X122263841Y-37010500D01*
X122263842Y-37010500D01*
X122426653Y-36970370D01*
X122442374Y-36962118D01*
X122510882Y-36948393D01*
X122557625Y-36962118D01*
X122573347Y-36970370D01*
X122736158Y-37010500D01*
X122736159Y-37010500D01*
X122903841Y-37010500D01*
X122903842Y-37010500D01*
X123066653Y-36970370D01*
X123082374Y-36962118D01*
X123150882Y-36948393D01*
X123197625Y-36962118D01*
X123213347Y-36970370D01*
X123376158Y-37010500D01*
X123376159Y-37010500D01*
X123543841Y-37010500D01*
X123543842Y-37010500D01*
X123706653Y-36970370D01*
X123722374Y-36962118D01*
X123790882Y-36948393D01*
X123837625Y-36962118D01*
X123853347Y-36970370D01*
X124016158Y-37010500D01*
X124016159Y-37010500D01*
X124183841Y-37010500D01*
X124183842Y-37010500D01*
X124346653Y-36970370D01*
X124362374Y-36962118D01*
X124430882Y-36948393D01*
X124477625Y-36962118D01*
X124493347Y-36970370D01*
X124656158Y-37010500D01*
X124656159Y-37010500D01*
X124823841Y-37010500D01*
X124823842Y-37010500D01*
X124986653Y-36970370D01*
X125002374Y-36962118D01*
X125070882Y-36948393D01*
X125117625Y-36962118D01*
X125133347Y-36970370D01*
X125296158Y-37010500D01*
X125296159Y-37010500D01*
X125463841Y-37010500D01*
X125463842Y-37010500D01*
X125626653Y-36970370D01*
X125642374Y-36962118D01*
X125710882Y-36948393D01*
X125757625Y-36962118D01*
X125773347Y-36970370D01*
X125936158Y-37010500D01*
X125936159Y-37010500D01*
X126103841Y-37010500D01*
X126103842Y-37010500D01*
X126266653Y-36970370D01*
X126282374Y-36962118D01*
X126350882Y-36948393D01*
X126397625Y-36962118D01*
X126413347Y-36970370D01*
X126576158Y-37010500D01*
X126576159Y-37010500D01*
X126743841Y-37010500D01*
X126743842Y-37010500D01*
X126906653Y-36970370D01*
X126922374Y-36962118D01*
X126990882Y-36948393D01*
X127037625Y-36962118D01*
X127053347Y-36970370D01*
X127216158Y-37010500D01*
X127216159Y-37010500D01*
X127383841Y-37010500D01*
X127383842Y-37010500D01*
X127546653Y-36970370D01*
X127562374Y-36962118D01*
X127630882Y-36948393D01*
X127677625Y-36962118D01*
X127693347Y-36970370D01*
X127856158Y-37010500D01*
X127856159Y-37010500D01*
X128023841Y-37010500D01*
X128023842Y-37010500D01*
X128186653Y-36970370D01*
X128202374Y-36962118D01*
X128270882Y-36948393D01*
X128317625Y-36962118D01*
X128333347Y-36970370D01*
X128496158Y-37010500D01*
X128496159Y-37010500D01*
X128663841Y-37010500D01*
X128663842Y-37010500D01*
X128826653Y-36970370D01*
X128842374Y-36962118D01*
X128910882Y-36948393D01*
X128957625Y-36962118D01*
X128973347Y-36970370D01*
X129136158Y-37010500D01*
X129136159Y-37010500D01*
X129303841Y-37010500D01*
X129303842Y-37010500D01*
X129466653Y-36970370D01*
X129482374Y-36962118D01*
X129550882Y-36948393D01*
X129597625Y-36962118D01*
X129613347Y-36970370D01*
X129776158Y-37010500D01*
X129776159Y-37010500D01*
X129943841Y-37010500D01*
X129943842Y-37010500D01*
X130106653Y-36970370D01*
X130122374Y-36962118D01*
X130190882Y-36948393D01*
X130237625Y-36962118D01*
X130253347Y-36970370D01*
X130416158Y-37010500D01*
X130416159Y-37010500D01*
X130583841Y-37010500D01*
X130583842Y-37010500D01*
X130746653Y-36970370D01*
X130895129Y-36892444D01*
X131020642Y-36781249D01*
X131115898Y-36643248D01*
X131175359Y-36486461D01*
X131195571Y-36320000D01*
X131175359Y-36153539D01*
X131115898Y-35996752D01*
X131115898Y-35996751D01*
X131020641Y-35858749D01*
X130895128Y-35747555D01*
X130786874Y-35690738D01*
X130736661Y-35642153D01*
X130720500Y-35580942D01*
X130720500Y-35564773D01*
X130740185Y-35497734D01*
X130792989Y-35451979D01*
X130862147Y-35442035D01*
X130878583Y-35447356D01*
X130878729Y-35446766D01*
X130893343Y-35450368D01*
X130893347Y-35450370D01*
X131056158Y-35490500D01*
X131056159Y-35490500D01*
X131223841Y-35490500D01*
X131223842Y-35490500D01*
X131386653Y-35450370D01*
X131535129Y-35372444D01*
X131660642Y-35261249D01*
X131755898Y-35123248D01*
X131815359Y-34966461D01*
X131835571Y-34800000D01*
X131815888Y-34637898D01*
X131827348Y-34568977D01*
X131866098Y-34522636D01*
X131927115Y-34478304D01*
X131992919Y-34454824D01*
X132060973Y-34470649D01*
X132072885Y-34478304D01*
X132172407Y-34550612D01*
X132335735Y-34623330D01*
X132510607Y-34660500D01*
X132510609Y-34660500D01*
X132689393Y-34660500D01*
X132864264Y-34623330D01*
X132864265Y-34623329D01*
X132864267Y-34623329D01*
X133027593Y-34550612D01*
X133127116Y-34478303D01*
X133192918Y-34454824D01*
X133260972Y-34470648D01*
X133272885Y-34478304D01*
X133372407Y-34550612D01*
X133535735Y-34623330D01*
X133710607Y-34660500D01*
X133710609Y-34660500D01*
X133889393Y-34660500D01*
X134064264Y-34623330D01*
X134064265Y-34623329D01*
X134064267Y-34623329D01*
X134227593Y-34550612D01*
X134327115Y-34478304D01*
X134392919Y-34454824D01*
X134460974Y-34470649D01*
X134472878Y-34478299D01*
X134523519Y-34515092D01*
X134572406Y-34550612D01*
X134735735Y-34623330D01*
X134910607Y-34660500D01*
X134910609Y-34660500D01*
X135089393Y-34660500D01*
X135264264Y-34623330D01*
X135264265Y-34623329D01*
X135264267Y-34623329D01*
X135427593Y-34550612D01*
X135527115Y-34478304D01*
X135592919Y-34454824D01*
X135660974Y-34470649D01*
X135672878Y-34478299D01*
X135723519Y-34515092D01*
X135772406Y-34550612D01*
X135935735Y-34623330D01*
X136110607Y-34660500D01*
X136110609Y-34660500D01*
X136289393Y-34660500D01*
X136464264Y-34623330D01*
X136464265Y-34623329D01*
X136464267Y-34623329D01*
X136627593Y-34550612D01*
X136727115Y-34478304D01*
X136792919Y-34454824D01*
X136860974Y-34470649D01*
X136872878Y-34478299D01*
X136923519Y-34515092D01*
X136972406Y-34550612D01*
X137135735Y-34623330D01*
X137310607Y-34660500D01*
X137310609Y-34660500D01*
X137489393Y-34660500D01*
X137664264Y-34623330D01*
X137664265Y-34623329D01*
X137664267Y-34623329D01*
X137827593Y-34550612D01*
X137927115Y-34478304D01*
X137992919Y-34454824D01*
X138060974Y-34470649D01*
X138072878Y-34478299D01*
X138123519Y-34515092D01*
X138172406Y-34550612D01*
X138335735Y-34623330D01*
X138510607Y-34660500D01*
X138510609Y-34660500D01*
X138689393Y-34660500D01*
X138864264Y-34623330D01*
X138864265Y-34623329D01*
X138864267Y-34623329D01*
X139027593Y-34550612D01*
X139032612Y-34546965D01*
X139098419Y-34523484D01*
X139166473Y-34539309D01*
X139215169Y-34589414D01*
X139229500Y-34647282D01*
X139229500Y-35586191D01*
X139209815Y-35653230D01*
X139163126Y-35695987D01*
X139064871Y-35747555D01*
X138939358Y-35858749D01*
X138844101Y-35996751D01*
X138784641Y-36153538D01*
X138764428Y-36320000D01*
X138784641Y-36486461D01*
X138844101Y-36643248D01*
X138939358Y-36781250D01*
X139064869Y-36892443D01*
X139064871Y-36892444D01*
X139213347Y-36970370D01*
X139376158Y-37010500D01*
X139376159Y-37010500D01*
X139543841Y-37010500D01*
X139543842Y-37010500D01*
X139706653Y-36970370D01*
X139722374Y-36962118D01*
X139790882Y-36948393D01*
X139837625Y-36962118D01*
X139853347Y-36970370D01*
X140016158Y-37010500D01*
X140016159Y-37010500D01*
X140183841Y-37010500D01*
X140183842Y-37010500D01*
X140346653Y-36970370D01*
X140362374Y-36962118D01*
X140430882Y-36948393D01*
X140477625Y-36962118D01*
X140493347Y-36970370D01*
X140656158Y-37010500D01*
X140656159Y-37010500D01*
X140823841Y-37010500D01*
X140823842Y-37010500D01*
X140986653Y-36970370D01*
X141002374Y-36962118D01*
X141070882Y-36948393D01*
X141117625Y-36962118D01*
X141133347Y-36970370D01*
X141296158Y-37010500D01*
X141296159Y-37010500D01*
X141463841Y-37010500D01*
X141463842Y-37010500D01*
X141626653Y-36970370D01*
X141642374Y-36962118D01*
X141710882Y-36948393D01*
X141757625Y-36962118D01*
X141773347Y-36970370D01*
X141936158Y-37010500D01*
X141936159Y-37010500D01*
X142103841Y-37010500D01*
X142103842Y-37010500D01*
X142266653Y-36970370D01*
X142282374Y-36962118D01*
X142350882Y-36948393D01*
X142397625Y-36962118D01*
X142413347Y-36970370D01*
X142576158Y-37010500D01*
X142576159Y-37010500D01*
X142743841Y-37010500D01*
X142743842Y-37010500D01*
X142906653Y-36970370D01*
X142922374Y-36962118D01*
X142990882Y-36948393D01*
X143037625Y-36962118D01*
X143053347Y-36970370D01*
X143216158Y-37010500D01*
X143216159Y-37010500D01*
X143383841Y-37010500D01*
X143383842Y-37010500D01*
X143546653Y-36970370D01*
X143562374Y-36962118D01*
X143630882Y-36948393D01*
X143677625Y-36962118D01*
X143693347Y-36970370D01*
X143856158Y-37010500D01*
X143856159Y-37010500D01*
X144023841Y-37010500D01*
X144023842Y-37010500D01*
X144186653Y-36970370D01*
X144202374Y-36962118D01*
X144270882Y-36948393D01*
X144317625Y-36962118D01*
X144333347Y-36970370D01*
X144496158Y-37010500D01*
X144496159Y-37010500D01*
X144663841Y-37010500D01*
X144663842Y-37010500D01*
X144826653Y-36970370D01*
X144842374Y-36962118D01*
X144910882Y-36948393D01*
X144957625Y-36962118D01*
X144973347Y-36970370D01*
X145136158Y-37010500D01*
X145136159Y-37010500D01*
X145303841Y-37010500D01*
X145303842Y-37010500D01*
X145466653Y-36970370D01*
X145482374Y-36962118D01*
X145550882Y-36948393D01*
X145597625Y-36962118D01*
X145613347Y-36970370D01*
X145776158Y-37010500D01*
X145776159Y-37010500D01*
X145943841Y-37010500D01*
X145943842Y-37010500D01*
X146106653Y-36970370D01*
X146122374Y-36962118D01*
X146190882Y-36948393D01*
X146237625Y-36962118D01*
X146253347Y-36970370D01*
X146416158Y-37010500D01*
X146416159Y-37010500D01*
X146583841Y-37010500D01*
X146583842Y-37010500D01*
X146746653Y-36970370D01*
X146762374Y-36962118D01*
X146830882Y-36948393D01*
X146877625Y-36962118D01*
X146893347Y-36970370D01*
X147056158Y-37010500D01*
X147056159Y-37010500D01*
X147223841Y-37010500D01*
X147223842Y-37010500D01*
X147386653Y-36970370D01*
X147402374Y-36962118D01*
X147470882Y-36948393D01*
X147517625Y-36962118D01*
X147533347Y-36970370D01*
X147696158Y-37010500D01*
X147696159Y-37010500D01*
X147863841Y-37010500D01*
X147863842Y-37010500D01*
X148026653Y-36970370D01*
X148042374Y-36962118D01*
X148110882Y-36948393D01*
X148157625Y-36962118D01*
X148173347Y-36970370D01*
X148336158Y-37010500D01*
X148336159Y-37010500D01*
X148503841Y-37010500D01*
X148503842Y-37010500D01*
X148666653Y-36970370D01*
X148682374Y-36962118D01*
X148750882Y-36948393D01*
X148797625Y-36962118D01*
X148813347Y-36970370D01*
X148976158Y-37010500D01*
X148976159Y-37010500D01*
X149143841Y-37010500D01*
X149143842Y-37010500D01*
X149306653Y-36970370D01*
X149322374Y-36962118D01*
X149390882Y-36948393D01*
X149437625Y-36962118D01*
X149453347Y-36970370D01*
X149616158Y-37010500D01*
X149616159Y-37010500D01*
X149783841Y-37010500D01*
X149783842Y-37010500D01*
X149946653Y-36970370D01*
X150095129Y-36892444D01*
X150220642Y-36781249D01*
X150315898Y-36643248D01*
X150375359Y-36486461D01*
X150395571Y-36320000D01*
X150375359Y-36153539D01*
X150315898Y-35996752D01*
X150315898Y-35996751D01*
X150220641Y-35858749D01*
X150095128Y-35747555D01*
X149986874Y-35690738D01*
X149936661Y-35642153D01*
X149920500Y-35580942D01*
X149920500Y-35564773D01*
X149940185Y-35497734D01*
X149992989Y-35451979D01*
X150062147Y-35442035D01*
X150078583Y-35447356D01*
X150078729Y-35446766D01*
X150093343Y-35450368D01*
X150093347Y-35450370D01*
X150256158Y-35490500D01*
X150256159Y-35490500D01*
X150423841Y-35490500D01*
X150423842Y-35490500D01*
X150586653Y-35450370D01*
X150735129Y-35372444D01*
X150860642Y-35261249D01*
X150955898Y-35123248D01*
X151015359Y-34966461D01*
X151035571Y-34800000D01*
X151015359Y-34633539D01*
X150955898Y-34476752D01*
X150955898Y-34476751D01*
X150860641Y-34338749D01*
X150735130Y-34227556D01*
X150657204Y-34186657D01*
X150586653Y-34149630D01*
X150423842Y-34109500D01*
X150361422Y-34109500D01*
X150294383Y-34089815D01*
X150248628Y-34037011D01*
X150238101Y-33972538D01*
X150255185Y-33810000D01*
X150236497Y-33632197D01*
X150181250Y-33462165D01*
X150181250Y-33462164D01*
X150091859Y-33307334D01*
X149972228Y-33174472D01*
X149827595Y-33069388D01*
X149662845Y-32996037D01*
X149609607Y-32950786D01*
X149589286Y-32883937D01*
X149595347Y-32844447D01*
X149636497Y-32717803D01*
X149655185Y-32540000D01*
X149636497Y-32362197D01*
X149595350Y-32235559D01*
X149593355Y-32165717D01*
X149629436Y-32105885D01*
X149662846Y-32083961D01*
X149664264Y-32083329D01*
X149664267Y-32083329D01*
X149827593Y-32010612D01*
X149972230Y-31905526D01*
X150091859Y-31772665D01*
X150181250Y-31617835D01*
X150236497Y-31447803D01*
X150255185Y-31270000D01*
X150236497Y-31092197D01*
X150181250Y-30922165D01*
X150181250Y-30922164D01*
X150091859Y-30767334D01*
X149972228Y-30634472D01*
X149827595Y-30529388D01*
X149662845Y-30456037D01*
X149609607Y-30410786D01*
X149589286Y-30343937D01*
X149595347Y-30304447D01*
X149636497Y-30177803D01*
X149655185Y-30000000D01*
X149636497Y-29822197D01*
X149607410Y-29732678D01*
X149581250Y-29652164D01*
X149491859Y-29497334D01*
X149372228Y-29364472D01*
X149227596Y-29259389D01*
X149064264Y-29186669D01*
X148889393Y-29149500D01*
X148889391Y-29149500D01*
X148710609Y-29149500D01*
X148710607Y-29149500D01*
X148535735Y-29186669D01*
X148372405Y-29259388D01*
X148272885Y-29331694D01*
X148207079Y-29355174D01*
X148139025Y-29339348D01*
X148127115Y-29331694D01*
X148027595Y-29259388D01*
X147864264Y-29186669D01*
X147689393Y-29149500D01*
X147689391Y-29149500D01*
X147510609Y-29149500D01*
X147510607Y-29149500D01*
X147335735Y-29186669D01*
X147172405Y-29259388D01*
X147072885Y-29331694D01*
X147007079Y-29355174D01*
X146939025Y-29339348D01*
X146927115Y-29331694D01*
X146827595Y-29259388D01*
X146664264Y-29186669D01*
X146489393Y-29149500D01*
X146489391Y-29149500D01*
X146310609Y-29149500D01*
X146310607Y-29149500D01*
X146135735Y-29186669D01*
X145972405Y-29259388D01*
X145872885Y-29331694D01*
X145807079Y-29355174D01*
X145739025Y-29339348D01*
X145727115Y-29331694D01*
X145627595Y-29259388D01*
X145464264Y-29186669D01*
X145289393Y-29149500D01*
X145289391Y-29149500D01*
X145110609Y-29149500D01*
X145110607Y-29149500D01*
X144935735Y-29186669D01*
X144772405Y-29259388D01*
X144672885Y-29331694D01*
X144607079Y-29355174D01*
X144539025Y-29339348D01*
X144527115Y-29331694D01*
X144427595Y-29259388D01*
X144264264Y-29186669D01*
X144089393Y-29149500D01*
X144089391Y-29149500D01*
X143910609Y-29149500D01*
X143910607Y-29149500D01*
X143735735Y-29186669D01*
X143572405Y-29259388D01*
X143472885Y-29331694D01*
X143407079Y-29355174D01*
X143339025Y-29339348D01*
X143327115Y-29331694D01*
X143227595Y-29259388D01*
X143064264Y-29186669D01*
X142889393Y-29149500D01*
X142889391Y-29149500D01*
X142710609Y-29149500D01*
X142710607Y-29149500D01*
X142535735Y-29186669D01*
X142372405Y-29259388D01*
X142272885Y-29331694D01*
X142207079Y-29355174D01*
X142139025Y-29339348D01*
X142127115Y-29331694D01*
X142027595Y-29259388D01*
X141864264Y-29186669D01*
X141689393Y-29149500D01*
X141689391Y-29149500D01*
X141510609Y-29149500D01*
X141510607Y-29149500D01*
X141335735Y-29186669D01*
X141172405Y-29259388D01*
X141072885Y-29331694D01*
X141007079Y-29355174D01*
X140939025Y-29339348D01*
X140927115Y-29331694D01*
X140827594Y-29259388D01*
X140784063Y-29240006D01*
X140730827Y-29194755D01*
X140710506Y-29127906D01*
X140710500Y-29126727D01*
X140710500Y-28243808D01*
X140730185Y-28176769D01*
X140776873Y-28134012D01*
X140875129Y-28082444D01*
X141000642Y-27971249D01*
X141095898Y-27833248D01*
X141155359Y-27676461D01*
X141175571Y-27510000D01*
X141155359Y-27343539D01*
X141095898Y-27186752D01*
X141095898Y-27186751D01*
X141000641Y-27048749D01*
X140875130Y-26937556D01*
X140768523Y-26881605D01*
X140726653Y-26859630D01*
X140563842Y-26819500D01*
X140396158Y-26819500D01*
X140233346Y-26859629D01*
X140217625Y-26867881D01*
X140149117Y-26881605D01*
X140102375Y-26867881D01*
X140086653Y-26859629D01*
X139923842Y-26819500D01*
X139756158Y-26819500D01*
X139593346Y-26859629D01*
X139577625Y-26867881D01*
X139509117Y-26881605D01*
X139462375Y-26867881D01*
X139446653Y-26859629D01*
X139283842Y-26819500D01*
X139116158Y-26819500D01*
X138953346Y-26859629D01*
X138937625Y-26867881D01*
X138869117Y-26881605D01*
X138822375Y-26867881D01*
X138806653Y-26859629D01*
X138643842Y-26819500D01*
X138476158Y-26819500D01*
X138313346Y-26859629D01*
X138297625Y-26867881D01*
X138229117Y-26881605D01*
X138182375Y-26867881D01*
X138166653Y-26859629D01*
X138003842Y-26819500D01*
X137836158Y-26819500D01*
X137673346Y-26859629D01*
X137657625Y-26867881D01*
X137589117Y-26881605D01*
X137542375Y-26867881D01*
X137526653Y-26859629D01*
X137363842Y-26819500D01*
X137196158Y-26819500D01*
X137033346Y-26859629D01*
X137017625Y-26867881D01*
X136949117Y-26881605D01*
X136902375Y-26867881D01*
X136886653Y-26859629D01*
X136723842Y-26819500D01*
X136556158Y-26819500D01*
X136393346Y-26859629D01*
X136377625Y-26867881D01*
X136309117Y-26881605D01*
X136262375Y-26867881D01*
X136246653Y-26859629D01*
X136083842Y-26819500D01*
X135916158Y-26819500D01*
X135753346Y-26859629D01*
X135737625Y-26867881D01*
X135669117Y-26881605D01*
X135622375Y-26867881D01*
X135606653Y-26859629D01*
X135443842Y-26819500D01*
X135276158Y-26819500D01*
X135113346Y-26859629D01*
X135097625Y-26867881D01*
X135029117Y-26881605D01*
X134982375Y-26867881D01*
X134966653Y-26859629D01*
X134803842Y-26819500D01*
X134636158Y-26819500D01*
X134473346Y-26859629D01*
X134457625Y-26867881D01*
X134389117Y-26881605D01*
X134342375Y-26867881D01*
X134326653Y-26859629D01*
X134163842Y-26819500D01*
X133996158Y-26819500D01*
X133833346Y-26859629D01*
X133817625Y-26867881D01*
X133749117Y-26881605D01*
X133702375Y-26867881D01*
X133686653Y-26859629D01*
X133523842Y-26819500D01*
X133356158Y-26819500D01*
X133193346Y-26859629D01*
X133177625Y-26867881D01*
X133109117Y-26881605D01*
X133062375Y-26867881D01*
X133046653Y-26859629D01*
X132883842Y-26819500D01*
X132716158Y-26819500D01*
X132553346Y-26859629D01*
X132537625Y-26867881D01*
X132469117Y-26881605D01*
X132422375Y-26867881D01*
X132406653Y-26859629D01*
X132243842Y-26819500D01*
X132076158Y-26819500D01*
X131913346Y-26859629D01*
X131897625Y-26867881D01*
X131829117Y-26881605D01*
X131782375Y-26867881D01*
X131766653Y-26859629D01*
X131603842Y-26819500D01*
X131436158Y-26819500D01*
X131273346Y-26859629D01*
X131257625Y-26867881D01*
X131189117Y-26881605D01*
X131142375Y-26867881D01*
X131126653Y-26859629D01*
X130963842Y-26819500D01*
X130796158Y-26819500D01*
X130633346Y-26859629D01*
X130617625Y-26867881D01*
X130549117Y-26881605D01*
X130502375Y-26867881D01*
X130486653Y-26859629D01*
X130323842Y-26819500D01*
X130156158Y-26819500D01*
X129993347Y-26859630D01*
X129993345Y-26859630D01*
X129993345Y-26859631D01*
X129844869Y-26937556D01*
X129719358Y-27048749D01*
X129624101Y-27186751D01*
X129564641Y-27343538D01*
X129544428Y-27510000D01*
X129564641Y-27676461D01*
X129624101Y-27833248D01*
X129719358Y-27971250D01*
X129844869Y-28082443D01*
X129953125Y-28139260D01*
X130003338Y-28187845D01*
X130019500Y-28249057D01*
X130019500Y-28265226D01*
X129999815Y-28332265D01*
X129947011Y-28378020D01*
X129877853Y-28387964D01*
X129861416Y-28382644D01*
X129861271Y-28383234D01*
X129846656Y-28379631D01*
X129846653Y-28379630D01*
X129683842Y-28339500D01*
X129516158Y-28339500D01*
X129353347Y-28379630D01*
X129353345Y-28379630D01*
X129353345Y-28379631D01*
X129204869Y-28457556D01*
X129079358Y-28568749D01*
X128984101Y-28706751D01*
X128924641Y-28863538D01*
X128904428Y-29029999D01*
X128911888Y-29091430D01*
X128900428Y-29160354D01*
X128853524Y-29212140D01*
X128786068Y-29230347D01*
X128738358Y-29219657D01*
X128664267Y-29186670D01*
X128489393Y-29149500D01*
X128489391Y-29149500D01*
X128310609Y-29149500D01*
X128310607Y-29149500D01*
X128135735Y-29186669D01*
X127972408Y-29259387D01*
X127872884Y-29331695D01*
X127807077Y-29355174D01*
X127739023Y-29339348D01*
X127727113Y-29331694D01*
X127627592Y-29259387D01*
X127464264Y-29186669D01*
X127289393Y-29149500D01*
X127289391Y-29149500D01*
X127110609Y-29149500D01*
X127110607Y-29149500D01*
X126935735Y-29186669D01*
X126772405Y-29259388D01*
X126672885Y-29331694D01*
X126607079Y-29355174D01*
X126539025Y-29339348D01*
X126527115Y-29331694D01*
X126427595Y-29259388D01*
X126264264Y-29186669D01*
X126089393Y-29149500D01*
X126089391Y-29149500D01*
X125910609Y-29149500D01*
X125910607Y-29149500D01*
X125735735Y-29186669D01*
X125572405Y-29259388D01*
X125472885Y-29331694D01*
X125407079Y-29355174D01*
X125339025Y-29339348D01*
X125327115Y-29331694D01*
X125227595Y-29259388D01*
X125064264Y-29186669D01*
X124889393Y-29149500D01*
X124889391Y-29149500D01*
X124710609Y-29149500D01*
X124710607Y-29149500D01*
X124535735Y-29186669D01*
X124372405Y-29259388D01*
X124272885Y-29331694D01*
X124207079Y-29355174D01*
X124139025Y-29339348D01*
X124127115Y-29331694D01*
X124027595Y-29259388D01*
X123864264Y-29186669D01*
X123689393Y-29149500D01*
X123689391Y-29149500D01*
X123510609Y-29149500D01*
X123510607Y-29149500D01*
X123335735Y-29186669D01*
X123172408Y-29259387D01*
X123072884Y-29331695D01*
X123007077Y-29355174D01*
X122939023Y-29339348D01*
X122927113Y-29331694D01*
X122827592Y-29259387D01*
X122664264Y-29186669D01*
X122489393Y-29149500D01*
X122489391Y-29149500D01*
X122310609Y-29149500D01*
X122310607Y-29149500D01*
X122135735Y-29186669D01*
X121972405Y-29259388D01*
X121872885Y-29331694D01*
X121807079Y-29355174D01*
X121739025Y-29339348D01*
X121727115Y-29331694D01*
X121627594Y-29259388D01*
X121584063Y-29240006D01*
X121530827Y-29194755D01*
X121510506Y-29127906D01*
X121510500Y-29126727D01*
X121510500Y-28243808D01*
X121530185Y-28176769D01*
X121576873Y-28134012D01*
X121675129Y-28082444D01*
X121800642Y-27971249D01*
X121895898Y-27833248D01*
X121955359Y-27676461D01*
X121975571Y-27510000D01*
X121955359Y-27343539D01*
X121895898Y-27186752D01*
X121895898Y-27186751D01*
X121800641Y-27048749D01*
X121675130Y-26937556D01*
X121568523Y-26881605D01*
X121526653Y-26859630D01*
X121363842Y-26819500D01*
X121196158Y-26819500D01*
X121033346Y-26859629D01*
X121017625Y-26867881D01*
X120949117Y-26881605D01*
X120902375Y-26867881D01*
X120886653Y-26859629D01*
X120723842Y-26819500D01*
X120556158Y-26819500D01*
X120393346Y-26859629D01*
X120377625Y-26867881D01*
X120309117Y-26881605D01*
X120262375Y-26867881D01*
X120246653Y-26859629D01*
X120083842Y-26819500D01*
X119916158Y-26819500D01*
X119753346Y-26859629D01*
X119737625Y-26867881D01*
X119669117Y-26881605D01*
X119622375Y-26867881D01*
X119606653Y-26859629D01*
X119443842Y-26819500D01*
X119276158Y-26819500D01*
X119113346Y-26859629D01*
X119097625Y-26867881D01*
X119029117Y-26881605D01*
X118982375Y-26867881D01*
X118966653Y-26859629D01*
X118803842Y-26819500D01*
X118636158Y-26819500D01*
X118473346Y-26859629D01*
X118457625Y-26867881D01*
X118389117Y-26881605D01*
X118342375Y-26867881D01*
X118326653Y-26859629D01*
X118163842Y-26819500D01*
X117996158Y-26819500D01*
X117833346Y-26859629D01*
X117817625Y-26867881D01*
X117749117Y-26881605D01*
X117702375Y-26867881D01*
X117686653Y-26859629D01*
X117523842Y-26819500D01*
X117356158Y-26819500D01*
X117193346Y-26859629D01*
X117177625Y-26867881D01*
X117109117Y-26881605D01*
X117062375Y-26867881D01*
X117046653Y-26859629D01*
X116883842Y-26819500D01*
X116716158Y-26819500D01*
X116553346Y-26859629D01*
X116537625Y-26867881D01*
X116469117Y-26881605D01*
X116422375Y-26867881D01*
X116406653Y-26859629D01*
X116243842Y-26819500D01*
X116076158Y-26819500D01*
X115913346Y-26859629D01*
X115897625Y-26867881D01*
X115829117Y-26881605D01*
X115782375Y-26867881D01*
X115766653Y-26859629D01*
X115603842Y-26819500D01*
X115436158Y-26819500D01*
X115273346Y-26859629D01*
X115257625Y-26867881D01*
X115189117Y-26881605D01*
X115142375Y-26867881D01*
X115126653Y-26859629D01*
X114963842Y-26819500D01*
X114796158Y-26819500D01*
X114633346Y-26859629D01*
X114617625Y-26867881D01*
X114549117Y-26881605D01*
X114502375Y-26867881D01*
X114486653Y-26859629D01*
X114323842Y-26819500D01*
X114156158Y-26819500D01*
X113993346Y-26859629D01*
X113977625Y-26867881D01*
X113909117Y-26881605D01*
X113862375Y-26867881D01*
X113846653Y-26859629D01*
X113683842Y-26819500D01*
X113516158Y-26819500D01*
X113353346Y-26859629D01*
X113337625Y-26867881D01*
X113269117Y-26881605D01*
X113222375Y-26867881D01*
X113206653Y-26859629D01*
X113043842Y-26819500D01*
X112876158Y-26819500D01*
X112713346Y-26859629D01*
X112697625Y-26867881D01*
X112629117Y-26881605D01*
X112582375Y-26867881D01*
X112566653Y-26859629D01*
X112403842Y-26819500D01*
X112236158Y-26819500D01*
X112073346Y-26859629D01*
X112057625Y-26867881D01*
X111989117Y-26881605D01*
X111942375Y-26867881D01*
X111926653Y-26859629D01*
X111763842Y-26819500D01*
X111596158Y-26819500D01*
X111433346Y-26859629D01*
X111417625Y-26867881D01*
X111349117Y-26881605D01*
X111302375Y-26867881D01*
X111286653Y-26859629D01*
X111123842Y-26819500D01*
X110956158Y-26819500D01*
X110793347Y-26859630D01*
X110793345Y-26859630D01*
X110793345Y-26859631D01*
X110644869Y-26937556D01*
X110519358Y-27048749D01*
X110424101Y-27186751D01*
X110364641Y-27343538D01*
X110344428Y-27510000D01*
X110364641Y-27676461D01*
X110424101Y-27833248D01*
X110519358Y-27971250D01*
X110644869Y-28082443D01*
X110753125Y-28139260D01*
X110803338Y-28187845D01*
X110819500Y-28249057D01*
X110819500Y-28265226D01*
X110799815Y-28332265D01*
X110747011Y-28378020D01*
X110677853Y-28387964D01*
X110661416Y-28382644D01*
X110661271Y-28383234D01*
X110646656Y-28379631D01*
X110646653Y-28379630D01*
X110483842Y-28339500D01*
X110316158Y-28339500D01*
X110153347Y-28379630D01*
X110153345Y-28379630D01*
X110153345Y-28379631D01*
X110004869Y-28457556D01*
X109879358Y-28568749D01*
X109784101Y-28706751D01*
X109724641Y-28863538D01*
X109704428Y-29029999D01*
X109711888Y-29091430D01*
X109700428Y-29160354D01*
X109653524Y-29212140D01*
X109586068Y-29230347D01*
X109538358Y-29219657D01*
X109464267Y-29186670D01*
X109289393Y-29149500D01*
X109289391Y-29149500D01*
X109110609Y-29149500D01*
X109110607Y-29149500D01*
X108935735Y-29186669D01*
X108772405Y-29259388D01*
X108672885Y-29331694D01*
X108607079Y-29355174D01*
X108539025Y-29339348D01*
X108527115Y-29331694D01*
X108427595Y-29259388D01*
X108264264Y-29186669D01*
X108089393Y-29149500D01*
X108089391Y-29149500D01*
X107910609Y-29149500D01*
X107910607Y-29149500D01*
X107735735Y-29186669D01*
X107572405Y-29259388D01*
X107472885Y-29331694D01*
X107407079Y-29355174D01*
X107339025Y-29339348D01*
X107327115Y-29331694D01*
X107227595Y-29259388D01*
X107064264Y-29186669D01*
X106889393Y-29149500D01*
X106889391Y-29149500D01*
X106710609Y-29149500D01*
X106710607Y-29149500D01*
X106535735Y-29186669D01*
X106372405Y-29259388D01*
X106272885Y-29331694D01*
X106207079Y-29355174D01*
X106139025Y-29339348D01*
X106127115Y-29331694D01*
X106027595Y-29259388D01*
X105864264Y-29186669D01*
X105689393Y-29149500D01*
X105689391Y-29149500D01*
X105510609Y-29149500D01*
X105510607Y-29149500D01*
X105335735Y-29186669D01*
X105172405Y-29259388D01*
X105072885Y-29331694D01*
X105007079Y-29355174D01*
X104939025Y-29339348D01*
X104927115Y-29331694D01*
X104827595Y-29259388D01*
X104664264Y-29186669D01*
X104489393Y-29149500D01*
X104489391Y-29149500D01*
X104310609Y-29149500D01*
X104310607Y-29149500D01*
X104135735Y-29186669D01*
X103972405Y-29259388D01*
X103872885Y-29331694D01*
X103807079Y-29355174D01*
X103739025Y-29339348D01*
X103727115Y-29331694D01*
X103627595Y-29259388D01*
X103464264Y-29186669D01*
X103289393Y-29149500D01*
X103289391Y-29149500D01*
X103110609Y-29149500D01*
X103110607Y-29149500D01*
X102935735Y-29186669D01*
X102772405Y-29259388D01*
X102672885Y-29331694D01*
X102607079Y-29355174D01*
X102539025Y-29339348D01*
X102527115Y-29331694D01*
X102427594Y-29259388D01*
X102384063Y-29240006D01*
X102330827Y-29194755D01*
X102310506Y-29127906D01*
X102310500Y-29126727D01*
X102310500Y-28243808D01*
X102330185Y-28176769D01*
X102376873Y-28134012D01*
X102475129Y-28082444D01*
X102600642Y-27971249D01*
X102695898Y-27833248D01*
X102755359Y-27676461D01*
X102775571Y-27510000D01*
X102755359Y-27343539D01*
X102695898Y-27186752D01*
X102695898Y-27186751D01*
X102600641Y-27048749D01*
X102475130Y-26937556D01*
X102368523Y-26881605D01*
X102326653Y-26859630D01*
X102163842Y-26819500D01*
X101996158Y-26819500D01*
X101833346Y-26859629D01*
X101817625Y-26867881D01*
X101749117Y-26881605D01*
X101702375Y-26867881D01*
X101686653Y-26859629D01*
X101523842Y-26819500D01*
X101356158Y-26819500D01*
X101193346Y-26859629D01*
X101177625Y-26867881D01*
X101109117Y-26881605D01*
X101062375Y-26867881D01*
X101046653Y-26859629D01*
X100883842Y-26819500D01*
X100716158Y-26819500D01*
X100553346Y-26859629D01*
X100537625Y-26867881D01*
X100469117Y-26881605D01*
X100422375Y-26867881D01*
X100406653Y-26859629D01*
X100243842Y-26819500D01*
X100076158Y-26819500D01*
X99913346Y-26859629D01*
X99897625Y-26867881D01*
X99829117Y-26881605D01*
X99782375Y-26867881D01*
X99766653Y-26859629D01*
X99603842Y-26819500D01*
X99436158Y-26819500D01*
X99273346Y-26859629D01*
X99257625Y-26867881D01*
X99189117Y-26881605D01*
X99142375Y-26867881D01*
X99126653Y-26859629D01*
X98963842Y-26819500D01*
X98796158Y-26819500D01*
X98633346Y-26859629D01*
X98617625Y-26867881D01*
X98549117Y-26881605D01*
X98502375Y-26867881D01*
X98486653Y-26859629D01*
X98323842Y-26819500D01*
X98156158Y-26819500D01*
X97993346Y-26859629D01*
X97977625Y-26867881D01*
X97909117Y-26881605D01*
X97862375Y-26867881D01*
X97846653Y-26859629D01*
X97683842Y-26819500D01*
X97516158Y-26819500D01*
X97353346Y-26859629D01*
X97337625Y-26867881D01*
X97269117Y-26881605D01*
X97222375Y-26867881D01*
X97206653Y-26859629D01*
X97043842Y-26819500D01*
X96876158Y-26819500D01*
X96713346Y-26859629D01*
X96697625Y-26867881D01*
X96629117Y-26881605D01*
X96582375Y-26867881D01*
X96566653Y-26859629D01*
X96403842Y-26819500D01*
X96236158Y-26819500D01*
X96073346Y-26859629D01*
X96057625Y-26867881D01*
X95989117Y-26881605D01*
X95942375Y-26867881D01*
X95926653Y-26859629D01*
X95763842Y-26819500D01*
X95596158Y-26819500D01*
X95433346Y-26859629D01*
X95417625Y-26867881D01*
X95349117Y-26881605D01*
X95302375Y-26867881D01*
X95286653Y-26859629D01*
X95123842Y-26819500D01*
X94956158Y-26819500D01*
X94793346Y-26859629D01*
X94777625Y-26867881D01*
X94709117Y-26881605D01*
X94662375Y-26867881D01*
X94646653Y-26859629D01*
X94483842Y-26819500D01*
X94316158Y-26819500D01*
X94153346Y-26859629D01*
X94137625Y-26867881D01*
X94069117Y-26881605D01*
X94022375Y-26867881D01*
X94006653Y-26859629D01*
X93843842Y-26819500D01*
X93676158Y-26819500D01*
X93513346Y-26859629D01*
X93497625Y-26867881D01*
X93429117Y-26881605D01*
X93382375Y-26867881D01*
X93366653Y-26859629D01*
X93203842Y-26819500D01*
X93036158Y-26819500D01*
X92873346Y-26859629D01*
X92857625Y-26867881D01*
X92789117Y-26881605D01*
X92742375Y-26867881D01*
X92726653Y-26859629D01*
X92563842Y-26819500D01*
X92396158Y-26819500D01*
X92233346Y-26859629D01*
X92217625Y-26867881D01*
X92149117Y-26881605D01*
X92102375Y-26867881D01*
X92086653Y-26859629D01*
X91923842Y-26819500D01*
X91756158Y-26819500D01*
X91593347Y-26859630D01*
X91593345Y-26859630D01*
X91593345Y-26859631D01*
X91444869Y-26937556D01*
X91319358Y-27048749D01*
X91224101Y-27186751D01*
X91164641Y-27343538D01*
X91144428Y-27510000D01*
X91164641Y-27676461D01*
X91224101Y-27833248D01*
X91319358Y-27971250D01*
X91444869Y-28082443D01*
X91553125Y-28139260D01*
X91603338Y-28187845D01*
X91619500Y-28249057D01*
X91619500Y-28265226D01*
X91599815Y-28332265D01*
X91547011Y-28378020D01*
X91477853Y-28387964D01*
X91461416Y-28382644D01*
X91461271Y-28383234D01*
X91446656Y-28379631D01*
X91446653Y-28379630D01*
X91283842Y-28339500D01*
X91116158Y-28339500D01*
X90953347Y-28379630D01*
X90953345Y-28379630D01*
X90953345Y-28379631D01*
X90804869Y-28457556D01*
X90679358Y-28568749D01*
X90584101Y-28706751D01*
X90524641Y-28863538D01*
X90504428Y-29030000D01*
X90524641Y-29196461D01*
X90584101Y-29353248D01*
X90679358Y-29491250D01*
X90804869Y-29602443D01*
X90804871Y-29602444D01*
X90953347Y-29680370D01*
X91116158Y-29720500D01*
X91116159Y-29720500D01*
X91283844Y-29720500D01*
X91377461Y-29697424D01*
X91410459Y-29689291D01*
X91480261Y-29692359D01*
X91537324Y-29732678D01*
X91563529Y-29797447D01*
X91563456Y-29822644D01*
X91561159Y-29844500D01*
X91544815Y-29999999D01*
X91563503Y-30177804D01*
X91604650Y-30304440D01*
X91606645Y-30374281D01*
X91570565Y-30434114D01*
X91537154Y-30456038D01*
X91372408Y-30529387D01*
X91227768Y-30634474D01*
X91108140Y-30767334D01*
X91018749Y-30922164D01*
X90963503Y-31092195D01*
X90944815Y-31270000D01*
X90963503Y-31447804D01*
X91004650Y-31574440D01*
X91006645Y-31644281D01*
X90970565Y-31704114D01*
X90937154Y-31726038D01*
X90772408Y-31799387D01*
X90627768Y-31904474D01*
X90508140Y-32037334D01*
X90418749Y-32192164D01*
X90363503Y-32362195D01*
X90344815Y-32539999D01*
X90363503Y-32717804D01*
X90418749Y-32887835D01*
X90508140Y-33042665D01*
X90526025Y-33062528D01*
X90556255Y-33125520D01*
X90547630Y-33194855D01*
X90502888Y-33248520D01*
X90436235Y-33269478D01*
X90433875Y-33269500D01*
X89481355Y-33269500D01*
X89477123Y-33269428D01*
X89414206Y-33267279D01*
X89414205Y-33267279D01*
X89375126Y-33276801D01*
X89362663Y-33279169D01*
X89322804Y-33284649D01*
X89306819Y-33291592D01*
X89286785Y-33298329D01*
X89269851Y-33302456D01*
X89234792Y-33322168D01*
X89223426Y-33327814D01*
X89186524Y-33343843D01*
X89173004Y-33354843D01*
X89155530Y-33366736D01*
X89140338Y-33375278D01*
X89111896Y-33403719D01*
X89102476Y-33412221D01*
X89071268Y-33437612D01*
X89061211Y-33451858D01*
X89047592Y-33468024D01*
X88232991Y-34282624D01*
X88171668Y-34316109D01*
X88101976Y-34311125D01*
X88063084Y-34287759D01*
X87995129Y-34227556D01*
X87885688Y-34170117D01*
X87835477Y-34121533D01*
X87819502Y-34053514D01*
X87825385Y-34022001D01*
X87836496Y-33987806D01*
X87836495Y-33987806D01*
X87836497Y-33987803D01*
X87855185Y-33810000D01*
X87836497Y-33632197D01*
X87795350Y-33505559D01*
X87793355Y-33435717D01*
X87829436Y-33375885D01*
X87862846Y-33353961D01*
X87864264Y-33353329D01*
X87864267Y-33353329D01*
X88027593Y-33280612D01*
X88032839Y-33276801D01*
X88145626Y-33194855D01*
X88172230Y-33175526D01*
X88291859Y-33042665D01*
X88381250Y-32887835D01*
X88436497Y-32717803D01*
X88455185Y-32540000D01*
X88436497Y-32362197D01*
X88381250Y-32192165D01*
X88381250Y-32192164D01*
X88291859Y-32037334D01*
X88172228Y-31904472D01*
X88027595Y-31799388D01*
X87862845Y-31726037D01*
X87809607Y-31680786D01*
X87789286Y-31613937D01*
X87795347Y-31574447D01*
X87836497Y-31447803D01*
X87855185Y-31270000D01*
X87836497Y-31092197D01*
X87781250Y-30922165D01*
X87781250Y-30922164D01*
X87691859Y-30767334D01*
X87572228Y-30634472D01*
X87427595Y-30529388D01*
X87262845Y-30456037D01*
X87209607Y-30410786D01*
X87189286Y-30343937D01*
X87195347Y-30304447D01*
X87236497Y-30177803D01*
X87255185Y-30000000D01*
X87236497Y-29822197D01*
X87207410Y-29732678D01*
X87181250Y-29652164D01*
X87091859Y-29497334D01*
X86972228Y-29364472D01*
X86827596Y-29259389D01*
X86664264Y-29186669D01*
X86489393Y-29149500D01*
X86489391Y-29149500D01*
X86310609Y-29149500D01*
X86310607Y-29149500D01*
X86135735Y-29186669D01*
X85972405Y-29259388D01*
X85872885Y-29331694D01*
X85807079Y-29355174D01*
X85739025Y-29339348D01*
X85727115Y-29331694D01*
X85627595Y-29259388D01*
X85464264Y-29186669D01*
X85289393Y-29149500D01*
X85289391Y-29149500D01*
X85110609Y-29149500D01*
X85110607Y-29149500D01*
X84935735Y-29186669D01*
X84772405Y-29259388D01*
X84672885Y-29331694D01*
X84607079Y-29355174D01*
X84539025Y-29339348D01*
X84527115Y-29331694D01*
X84427595Y-29259388D01*
X84264264Y-29186669D01*
X84089393Y-29149500D01*
X84089391Y-29149500D01*
X83910609Y-29149500D01*
X83910607Y-29149500D01*
X83735735Y-29186669D01*
X83572405Y-29259388D01*
X83472885Y-29331694D01*
X83407079Y-29355174D01*
X83339025Y-29339348D01*
X83327115Y-29331694D01*
X83227595Y-29259388D01*
X83064264Y-29186669D01*
X82889393Y-29149500D01*
X82889391Y-29149500D01*
X82710609Y-29149500D01*
X82710607Y-29149500D01*
X82535735Y-29186669D01*
X82372405Y-29259388D01*
X82272885Y-29331694D01*
X82207079Y-29355174D01*
X82139025Y-29339348D01*
X82127115Y-29331694D01*
X82027595Y-29259388D01*
X81864264Y-29186669D01*
X81689393Y-29149500D01*
X81689391Y-29149500D01*
X81510609Y-29149500D01*
X81510607Y-29149500D01*
X81335735Y-29186669D01*
X81172405Y-29259388D01*
X81072885Y-29331694D01*
X81007079Y-29355174D01*
X80939025Y-29339348D01*
X80927115Y-29331694D01*
X80827595Y-29259388D01*
X80664264Y-29186669D01*
X80489393Y-29149500D01*
X80489391Y-29149500D01*
X80310609Y-29149500D01*
X80310607Y-29149500D01*
X80135735Y-29186669D01*
X79972405Y-29259388D01*
X79872885Y-29331694D01*
X79807079Y-29355174D01*
X79739025Y-29339348D01*
X79727115Y-29331694D01*
X79627595Y-29259388D01*
X79464265Y-29186670D01*
X79431254Y-29179653D01*
X79369773Y-29146459D01*
X79335997Y-29085296D01*
X79333942Y-29043412D01*
X79335571Y-29029999D01*
X79333116Y-29009786D01*
X79315359Y-28863539D01*
X79255898Y-28706752D01*
X79255898Y-28706751D01*
X79160641Y-28568749D01*
X79035130Y-28457556D01*
X78928523Y-28401605D01*
X78886653Y-28379630D01*
X78723842Y-28339500D01*
X78556158Y-28339500D01*
X78393346Y-28379629D01*
X78377625Y-28387881D01*
X78309117Y-28401605D01*
X78262375Y-28387881D01*
X78246653Y-28379629D01*
X78083842Y-28339500D01*
X77916158Y-28339500D01*
X77753346Y-28379629D01*
X77737625Y-28387881D01*
X77669117Y-28401605D01*
X77622375Y-28387881D01*
X77606653Y-28379629D01*
X77443842Y-28339500D01*
X77276158Y-28339500D01*
X77113346Y-28379629D01*
X77097625Y-28387881D01*
X77029117Y-28401605D01*
X76982375Y-28387881D01*
X76966653Y-28379629D01*
X76803842Y-28339500D01*
X76636158Y-28339500D01*
X76473346Y-28379629D01*
X76457625Y-28387881D01*
X76389117Y-28401605D01*
X76342375Y-28387881D01*
X76326653Y-28379629D01*
X76163842Y-28339500D01*
X75996158Y-28339500D01*
X75833346Y-28379629D01*
X75817625Y-28387881D01*
X75749117Y-28401605D01*
X75702375Y-28387881D01*
X75686653Y-28379629D01*
X75523842Y-28339500D01*
X75356158Y-28339500D01*
X75193346Y-28379629D01*
X75177625Y-28387881D01*
X75109117Y-28401605D01*
X75062375Y-28387881D01*
X75046653Y-28379629D01*
X74883842Y-28339500D01*
X74716158Y-28339500D01*
X74553346Y-28379629D01*
X74537625Y-28387881D01*
X74469117Y-28401605D01*
X74422375Y-28387881D01*
X74406653Y-28379629D01*
X74243842Y-28339500D01*
X74076158Y-28339500D01*
X73913346Y-28379629D01*
X73897625Y-28387881D01*
X73829117Y-28401605D01*
X73782375Y-28387881D01*
X73766653Y-28379629D01*
X73603842Y-28339500D01*
X73436158Y-28339500D01*
X73273346Y-28379629D01*
X73257625Y-28387881D01*
X73189117Y-28401605D01*
X73142375Y-28387881D01*
X73126653Y-28379629D01*
X72963842Y-28339500D01*
X72796158Y-28339500D01*
X72633346Y-28379629D01*
X72617625Y-28387881D01*
X72549117Y-28401605D01*
X72502375Y-28387881D01*
X72486653Y-28379629D01*
X72323842Y-28339500D01*
X72156158Y-28339500D01*
X71993346Y-28379629D01*
X71977625Y-28387881D01*
X71909117Y-28401605D01*
X71862375Y-28387881D01*
X71846653Y-28379629D01*
X71683842Y-28339500D01*
X71516158Y-28339500D01*
X71353346Y-28379629D01*
X71337625Y-28387881D01*
X71269117Y-28401605D01*
X71222375Y-28387881D01*
X71206653Y-28379629D01*
X71043842Y-28339500D01*
X70876158Y-28339500D01*
X70713346Y-28379629D01*
X70697625Y-28387881D01*
X70629117Y-28401605D01*
X70582375Y-28387881D01*
X70566653Y-28379629D01*
X70403842Y-28339500D01*
X70236158Y-28339500D01*
X70073346Y-28379629D01*
X70057625Y-28387881D01*
X69989117Y-28401605D01*
X69942375Y-28387881D01*
X69926653Y-28379629D01*
X69763842Y-28339500D01*
X69596158Y-28339500D01*
X69433346Y-28379629D01*
X69417625Y-28387881D01*
X69349117Y-28401605D01*
X69302375Y-28387881D01*
X69286653Y-28379629D01*
X69123842Y-28339500D01*
X68956158Y-28339500D01*
X68793346Y-28379629D01*
X68777625Y-28387881D01*
X68709117Y-28401605D01*
X68662375Y-28387881D01*
X68646653Y-28379629D01*
X68483842Y-28339500D01*
X68316158Y-28339500D01*
X68153347Y-28379630D01*
X68153345Y-28379630D01*
X68153345Y-28379631D01*
X68004869Y-28457556D01*
X67879358Y-28568749D01*
X67784101Y-28706751D01*
X67724641Y-28863538D01*
X67704428Y-29029999D01*
X67711888Y-29091430D01*
X67700428Y-29160354D01*
X67653524Y-29212140D01*
X67586068Y-29230347D01*
X67538358Y-29219657D01*
X67464267Y-29186670D01*
X67289393Y-29149500D01*
X67289391Y-29149500D01*
X67110609Y-29149500D01*
X67110607Y-29149500D01*
X66935735Y-29186669D01*
X66772408Y-29259387D01*
X66672884Y-29331695D01*
X66607077Y-29355174D01*
X66539023Y-29339348D01*
X66527113Y-29331694D01*
X66427592Y-29259387D01*
X66264264Y-29186669D01*
X66089393Y-29149500D01*
X66089391Y-29149500D01*
X65910609Y-29149500D01*
X65910607Y-29149500D01*
X65735735Y-29186669D01*
X65572405Y-29259388D01*
X65472885Y-29331694D01*
X65407079Y-29355174D01*
X65339025Y-29339348D01*
X65327115Y-29331694D01*
X65227595Y-29259388D01*
X65064264Y-29186669D01*
X64889393Y-29149500D01*
X64889391Y-29149500D01*
X64710609Y-29149500D01*
X64710607Y-29149500D01*
X64535735Y-29186669D01*
X64372408Y-29259387D01*
X64272884Y-29331695D01*
X64207077Y-29355174D01*
X64139023Y-29339348D01*
X64127113Y-29331694D01*
X64027592Y-29259387D01*
X63864264Y-29186669D01*
X63689393Y-29149500D01*
X63689391Y-29149500D01*
X63510609Y-29149500D01*
X63510607Y-29149500D01*
X63335735Y-29186669D01*
X63172405Y-29259388D01*
X63072885Y-29331694D01*
X63007079Y-29355174D01*
X62939025Y-29339348D01*
X62927115Y-29331694D01*
X62827595Y-29259388D01*
X62664264Y-29186669D01*
X62489393Y-29149500D01*
X62489391Y-29149500D01*
X62310609Y-29149500D01*
X62310607Y-29149500D01*
X62135735Y-29186669D01*
X61972408Y-29259387D01*
X61872884Y-29331695D01*
X61807077Y-29355174D01*
X61739023Y-29339348D01*
X61727113Y-29331694D01*
X61627592Y-29259387D01*
X61464264Y-29186669D01*
X61289393Y-29149500D01*
X61289391Y-29149500D01*
X61110609Y-29149500D01*
X61110607Y-29149500D01*
X60935735Y-29186669D01*
X60772405Y-29259388D01*
X60672885Y-29331694D01*
X60607079Y-29355174D01*
X60539025Y-29339348D01*
X60527115Y-29331694D01*
X60427595Y-29259388D01*
X60264265Y-29186670D01*
X60231254Y-29179653D01*
X60169773Y-29146459D01*
X60135997Y-29085296D01*
X60133942Y-29043412D01*
X60135571Y-29029999D01*
X60133116Y-29009786D01*
X60115359Y-28863539D01*
X60055898Y-28706752D01*
X60055898Y-28706751D01*
X59960641Y-28568749D01*
X59835130Y-28457556D01*
X59728523Y-28401605D01*
X59686653Y-28379630D01*
X59523842Y-28339500D01*
X59356158Y-28339500D01*
X59193346Y-28379629D01*
X59177625Y-28387881D01*
X59109117Y-28401605D01*
X59062375Y-28387881D01*
X59046653Y-28379629D01*
X58883842Y-28339500D01*
X58716158Y-28339500D01*
X58553346Y-28379629D01*
X58537625Y-28387881D01*
X58469117Y-28401605D01*
X58422375Y-28387881D01*
X58406653Y-28379629D01*
X58243842Y-28339500D01*
X58076158Y-28339500D01*
X57913346Y-28379629D01*
X57897625Y-28387881D01*
X57829117Y-28401605D01*
X57782375Y-28387881D01*
X57766653Y-28379629D01*
X57603842Y-28339500D01*
X57436158Y-28339500D01*
X57273346Y-28379629D01*
X57257625Y-28387881D01*
X57189117Y-28401605D01*
X57142375Y-28387881D01*
X57126653Y-28379629D01*
X56963842Y-28339500D01*
X56796158Y-28339500D01*
X56633346Y-28379629D01*
X56617625Y-28387881D01*
X56549117Y-28401605D01*
X56502375Y-28387881D01*
X56486653Y-28379629D01*
X56323842Y-28339500D01*
X56156158Y-28339500D01*
X55993346Y-28379629D01*
X55977625Y-28387881D01*
X55909117Y-28401605D01*
X55862375Y-28387881D01*
X55846653Y-28379629D01*
X55683842Y-28339500D01*
X55516158Y-28339500D01*
X55353346Y-28379629D01*
X55337625Y-28387881D01*
X55269117Y-28401605D01*
X55222375Y-28387881D01*
X55206653Y-28379629D01*
X55043842Y-28339500D01*
X54876158Y-28339500D01*
X54713346Y-28379629D01*
X54697625Y-28387881D01*
X54629117Y-28401605D01*
X54582375Y-28387881D01*
X54566653Y-28379629D01*
X54403842Y-28339500D01*
X54236158Y-28339500D01*
X54073346Y-28379629D01*
X54057625Y-28387881D01*
X53989117Y-28401605D01*
X53942375Y-28387881D01*
X53926653Y-28379629D01*
X53763842Y-28339500D01*
X53596158Y-28339500D01*
X53433346Y-28379629D01*
X53417625Y-28387881D01*
X53349117Y-28401605D01*
X53302375Y-28387881D01*
X53286653Y-28379629D01*
X53123842Y-28339500D01*
X52956158Y-28339500D01*
X52793346Y-28379629D01*
X52777625Y-28387881D01*
X52709117Y-28401605D01*
X52662375Y-28387881D01*
X52646653Y-28379629D01*
X52483842Y-28339500D01*
X52316158Y-28339500D01*
X52153346Y-28379629D01*
X52137625Y-28387881D01*
X52069117Y-28401605D01*
X52022375Y-28387881D01*
X52006653Y-28379629D01*
X51843842Y-28339500D01*
X51676158Y-28339500D01*
X51513346Y-28379629D01*
X51497625Y-28387881D01*
X51429117Y-28401605D01*
X51382375Y-28387881D01*
X51366653Y-28379629D01*
X51203842Y-28339500D01*
X51036158Y-28339500D01*
X50873346Y-28379629D01*
X50857625Y-28387881D01*
X50789117Y-28401605D01*
X50742375Y-28387881D01*
X50726653Y-28379629D01*
X50563842Y-28339500D01*
X50396158Y-28339500D01*
X50233346Y-28379629D01*
X50217625Y-28387881D01*
X50149117Y-28401605D01*
X50102375Y-28387881D01*
X50086653Y-28379629D01*
X49923842Y-28339500D01*
X49756158Y-28339500D01*
X49593346Y-28379629D01*
X49577625Y-28387881D01*
X49509117Y-28401605D01*
X49462375Y-28387881D01*
X49446653Y-28379629D01*
X49283842Y-28339500D01*
X49116158Y-28339500D01*
X48953347Y-28379630D01*
X48953345Y-28379630D01*
X48953345Y-28379631D01*
X48804869Y-28457556D01*
X48679358Y-28568749D01*
X48584101Y-28706751D01*
X48524641Y-28863538D01*
X48504428Y-29029999D01*
X48511888Y-29091430D01*
X48500428Y-29160354D01*
X48453524Y-29212140D01*
X48386068Y-29230347D01*
X48338358Y-29219657D01*
X48264267Y-29186670D01*
X48089393Y-29149500D01*
X48089391Y-29149500D01*
X47910609Y-29149500D01*
X47910607Y-29149500D01*
X47735735Y-29186669D01*
X47572408Y-29259387D01*
X47472884Y-29331695D01*
X47407077Y-29355174D01*
X47339023Y-29339348D01*
X47327113Y-29331694D01*
X47227592Y-29259387D01*
X47064264Y-29186669D01*
X46889393Y-29149500D01*
X46889391Y-29149500D01*
X46710609Y-29149500D01*
X46710607Y-29149500D01*
X46535735Y-29186669D01*
X46372405Y-29259388D01*
X46272885Y-29331694D01*
X46207079Y-29355174D01*
X46139025Y-29339348D01*
X46127115Y-29331694D01*
X46027595Y-29259388D01*
X45864264Y-29186669D01*
X45689393Y-29149500D01*
X45689391Y-29149500D01*
X45510609Y-29149500D01*
X45510607Y-29149500D01*
X45335735Y-29186669D01*
X45172408Y-29259387D01*
X45072884Y-29331695D01*
X45007077Y-29355174D01*
X44939023Y-29339348D01*
X44927113Y-29331694D01*
X44827592Y-29259387D01*
X44664264Y-29186669D01*
X44489393Y-29149500D01*
X44489391Y-29149500D01*
X44310609Y-29149500D01*
X44310607Y-29149500D01*
X44135735Y-29186669D01*
X43972408Y-29259387D01*
X43872884Y-29331695D01*
X43807077Y-29355174D01*
X43739023Y-29339348D01*
X43727113Y-29331694D01*
X43627592Y-29259387D01*
X43464264Y-29186669D01*
X43289393Y-29149500D01*
X43289391Y-29149500D01*
X43110609Y-29149500D01*
X43110607Y-29149500D01*
X42935735Y-29186669D01*
X42772408Y-29259387D01*
X42672884Y-29331695D01*
X42607077Y-29355174D01*
X42539023Y-29339348D01*
X42527113Y-29331694D01*
X42427592Y-29259387D01*
X42264264Y-29186669D01*
X42089393Y-29149500D01*
X42089391Y-29149500D01*
X41910609Y-29149500D01*
X41910607Y-29149500D01*
X41735735Y-29186669D01*
X41572408Y-29259387D01*
X41472884Y-29331695D01*
X41407077Y-29355174D01*
X41339023Y-29339348D01*
X41327113Y-29331694D01*
X41227592Y-29259387D01*
X41064265Y-29186670D01*
X41031254Y-29179653D01*
X40969773Y-29146459D01*
X40935997Y-29085296D01*
X40933942Y-29043412D01*
X40935571Y-29029999D01*
X40933116Y-29009787D01*
X40915359Y-28863539D01*
X40855898Y-28706752D01*
X40855898Y-28706751D01*
X40760641Y-28568749D01*
X40635130Y-28457556D01*
X40528523Y-28401605D01*
X40486653Y-28379630D01*
X40323842Y-28339500D01*
X40156158Y-28339500D01*
X39993346Y-28379629D01*
X39977625Y-28387881D01*
X39909117Y-28401605D01*
X39862375Y-28387881D01*
X39846653Y-28379629D01*
X39683842Y-28339500D01*
X39516158Y-28339500D01*
X39353346Y-28379629D01*
X39337625Y-28387881D01*
X39269117Y-28401605D01*
X39222375Y-28387881D01*
X39206653Y-28379629D01*
X39043842Y-28339500D01*
X38876158Y-28339500D01*
X38713346Y-28379629D01*
X38697625Y-28387881D01*
X38629117Y-28401605D01*
X38582375Y-28387881D01*
X38566653Y-28379629D01*
X38403842Y-28339500D01*
X38236158Y-28339500D01*
X38073346Y-28379629D01*
X38057625Y-28387881D01*
X37989117Y-28401605D01*
X37942375Y-28387881D01*
X37926653Y-28379629D01*
X37763842Y-28339500D01*
X37596158Y-28339500D01*
X37433346Y-28379629D01*
X37417625Y-28387881D01*
X37349117Y-28401605D01*
X37302375Y-28387881D01*
X37286653Y-28379629D01*
X37123842Y-28339500D01*
X36956158Y-28339500D01*
X36793346Y-28379629D01*
X36777625Y-28387881D01*
X36709117Y-28401605D01*
X36662375Y-28387881D01*
X36646653Y-28379629D01*
X36483842Y-28339500D01*
X36316158Y-28339500D01*
X36153346Y-28379629D01*
X36137625Y-28387881D01*
X36069117Y-28401605D01*
X36022375Y-28387881D01*
X36006653Y-28379629D01*
X35843842Y-28339500D01*
X35676158Y-28339500D01*
X35513346Y-28379629D01*
X35497625Y-28387881D01*
X35429117Y-28401605D01*
X35382375Y-28387881D01*
X35366653Y-28379629D01*
X35203842Y-28339500D01*
X35036158Y-28339500D01*
X34873346Y-28379629D01*
X34857625Y-28387881D01*
X34789117Y-28401605D01*
X34742375Y-28387881D01*
X34726653Y-28379629D01*
X34563842Y-28339500D01*
X34396158Y-28339500D01*
X34233346Y-28379629D01*
X34217625Y-28387881D01*
X34149117Y-28401605D01*
X34102375Y-28387881D01*
X34086653Y-28379629D01*
X33923842Y-28339500D01*
X33756158Y-28339500D01*
X33593346Y-28379629D01*
X33577625Y-28387881D01*
X33509117Y-28401605D01*
X33462375Y-28387881D01*
X33446653Y-28379629D01*
X33283842Y-28339500D01*
X33116158Y-28339500D01*
X32953346Y-28379629D01*
X32937625Y-28387881D01*
X32869117Y-28401605D01*
X32822375Y-28387881D01*
X32806653Y-28379629D01*
X32643842Y-28339500D01*
X32476158Y-28339500D01*
X32313346Y-28379629D01*
X32297625Y-28387881D01*
X32229117Y-28401605D01*
X32182375Y-28387881D01*
X32166653Y-28379629D01*
X32003842Y-28339500D01*
X31836158Y-28339500D01*
X31673346Y-28379629D01*
X31657625Y-28387881D01*
X31589117Y-28401605D01*
X31542375Y-28387881D01*
X31526653Y-28379629D01*
X31363842Y-28339500D01*
X31196158Y-28339500D01*
X31033346Y-28379629D01*
X31017625Y-28387881D01*
X30949117Y-28401605D01*
X30902375Y-28387881D01*
X30886653Y-28379629D01*
X30723842Y-28339500D01*
X30556158Y-28339500D01*
X30393346Y-28379629D01*
X30377625Y-28387881D01*
X30309117Y-28401605D01*
X30262375Y-28387881D01*
X30246653Y-28379629D01*
X30083842Y-28339500D01*
X29916158Y-28339500D01*
X29753347Y-28379630D01*
X29753345Y-28379630D01*
X29753345Y-28379631D01*
X29604869Y-28457556D01*
X29479358Y-28568749D01*
X29384101Y-28706751D01*
X29324641Y-28863538D01*
X29304428Y-29029999D01*
X27175500Y-29029999D01*
X27175500Y-27509999D01*
X40184428Y-27509999D01*
X40204641Y-27676461D01*
X40264101Y-27833248D01*
X40359358Y-27971250D01*
X40484869Y-28082443D01*
X40484871Y-28082444D01*
X40633347Y-28160370D01*
X40796158Y-28200500D01*
X40796159Y-28200500D01*
X40963841Y-28200500D01*
X40963842Y-28200500D01*
X41126653Y-28160370D01*
X41275129Y-28082444D01*
X41400642Y-27971249D01*
X41495898Y-27833248D01*
X41555359Y-27676461D01*
X41575571Y-27510000D01*
X59384428Y-27510000D01*
X59404641Y-27676461D01*
X59464101Y-27833248D01*
X59559358Y-27971250D01*
X59684869Y-28082443D01*
X59684871Y-28082444D01*
X59833347Y-28160370D01*
X59996158Y-28200500D01*
X59996159Y-28200500D01*
X60163841Y-28200500D01*
X60163842Y-28200500D01*
X60326653Y-28160370D01*
X60475129Y-28082444D01*
X60600642Y-27971249D01*
X60695898Y-27833248D01*
X60755359Y-27676461D01*
X60775571Y-27510000D01*
X78584428Y-27510000D01*
X78604641Y-27676461D01*
X78664101Y-27833248D01*
X78759358Y-27971250D01*
X78884869Y-28082443D01*
X78884871Y-28082444D01*
X79033347Y-28160370D01*
X79196158Y-28200500D01*
X79196159Y-28200500D01*
X79363841Y-28200500D01*
X79363842Y-28200500D01*
X79526653Y-28160370D01*
X79675129Y-28082444D01*
X79800642Y-27971249D01*
X79895898Y-27833248D01*
X79955359Y-27676461D01*
X79975571Y-27510000D01*
X79955359Y-27343539D01*
X79895898Y-27186752D01*
X79895898Y-27186751D01*
X79800641Y-27048749D01*
X79675130Y-26937556D01*
X79568523Y-26881605D01*
X79526653Y-26859630D01*
X79363842Y-26819500D01*
X79196158Y-26819500D01*
X79033347Y-26859630D01*
X79033345Y-26859630D01*
X79033345Y-26859631D01*
X78884869Y-26937556D01*
X78759358Y-27048749D01*
X78664101Y-27186751D01*
X78604641Y-27343538D01*
X78584428Y-27510000D01*
X60775571Y-27510000D01*
X60755359Y-27343539D01*
X60695898Y-27186752D01*
X60695898Y-27186751D01*
X60600641Y-27048749D01*
X60475130Y-26937556D01*
X60368523Y-26881605D01*
X60326653Y-26859630D01*
X60163842Y-26819500D01*
X59996158Y-26819500D01*
X59833347Y-26859630D01*
X59833345Y-26859630D01*
X59833345Y-26859631D01*
X59684869Y-26937556D01*
X59559358Y-27048749D01*
X59464101Y-27186751D01*
X59404641Y-27343538D01*
X59384428Y-27510000D01*
X41575571Y-27510000D01*
X41555359Y-27343539D01*
X41495898Y-27186752D01*
X41495898Y-27186751D01*
X41400641Y-27048749D01*
X41275130Y-26937556D01*
X41168523Y-26881605D01*
X41126653Y-26859630D01*
X40963842Y-26819500D01*
X40796158Y-26819500D01*
X40633347Y-26859630D01*
X40633345Y-26859630D01*
X40633345Y-26859631D01*
X40484869Y-26937556D01*
X40359358Y-27048749D01*
X40264101Y-27186751D01*
X40204641Y-27343538D01*
X40184428Y-27509999D01*
X27175500Y-27509999D01*
X27175500Y-26986687D01*
X27161548Y-26948355D01*
X27113951Y-26920875D01*
X27102966Y-26918938D01*
X27040363Y-26887910D01*
X27004474Y-26827962D01*
X27000500Y-26796822D01*
X27000500Y-24124500D01*
X27020185Y-24057461D01*
X27072989Y-24011706D01*
X27124500Y-24000500D01*
X152875500Y-24000500D01*
X152942539Y-24020185D01*
G37*
G04 #@! TD.AperFunction*
G04 #@! TD*
M02*
