M48
INCH,TZ
T1C0.0079
%
G90
G05
T1
X12063Y-10831
X12315Y-10831
X12567Y-10831
X12819Y-10831
X13071Y-10831
X13323Y-10831
X13575Y-10831
X13827Y-10831
X14079Y-10831
X14331Y-10831
X14583Y-10831
X14835Y-10831
X15087Y-10831
X15339Y-10831
X15339Y-14299
X15591Y-10831
X15591Y-14299
X15843Y-10831
X15843Y-14299
X16094Y-14299
X16346Y-14299
X16598Y-14299
X16850Y-14299
X17102Y-14299
X17354Y-14299
X17606Y-14299
X17858Y-14299
X18110Y-14299
X18362Y-14299
X18614Y-14299
X18866Y-14299
X19118Y-14299
X19622Y-10831
X19874Y-10831
X20126Y-10831
X20378Y-10831
X20630Y-10831
X20882Y-10831
X21134Y-10831
X21386Y-10831
X21638Y-10831
X21890Y-10831
X22142Y-10831
X22394Y-10831
X22646Y-10831
X22898Y-10831
X22898Y-14299
X23150Y-10831
X23150Y-14299
X23402Y-10831
X23402Y-14299
X23654Y-14299
X23906Y-14299
X24157Y-14299
X24409Y-14299
X24661Y-14299
X24913Y-14299
X25165Y-14299
X25417Y-14299
X25669Y-14299
X25921Y-14299
X26173Y-14299
X26425Y-14299
X26677Y-14299
X27181Y-10831
X27433Y-10831
X27685Y-10831
X27937Y-10831
X28189Y-10831
X28441Y-10831
X28693Y-10831
X28945Y-10831
X29197Y-10831
X29449Y-10831
X29701Y-10831
X29953Y-10831
X30205Y-10831
X30457Y-10831
X30457Y-14299
X30709Y-10831
X30709Y-14299
X30961Y-10831
X30961Y-14299
X31213Y-14299
X31465Y-14299
X31717Y-14299
X31969Y-14299
X32220Y-14299
X32472Y-14299
X32724Y-14299
X32976Y-14299
X33228Y-14299
X33480Y-14299
X33732Y-14299
X33984Y-14299
X34236Y-14299
X36157Y-11429
X36409Y-11429
X36661Y-11429
X36913Y-11429
X37165Y-11429
X37417Y-11429
X37669Y-11429
X37921Y-11429
X38173Y-11429
X38425Y-11429
X38677Y-11429
X38929Y-11429
X39181Y-11429
X39433Y-11429
X39685Y-11429
X39937Y-11429
X40039Y-13701
X40291Y-13701
X40543Y-13701
X40795Y-13701
X41047Y-13701
X41299Y-13701
X41551Y-13701
X41803Y-13701
X42055Y-13701
X42307Y-13701
X42559Y-13701
X42811Y-13697
X43063Y-13697
X43315Y-13697
X43567Y-13697
X43717Y-11429
X43819Y-13697
X43969Y-11429
X44220Y-11429
X44472Y-11429
X44724Y-11429
X44976Y-11429
X45228Y-11429
X45480Y-11429
X45732Y-11429
X45984Y-11429
X46236Y-11429
X46488Y-11429
X46740Y-11429
X46992Y-11429
X47244Y-11429
X47496Y-11429
X47598Y-13701
X47850Y-13701
X48102Y-13701
X48354Y-13701
X48606Y-13701
X48858Y-13701
X49110Y-13701
X49362Y-13701
X49614Y-13701
X49866Y-13701
X50118Y-13701
X50370Y-13701
X50622Y-13701
X50874Y-13701
X51126Y-13701
X51276Y-11429
X51378Y-13701
X51528Y-11429
X51780Y-11429
X52031Y-11429
X52283Y-11429
X52535Y-11429
X52787Y-11429
X53039Y-11429
X53291Y-11429
X53543Y-11429
X53795Y-11429
X54047Y-11429
X54299Y-11429
X54551Y-11429
X54803Y-11429
X55055Y-11429
X55157Y-13701
X55409Y-13701
X55661Y-13701
X55913Y-13701
X56165Y-13701
X56417Y-13701
X56669Y-13701
X56921Y-13701
X57173Y-13701
X57425Y-13701
X57677Y-13701
X57929Y-13701
X58181Y-13701
X58433Y-13701
X58685Y-13701
X58937Y-13701
T0
M30
