M48
INCH,TZ
T1C0.0079
T2C0.0100
T3C0.0197
%
G90
G05
T1
X11811Y-10831
X11811Y-11429
X15087Y-13701
X15087Y-14299
X16094Y-10831
X16094Y-11429
X19370Y-10831
X19370Y-11429
X19370Y-13701
X19370Y-14299
X22646Y-13701
X22646Y-14299
X23654Y-10831
X23654Y-11429
X26929Y-10831
X26929Y-11429
X26929Y-13701
X26929Y-14299
X30205Y-13701
X30205Y-14299
X31213Y-10831
X31213Y-11429
X34488Y-13701
X34488Y-14299
X35906Y-10831
X35906Y-11429
X36142Y-12311
X39787Y-13701
X39787Y-14299
X40189Y-10831
X40189Y-11429
X43465Y-10831
X43465Y-11429
X44071Y-13701
X44071Y-14299
X47346Y-13701
X47346Y-14299
X47748Y-10831
X47748Y-11429
X51024Y-10831
X51024Y-11429
X51630Y-13701
X51630Y-14299
X54906Y-13701
X54906Y-14299
X55307Y-10831
X55307Y-11429
X59189Y-13701
X59189Y-14299
T2
X11457Y-10866
X11457Y-11339
X11575Y-12311
X11575Y-13311
X11634Y-10394
X11811Y-12819
X11866Y-13589
X12106Y-10394
X12283Y-13583
X12579Y-10394
X12752Y-13588
X13051Y-10394
X13228Y-13583
X13524Y-10394
X13701Y-13583
X13996Y-10394
X14173Y-13583
X14469Y-10394
X14646Y-13583
X14764Y-14055
X14941Y-10394
X15118Y-14764
X15413Y-10394
X15591Y-14764
X15886Y-10394
X16063Y-14764
X16358Y-10453
X16417Y-11457
X16535Y-14764
X16772Y-11457
X17008Y-14764
X17244Y-11457
X17480Y-14764
X17717Y-11457
X17953Y-14764
X18189Y-11457
X18425Y-14764
X18661Y-11457
X18898Y-14764
X19075Y-10512
X19075Y-10984
X19370Y-14764
X19488Y-10394
X19724Y-14469
X19843Y-13583
X19961Y-10394
X20315Y-13583
X20433Y-10394
X20787Y-13583
X20906Y-10394
X21260Y-13583
X21378Y-10394
X21732Y-13583
X21850Y-10394
X22205Y-13583
X22264Y-13996
X22323Y-10394
X22618Y-14764
X22795Y-10394
X23091Y-14764
X23268Y-10394
X23563Y-14764
X23858Y-10394
X23976Y-11102
X23976Y-11486
X24035Y-14764
X24331Y-11516
X24508Y-14764
X24803Y-11516
X24980Y-14764
X25276Y-11516
X25453Y-14764
X25748Y-11516
X25925Y-14764
X26220Y-11516
X26398Y-14764
X26634Y-10630
X26870Y-14764
X26988Y-10394
X27283Y-14469
X27402Y-13583
X27461Y-10394
X27874Y-13583
X27933Y-10394
X28346Y-13583
X28406Y-10394
X28819Y-13583
X28878Y-10394
X29291Y-13583
X29350Y-10394
X29764Y-13583
X29823Y-10394
X29823Y-13996
X30118Y-14764
X30295Y-10394
X30591Y-14764
X30768Y-10394
X31063Y-14764
X31240Y-10394
X31535Y-11220
X31535Y-14764
X31890Y-11516
X32008Y-14764
X32362Y-11516
X32480Y-14764
X32835Y-11516
X32953Y-14764
X33307Y-11516
X33425Y-14764
X33780Y-11516
X33898Y-14764
X34252Y-11516
X34370Y-14764
X34843Y-11516
X34843Y-13996
X34843Y-14528
X34874Y-12244
X35315Y-11693
X35315Y-13701
X35551Y-10689
X35551Y-11220
X35610Y-12099
X35846Y-13583
X35906Y-10335
X36378Y-10335
X36378Y-13583
X36850Y-10335
X36850Y-13583
X37323Y-10335
X37323Y-13583
X37795Y-10335
X37795Y-13583
X38268Y-10335
X38268Y-13583
X38740Y-10335
X38740Y-13583
X39213Y-10335
X39213Y-13583
X39449Y-13996
X39685Y-10335
X39744Y-14764
X40157Y-10335
X40217Y-14764
X40512Y-10925
X40512Y-11457
X40689Y-14764
X40925Y-11457
X41161Y-14764
X41339Y-11457
X41634Y-14764
X41811Y-11457
X42106Y-14764
X42283Y-11457
X42579Y-14764
X42756Y-11457
X43051Y-14764
X43169Y-10512
X43169Y-10984
X43524Y-14764
X43583Y-10335
X43996Y-14764
X44055Y-10335
X44409Y-13583
X44409Y-14528
X44528Y-10335
X44882Y-13583
X45000Y-10335
X45354Y-13583
X45472Y-10335
X45827Y-13583
X45945Y-10335
X46299Y-13583
X46417Y-10335
X46772Y-13583
X46890Y-10335
X47008Y-13937
X47303Y-14764
X47362Y-10335
X47776Y-14764
X47835Y-10335
X48066Y-11503
X48071Y-11043
X48248Y-14764
X48425Y-11516
X48720Y-14764
X48898Y-11516
X49193Y-14764
X49370Y-11516
X49665Y-14764
X49843Y-11516
X50138Y-14764
X50315Y-11516
X50610Y-14764
X50728Y-10571
X50728Y-11043
X51083Y-14764
X51142Y-10335
X51555Y-14764
X51614Y-10335
X51969Y-13642
X51969Y-14587
X52087Y-10335
X52441Y-13642
X52559Y-10335
X52913Y-13642
X53031Y-10335
X53386Y-13642
X53504Y-10333
X53858Y-13642
X53976Y-10335
X54331Y-13642
X54449Y-10335
X54567Y-13937
X54626Y-14764
X54921Y-10335
X55039Y-14764
X55394Y-10335
X55512Y-14764
X55630Y-11102
X55630Y-11516
X55984Y-14764
X56043Y-11516
X56457Y-11516
X56457Y-14764
X56929Y-11516
X56929Y-14764
X57402Y-11516
X57402Y-14764
X57874Y-11516
X57874Y-14764
X58346Y-11516
X58346Y-14764
X58819Y-14764
X58937Y-11634
X59114Y-12047
X59114Y-12992
X59114Y-12520
X59291Y-14764
X59528Y-13819
X59528Y-14291
T3
X12047Y-12311
X12047Y-13311
X12283Y-11811
X12283Y-12811
X12520Y-12311
X12520Y-13311
X12756Y-11811
X12756Y-12811
X12992Y-12311
X12992Y-13311
X13228Y-11811
X13228Y-12811
X13465Y-12311
X13465Y-13311
X13701Y-11811
X13701Y-12811
X13937Y-12311
X13937Y-13311
X14173Y-11811
X14173Y-12811
X14409Y-12311
X14409Y-13311
X14646Y-11811
X14646Y-12811
X14882Y-12311
X14882Y-13311
X15118Y-11811
X15118Y-12811
X15354Y-12311
X15354Y-13311
X15591Y-11811
X15591Y-12811
X15827Y-12311
X15827Y-13311
X16063Y-11811
X16063Y-12811
X16299Y-12311
X16299Y-13311
X16535Y-11811
X16535Y-12811
X16772Y-12311
X16772Y-13311
X17008Y-11811
X17008Y-12811
X17244Y-12311
X17244Y-13311
X17480Y-11811
X17480Y-12811
X17717Y-12311
X17717Y-13311
X17953Y-11811
X17953Y-12811
X18189Y-12311
X18189Y-13311
X18425Y-11811
X18425Y-12811
X18661Y-12311
X18661Y-13311
X18898Y-11811
X18898Y-12811
X19134Y-12311
X19134Y-13311
X19370Y-11811
X19370Y-12811
X19606Y-12311
X19606Y-13311
X19843Y-11811
X19843Y-12819
X20079Y-12311
X20079Y-13311
X20315Y-11811
X20315Y-12819
X20551Y-12311
X20551Y-13311
X20787Y-11811
X20787Y-12819
X21024Y-12311
X21024Y-13311
X21260Y-11811
X21260Y-12819
X21496Y-12311
X21496Y-13311
X21732Y-11811
X21732Y-12819
X21969Y-12311
X21969Y-13311
X22205Y-11811
X22205Y-12819
X22441Y-12311
X22441Y-13311
X22677Y-11811
X22677Y-12819
X22913Y-12311
X22913Y-13311
X23150Y-11811
X23150Y-12819
X23386Y-12311
X23386Y-13311
X23622Y-11811
X23622Y-12819
X23858Y-12311
X23858Y-13311
X24094Y-11811
X24094Y-12819
X24331Y-12311
X24331Y-13311
X24567Y-11811
X24567Y-12819
X24803Y-12311
X24803Y-13311
X25039Y-11811
X25039Y-12819
X25276Y-12311
X25276Y-13311
X25512Y-11811
X25512Y-12819
X25748Y-12311
X25748Y-13311
X25984Y-11811
X25984Y-12819
X26220Y-12311
X26220Y-13311
X26457Y-11811
X26457Y-12819
X26693Y-12311
X26693Y-13311
X26929Y-11811
X26929Y-12819
X27165Y-12311
X27165Y-13311
X27402Y-11811
X27402Y-12819
X27638Y-12311
X27638Y-13311
X27874Y-11811
X27874Y-12819
X28110Y-12311
X28110Y-13311
X28346Y-11811
X28346Y-12819
X28583Y-12311
X28583Y-13311
X28819Y-11811
X28819Y-12819
X29055Y-12311
X29055Y-13311
X29291Y-11811
X29291Y-12819
X29528Y-12311
X29528Y-13311
X29764Y-11811
X29764Y-12819
X30000Y-12311
X30000Y-13311
X30236Y-11811
X30236Y-12819
X30472Y-12311
X30472Y-13311
X30709Y-11811
X30709Y-12819
X30945Y-12311
X30945Y-13311
X31181Y-11811
X31181Y-12811
X31417Y-12311
X31417Y-13311
X31654Y-11811
X31654Y-12811
X31890Y-12311
X31890Y-13311
X32126Y-11811
X32126Y-12811
X32362Y-12311
X32362Y-13311
X32598Y-11811
X32598Y-12811
X32835Y-12311
X32835Y-13311
X33071Y-11811
X33071Y-12811
X33307Y-12311
X33307Y-13311
X33543Y-11811
X33543Y-12811
X33780Y-12311
X33780Y-13311
X34016Y-11811
X34016Y-12811
X34252Y-12311
X34252Y-13311
X34488Y-11811
X34488Y-12811
X35906Y-11811
X35906Y-12811
X36142Y-12311
X36142Y-13311
X36378Y-11811
X36378Y-12811
X36614Y-12311
X36614Y-13311
X36850Y-11811
X36850Y-12811
X37087Y-12311
X37087Y-13311
X37323Y-11811
X37323Y-12811
X37559Y-12311
X37559Y-13311
X37795Y-11811
X37795Y-12811
X38031Y-12311
X38031Y-13311
X38268Y-11811
X38268Y-12811
X38504Y-12311
X38504Y-13311
X38740Y-11811
X38740Y-12811
X38976Y-12311
X38976Y-13311
X39213Y-11811
X39213Y-12811
X39449Y-12311
X39449Y-13311
X39685Y-11811
X39685Y-12811
X39921Y-12311
X39921Y-13311
X40157Y-11811
X40157Y-12811
X40394Y-12311
X40394Y-13311
X40630Y-11811
X40630Y-12811
X40866Y-12311
X40866Y-13311
X41102Y-11811
X41102Y-12811
X41339Y-12311
X41339Y-13311
X41575Y-11811
X41575Y-12811
X41811Y-12311
X41811Y-13311
X42047Y-11811
X42047Y-12811
X42283Y-12311
X42283Y-13311
X42520Y-11811
X42520Y-12811
X42756Y-12311
X42756Y-13311
X42992Y-11811
X42992Y-12811
X43228Y-12311
X43228Y-13311
X43465Y-11811
X43465Y-12811
X43701Y-12311
X43701Y-13311
X43937Y-11811
X43937Y-12811
X44173Y-12311
X44173Y-13311
X44409Y-11811
X44409Y-12811
X44646Y-12311
X44646Y-13311
X44882Y-11811
X44882Y-12811
X45118Y-12311
X45118Y-13311
X45354Y-11811
X45354Y-12811
X45591Y-12311
X45591Y-13311
X45827Y-11811
X45827Y-12811
X46063Y-12311
X46063Y-13311
X46299Y-11811
X46299Y-12811
X46535Y-12311
X46535Y-13311
X46772Y-11811
X46772Y-12811
X47008Y-12311
X47008Y-13311
X47244Y-11811
X47244Y-12811
X47480Y-12311
X47480Y-13311
X47717Y-11811
X47717Y-12811
X47953Y-12311
X47953Y-13311
X48189Y-11811
X48189Y-12811
X48425Y-12311
X48425Y-13311
X48661Y-11811
X48661Y-12811
X48898Y-12311
X48898Y-13311
X49134Y-11811
X49134Y-12811
X49370Y-12311
X49370Y-13311
X49606Y-11811
X49606Y-12811
X49843Y-12311
X49843Y-13311
X50079Y-11811
X50079Y-12811
X50315Y-12311
X50315Y-13311
X50551Y-11811
X50551Y-12811
X50787Y-12311
X50787Y-13311
X51024Y-11811
X51024Y-12811
X51260Y-12311
X51260Y-13311
X51496Y-11811
X51496Y-12811
X51732Y-12311
X51732Y-13311
X51969Y-11811
X51969Y-12811
X52205Y-12311
X52205Y-13311
X52441Y-11811
X52441Y-12811
X52677Y-12311
X52677Y-13311
X52913Y-11811
X52913Y-12811
X53150Y-12311
X53150Y-13311
X53386Y-11811
X53386Y-12811
X53622Y-12311
X53622Y-13311
X53858Y-11811
X53858Y-12811
X54094Y-12311
X54094Y-13311
X54331Y-11811
X54331Y-12811
X54567Y-12311
X54567Y-13311
X54803Y-11811
X54803Y-12811
X55039Y-12311
X55039Y-13311
X55276Y-11811
X55276Y-12811
X55512Y-12311
X55512Y-13311
X55748Y-11811
X55748Y-12811
X55984Y-12311
X55984Y-13311
X56220Y-11811
X56220Y-12811
X56457Y-12311
X56457Y-13311
X56693Y-11811
X56693Y-12811
X56929Y-12311
X56929Y-13311
X57165Y-11811
X57165Y-12811
X57402Y-12311
X57402Y-13311
X57638Y-11811
X57638Y-12811
X57874Y-12311
X57874Y-13311
X58110Y-11811
X58110Y-12811
X58346Y-12311
X58346Y-13311
X58583Y-11811
X58583Y-12811
X58819Y-12311
X58819Y-13311
T0
M30
