G04 #@! TF.GenerationSoftware,KiCad,Pcbnew,7.0.2*
G04 #@! TF.CreationDate,2023-07-25T20:27:36-04:00*
G04 #@! TF.ProjectId,AxionAdapter,4178696f-6e41-4646-9170-7465722e6b69,rev?*
G04 #@! TF.SameCoordinates,Original*
G04 #@! TF.FileFunction,Legend,Bot*
G04 #@! TF.FilePolarity,Positive*
%FSLAX46Y46*%
G04 Gerber Fmt 4.6, Leading zero omitted, Abs format (unit mm)*
G04 Created by KiCad (PCBNEW 7.0.2) date 2023-07-25 20:27:36*
%MOMM*%
%LPD*%
G01*
G04 APERTURE LIST*
%ADD10C,0.150000*%
%ADD11C,0.100000*%
G04 APERTURE END LIST*
D10*
X97429523Y-25341904D02*
X96953333Y-25341904D01*
X97524761Y-25627619D02*
X97191428Y-24627619D01*
X97191428Y-24627619D02*
X96858095Y-25627619D01*
X96619999Y-25627619D02*
X96096190Y-24960952D01*
X96619999Y-24960952D02*
X96096190Y-25627619D01*
X95715237Y-25627619D02*
X95715237Y-24960952D01*
X95715237Y-24627619D02*
X95762856Y-24675238D01*
X95762856Y-24675238D02*
X95715237Y-24722857D01*
X95715237Y-24722857D02*
X95667618Y-24675238D01*
X95667618Y-24675238D02*
X95715237Y-24627619D01*
X95715237Y-24627619D02*
X95715237Y-24722857D01*
X95096190Y-25627619D02*
X95191428Y-25580000D01*
X95191428Y-25580000D02*
X95239047Y-25532380D01*
X95239047Y-25532380D02*
X95286666Y-25437142D01*
X95286666Y-25437142D02*
X95286666Y-25151428D01*
X95286666Y-25151428D02*
X95239047Y-25056190D01*
X95239047Y-25056190D02*
X95191428Y-25008571D01*
X95191428Y-25008571D02*
X95096190Y-24960952D01*
X95096190Y-24960952D02*
X94953333Y-24960952D01*
X94953333Y-24960952D02*
X94858095Y-25008571D01*
X94858095Y-25008571D02*
X94810476Y-25056190D01*
X94810476Y-25056190D02*
X94762857Y-25151428D01*
X94762857Y-25151428D02*
X94762857Y-25437142D01*
X94762857Y-25437142D02*
X94810476Y-25532380D01*
X94810476Y-25532380D02*
X94858095Y-25580000D01*
X94858095Y-25580000D02*
X94953333Y-25627619D01*
X94953333Y-25627619D02*
X95096190Y-25627619D01*
X94334285Y-24960952D02*
X94334285Y-25627619D01*
X94334285Y-25056190D02*
X94286666Y-25008571D01*
X94286666Y-25008571D02*
X94191428Y-24960952D01*
X94191428Y-24960952D02*
X94048571Y-24960952D01*
X94048571Y-24960952D02*
X93953333Y-25008571D01*
X93953333Y-25008571D02*
X93905714Y-25103809D01*
X93905714Y-25103809D02*
X93905714Y-25627619D01*
X93429523Y-25246666D02*
X92667619Y-25246666D01*
X92000952Y-24627619D02*
X91810476Y-24627619D01*
X91810476Y-24627619D02*
X91715238Y-24675238D01*
X91715238Y-24675238D02*
X91620000Y-24770476D01*
X91620000Y-24770476D02*
X91572381Y-24960952D01*
X91572381Y-24960952D02*
X91572381Y-25294285D01*
X91572381Y-25294285D02*
X91620000Y-25484761D01*
X91620000Y-25484761D02*
X91715238Y-25580000D01*
X91715238Y-25580000D02*
X91810476Y-25627619D01*
X91810476Y-25627619D02*
X92000952Y-25627619D01*
X92000952Y-25627619D02*
X92096190Y-25580000D01*
X92096190Y-25580000D02*
X92191428Y-25484761D01*
X92191428Y-25484761D02*
X92239047Y-25294285D01*
X92239047Y-25294285D02*
X92239047Y-24960952D01*
X92239047Y-24960952D02*
X92191428Y-24770476D01*
X92191428Y-24770476D02*
X92096190Y-24675238D01*
X92096190Y-24675238D02*
X92000952Y-24627619D01*
X91143809Y-25627619D02*
X91143809Y-24960952D01*
X91143809Y-25056190D02*
X91096190Y-25008571D01*
X91096190Y-25008571D02*
X91000952Y-24960952D01*
X91000952Y-24960952D02*
X90858095Y-24960952D01*
X90858095Y-24960952D02*
X90762857Y-25008571D01*
X90762857Y-25008571D02*
X90715238Y-25103809D01*
X90715238Y-25103809D02*
X90715238Y-25627619D01*
X90715238Y-25103809D02*
X90667619Y-25008571D01*
X90667619Y-25008571D02*
X90572381Y-24960952D01*
X90572381Y-24960952D02*
X90429524Y-24960952D01*
X90429524Y-24960952D02*
X90334285Y-25008571D01*
X90334285Y-25008571D02*
X90286666Y-25103809D01*
X90286666Y-25103809D02*
X90286666Y-25627619D01*
X89810476Y-24960952D02*
X89810476Y-25627619D01*
X89810476Y-25056190D02*
X89762857Y-25008571D01*
X89762857Y-25008571D02*
X89667619Y-24960952D01*
X89667619Y-24960952D02*
X89524762Y-24960952D01*
X89524762Y-24960952D02*
X89429524Y-25008571D01*
X89429524Y-25008571D02*
X89381905Y-25103809D01*
X89381905Y-25103809D02*
X89381905Y-25627619D01*
X88524762Y-25580000D02*
X88620000Y-25627619D01*
X88620000Y-25627619D02*
X88810476Y-25627619D01*
X88810476Y-25627619D02*
X88905714Y-25580000D01*
X88905714Y-25580000D02*
X88953333Y-25484761D01*
X88953333Y-25484761D02*
X88953333Y-25103809D01*
X88953333Y-25103809D02*
X88905714Y-25008571D01*
X88905714Y-25008571D02*
X88810476Y-24960952D01*
X88810476Y-24960952D02*
X88620000Y-24960952D01*
X88620000Y-24960952D02*
X88524762Y-25008571D01*
X88524762Y-25008571D02*
X88477143Y-25103809D01*
X88477143Y-25103809D02*
X88477143Y-25199047D01*
X88477143Y-25199047D02*
X88953333Y-25294285D01*
X88191428Y-24960952D02*
X87810476Y-24960952D01*
X88048571Y-24627619D02*
X88048571Y-25484761D01*
X88048571Y-25484761D02*
X88000952Y-25580000D01*
X88000952Y-25580000D02*
X87905714Y-25627619D01*
X87905714Y-25627619D02*
X87810476Y-25627619D01*
X87477142Y-25627619D02*
X87477142Y-24960952D01*
X87477142Y-24627619D02*
X87524761Y-24675238D01*
X87524761Y-24675238D02*
X87477142Y-24722857D01*
X87477142Y-24722857D02*
X87429523Y-24675238D01*
X87429523Y-24675238D02*
X87477142Y-24627619D01*
X87477142Y-24627619D02*
X87477142Y-24722857D01*
X86572381Y-25580000D02*
X86667619Y-25627619D01*
X86667619Y-25627619D02*
X86858095Y-25627619D01*
X86858095Y-25627619D02*
X86953333Y-25580000D01*
X86953333Y-25580000D02*
X87000952Y-25532380D01*
X87000952Y-25532380D02*
X87048571Y-25437142D01*
X87048571Y-25437142D02*
X87048571Y-25151428D01*
X87048571Y-25151428D02*
X87000952Y-25056190D01*
X87000952Y-25056190D02*
X86953333Y-25008571D01*
X86953333Y-25008571D02*
X86858095Y-24960952D01*
X86858095Y-24960952D02*
X86667619Y-24960952D01*
X86667619Y-24960952D02*
X86572381Y-25008571D01*
X86191428Y-25580000D02*
X86096190Y-25627619D01*
X86096190Y-25627619D02*
X85905714Y-25627619D01*
X85905714Y-25627619D02*
X85810476Y-25580000D01*
X85810476Y-25580000D02*
X85762857Y-25484761D01*
X85762857Y-25484761D02*
X85762857Y-25437142D01*
X85762857Y-25437142D02*
X85810476Y-25341904D01*
X85810476Y-25341904D02*
X85905714Y-25294285D01*
X85905714Y-25294285D02*
X86048571Y-25294285D01*
X86048571Y-25294285D02*
X86143809Y-25246666D01*
X86143809Y-25246666D02*
X86191428Y-25151428D01*
X86191428Y-25151428D02*
X86191428Y-25103809D01*
X86191428Y-25103809D02*
X86143809Y-25008571D01*
X86143809Y-25008571D02*
X86048571Y-24960952D01*
X86048571Y-24960952D02*
X85905714Y-24960952D01*
X85905714Y-24960952D02*
X85810476Y-25008571D01*
X84619999Y-25341904D02*
X84143809Y-25341904D01*
X84715237Y-25627619D02*
X84381904Y-24627619D01*
X84381904Y-24627619D02*
X84048571Y-25627619D01*
X83286666Y-25627619D02*
X83286666Y-24627619D01*
X83286666Y-25580000D02*
X83381904Y-25627619D01*
X83381904Y-25627619D02*
X83572380Y-25627619D01*
X83572380Y-25627619D02*
X83667618Y-25580000D01*
X83667618Y-25580000D02*
X83715237Y-25532380D01*
X83715237Y-25532380D02*
X83762856Y-25437142D01*
X83762856Y-25437142D02*
X83762856Y-25151428D01*
X83762856Y-25151428D02*
X83715237Y-25056190D01*
X83715237Y-25056190D02*
X83667618Y-25008571D01*
X83667618Y-25008571D02*
X83572380Y-24960952D01*
X83572380Y-24960952D02*
X83381904Y-24960952D01*
X83381904Y-24960952D02*
X83286666Y-25008571D01*
X82381904Y-25627619D02*
X82381904Y-25103809D01*
X82381904Y-25103809D02*
X82429523Y-25008571D01*
X82429523Y-25008571D02*
X82524761Y-24960952D01*
X82524761Y-24960952D02*
X82715237Y-24960952D01*
X82715237Y-24960952D02*
X82810475Y-25008571D01*
X82381904Y-25580000D02*
X82477142Y-25627619D01*
X82477142Y-25627619D02*
X82715237Y-25627619D01*
X82715237Y-25627619D02*
X82810475Y-25580000D01*
X82810475Y-25580000D02*
X82858094Y-25484761D01*
X82858094Y-25484761D02*
X82858094Y-25389523D01*
X82858094Y-25389523D02*
X82810475Y-25294285D01*
X82810475Y-25294285D02*
X82715237Y-25246666D01*
X82715237Y-25246666D02*
X82477142Y-25246666D01*
X82477142Y-25246666D02*
X82381904Y-25199047D01*
X81905713Y-24960952D02*
X81905713Y-25960952D01*
X81905713Y-25008571D02*
X81810475Y-24960952D01*
X81810475Y-24960952D02*
X81619999Y-24960952D01*
X81619999Y-24960952D02*
X81524761Y-25008571D01*
X81524761Y-25008571D02*
X81477142Y-25056190D01*
X81477142Y-25056190D02*
X81429523Y-25151428D01*
X81429523Y-25151428D02*
X81429523Y-25437142D01*
X81429523Y-25437142D02*
X81477142Y-25532380D01*
X81477142Y-25532380D02*
X81524761Y-25580000D01*
X81524761Y-25580000D02*
X81619999Y-25627619D01*
X81619999Y-25627619D02*
X81810475Y-25627619D01*
X81810475Y-25627619D02*
X81905713Y-25580000D01*
X81143808Y-24960952D02*
X80762856Y-24960952D01*
X81000951Y-24627619D02*
X81000951Y-25484761D01*
X81000951Y-25484761D02*
X80953332Y-25580000D01*
X80953332Y-25580000D02*
X80858094Y-25627619D01*
X80858094Y-25627619D02*
X80762856Y-25627619D01*
X80048570Y-25580000D02*
X80143808Y-25627619D01*
X80143808Y-25627619D02*
X80334284Y-25627619D01*
X80334284Y-25627619D02*
X80429522Y-25580000D01*
X80429522Y-25580000D02*
X80477141Y-25484761D01*
X80477141Y-25484761D02*
X80477141Y-25103809D01*
X80477141Y-25103809D02*
X80429522Y-25008571D01*
X80429522Y-25008571D02*
X80334284Y-24960952D01*
X80334284Y-24960952D02*
X80143808Y-24960952D01*
X80143808Y-24960952D02*
X80048570Y-25008571D01*
X80048570Y-25008571D02*
X80000951Y-25103809D01*
X80000951Y-25103809D02*
X80000951Y-25199047D01*
X80000951Y-25199047D02*
X80477141Y-25294285D01*
X79572379Y-25627619D02*
X79572379Y-24960952D01*
X79572379Y-25151428D02*
X79524760Y-25056190D01*
X79524760Y-25056190D02*
X79477141Y-25008571D01*
X79477141Y-25008571D02*
X79381903Y-24960952D01*
X79381903Y-24960952D02*
X79286665Y-24960952D01*
X77619998Y-25627619D02*
X77953331Y-25151428D01*
X78191426Y-25627619D02*
X78191426Y-24627619D01*
X78191426Y-24627619D02*
X77810474Y-24627619D01*
X77810474Y-24627619D02*
X77715236Y-24675238D01*
X77715236Y-24675238D02*
X77667617Y-24722857D01*
X77667617Y-24722857D02*
X77619998Y-24818095D01*
X77619998Y-24818095D02*
X77619998Y-24960952D01*
X77619998Y-24960952D02*
X77667617Y-25056190D01*
X77667617Y-25056190D02*
X77715236Y-25103809D01*
X77715236Y-25103809D02*
X77810474Y-25151428D01*
X77810474Y-25151428D02*
X78191426Y-25151428D01*
X76810474Y-25580000D02*
X76905712Y-25627619D01*
X76905712Y-25627619D02*
X77096188Y-25627619D01*
X77096188Y-25627619D02*
X77191426Y-25580000D01*
X77191426Y-25580000D02*
X77239045Y-25484761D01*
X77239045Y-25484761D02*
X77239045Y-25103809D01*
X77239045Y-25103809D02*
X77191426Y-25008571D01*
X77191426Y-25008571D02*
X77096188Y-24960952D01*
X77096188Y-24960952D02*
X76905712Y-24960952D01*
X76905712Y-24960952D02*
X76810474Y-25008571D01*
X76810474Y-25008571D02*
X76762855Y-25103809D01*
X76762855Y-25103809D02*
X76762855Y-25199047D01*
X76762855Y-25199047D02*
X77239045Y-25294285D01*
X76429521Y-24960952D02*
X76191426Y-25627619D01*
X76191426Y-25627619D02*
X75953331Y-24960952D01*
X74286664Y-25627619D02*
X74858092Y-25627619D01*
X74572378Y-25627619D02*
X74572378Y-24627619D01*
X74572378Y-24627619D02*
X74667616Y-24770476D01*
X74667616Y-24770476D02*
X74762854Y-24865714D01*
X74762854Y-24865714D02*
X74858092Y-24913333D01*
X73858092Y-25532380D02*
X73810473Y-25580000D01*
X73810473Y-25580000D02*
X73858092Y-25627619D01*
X73858092Y-25627619D02*
X73905711Y-25580000D01*
X73905711Y-25580000D02*
X73858092Y-25532380D01*
X73858092Y-25532380D02*
X73858092Y-25627619D01*
X73191426Y-24627619D02*
X73096188Y-24627619D01*
X73096188Y-24627619D02*
X73000950Y-24675238D01*
X73000950Y-24675238D02*
X72953331Y-24722857D01*
X72953331Y-24722857D02*
X72905712Y-24818095D01*
X72905712Y-24818095D02*
X72858093Y-25008571D01*
X72858093Y-25008571D02*
X72858093Y-25246666D01*
X72858093Y-25246666D02*
X72905712Y-25437142D01*
X72905712Y-25437142D02*
X72953331Y-25532380D01*
X72953331Y-25532380D02*
X73000950Y-25580000D01*
X73000950Y-25580000D02*
X73096188Y-25627619D01*
X73096188Y-25627619D02*
X73191426Y-25627619D01*
X73191426Y-25627619D02*
X73286664Y-25580000D01*
X73286664Y-25580000D02*
X73334283Y-25532380D01*
X73334283Y-25532380D02*
X73381902Y-25437142D01*
X73381902Y-25437142D02*
X73429521Y-25246666D01*
X73429521Y-25246666D02*
X73429521Y-25008571D01*
X73429521Y-25008571D02*
X73381902Y-24818095D01*
X73381902Y-24818095D02*
X73334283Y-24722857D01*
X73334283Y-24722857D02*
X73286664Y-24675238D01*
X73286664Y-24675238D02*
X73191426Y-24627619D01*
D11*
X135591905Y-36377380D02*
X136210952Y-36377380D01*
X136210952Y-36377380D02*
X135877619Y-35996428D01*
X135877619Y-35996428D02*
X136020476Y-35996428D01*
X136020476Y-35996428D02*
X136115714Y-35948809D01*
X136115714Y-35948809D02*
X136163333Y-35901190D01*
X136163333Y-35901190D02*
X136210952Y-35805952D01*
X136210952Y-35805952D02*
X136210952Y-35567857D01*
X136210952Y-35567857D02*
X136163333Y-35472619D01*
X136163333Y-35472619D02*
X136115714Y-35425000D01*
X136115714Y-35425000D02*
X136020476Y-35377380D01*
X136020476Y-35377380D02*
X135734762Y-35377380D01*
X135734762Y-35377380D02*
X135639524Y-35425000D01*
X135639524Y-35425000D02*
X135591905Y-35472619D01*
X136591905Y-35663095D02*
X137068095Y-35663095D01*
X136496667Y-35377380D02*
X136830000Y-36377380D01*
X136830000Y-36377380D02*
X137163333Y-35377380D01*
X137449048Y-36282142D02*
X137496667Y-36329761D01*
X137496667Y-36329761D02*
X137591905Y-36377380D01*
X137591905Y-36377380D02*
X137830000Y-36377380D01*
X137830000Y-36377380D02*
X137925238Y-36329761D01*
X137925238Y-36329761D02*
X137972857Y-36282142D01*
X137972857Y-36282142D02*
X138020476Y-36186904D01*
X138020476Y-36186904D02*
X138020476Y-36091666D01*
X138020476Y-36091666D02*
X137972857Y-35948809D01*
X137972857Y-35948809D02*
X137401429Y-35377380D01*
X137401429Y-35377380D02*
X138020476Y-35377380D01*
X125861905Y-28539880D02*
X126480952Y-28539880D01*
X126480952Y-28539880D02*
X126147619Y-28158928D01*
X126147619Y-28158928D02*
X126290476Y-28158928D01*
X126290476Y-28158928D02*
X126385714Y-28111309D01*
X126385714Y-28111309D02*
X126433333Y-28063690D01*
X126433333Y-28063690D02*
X126480952Y-27968452D01*
X126480952Y-27968452D02*
X126480952Y-27730357D01*
X126480952Y-27730357D02*
X126433333Y-27635119D01*
X126433333Y-27635119D02*
X126385714Y-27587500D01*
X126385714Y-27587500D02*
X126290476Y-27539880D01*
X126290476Y-27539880D02*
X126004762Y-27539880D01*
X126004762Y-27539880D02*
X125909524Y-27587500D01*
X125909524Y-27587500D02*
X125861905Y-27635119D01*
X126861905Y-27825595D02*
X127338095Y-27825595D01*
X126766667Y-27539880D02*
X127100000Y-28539880D01*
X127100000Y-28539880D02*
X127433333Y-27539880D01*
X128290476Y-27539880D02*
X127719048Y-27539880D01*
X128004762Y-27539880D02*
X128004762Y-28539880D01*
X128004762Y-28539880D02*
X127909524Y-28397023D01*
X127909524Y-28397023D02*
X127814286Y-28301785D01*
X127814286Y-28301785D02*
X127719048Y-28254166D01*
X116240476Y-36377380D02*
X116859523Y-36377380D01*
X116859523Y-36377380D02*
X116526190Y-35996428D01*
X116526190Y-35996428D02*
X116669047Y-35996428D01*
X116669047Y-35996428D02*
X116764285Y-35948809D01*
X116764285Y-35948809D02*
X116811904Y-35901190D01*
X116811904Y-35901190D02*
X116859523Y-35805952D01*
X116859523Y-35805952D02*
X116859523Y-35567857D01*
X116859523Y-35567857D02*
X116811904Y-35472619D01*
X116811904Y-35472619D02*
X116764285Y-35425000D01*
X116764285Y-35425000D02*
X116669047Y-35377380D01*
X116669047Y-35377380D02*
X116383333Y-35377380D01*
X116383333Y-35377380D02*
X116288095Y-35425000D01*
X116288095Y-35425000D02*
X116240476Y-35472619D01*
X117621428Y-35901190D02*
X117764285Y-35853571D01*
X117764285Y-35853571D02*
X117811904Y-35805952D01*
X117811904Y-35805952D02*
X117859523Y-35710714D01*
X117859523Y-35710714D02*
X117859523Y-35567857D01*
X117859523Y-35567857D02*
X117811904Y-35472619D01*
X117811904Y-35472619D02*
X117764285Y-35425000D01*
X117764285Y-35425000D02*
X117669047Y-35377380D01*
X117669047Y-35377380D02*
X117288095Y-35377380D01*
X117288095Y-35377380D02*
X117288095Y-36377380D01*
X117288095Y-36377380D02*
X117621428Y-36377380D01*
X117621428Y-36377380D02*
X117716666Y-36329761D01*
X117716666Y-36329761D02*
X117764285Y-36282142D01*
X117764285Y-36282142D02*
X117811904Y-36186904D01*
X117811904Y-36186904D02*
X117811904Y-36091666D01*
X117811904Y-36091666D02*
X117764285Y-35996428D01*
X117764285Y-35996428D02*
X117716666Y-35948809D01*
X117716666Y-35948809D02*
X117621428Y-35901190D01*
X117621428Y-35901190D02*
X117288095Y-35901190D01*
X118240476Y-36282142D02*
X118288095Y-36329761D01*
X118288095Y-36329761D02*
X118383333Y-36377380D01*
X118383333Y-36377380D02*
X118621428Y-36377380D01*
X118621428Y-36377380D02*
X118716666Y-36329761D01*
X118716666Y-36329761D02*
X118764285Y-36282142D01*
X118764285Y-36282142D02*
X118811904Y-36186904D01*
X118811904Y-36186904D02*
X118811904Y-36091666D01*
X118811904Y-36091666D02*
X118764285Y-35948809D01*
X118764285Y-35948809D02*
X118192857Y-35377380D01*
X118192857Y-35377380D02*
X118811904Y-35377380D01*
X106620476Y-28539880D02*
X107239523Y-28539880D01*
X107239523Y-28539880D02*
X106906190Y-28158928D01*
X106906190Y-28158928D02*
X107049047Y-28158928D01*
X107049047Y-28158928D02*
X107144285Y-28111309D01*
X107144285Y-28111309D02*
X107191904Y-28063690D01*
X107191904Y-28063690D02*
X107239523Y-27968452D01*
X107239523Y-27968452D02*
X107239523Y-27730357D01*
X107239523Y-27730357D02*
X107191904Y-27635119D01*
X107191904Y-27635119D02*
X107144285Y-27587500D01*
X107144285Y-27587500D02*
X107049047Y-27539880D01*
X107049047Y-27539880D02*
X106763333Y-27539880D01*
X106763333Y-27539880D02*
X106668095Y-27587500D01*
X106668095Y-27587500D02*
X106620476Y-27635119D01*
X108001428Y-28063690D02*
X108144285Y-28016071D01*
X108144285Y-28016071D02*
X108191904Y-27968452D01*
X108191904Y-27968452D02*
X108239523Y-27873214D01*
X108239523Y-27873214D02*
X108239523Y-27730357D01*
X108239523Y-27730357D02*
X108191904Y-27635119D01*
X108191904Y-27635119D02*
X108144285Y-27587500D01*
X108144285Y-27587500D02*
X108049047Y-27539880D01*
X108049047Y-27539880D02*
X107668095Y-27539880D01*
X107668095Y-27539880D02*
X107668095Y-28539880D01*
X107668095Y-28539880D02*
X108001428Y-28539880D01*
X108001428Y-28539880D02*
X108096666Y-28492261D01*
X108096666Y-28492261D02*
X108144285Y-28444642D01*
X108144285Y-28444642D02*
X108191904Y-28349404D01*
X108191904Y-28349404D02*
X108191904Y-28254166D01*
X108191904Y-28254166D02*
X108144285Y-28158928D01*
X108144285Y-28158928D02*
X108096666Y-28111309D01*
X108096666Y-28111309D02*
X108001428Y-28063690D01*
X108001428Y-28063690D02*
X107668095Y-28063690D01*
X109191904Y-27539880D02*
X108620476Y-27539880D01*
X108906190Y-27539880D02*
X108906190Y-28539880D01*
X108906190Y-28539880D02*
X108810952Y-28397023D01*
X108810952Y-28397023D02*
X108715714Y-28301785D01*
X108715714Y-28301785D02*
X108620476Y-28254166D01*
D10*
X36138095Y-36405119D02*
X36709523Y-36405119D01*
X36423809Y-36405119D02*
X36423809Y-35405119D01*
X36423809Y-35405119D02*
X36519047Y-35547976D01*
X36519047Y-35547976D02*
X36614285Y-35643214D01*
X36614285Y-35643214D02*
X36709523Y-35690833D01*
X35376190Y-35881309D02*
X35233333Y-35928928D01*
X35233333Y-35928928D02*
X35185714Y-35976547D01*
X35185714Y-35976547D02*
X35138095Y-36071785D01*
X35138095Y-36071785D02*
X35138095Y-36214642D01*
X35138095Y-36214642D02*
X35185714Y-36309880D01*
X35185714Y-36309880D02*
X35233333Y-36357500D01*
X35233333Y-36357500D02*
X35328571Y-36405119D01*
X35328571Y-36405119D02*
X35709523Y-36405119D01*
X35709523Y-36405119D02*
X35709523Y-35405119D01*
X35709523Y-35405119D02*
X35376190Y-35405119D01*
X35376190Y-35405119D02*
X35280952Y-35452738D01*
X35280952Y-35452738D02*
X35233333Y-35500357D01*
X35233333Y-35500357D02*
X35185714Y-35595595D01*
X35185714Y-35595595D02*
X35185714Y-35690833D01*
X35185714Y-35690833D02*
X35233333Y-35786071D01*
X35233333Y-35786071D02*
X35280952Y-35833690D01*
X35280952Y-35833690D02*
X35376190Y-35881309D01*
X35376190Y-35881309D02*
X35709523Y-35881309D01*
X34757142Y-35500357D02*
X34709523Y-35452738D01*
X34709523Y-35452738D02*
X34614285Y-35405119D01*
X34614285Y-35405119D02*
X34376190Y-35405119D01*
X34376190Y-35405119D02*
X34280952Y-35452738D01*
X34280952Y-35452738D02*
X34233333Y-35500357D01*
X34233333Y-35500357D02*
X34185714Y-35595595D01*
X34185714Y-35595595D02*
X34185714Y-35690833D01*
X34185714Y-35690833D02*
X34233333Y-35833690D01*
X34233333Y-35833690D02*
X34804761Y-36405119D01*
X34804761Y-36405119D02*
X34185714Y-36405119D01*
X44338095Y-28567619D02*
X44909523Y-28567619D01*
X44623809Y-28567619D02*
X44623809Y-27567619D01*
X44623809Y-27567619D02*
X44719047Y-27710476D01*
X44719047Y-27710476D02*
X44814285Y-27805714D01*
X44814285Y-27805714D02*
X44909523Y-27853333D01*
X43576190Y-28043809D02*
X43433333Y-28091428D01*
X43433333Y-28091428D02*
X43385714Y-28139047D01*
X43385714Y-28139047D02*
X43338095Y-28234285D01*
X43338095Y-28234285D02*
X43338095Y-28377142D01*
X43338095Y-28377142D02*
X43385714Y-28472380D01*
X43385714Y-28472380D02*
X43433333Y-28520000D01*
X43433333Y-28520000D02*
X43528571Y-28567619D01*
X43528571Y-28567619D02*
X43909523Y-28567619D01*
X43909523Y-28567619D02*
X43909523Y-27567619D01*
X43909523Y-27567619D02*
X43576190Y-27567619D01*
X43576190Y-27567619D02*
X43480952Y-27615238D01*
X43480952Y-27615238D02*
X43433333Y-27662857D01*
X43433333Y-27662857D02*
X43385714Y-27758095D01*
X43385714Y-27758095D02*
X43385714Y-27853333D01*
X43385714Y-27853333D02*
X43433333Y-27948571D01*
X43433333Y-27948571D02*
X43480952Y-27996190D01*
X43480952Y-27996190D02*
X43576190Y-28043809D01*
X43576190Y-28043809D02*
X43909523Y-28043809D01*
X42385714Y-28567619D02*
X42957142Y-28567619D01*
X42671428Y-28567619D02*
X42671428Y-27567619D01*
X42671428Y-27567619D02*
X42766666Y-27710476D01*
X42766666Y-27710476D02*
X42861904Y-27805714D01*
X42861904Y-27805714D02*
X42957142Y-27853333D01*
X99409523Y-35500357D02*
X99361904Y-35452738D01*
X99361904Y-35452738D02*
X99266666Y-35405119D01*
X99266666Y-35405119D02*
X99028571Y-35405119D01*
X99028571Y-35405119D02*
X98933333Y-35452738D01*
X98933333Y-35452738D02*
X98885714Y-35500357D01*
X98885714Y-35500357D02*
X98838095Y-35595595D01*
X98838095Y-35595595D02*
X98838095Y-35690833D01*
X98838095Y-35690833D02*
X98885714Y-35833690D01*
X98885714Y-35833690D02*
X99457142Y-36405119D01*
X99457142Y-36405119D02*
X98838095Y-36405119D01*
X98457142Y-36119404D02*
X97980952Y-36119404D01*
X98552380Y-36405119D02*
X98219047Y-35405119D01*
X98219047Y-35405119D02*
X97885714Y-36405119D01*
X97599999Y-35500357D02*
X97552380Y-35452738D01*
X97552380Y-35452738D02*
X97457142Y-35405119D01*
X97457142Y-35405119D02*
X97219047Y-35405119D01*
X97219047Y-35405119D02*
X97123809Y-35452738D01*
X97123809Y-35452738D02*
X97076190Y-35500357D01*
X97076190Y-35500357D02*
X97028571Y-35595595D01*
X97028571Y-35595595D02*
X97028571Y-35690833D01*
X97028571Y-35690833D02*
X97076190Y-35833690D01*
X97076190Y-35833690D02*
X97647618Y-36405119D01*
X97647618Y-36405119D02*
X97028571Y-36405119D01*
X63538095Y-28567619D02*
X64109523Y-28567619D01*
X63823809Y-28567619D02*
X63823809Y-27567619D01*
X63823809Y-27567619D02*
X63919047Y-27710476D01*
X63919047Y-27710476D02*
X64014285Y-27805714D01*
X64014285Y-27805714D02*
X64109523Y-27853333D01*
X63157142Y-28281904D02*
X62680952Y-28281904D01*
X63252380Y-28567619D02*
X62919047Y-27567619D01*
X62919047Y-27567619D02*
X62585714Y-28567619D01*
X61728571Y-28567619D02*
X62299999Y-28567619D01*
X62014285Y-28567619D02*
X62014285Y-27567619D01*
X62014285Y-27567619D02*
X62109523Y-27710476D01*
X62109523Y-27710476D02*
X62204761Y-27805714D01*
X62204761Y-27805714D02*
X62299999Y-27853333D01*
X55338095Y-36405119D02*
X55909523Y-36405119D01*
X55623809Y-36405119D02*
X55623809Y-35405119D01*
X55623809Y-35405119D02*
X55719047Y-35547976D01*
X55719047Y-35547976D02*
X55814285Y-35643214D01*
X55814285Y-35643214D02*
X55909523Y-35690833D01*
X54957142Y-36119404D02*
X54480952Y-36119404D01*
X55052380Y-36405119D02*
X54719047Y-35405119D01*
X54719047Y-35405119D02*
X54385714Y-36405119D01*
X54099999Y-35500357D02*
X54052380Y-35452738D01*
X54052380Y-35452738D02*
X53957142Y-35405119D01*
X53957142Y-35405119D02*
X53719047Y-35405119D01*
X53719047Y-35405119D02*
X53623809Y-35452738D01*
X53623809Y-35452738D02*
X53576190Y-35500357D01*
X53576190Y-35500357D02*
X53528571Y-35595595D01*
X53528571Y-35595595D02*
X53528571Y-35690833D01*
X53528571Y-35690833D02*
X53576190Y-35833690D01*
X53576190Y-35833690D02*
X54147618Y-36405119D01*
X54147618Y-36405119D02*
X53528571Y-36405119D01*
X75109523Y-35500357D02*
X75061904Y-35452738D01*
X75061904Y-35452738D02*
X74966666Y-35405119D01*
X74966666Y-35405119D02*
X74728571Y-35405119D01*
X74728571Y-35405119D02*
X74633333Y-35452738D01*
X74633333Y-35452738D02*
X74585714Y-35500357D01*
X74585714Y-35500357D02*
X74538095Y-35595595D01*
X74538095Y-35595595D02*
X74538095Y-35690833D01*
X74538095Y-35690833D02*
X74585714Y-35833690D01*
X74585714Y-35833690D02*
X75157142Y-36405119D01*
X75157142Y-36405119D02*
X74538095Y-36405119D01*
X73776190Y-35881309D02*
X73633333Y-35928928D01*
X73633333Y-35928928D02*
X73585714Y-35976547D01*
X73585714Y-35976547D02*
X73538095Y-36071785D01*
X73538095Y-36071785D02*
X73538095Y-36214642D01*
X73538095Y-36214642D02*
X73585714Y-36309880D01*
X73585714Y-36309880D02*
X73633333Y-36357500D01*
X73633333Y-36357500D02*
X73728571Y-36405119D01*
X73728571Y-36405119D02*
X74109523Y-36405119D01*
X74109523Y-36405119D02*
X74109523Y-35405119D01*
X74109523Y-35405119D02*
X73776190Y-35405119D01*
X73776190Y-35405119D02*
X73680952Y-35452738D01*
X73680952Y-35452738D02*
X73633333Y-35500357D01*
X73633333Y-35500357D02*
X73585714Y-35595595D01*
X73585714Y-35595595D02*
X73585714Y-35690833D01*
X73585714Y-35690833D02*
X73633333Y-35786071D01*
X73633333Y-35786071D02*
X73680952Y-35833690D01*
X73680952Y-35833690D02*
X73776190Y-35881309D01*
X73776190Y-35881309D02*
X74109523Y-35881309D01*
X73157142Y-35500357D02*
X73109523Y-35452738D01*
X73109523Y-35452738D02*
X73014285Y-35405119D01*
X73014285Y-35405119D02*
X72776190Y-35405119D01*
X72776190Y-35405119D02*
X72680952Y-35452738D01*
X72680952Y-35452738D02*
X72633333Y-35500357D01*
X72633333Y-35500357D02*
X72585714Y-35595595D01*
X72585714Y-35595595D02*
X72585714Y-35690833D01*
X72585714Y-35690833D02*
X72633333Y-35833690D01*
X72633333Y-35833690D02*
X73204761Y-36405119D01*
X73204761Y-36405119D02*
X72585714Y-36405119D01*
X83309523Y-27662857D02*
X83261904Y-27615238D01*
X83261904Y-27615238D02*
X83166666Y-27567619D01*
X83166666Y-27567619D02*
X82928571Y-27567619D01*
X82928571Y-27567619D02*
X82833333Y-27615238D01*
X82833333Y-27615238D02*
X82785714Y-27662857D01*
X82785714Y-27662857D02*
X82738095Y-27758095D01*
X82738095Y-27758095D02*
X82738095Y-27853333D01*
X82738095Y-27853333D02*
X82785714Y-27996190D01*
X82785714Y-27996190D02*
X83357142Y-28567619D01*
X83357142Y-28567619D02*
X82738095Y-28567619D01*
X81976190Y-28043809D02*
X81833333Y-28091428D01*
X81833333Y-28091428D02*
X81785714Y-28139047D01*
X81785714Y-28139047D02*
X81738095Y-28234285D01*
X81738095Y-28234285D02*
X81738095Y-28377142D01*
X81738095Y-28377142D02*
X81785714Y-28472380D01*
X81785714Y-28472380D02*
X81833333Y-28520000D01*
X81833333Y-28520000D02*
X81928571Y-28567619D01*
X81928571Y-28567619D02*
X82309523Y-28567619D01*
X82309523Y-28567619D02*
X82309523Y-27567619D01*
X82309523Y-27567619D02*
X81976190Y-27567619D01*
X81976190Y-27567619D02*
X81880952Y-27615238D01*
X81880952Y-27615238D02*
X81833333Y-27662857D01*
X81833333Y-27662857D02*
X81785714Y-27758095D01*
X81785714Y-27758095D02*
X81785714Y-27853333D01*
X81785714Y-27853333D02*
X81833333Y-27948571D01*
X81833333Y-27948571D02*
X81880952Y-27996190D01*
X81880952Y-27996190D02*
X81976190Y-28043809D01*
X81976190Y-28043809D02*
X82309523Y-28043809D01*
X80785714Y-28567619D02*
X81357142Y-28567619D01*
X81071428Y-28567619D02*
X81071428Y-27567619D01*
X81071428Y-27567619D02*
X81166666Y-27710476D01*
X81166666Y-27710476D02*
X81261904Y-27805714D01*
X81261904Y-27805714D02*
X81357142Y-27853333D01*
X89609523Y-27662857D02*
X89561904Y-27615238D01*
X89561904Y-27615238D02*
X89466666Y-27567619D01*
X89466666Y-27567619D02*
X89228571Y-27567619D01*
X89228571Y-27567619D02*
X89133333Y-27615238D01*
X89133333Y-27615238D02*
X89085714Y-27662857D01*
X89085714Y-27662857D02*
X89038095Y-27758095D01*
X89038095Y-27758095D02*
X89038095Y-27853333D01*
X89038095Y-27853333D02*
X89085714Y-27996190D01*
X89085714Y-27996190D02*
X89657142Y-28567619D01*
X89657142Y-28567619D02*
X89038095Y-28567619D01*
X88657142Y-28281904D02*
X88180952Y-28281904D01*
X88752380Y-28567619D02*
X88419047Y-27567619D01*
X88419047Y-27567619D02*
X88085714Y-28567619D01*
X87228571Y-28567619D02*
X87799999Y-28567619D01*
X87514285Y-28567619D02*
X87514285Y-27567619D01*
X87514285Y-27567619D02*
X87609523Y-27710476D01*
X87609523Y-27710476D02*
X87704761Y-27805714D01*
X87704761Y-27805714D02*
X87799999Y-27853333D01*
D11*
G04 #@! TO.C,1B1*
X141680000Y-27410000D02*
X128580000Y-27410000D01*
X128580000Y-27410000D02*
X128580000Y-29190000D01*
X128580000Y-29190000D02*
X141680000Y-29190000D01*
X141680000Y-29190000D02*
X141680000Y-27410000D01*
X103280000Y-27410000D02*
X90180000Y-27410000D01*
X90180000Y-27410000D02*
X90180000Y-29190000D01*
X90180000Y-29190000D02*
X103280000Y-29190000D01*
X103280000Y-29190000D02*
X103280000Y-27410000D01*
X61280000Y-27410000D02*
X48180000Y-27410000D01*
X48180000Y-27410000D02*
X48180000Y-29190000D01*
X48180000Y-29190000D02*
X61280000Y-29190000D01*
X61280000Y-29190000D02*
X61280000Y-27410000D01*
G04 #@! TO.C,1A1*
X69600000Y-34700000D02*
X56500000Y-34700000D01*
X56500000Y-34700000D02*
X56500000Y-36480000D01*
X56500000Y-36480000D02*
X69600000Y-36480000D01*
X69600000Y-36480000D02*
X69600000Y-34700000D01*
G04 #@! TO.C,1B2*
X151540000Y-34700000D02*
X138440000Y-34700000D01*
X138440000Y-34700000D02*
X138440000Y-36480000D01*
X138440000Y-36480000D02*
X151540000Y-36480000D01*
X151540000Y-36480000D02*
X151540000Y-34700000D01*
X88800000Y-34700000D02*
X75700000Y-34700000D01*
X75700000Y-34700000D02*
X75700000Y-36480000D01*
X75700000Y-36480000D02*
X88800000Y-36480000D01*
X88800000Y-36480000D02*
X88800000Y-34700000D01*
G04 #@! TO.C,1B1*
X80480000Y-27410000D02*
X67380000Y-27410000D01*
X67380000Y-27410000D02*
X67380000Y-29190000D01*
X67380000Y-29190000D02*
X80480000Y-29190000D01*
X80480000Y-29190000D02*
X80480000Y-27410000D01*
G04 #@! TO.C,1B2*
X113140000Y-34700000D02*
X100040000Y-34700000D01*
X100040000Y-34700000D02*
X100040000Y-36480000D01*
X100040000Y-36480000D02*
X113140000Y-36480000D01*
X113140000Y-36480000D02*
X113140000Y-34700000D01*
G04 #@! TO.C,1B1*
X122480000Y-27410000D02*
X109380000Y-27410000D01*
X109380000Y-27410000D02*
X109380000Y-29190000D01*
X109380000Y-29190000D02*
X122480000Y-29190000D01*
X122480000Y-29190000D02*
X122480000Y-27410000D01*
X42080000Y-27410000D02*
X28980000Y-27410000D01*
X28980000Y-27410000D02*
X28980000Y-29190000D01*
X28980000Y-29190000D02*
X42080000Y-29190000D01*
X42080000Y-29190000D02*
X42080000Y-27410000D01*
G04 #@! TO.C,1B2*
X132340000Y-34700000D02*
X119240000Y-34700000D01*
X119240000Y-34700000D02*
X119240000Y-36480000D01*
X119240000Y-36480000D02*
X132340000Y-36480000D01*
X132340000Y-36480000D02*
X132340000Y-34700000D01*
X50400000Y-34700000D02*
X37300000Y-34700000D01*
X37300000Y-34700000D02*
X37300000Y-36480000D01*
X37300000Y-36480000D02*
X50400000Y-36480000D01*
X50400000Y-36480000D02*
X50400000Y-34700000D01*
G04 #@! TD*
M02*
