G04 #@! TF.GenerationSoftware,KiCad,Pcbnew,7.0.2*
G04 #@! TF.CreationDate,2023-07-25T20:27:36-04:00*
G04 #@! TF.ProjectId,AxionAdapter,4178696f-6e41-4646-9170-7465722e6b69,rev?*
G04 #@! TF.SameCoordinates,Original*
G04 #@! TF.FileFunction,Soldermask,Bot*
G04 #@! TF.FilePolarity,Negative*
%FSLAX46Y46*%
G04 Gerber Fmt 4.6, Leading zero omitted, Abs format (unit mm)*
G04 Created by KiCad (PCBNEW 7.0.2) date 2023-07-25 20:27:36*
%MOMM*%
%LPD*%
G01*
G04 APERTURE LIST*
G04 APERTURE END LIST*
G36*
X38558601Y-35692667D02*
G01*
X38599803Y-35720197D01*
X38614021Y-35741476D01*
X38665979Y-35741476D01*
X38680197Y-35720197D01*
X38721399Y-35692667D01*
X38770000Y-35683000D01*
X39150000Y-35683000D01*
X39198601Y-35692667D01*
X39239803Y-35720197D01*
X39254021Y-35741476D01*
X39305979Y-35741476D01*
X39320197Y-35720197D01*
X39361399Y-35692667D01*
X39410000Y-35683000D01*
X39790000Y-35683000D01*
X39838601Y-35692667D01*
X39879803Y-35720197D01*
X39894021Y-35741476D01*
X39945979Y-35741476D01*
X39960197Y-35720197D01*
X40001399Y-35692667D01*
X40050000Y-35683000D01*
X40430000Y-35683000D01*
X40478601Y-35692667D01*
X40519803Y-35720197D01*
X40534021Y-35741476D01*
X40585979Y-35741476D01*
X40600197Y-35720197D01*
X40641399Y-35692667D01*
X40690000Y-35683000D01*
X41070000Y-35683000D01*
X41118601Y-35692667D01*
X41159803Y-35720197D01*
X41174021Y-35741476D01*
X41225979Y-35741476D01*
X41240197Y-35720197D01*
X41281399Y-35692667D01*
X41330000Y-35683000D01*
X41710000Y-35683000D01*
X41758601Y-35692667D01*
X41799803Y-35720197D01*
X41814021Y-35741476D01*
X41865979Y-35741476D01*
X41880197Y-35720197D01*
X41921399Y-35692667D01*
X41970000Y-35683000D01*
X42350000Y-35683000D01*
X42398601Y-35692667D01*
X42439803Y-35720197D01*
X42454021Y-35741476D01*
X42505979Y-35741476D01*
X42520197Y-35720197D01*
X42561399Y-35692667D01*
X42610000Y-35683000D01*
X42990000Y-35683000D01*
X43038601Y-35692667D01*
X43079803Y-35720197D01*
X43094021Y-35741476D01*
X43145979Y-35741476D01*
X43160197Y-35720197D01*
X43201399Y-35692667D01*
X43250000Y-35683000D01*
X43630000Y-35683000D01*
X43678601Y-35692667D01*
X43719803Y-35720197D01*
X43734021Y-35741476D01*
X43785979Y-35741476D01*
X43800197Y-35720197D01*
X43841399Y-35692667D01*
X43890000Y-35683000D01*
X44270000Y-35683000D01*
X44318601Y-35692667D01*
X44359803Y-35720197D01*
X44374021Y-35741476D01*
X44425979Y-35741476D01*
X44440197Y-35720197D01*
X44481399Y-35692667D01*
X44530000Y-35683000D01*
X44910000Y-35683000D01*
X44958601Y-35692667D01*
X44999803Y-35720197D01*
X45014021Y-35741476D01*
X45065979Y-35741476D01*
X45080197Y-35720197D01*
X45121399Y-35692667D01*
X45170000Y-35683000D01*
X45550000Y-35683000D01*
X45598601Y-35692667D01*
X45639803Y-35720197D01*
X45654021Y-35741476D01*
X45705979Y-35741476D01*
X45720197Y-35720197D01*
X45761399Y-35692667D01*
X45810000Y-35683000D01*
X46190000Y-35683000D01*
X46238601Y-35692667D01*
X46279803Y-35720197D01*
X46294021Y-35741476D01*
X46345979Y-35741476D01*
X46360197Y-35720197D01*
X46401399Y-35692667D01*
X46450000Y-35683000D01*
X46830000Y-35683000D01*
X46878601Y-35692667D01*
X46919803Y-35720197D01*
X46934021Y-35741476D01*
X46985979Y-35741476D01*
X47000197Y-35720197D01*
X47041399Y-35692667D01*
X47090000Y-35683000D01*
X47470000Y-35683000D01*
X47518601Y-35692667D01*
X47559803Y-35720197D01*
X47574021Y-35741476D01*
X47625979Y-35741476D01*
X47640197Y-35720197D01*
X47681399Y-35692667D01*
X47730000Y-35683000D01*
X48110000Y-35683000D01*
X48158601Y-35692667D01*
X48199803Y-35720197D01*
X48214021Y-35741476D01*
X48265979Y-35741476D01*
X48280197Y-35720197D01*
X48321399Y-35692667D01*
X48370000Y-35683000D01*
X48750000Y-35683000D01*
X48798601Y-35692667D01*
X48839803Y-35720197D01*
X48854021Y-35741476D01*
X48905979Y-35741476D01*
X48920197Y-35720197D01*
X48961399Y-35692667D01*
X49010000Y-35683000D01*
X49390000Y-35683000D01*
X49438601Y-35692667D01*
X49479803Y-35720197D01*
X49507333Y-35761399D01*
X49517000Y-35810000D01*
X49517000Y-36830000D01*
X49507333Y-36878601D01*
X49479803Y-36919803D01*
X49438601Y-36947333D01*
X49390000Y-36957000D01*
X49010000Y-36957000D01*
X48961399Y-36947333D01*
X48920197Y-36919803D01*
X48905978Y-36898523D01*
X48854022Y-36898523D01*
X48839803Y-36919803D01*
X48798601Y-36947333D01*
X48750000Y-36957000D01*
X48370000Y-36957000D01*
X48321399Y-36947333D01*
X48280197Y-36919803D01*
X48265978Y-36898523D01*
X48214022Y-36898523D01*
X48199803Y-36919803D01*
X48158601Y-36947333D01*
X48110000Y-36957000D01*
X47730000Y-36957000D01*
X47681399Y-36947333D01*
X47640197Y-36919803D01*
X47625978Y-36898523D01*
X47574022Y-36898523D01*
X47559803Y-36919803D01*
X47518601Y-36947333D01*
X47470000Y-36957000D01*
X47090000Y-36957000D01*
X47041399Y-36947333D01*
X47000197Y-36919803D01*
X46985978Y-36898523D01*
X46934022Y-36898523D01*
X46919803Y-36919803D01*
X46878601Y-36947333D01*
X46830000Y-36957000D01*
X46450000Y-36957000D01*
X46401399Y-36947333D01*
X46360197Y-36919803D01*
X46345978Y-36898523D01*
X46294022Y-36898523D01*
X46279803Y-36919803D01*
X46238601Y-36947333D01*
X46190000Y-36957000D01*
X45810000Y-36957000D01*
X45761399Y-36947333D01*
X45720197Y-36919803D01*
X45705978Y-36898523D01*
X45654022Y-36898523D01*
X45639803Y-36919803D01*
X45598601Y-36947333D01*
X45550000Y-36957000D01*
X45170000Y-36957000D01*
X45121399Y-36947333D01*
X45080197Y-36919803D01*
X45065978Y-36898523D01*
X45014022Y-36898523D01*
X44999803Y-36919803D01*
X44958601Y-36947333D01*
X44910000Y-36957000D01*
X44530000Y-36957000D01*
X44481399Y-36947333D01*
X44440197Y-36919803D01*
X44425978Y-36898523D01*
X44374022Y-36898523D01*
X44359803Y-36919803D01*
X44318601Y-36947333D01*
X44270000Y-36957000D01*
X43890000Y-36957000D01*
X43841399Y-36947333D01*
X43800197Y-36919803D01*
X43785978Y-36898523D01*
X43734022Y-36898523D01*
X43719803Y-36919803D01*
X43678601Y-36947333D01*
X43630000Y-36957000D01*
X43250000Y-36957000D01*
X43201399Y-36947333D01*
X43160197Y-36919803D01*
X43145978Y-36898523D01*
X43094022Y-36898523D01*
X43079803Y-36919803D01*
X43038601Y-36947333D01*
X42990000Y-36957000D01*
X42610000Y-36957000D01*
X42561399Y-36947333D01*
X42520197Y-36919803D01*
X42505978Y-36898523D01*
X42454022Y-36898523D01*
X42439803Y-36919803D01*
X42398601Y-36947333D01*
X42350000Y-36957000D01*
X41970000Y-36957000D01*
X41921399Y-36947333D01*
X41880197Y-36919803D01*
X41865978Y-36898523D01*
X41814022Y-36898523D01*
X41799803Y-36919803D01*
X41758601Y-36947333D01*
X41710000Y-36957000D01*
X41330000Y-36957000D01*
X41281399Y-36947333D01*
X41240197Y-36919803D01*
X41225978Y-36898523D01*
X41174022Y-36898523D01*
X41159803Y-36919803D01*
X41118601Y-36947333D01*
X41070000Y-36957000D01*
X40690000Y-36957000D01*
X40641399Y-36947333D01*
X40600197Y-36919803D01*
X40585978Y-36898523D01*
X40534022Y-36898523D01*
X40519803Y-36919803D01*
X40478601Y-36947333D01*
X40430000Y-36957000D01*
X40050000Y-36957000D01*
X40001399Y-36947333D01*
X39960197Y-36919803D01*
X39945978Y-36898523D01*
X39894022Y-36898523D01*
X39879803Y-36919803D01*
X39838601Y-36947333D01*
X39790000Y-36957000D01*
X39410000Y-36957000D01*
X39361399Y-36947333D01*
X39320197Y-36919803D01*
X39305978Y-36898523D01*
X39254022Y-36898523D01*
X39239803Y-36919803D01*
X39198601Y-36947333D01*
X39150000Y-36957000D01*
X38770000Y-36957000D01*
X38721399Y-36947333D01*
X38680197Y-36919803D01*
X38665978Y-36898523D01*
X38614022Y-36898523D01*
X38599803Y-36919803D01*
X38558601Y-36947333D01*
X38510000Y-36957000D01*
X38130000Y-36957000D01*
X38081399Y-36947333D01*
X38040197Y-36919803D01*
X38012667Y-36878601D01*
X38003000Y-36830000D01*
X38003000Y-35810000D01*
X38012667Y-35761399D01*
X38040197Y-35720197D01*
X38081399Y-35692667D01*
X38130000Y-35683000D01*
X38510000Y-35683000D01*
X38558601Y-35692667D01*
G37*
G36*
X57758601Y-35692667D02*
G01*
X57799803Y-35720197D01*
X57814021Y-35741476D01*
X57865979Y-35741476D01*
X57880197Y-35720197D01*
X57921399Y-35692667D01*
X57970000Y-35683000D01*
X58350000Y-35683000D01*
X58398601Y-35692667D01*
X58439803Y-35720197D01*
X58454021Y-35741476D01*
X58505979Y-35741476D01*
X58520197Y-35720197D01*
X58561399Y-35692667D01*
X58610000Y-35683000D01*
X58990000Y-35683000D01*
X59038601Y-35692667D01*
X59079803Y-35720197D01*
X59094021Y-35741476D01*
X59145979Y-35741476D01*
X59160197Y-35720197D01*
X59201399Y-35692667D01*
X59250000Y-35683000D01*
X59630000Y-35683000D01*
X59678601Y-35692667D01*
X59719803Y-35720197D01*
X59734021Y-35741476D01*
X59785979Y-35741476D01*
X59800197Y-35720197D01*
X59841399Y-35692667D01*
X59890000Y-35683000D01*
X60270000Y-35683000D01*
X60318601Y-35692667D01*
X60359803Y-35720197D01*
X60374021Y-35741476D01*
X60425979Y-35741476D01*
X60440197Y-35720197D01*
X60481399Y-35692667D01*
X60530000Y-35683000D01*
X60910000Y-35683000D01*
X60958601Y-35692667D01*
X60999803Y-35720197D01*
X61014021Y-35741476D01*
X61065979Y-35741476D01*
X61080197Y-35720197D01*
X61121399Y-35692667D01*
X61170000Y-35683000D01*
X61550000Y-35683000D01*
X61598601Y-35692667D01*
X61639803Y-35720197D01*
X61654021Y-35741476D01*
X61705979Y-35741476D01*
X61720197Y-35720197D01*
X61761399Y-35692667D01*
X61810000Y-35683000D01*
X62190000Y-35683000D01*
X62238601Y-35692667D01*
X62279803Y-35720197D01*
X62294021Y-35741476D01*
X62345979Y-35741476D01*
X62360197Y-35720197D01*
X62401399Y-35692667D01*
X62450000Y-35683000D01*
X62830000Y-35683000D01*
X62878601Y-35692667D01*
X62919803Y-35720197D01*
X62934021Y-35741476D01*
X62985979Y-35741476D01*
X63000197Y-35720197D01*
X63041399Y-35692667D01*
X63090000Y-35683000D01*
X63470000Y-35683000D01*
X63518601Y-35692667D01*
X63559803Y-35720197D01*
X63574021Y-35741476D01*
X63625979Y-35741476D01*
X63640197Y-35720197D01*
X63681399Y-35692667D01*
X63730000Y-35683000D01*
X64110000Y-35683000D01*
X64158601Y-35692667D01*
X64199803Y-35720197D01*
X64214021Y-35741476D01*
X64265979Y-35741476D01*
X64280197Y-35720197D01*
X64321399Y-35692667D01*
X64370000Y-35683000D01*
X64750000Y-35683000D01*
X64798601Y-35692667D01*
X64839803Y-35720197D01*
X64854021Y-35741476D01*
X64905979Y-35741476D01*
X64920197Y-35720197D01*
X64961399Y-35692667D01*
X65010000Y-35683000D01*
X65390000Y-35683000D01*
X65438601Y-35692667D01*
X65479803Y-35720197D01*
X65494021Y-35741476D01*
X65545979Y-35741476D01*
X65560197Y-35720197D01*
X65601399Y-35692667D01*
X65650000Y-35683000D01*
X66030000Y-35683000D01*
X66078601Y-35692667D01*
X66119803Y-35720197D01*
X66134021Y-35741476D01*
X66185979Y-35741476D01*
X66200197Y-35720197D01*
X66241399Y-35692667D01*
X66290000Y-35683000D01*
X66670000Y-35683000D01*
X66718601Y-35692667D01*
X66759803Y-35720197D01*
X66774021Y-35741476D01*
X66825979Y-35741476D01*
X66840197Y-35720197D01*
X66881399Y-35692667D01*
X66930000Y-35683000D01*
X67310000Y-35683000D01*
X67358601Y-35692667D01*
X67399803Y-35720197D01*
X67414021Y-35741476D01*
X67465979Y-35741476D01*
X67480197Y-35720197D01*
X67521399Y-35692667D01*
X67570000Y-35683000D01*
X67950000Y-35683000D01*
X67998601Y-35692667D01*
X68039803Y-35720197D01*
X68054021Y-35741476D01*
X68105979Y-35741476D01*
X68120197Y-35720197D01*
X68161399Y-35692667D01*
X68210000Y-35683000D01*
X68590000Y-35683000D01*
X68638601Y-35692667D01*
X68679803Y-35720197D01*
X68707333Y-35761399D01*
X68717000Y-35810000D01*
X68717000Y-36830000D01*
X68707333Y-36878601D01*
X68679803Y-36919803D01*
X68638601Y-36947333D01*
X68590000Y-36957000D01*
X68210000Y-36957000D01*
X68161399Y-36947333D01*
X68120197Y-36919803D01*
X68105978Y-36898523D01*
X68054022Y-36898523D01*
X68039803Y-36919803D01*
X67998601Y-36947333D01*
X67950000Y-36957000D01*
X67570000Y-36957000D01*
X67521399Y-36947333D01*
X67480197Y-36919803D01*
X67465978Y-36898523D01*
X67414022Y-36898523D01*
X67399803Y-36919803D01*
X67358601Y-36947333D01*
X67310000Y-36957000D01*
X66930000Y-36957000D01*
X66881399Y-36947333D01*
X66840197Y-36919803D01*
X66825978Y-36898523D01*
X66774022Y-36898523D01*
X66759803Y-36919803D01*
X66718601Y-36947333D01*
X66670000Y-36957000D01*
X66290000Y-36957000D01*
X66241399Y-36947333D01*
X66200197Y-36919803D01*
X66185978Y-36898523D01*
X66134022Y-36898523D01*
X66119803Y-36919803D01*
X66078601Y-36947333D01*
X66030000Y-36957000D01*
X65650000Y-36957000D01*
X65601399Y-36947333D01*
X65560197Y-36919803D01*
X65545978Y-36898523D01*
X65494022Y-36898523D01*
X65479803Y-36919803D01*
X65438601Y-36947333D01*
X65390000Y-36957000D01*
X65010000Y-36957000D01*
X64961399Y-36947333D01*
X64920197Y-36919803D01*
X64905978Y-36898523D01*
X64854022Y-36898523D01*
X64839803Y-36919803D01*
X64798601Y-36947333D01*
X64750000Y-36957000D01*
X64370000Y-36957000D01*
X64321399Y-36947333D01*
X64280197Y-36919803D01*
X64265978Y-36898523D01*
X64214022Y-36898523D01*
X64199803Y-36919803D01*
X64158601Y-36947333D01*
X64110000Y-36957000D01*
X63730000Y-36957000D01*
X63681399Y-36947333D01*
X63640197Y-36919803D01*
X63625978Y-36898523D01*
X63574022Y-36898523D01*
X63559803Y-36919803D01*
X63518601Y-36947333D01*
X63470000Y-36957000D01*
X63090000Y-36957000D01*
X63041399Y-36947333D01*
X63000197Y-36919803D01*
X62985978Y-36898523D01*
X62934022Y-36898523D01*
X62919803Y-36919803D01*
X62878601Y-36947333D01*
X62830000Y-36957000D01*
X62450000Y-36957000D01*
X62401399Y-36947333D01*
X62360197Y-36919803D01*
X62345978Y-36898523D01*
X62294022Y-36898523D01*
X62279803Y-36919803D01*
X62238601Y-36947333D01*
X62190000Y-36957000D01*
X61810000Y-36957000D01*
X61761399Y-36947333D01*
X61720197Y-36919803D01*
X61705978Y-36898523D01*
X61654022Y-36898523D01*
X61639803Y-36919803D01*
X61598601Y-36947333D01*
X61550000Y-36957000D01*
X61170000Y-36957000D01*
X61121399Y-36947333D01*
X61080197Y-36919803D01*
X61065978Y-36898523D01*
X61014022Y-36898523D01*
X60999803Y-36919803D01*
X60958601Y-36947333D01*
X60910000Y-36957000D01*
X60530000Y-36957000D01*
X60481399Y-36947333D01*
X60440197Y-36919803D01*
X60425978Y-36898523D01*
X60374022Y-36898523D01*
X60359803Y-36919803D01*
X60318601Y-36947333D01*
X60270000Y-36957000D01*
X59890000Y-36957000D01*
X59841399Y-36947333D01*
X59800197Y-36919803D01*
X59785978Y-36898523D01*
X59734022Y-36898523D01*
X59719803Y-36919803D01*
X59678601Y-36947333D01*
X59630000Y-36957000D01*
X59250000Y-36957000D01*
X59201399Y-36947333D01*
X59160197Y-36919803D01*
X59145978Y-36898523D01*
X59094022Y-36898523D01*
X59079803Y-36919803D01*
X59038601Y-36947333D01*
X58990000Y-36957000D01*
X58610000Y-36957000D01*
X58561399Y-36947333D01*
X58520197Y-36919803D01*
X58505978Y-36898523D01*
X58454022Y-36898523D01*
X58439803Y-36919803D01*
X58398601Y-36947333D01*
X58350000Y-36957000D01*
X57970000Y-36957000D01*
X57921399Y-36947333D01*
X57880197Y-36919803D01*
X57865978Y-36898523D01*
X57814022Y-36898523D01*
X57799803Y-36919803D01*
X57758601Y-36947333D01*
X57710000Y-36957000D01*
X57330000Y-36957000D01*
X57281399Y-36947333D01*
X57240197Y-36919803D01*
X57212667Y-36878601D01*
X57203000Y-36830000D01*
X57203000Y-35810000D01*
X57212667Y-35761399D01*
X57240197Y-35720197D01*
X57281399Y-35692667D01*
X57330000Y-35683000D01*
X57710000Y-35683000D01*
X57758601Y-35692667D01*
G37*
G36*
X76958601Y-35692667D02*
G01*
X76999803Y-35720197D01*
X77014021Y-35741476D01*
X77065979Y-35741476D01*
X77080197Y-35720197D01*
X77121399Y-35692667D01*
X77170000Y-35683000D01*
X77550000Y-35683000D01*
X77598601Y-35692667D01*
X77639803Y-35720197D01*
X77654021Y-35741476D01*
X77705979Y-35741476D01*
X77720197Y-35720197D01*
X77761399Y-35692667D01*
X77810000Y-35683000D01*
X78190000Y-35683000D01*
X78238601Y-35692667D01*
X78279803Y-35720197D01*
X78294021Y-35741476D01*
X78345979Y-35741476D01*
X78360197Y-35720197D01*
X78401399Y-35692667D01*
X78450000Y-35683000D01*
X78830000Y-35683000D01*
X78878601Y-35692667D01*
X78919803Y-35720197D01*
X78934021Y-35741476D01*
X78985979Y-35741476D01*
X79000197Y-35720197D01*
X79041399Y-35692667D01*
X79090000Y-35683000D01*
X79470000Y-35683000D01*
X79518601Y-35692667D01*
X79559803Y-35720197D01*
X79574021Y-35741476D01*
X79625979Y-35741476D01*
X79640197Y-35720197D01*
X79681399Y-35692667D01*
X79730000Y-35683000D01*
X80110000Y-35683000D01*
X80158601Y-35692667D01*
X80199803Y-35720197D01*
X80214021Y-35741476D01*
X80265979Y-35741476D01*
X80280197Y-35720197D01*
X80321399Y-35692667D01*
X80370000Y-35683000D01*
X80750000Y-35683000D01*
X80798601Y-35692667D01*
X80839803Y-35720197D01*
X80854021Y-35741476D01*
X80905979Y-35741476D01*
X80920197Y-35720197D01*
X80961399Y-35692667D01*
X81010000Y-35683000D01*
X81390000Y-35683000D01*
X81438601Y-35692667D01*
X81479803Y-35720197D01*
X81494021Y-35741476D01*
X81545979Y-35741476D01*
X81560197Y-35720197D01*
X81601399Y-35692667D01*
X81650000Y-35683000D01*
X82030000Y-35683000D01*
X82078601Y-35692667D01*
X82119803Y-35720197D01*
X82134021Y-35741476D01*
X82185979Y-35741476D01*
X82200197Y-35720197D01*
X82241399Y-35692667D01*
X82290000Y-35683000D01*
X82670000Y-35683000D01*
X82718601Y-35692667D01*
X82759803Y-35720197D01*
X82774021Y-35741476D01*
X82825979Y-35741476D01*
X82840197Y-35720197D01*
X82881399Y-35692667D01*
X82930000Y-35683000D01*
X83310000Y-35683000D01*
X83358601Y-35692667D01*
X83399803Y-35720197D01*
X83414021Y-35741476D01*
X83465979Y-35741476D01*
X83480197Y-35720197D01*
X83521399Y-35692667D01*
X83570000Y-35683000D01*
X83950000Y-35683000D01*
X83998601Y-35692667D01*
X84039803Y-35720197D01*
X84054021Y-35741476D01*
X84105979Y-35741476D01*
X84120197Y-35720197D01*
X84161399Y-35692667D01*
X84210000Y-35683000D01*
X84590000Y-35683000D01*
X84638601Y-35692667D01*
X84679803Y-35720197D01*
X84694021Y-35741476D01*
X84745979Y-35741476D01*
X84760197Y-35720197D01*
X84801399Y-35692667D01*
X84850000Y-35683000D01*
X85230000Y-35683000D01*
X85278601Y-35692667D01*
X85319803Y-35720197D01*
X85334021Y-35741476D01*
X85385979Y-35741476D01*
X85400197Y-35720197D01*
X85441399Y-35692667D01*
X85490000Y-35683000D01*
X85870000Y-35683000D01*
X85918601Y-35692667D01*
X85959803Y-35720197D01*
X85974021Y-35741476D01*
X86025979Y-35741476D01*
X86040197Y-35720197D01*
X86081399Y-35692667D01*
X86130000Y-35683000D01*
X86510000Y-35683000D01*
X86558601Y-35692667D01*
X86599803Y-35720197D01*
X86614021Y-35741476D01*
X86665979Y-35741476D01*
X86680197Y-35720197D01*
X86721399Y-35692667D01*
X86770000Y-35683000D01*
X87150000Y-35683000D01*
X87198601Y-35692667D01*
X87239803Y-35720197D01*
X87254021Y-35741476D01*
X87305979Y-35741476D01*
X87320197Y-35720197D01*
X87361399Y-35692667D01*
X87410000Y-35683000D01*
X87790000Y-35683000D01*
X87838601Y-35692667D01*
X87879803Y-35720197D01*
X87907333Y-35761399D01*
X87917000Y-35810000D01*
X87917000Y-36830000D01*
X87907333Y-36878601D01*
X87879803Y-36919803D01*
X87838601Y-36947333D01*
X87790000Y-36957000D01*
X87410000Y-36957000D01*
X87361399Y-36947333D01*
X87320197Y-36919803D01*
X87305978Y-36898523D01*
X87254022Y-36898523D01*
X87239803Y-36919803D01*
X87198601Y-36947333D01*
X87150000Y-36957000D01*
X86770000Y-36957000D01*
X86721399Y-36947333D01*
X86680197Y-36919803D01*
X86665978Y-36898523D01*
X86614022Y-36898523D01*
X86599803Y-36919803D01*
X86558601Y-36947333D01*
X86510000Y-36957000D01*
X86130000Y-36957000D01*
X86081399Y-36947333D01*
X86040197Y-36919803D01*
X86025978Y-36898523D01*
X85974022Y-36898523D01*
X85959803Y-36919803D01*
X85918601Y-36947333D01*
X85870000Y-36957000D01*
X85490000Y-36957000D01*
X85441399Y-36947333D01*
X85400197Y-36919803D01*
X85385978Y-36898523D01*
X85334022Y-36898523D01*
X85319803Y-36919803D01*
X85278601Y-36947333D01*
X85230000Y-36957000D01*
X84850000Y-36957000D01*
X84801399Y-36947333D01*
X84760197Y-36919803D01*
X84745978Y-36898523D01*
X84694022Y-36898523D01*
X84679803Y-36919803D01*
X84638601Y-36947333D01*
X84590000Y-36957000D01*
X84210000Y-36957000D01*
X84161399Y-36947333D01*
X84120197Y-36919803D01*
X84105978Y-36898523D01*
X84054022Y-36898523D01*
X84039803Y-36919803D01*
X83998601Y-36947333D01*
X83950000Y-36957000D01*
X83570000Y-36957000D01*
X83521399Y-36947333D01*
X83480197Y-36919803D01*
X83465978Y-36898523D01*
X83414022Y-36898523D01*
X83399803Y-36919803D01*
X83358601Y-36947333D01*
X83310000Y-36957000D01*
X82930000Y-36957000D01*
X82881399Y-36947333D01*
X82840197Y-36919803D01*
X82825978Y-36898523D01*
X82774022Y-36898523D01*
X82759803Y-36919803D01*
X82718601Y-36947333D01*
X82670000Y-36957000D01*
X82290000Y-36957000D01*
X82241399Y-36947333D01*
X82200197Y-36919803D01*
X82185978Y-36898523D01*
X82134022Y-36898523D01*
X82119803Y-36919803D01*
X82078601Y-36947333D01*
X82030000Y-36957000D01*
X81650000Y-36957000D01*
X81601399Y-36947333D01*
X81560197Y-36919803D01*
X81545978Y-36898523D01*
X81494022Y-36898523D01*
X81479803Y-36919803D01*
X81438601Y-36947333D01*
X81390000Y-36957000D01*
X81010000Y-36957000D01*
X80961399Y-36947333D01*
X80920197Y-36919803D01*
X80905978Y-36898523D01*
X80854022Y-36898523D01*
X80839803Y-36919803D01*
X80798601Y-36947333D01*
X80750000Y-36957000D01*
X80370000Y-36957000D01*
X80321399Y-36947333D01*
X80280197Y-36919803D01*
X80265978Y-36898523D01*
X80214022Y-36898523D01*
X80199803Y-36919803D01*
X80158601Y-36947333D01*
X80110000Y-36957000D01*
X79730000Y-36957000D01*
X79681399Y-36947333D01*
X79640197Y-36919803D01*
X79625978Y-36898523D01*
X79574022Y-36898523D01*
X79559803Y-36919803D01*
X79518601Y-36947333D01*
X79470000Y-36957000D01*
X79090000Y-36957000D01*
X79041399Y-36947333D01*
X79000197Y-36919803D01*
X78985978Y-36898523D01*
X78934022Y-36898523D01*
X78919803Y-36919803D01*
X78878601Y-36947333D01*
X78830000Y-36957000D01*
X78450000Y-36957000D01*
X78401399Y-36947333D01*
X78360197Y-36919803D01*
X78345978Y-36898523D01*
X78294022Y-36898523D01*
X78279803Y-36919803D01*
X78238601Y-36947333D01*
X78190000Y-36957000D01*
X77810000Y-36957000D01*
X77761399Y-36947333D01*
X77720197Y-36919803D01*
X77705978Y-36898523D01*
X77654022Y-36898523D01*
X77639803Y-36919803D01*
X77598601Y-36947333D01*
X77550000Y-36957000D01*
X77170000Y-36957000D01*
X77121399Y-36947333D01*
X77080197Y-36919803D01*
X77065978Y-36898523D01*
X77014022Y-36898523D01*
X76999803Y-36919803D01*
X76958601Y-36947333D01*
X76910000Y-36957000D01*
X76530000Y-36957000D01*
X76481399Y-36947333D01*
X76440197Y-36919803D01*
X76412667Y-36878601D01*
X76403000Y-36830000D01*
X76403000Y-35810000D01*
X76412667Y-35761399D01*
X76440197Y-35720197D01*
X76481399Y-35692667D01*
X76530000Y-35683000D01*
X76910000Y-35683000D01*
X76958601Y-35692667D01*
G37*
G36*
X101298601Y-35692667D02*
G01*
X101339803Y-35720197D01*
X101354021Y-35741476D01*
X101405979Y-35741476D01*
X101420197Y-35720197D01*
X101461399Y-35692667D01*
X101510000Y-35683000D01*
X101890000Y-35683000D01*
X101938601Y-35692667D01*
X101979803Y-35720197D01*
X101994021Y-35741476D01*
X102045979Y-35741476D01*
X102060197Y-35720197D01*
X102101399Y-35692667D01*
X102150000Y-35683000D01*
X102530000Y-35683000D01*
X102578601Y-35692667D01*
X102619803Y-35720197D01*
X102634021Y-35741476D01*
X102685979Y-35741476D01*
X102700197Y-35720197D01*
X102741399Y-35692667D01*
X102790000Y-35683000D01*
X103170000Y-35683000D01*
X103218601Y-35692667D01*
X103259803Y-35720197D01*
X103274021Y-35741476D01*
X103325979Y-35741476D01*
X103340197Y-35720197D01*
X103381399Y-35692667D01*
X103430000Y-35683000D01*
X103810000Y-35683000D01*
X103858601Y-35692667D01*
X103899803Y-35720197D01*
X103914021Y-35741476D01*
X103965979Y-35741476D01*
X103980197Y-35720197D01*
X104021399Y-35692667D01*
X104070000Y-35683000D01*
X104450000Y-35683000D01*
X104498601Y-35692667D01*
X104539803Y-35720197D01*
X104554021Y-35741476D01*
X104605979Y-35741476D01*
X104620197Y-35720197D01*
X104661399Y-35692667D01*
X104710000Y-35683000D01*
X105090000Y-35683000D01*
X105138601Y-35692667D01*
X105179803Y-35720197D01*
X105194021Y-35741476D01*
X105245979Y-35741476D01*
X105260197Y-35720197D01*
X105301399Y-35692667D01*
X105350000Y-35683000D01*
X105730000Y-35683000D01*
X105778601Y-35692667D01*
X105819803Y-35720197D01*
X105834021Y-35741476D01*
X105885979Y-35741476D01*
X105900197Y-35720197D01*
X105941399Y-35692667D01*
X105990000Y-35683000D01*
X106370000Y-35683000D01*
X106418601Y-35692667D01*
X106459803Y-35720197D01*
X106474021Y-35741476D01*
X106525979Y-35741476D01*
X106540197Y-35720197D01*
X106581399Y-35692667D01*
X106630000Y-35683000D01*
X107010000Y-35683000D01*
X107058601Y-35692667D01*
X107099803Y-35720197D01*
X107114021Y-35741476D01*
X107165979Y-35741476D01*
X107180197Y-35720197D01*
X107221399Y-35692667D01*
X107270000Y-35683000D01*
X107650000Y-35683000D01*
X107698601Y-35692667D01*
X107739803Y-35720197D01*
X107754021Y-35741476D01*
X107805979Y-35741476D01*
X107820197Y-35720197D01*
X107861399Y-35692667D01*
X107910000Y-35683000D01*
X108290000Y-35683000D01*
X108338601Y-35692667D01*
X108379803Y-35720197D01*
X108394021Y-35741476D01*
X108445979Y-35741476D01*
X108460197Y-35720197D01*
X108501399Y-35692667D01*
X108550000Y-35683000D01*
X108930000Y-35683000D01*
X108978601Y-35692667D01*
X109019803Y-35720197D01*
X109034021Y-35741476D01*
X109085979Y-35741476D01*
X109100197Y-35720197D01*
X109141399Y-35692667D01*
X109190000Y-35683000D01*
X109570000Y-35683000D01*
X109618601Y-35692667D01*
X109659803Y-35720197D01*
X109674021Y-35741476D01*
X109725979Y-35741476D01*
X109740197Y-35720197D01*
X109781399Y-35692667D01*
X109830000Y-35683000D01*
X110210000Y-35683000D01*
X110258601Y-35692667D01*
X110299803Y-35720197D01*
X110314021Y-35741476D01*
X110365979Y-35741476D01*
X110380197Y-35720197D01*
X110421399Y-35692667D01*
X110470000Y-35683000D01*
X110850000Y-35683000D01*
X110898601Y-35692667D01*
X110939803Y-35720197D01*
X110954021Y-35741476D01*
X111005979Y-35741476D01*
X111020197Y-35720197D01*
X111061399Y-35692667D01*
X111110000Y-35683000D01*
X111490000Y-35683000D01*
X111538601Y-35692667D01*
X111579803Y-35720197D01*
X111594021Y-35741476D01*
X111645979Y-35741476D01*
X111660197Y-35720197D01*
X111701399Y-35692667D01*
X111750000Y-35683000D01*
X112130000Y-35683000D01*
X112178601Y-35692667D01*
X112219803Y-35720197D01*
X112247333Y-35761399D01*
X112257000Y-35810000D01*
X112257000Y-36830000D01*
X112247333Y-36878601D01*
X112219803Y-36919803D01*
X112178601Y-36947333D01*
X112130000Y-36957000D01*
X111750000Y-36957000D01*
X111701399Y-36947333D01*
X111660197Y-36919803D01*
X111645978Y-36898523D01*
X111594022Y-36898523D01*
X111579803Y-36919803D01*
X111538601Y-36947333D01*
X111490000Y-36957000D01*
X111110000Y-36957000D01*
X111061399Y-36947333D01*
X111020197Y-36919803D01*
X111005978Y-36898523D01*
X110954022Y-36898523D01*
X110939803Y-36919803D01*
X110898601Y-36947333D01*
X110850000Y-36957000D01*
X110470000Y-36957000D01*
X110421399Y-36947333D01*
X110380197Y-36919803D01*
X110365978Y-36898523D01*
X110314022Y-36898523D01*
X110299803Y-36919803D01*
X110258601Y-36947333D01*
X110210000Y-36957000D01*
X109830000Y-36957000D01*
X109781399Y-36947333D01*
X109740197Y-36919803D01*
X109725978Y-36898523D01*
X109674022Y-36898523D01*
X109659803Y-36919803D01*
X109618601Y-36947333D01*
X109570000Y-36957000D01*
X109190000Y-36957000D01*
X109141399Y-36947333D01*
X109100197Y-36919803D01*
X109085978Y-36898523D01*
X109034022Y-36898523D01*
X109019803Y-36919803D01*
X108978601Y-36947333D01*
X108930000Y-36957000D01*
X108550000Y-36957000D01*
X108501399Y-36947333D01*
X108460197Y-36919803D01*
X108445978Y-36898523D01*
X108394022Y-36898523D01*
X108379803Y-36919803D01*
X108338601Y-36947333D01*
X108290000Y-36957000D01*
X107910000Y-36957000D01*
X107861399Y-36947333D01*
X107820197Y-36919803D01*
X107805978Y-36898523D01*
X107754022Y-36898523D01*
X107739803Y-36919803D01*
X107698601Y-36947333D01*
X107650000Y-36957000D01*
X107270000Y-36957000D01*
X107221399Y-36947333D01*
X107180197Y-36919803D01*
X107165978Y-36898523D01*
X107114022Y-36898523D01*
X107099803Y-36919803D01*
X107058601Y-36947333D01*
X107010000Y-36957000D01*
X106630000Y-36957000D01*
X106581399Y-36947333D01*
X106540197Y-36919803D01*
X106525978Y-36898523D01*
X106474022Y-36898523D01*
X106459803Y-36919803D01*
X106418601Y-36947333D01*
X106370000Y-36957000D01*
X105990000Y-36957000D01*
X105941399Y-36947333D01*
X105900197Y-36919803D01*
X105885978Y-36898523D01*
X105834022Y-36898523D01*
X105819803Y-36919803D01*
X105778601Y-36947333D01*
X105730000Y-36957000D01*
X105350000Y-36957000D01*
X105301399Y-36947333D01*
X105260197Y-36919803D01*
X105245978Y-36898523D01*
X105194022Y-36898523D01*
X105179803Y-36919803D01*
X105138601Y-36947333D01*
X105090000Y-36957000D01*
X104710000Y-36957000D01*
X104661399Y-36947333D01*
X104620197Y-36919803D01*
X104605978Y-36898523D01*
X104554022Y-36898523D01*
X104539803Y-36919803D01*
X104498601Y-36947333D01*
X104450000Y-36957000D01*
X104070000Y-36957000D01*
X104021399Y-36947333D01*
X103980197Y-36919803D01*
X103965978Y-36898523D01*
X103914022Y-36898523D01*
X103899803Y-36919803D01*
X103858601Y-36947333D01*
X103810000Y-36957000D01*
X103430000Y-36957000D01*
X103381399Y-36947333D01*
X103340197Y-36919803D01*
X103325978Y-36898523D01*
X103274022Y-36898523D01*
X103259803Y-36919803D01*
X103218601Y-36947333D01*
X103170000Y-36957000D01*
X102790000Y-36957000D01*
X102741399Y-36947333D01*
X102700197Y-36919803D01*
X102685978Y-36898523D01*
X102634022Y-36898523D01*
X102619803Y-36919803D01*
X102578601Y-36947333D01*
X102530000Y-36957000D01*
X102150000Y-36957000D01*
X102101399Y-36947333D01*
X102060197Y-36919803D01*
X102045978Y-36898523D01*
X101994022Y-36898523D01*
X101979803Y-36919803D01*
X101938601Y-36947333D01*
X101890000Y-36957000D01*
X101510000Y-36957000D01*
X101461399Y-36947333D01*
X101420197Y-36919803D01*
X101405978Y-36898523D01*
X101354022Y-36898523D01*
X101339803Y-36919803D01*
X101298601Y-36947333D01*
X101250000Y-36957000D01*
X100870000Y-36957000D01*
X100821399Y-36947333D01*
X100780197Y-36919803D01*
X100752667Y-36878601D01*
X100743000Y-36830000D01*
X100743000Y-35810000D01*
X100752667Y-35761399D01*
X100780197Y-35720197D01*
X100821399Y-35692667D01*
X100870000Y-35683000D01*
X101250000Y-35683000D01*
X101298601Y-35692667D01*
G37*
G36*
X120498601Y-35692667D02*
G01*
X120539803Y-35720197D01*
X120554021Y-35741476D01*
X120605979Y-35741476D01*
X120620197Y-35720197D01*
X120661399Y-35692667D01*
X120710000Y-35683000D01*
X121090000Y-35683000D01*
X121138601Y-35692667D01*
X121179803Y-35720197D01*
X121194021Y-35741476D01*
X121245979Y-35741476D01*
X121260197Y-35720197D01*
X121301399Y-35692667D01*
X121350000Y-35683000D01*
X121730000Y-35683000D01*
X121778601Y-35692667D01*
X121819803Y-35720197D01*
X121834021Y-35741476D01*
X121885979Y-35741476D01*
X121900197Y-35720197D01*
X121941399Y-35692667D01*
X121990000Y-35683000D01*
X122370000Y-35683000D01*
X122418601Y-35692667D01*
X122459803Y-35720197D01*
X122474021Y-35741476D01*
X122525979Y-35741476D01*
X122540197Y-35720197D01*
X122581399Y-35692667D01*
X122630000Y-35683000D01*
X123010000Y-35683000D01*
X123058601Y-35692667D01*
X123099803Y-35720197D01*
X123114021Y-35741476D01*
X123165979Y-35741476D01*
X123180197Y-35720197D01*
X123221399Y-35692667D01*
X123270000Y-35683000D01*
X123650000Y-35683000D01*
X123698601Y-35692667D01*
X123739803Y-35720197D01*
X123754021Y-35741476D01*
X123805979Y-35741476D01*
X123820197Y-35720197D01*
X123861399Y-35692667D01*
X123910000Y-35683000D01*
X124290000Y-35683000D01*
X124338601Y-35692667D01*
X124379803Y-35720197D01*
X124394021Y-35741476D01*
X124445979Y-35741476D01*
X124460197Y-35720197D01*
X124501399Y-35692667D01*
X124550000Y-35683000D01*
X124930000Y-35683000D01*
X124978601Y-35692667D01*
X125019803Y-35720197D01*
X125034021Y-35741476D01*
X125085979Y-35741476D01*
X125100197Y-35720197D01*
X125141399Y-35692667D01*
X125190000Y-35683000D01*
X125570000Y-35683000D01*
X125618601Y-35692667D01*
X125659803Y-35720197D01*
X125674021Y-35741476D01*
X125725979Y-35741476D01*
X125740197Y-35720197D01*
X125781399Y-35692667D01*
X125830000Y-35683000D01*
X126210000Y-35683000D01*
X126258601Y-35692667D01*
X126299803Y-35720197D01*
X126314021Y-35741476D01*
X126365979Y-35741476D01*
X126380197Y-35720197D01*
X126421399Y-35692667D01*
X126470000Y-35683000D01*
X126850000Y-35683000D01*
X126898601Y-35692667D01*
X126939803Y-35720197D01*
X126954021Y-35741476D01*
X127005979Y-35741476D01*
X127020197Y-35720197D01*
X127061399Y-35692667D01*
X127110000Y-35683000D01*
X127490000Y-35683000D01*
X127538601Y-35692667D01*
X127579803Y-35720197D01*
X127594021Y-35741476D01*
X127645979Y-35741476D01*
X127660197Y-35720197D01*
X127701399Y-35692667D01*
X127750000Y-35683000D01*
X128130000Y-35683000D01*
X128178601Y-35692667D01*
X128219803Y-35720197D01*
X128234021Y-35741476D01*
X128285979Y-35741476D01*
X128300197Y-35720197D01*
X128341399Y-35692667D01*
X128390000Y-35683000D01*
X128770000Y-35683000D01*
X128818601Y-35692667D01*
X128859803Y-35720197D01*
X128874021Y-35741476D01*
X128925979Y-35741476D01*
X128940197Y-35720197D01*
X128981399Y-35692667D01*
X129030000Y-35683000D01*
X129410000Y-35683000D01*
X129458601Y-35692667D01*
X129499803Y-35720197D01*
X129514021Y-35741476D01*
X129565979Y-35741476D01*
X129580197Y-35720197D01*
X129621399Y-35692667D01*
X129670000Y-35683000D01*
X130050000Y-35683000D01*
X130098601Y-35692667D01*
X130139803Y-35720197D01*
X130154021Y-35741476D01*
X130205979Y-35741476D01*
X130220197Y-35720197D01*
X130261399Y-35692667D01*
X130310000Y-35683000D01*
X130690000Y-35683000D01*
X130738601Y-35692667D01*
X130779803Y-35720197D01*
X130794021Y-35741476D01*
X130845979Y-35741476D01*
X130860197Y-35720197D01*
X130901399Y-35692667D01*
X130950000Y-35683000D01*
X131330000Y-35683000D01*
X131378601Y-35692667D01*
X131419803Y-35720197D01*
X131447333Y-35761399D01*
X131457000Y-35810000D01*
X131457000Y-36830000D01*
X131447333Y-36878601D01*
X131419803Y-36919803D01*
X131378601Y-36947333D01*
X131330000Y-36957000D01*
X130950000Y-36957000D01*
X130901399Y-36947333D01*
X130860197Y-36919803D01*
X130845978Y-36898523D01*
X130794022Y-36898523D01*
X130779803Y-36919803D01*
X130738601Y-36947333D01*
X130690000Y-36957000D01*
X130310000Y-36957000D01*
X130261399Y-36947333D01*
X130220197Y-36919803D01*
X130205978Y-36898523D01*
X130154022Y-36898523D01*
X130139803Y-36919803D01*
X130098601Y-36947333D01*
X130050000Y-36957000D01*
X129670000Y-36957000D01*
X129621399Y-36947333D01*
X129580197Y-36919803D01*
X129565978Y-36898523D01*
X129514022Y-36898523D01*
X129499803Y-36919803D01*
X129458601Y-36947333D01*
X129410000Y-36957000D01*
X129030000Y-36957000D01*
X128981399Y-36947333D01*
X128940197Y-36919803D01*
X128925978Y-36898523D01*
X128874022Y-36898523D01*
X128859803Y-36919803D01*
X128818601Y-36947333D01*
X128770000Y-36957000D01*
X128390000Y-36957000D01*
X128341399Y-36947333D01*
X128300197Y-36919803D01*
X128285978Y-36898523D01*
X128234022Y-36898523D01*
X128219803Y-36919803D01*
X128178601Y-36947333D01*
X128130000Y-36957000D01*
X127750000Y-36957000D01*
X127701399Y-36947333D01*
X127660197Y-36919803D01*
X127645978Y-36898523D01*
X127594022Y-36898523D01*
X127579803Y-36919803D01*
X127538601Y-36947333D01*
X127490000Y-36957000D01*
X127110000Y-36957000D01*
X127061399Y-36947333D01*
X127020197Y-36919803D01*
X127005978Y-36898523D01*
X126954022Y-36898523D01*
X126939803Y-36919803D01*
X126898601Y-36947333D01*
X126850000Y-36957000D01*
X126470000Y-36957000D01*
X126421399Y-36947333D01*
X126380197Y-36919803D01*
X126365978Y-36898523D01*
X126314022Y-36898523D01*
X126299803Y-36919803D01*
X126258601Y-36947333D01*
X126210000Y-36957000D01*
X125830000Y-36957000D01*
X125781399Y-36947333D01*
X125740197Y-36919803D01*
X125725978Y-36898523D01*
X125674022Y-36898523D01*
X125659803Y-36919803D01*
X125618601Y-36947333D01*
X125570000Y-36957000D01*
X125190000Y-36957000D01*
X125141399Y-36947333D01*
X125100197Y-36919803D01*
X125085978Y-36898523D01*
X125034022Y-36898523D01*
X125019803Y-36919803D01*
X124978601Y-36947333D01*
X124930000Y-36957000D01*
X124550000Y-36957000D01*
X124501399Y-36947333D01*
X124460197Y-36919803D01*
X124445978Y-36898523D01*
X124394022Y-36898523D01*
X124379803Y-36919803D01*
X124338601Y-36947333D01*
X124290000Y-36957000D01*
X123910000Y-36957000D01*
X123861399Y-36947333D01*
X123820197Y-36919803D01*
X123805978Y-36898523D01*
X123754022Y-36898523D01*
X123739803Y-36919803D01*
X123698601Y-36947333D01*
X123650000Y-36957000D01*
X123270000Y-36957000D01*
X123221399Y-36947333D01*
X123180197Y-36919803D01*
X123165978Y-36898523D01*
X123114022Y-36898523D01*
X123099803Y-36919803D01*
X123058601Y-36947333D01*
X123010000Y-36957000D01*
X122630000Y-36957000D01*
X122581399Y-36947333D01*
X122540197Y-36919803D01*
X122525978Y-36898523D01*
X122474022Y-36898523D01*
X122459803Y-36919803D01*
X122418601Y-36947333D01*
X122370000Y-36957000D01*
X121990000Y-36957000D01*
X121941399Y-36947333D01*
X121900197Y-36919803D01*
X121885978Y-36898523D01*
X121834022Y-36898523D01*
X121819803Y-36919803D01*
X121778601Y-36947333D01*
X121730000Y-36957000D01*
X121350000Y-36957000D01*
X121301399Y-36947333D01*
X121260197Y-36919803D01*
X121245978Y-36898523D01*
X121194022Y-36898523D01*
X121179803Y-36919803D01*
X121138601Y-36947333D01*
X121090000Y-36957000D01*
X120710000Y-36957000D01*
X120661399Y-36947333D01*
X120620197Y-36919803D01*
X120605978Y-36898523D01*
X120554022Y-36898523D01*
X120539803Y-36919803D01*
X120498601Y-36947333D01*
X120450000Y-36957000D01*
X120070000Y-36957000D01*
X120021399Y-36947333D01*
X119980197Y-36919803D01*
X119952667Y-36878601D01*
X119943000Y-36830000D01*
X119943000Y-35810000D01*
X119952667Y-35761399D01*
X119980197Y-35720197D01*
X120021399Y-35692667D01*
X120070000Y-35683000D01*
X120450000Y-35683000D01*
X120498601Y-35692667D01*
G37*
G36*
X139698601Y-35692667D02*
G01*
X139739803Y-35720197D01*
X139754021Y-35741476D01*
X139805979Y-35741476D01*
X139820197Y-35720197D01*
X139861399Y-35692667D01*
X139910000Y-35683000D01*
X140290000Y-35683000D01*
X140338601Y-35692667D01*
X140379803Y-35720197D01*
X140394021Y-35741476D01*
X140445979Y-35741476D01*
X140460197Y-35720197D01*
X140501399Y-35692667D01*
X140550000Y-35683000D01*
X140930000Y-35683000D01*
X140978601Y-35692667D01*
X141019803Y-35720197D01*
X141034021Y-35741476D01*
X141085979Y-35741476D01*
X141100197Y-35720197D01*
X141141399Y-35692667D01*
X141190000Y-35683000D01*
X141570000Y-35683000D01*
X141618601Y-35692667D01*
X141659803Y-35720197D01*
X141674021Y-35741476D01*
X141725979Y-35741476D01*
X141740197Y-35720197D01*
X141781399Y-35692667D01*
X141830000Y-35683000D01*
X142210000Y-35683000D01*
X142258601Y-35692667D01*
X142299803Y-35720197D01*
X142314021Y-35741476D01*
X142365979Y-35741476D01*
X142380197Y-35720197D01*
X142421399Y-35692667D01*
X142470000Y-35683000D01*
X142850000Y-35683000D01*
X142898601Y-35692667D01*
X142939803Y-35720197D01*
X142954021Y-35741476D01*
X143005979Y-35741476D01*
X143020197Y-35720197D01*
X143061399Y-35692667D01*
X143110000Y-35683000D01*
X143490000Y-35683000D01*
X143538601Y-35692667D01*
X143579803Y-35720197D01*
X143594021Y-35741476D01*
X143645979Y-35741476D01*
X143660197Y-35720197D01*
X143701399Y-35692667D01*
X143750000Y-35683000D01*
X144130000Y-35683000D01*
X144178601Y-35692667D01*
X144219803Y-35720197D01*
X144234021Y-35741476D01*
X144285979Y-35741476D01*
X144300197Y-35720197D01*
X144341399Y-35692667D01*
X144390000Y-35683000D01*
X144770000Y-35683000D01*
X144818601Y-35692667D01*
X144859803Y-35720197D01*
X144874021Y-35741476D01*
X144925979Y-35741476D01*
X144940197Y-35720197D01*
X144981399Y-35692667D01*
X145030000Y-35683000D01*
X145410000Y-35683000D01*
X145458601Y-35692667D01*
X145499803Y-35720197D01*
X145514021Y-35741476D01*
X145565979Y-35741476D01*
X145580197Y-35720197D01*
X145621399Y-35692667D01*
X145670000Y-35683000D01*
X146050000Y-35683000D01*
X146098601Y-35692667D01*
X146139803Y-35720197D01*
X146154021Y-35741476D01*
X146205979Y-35741476D01*
X146220197Y-35720197D01*
X146261399Y-35692667D01*
X146310000Y-35683000D01*
X146690000Y-35683000D01*
X146738601Y-35692667D01*
X146779803Y-35720197D01*
X146794021Y-35741476D01*
X146845979Y-35741476D01*
X146860197Y-35720197D01*
X146901399Y-35692667D01*
X146950000Y-35683000D01*
X147330000Y-35683000D01*
X147378601Y-35692667D01*
X147419803Y-35720197D01*
X147434021Y-35741476D01*
X147485979Y-35741476D01*
X147500197Y-35720197D01*
X147541399Y-35692667D01*
X147590000Y-35683000D01*
X147970000Y-35683000D01*
X148018601Y-35692667D01*
X148059803Y-35720197D01*
X148074021Y-35741476D01*
X148125979Y-35741476D01*
X148140197Y-35720197D01*
X148181399Y-35692667D01*
X148230000Y-35683000D01*
X148610000Y-35683000D01*
X148658601Y-35692667D01*
X148699803Y-35720197D01*
X148714021Y-35741476D01*
X148765979Y-35741476D01*
X148780197Y-35720197D01*
X148821399Y-35692667D01*
X148870000Y-35683000D01*
X149250000Y-35683000D01*
X149298601Y-35692667D01*
X149339803Y-35720197D01*
X149354021Y-35741476D01*
X149405979Y-35741476D01*
X149420197Y-35720197D01*
X149461399Y-35692667D01*
X149510000Y-35683000D01*
X149890000Y-35683000D01*
X149938601Y-35692667D01*
X149979803Y-35720197D01*
X149994021Y-35741476D01*
X150045979Y-35741476D01*
X150060197Y-35720197D01*
X150101399Y-35692667D01*
X150150000Y-35683000D01*
X150530000Y-35683000D01*
X150578601Y-35692667D01*
X150619803Y-35720197D01*
X150647333Y-35761399D01*
X150657000Y-35810000D01*
X150657000Y-36830000D01*
X150647333Y-36878601D01*
X150619803Y-36919803D01*
X150578601Y-36947333D01*
X150530000Y-36957000D01*
X150150000Y-36957000D01*
X150101399Y-36947333D01*
X150060197Y-36919803D01*
X150045978Y-36898523D01*
X149994022Y-36898523D01*
X149979803Y-36919803D01*
X149938601Y-36947333D01*
X149890000Y-36957000D01*
X149510000Y-36957000D01*
X149461399Y-36947333D01*
X149420197Y-36919803D01*
X149405978Y-36898523D01*
X149354022Y-36898523D01*
X149339803Y-36919803D01*
X149298601Y-36947333D01*
X149250000Y-36957000D01*
X148870000Y-36957000D01*
X148821399Y-36947333D01*
X148780197Y-36919803D01*
X148765978Y-36898523D01*
X148714022Y-36898523D01*
X148699803Y-36919803D01*
X148658601Y-36947333D01*
X148610000Y-36957000D01*
X148230000Y-36957000D01*
X148181399Y-36947333D01*
X148140197Y-36919803D01*
X148125978Y-36898523D01*
X148074022Y-36898523D01*
X148059803Y-36919803D01*
X148018601Y-36947333D01*
X147970000Y-36957000D01*
X147590000Y-36957000D01*
X147541399Y-36947333D01*
X147500197Y-36919803D01*
X147485978Y-36898523D01*
X147434022Y-36898523D01*
X147419803Y-36919803D01*
X147378601Y-36947333D01*
X147330000Y-36957000D01*
X146950000Y-36957000D01*
X146901399Y-36947333D01*
X146860197Y-36919803D01*
X146845978Y-36898523D01*
X146794022Y-36898523D01*
X146779803Y-36919803D01*
X146738601Y-36947333D01*
X146690000Y-36957000D01*
X146310000Y-36957000D01*
X146261399Y-36947333D01*
X146220197Y-36919803D01*
X146205978Y-36898523D01*
X146154022Y-36898523D01*
X146139803Y-36919803D01*
X146098601Y-36947333D01*
X146050000Y-36957000D01*
X145670000Y-36957000D01*
X145621399Y-36947333D01*
X145580197Y-36919803D01*
X145565978Y-36898523D01*
X145514022Y-36898523D01*
X145499803Y-36919803D01*
X145458601Y-36947333D01*
X145410000Y-36957000D01*
X145030000Y-36957000D01*
X144981399Y-36947333D01*
X144940197Y-36919803D01*
X144925978Y-36898523D01*
X144874022Y-36898523D01*
X144859803Y-36919803D01*
X144818601Y-36947333D01*
X144770000Y-36957000D01*
X144390000Y-36957000D01*
X144341399Y-36947333D01*
X144300197Y-36919803D01*
X144285978Y-36898523D01*
X144234022Y-36898523D01*
X144219803Y-36919803D01*
X144178601Y-36947333D01*
X144130000Y-36957000D01*
X143750000Y-36957000D01*
X143701399Y-36947333D01*
X143660197Y-36919803D01*
X143645978Y-36898523D01*
X143594022Y-36898523D01*
X143579803Y-36919803D01*
X143538601Y-36947333D01*
X143490000Y-36957000D01*
X143110000Y-36957000D01*
X143061399Y-36947333D01*
X143020197Y-36919803D01*
X143005978Y-36898523D01*
X142954022Y-36898523D01*
X142939803Y-36919803D01*
X142898601Y-36947333D01*
X142850000Y-36957000D01*
X142470000Y-36957000D01*
X142421399Y-36947333D01*
X142380197Y-36919803D01*
X142365978Y-36898523D01*
X142314022Y-36898523D01*
X142299803Y-36919803D01*
X142258601Y-36947333D01*
X142210000Y-36957000D01*
X141830000Y-36957000D01*
X141781399Y-36947333D01*
X141740197Y-36919803D01*
X141725978Y-36898523D01*
X141674022Y-36898523D01*
X141659803Y-36919803D01*
X141618601Y-36947333D01*
X141570000Y-36957000D01*
X141190000Y-36957000D01*
X141141399Y-36947333D01*
X141100197Y-36919803D01*
X141085978Y-36898523D01*
X141034022Y-36898523D01*
X141019803Y-36919803D01*
X140978601Y-36947333D01*
X140930000Y-36957000D01*
X140550000Y-36957000D01*
X140501399Y-36947333D01*
X140460197Y-36919803D01*
X140445978Y-36898523D01*
X140394022Y-36898523D01*
X140379803Y-36919803D01*
X140338601Y-36947333D01*
X140290000Y-36957000D01*
X139910000Y-36957000D01*
X139861399Y-36947333D01*
X139820197Y-36919803D01*
X139805978Y-36898523D01*
X139754022Y-36898523D01*
X139739803Y-36919803D01*
X139698601Y-36947333D01*
X139650000Y-36957000D01*
X139270000Y-36957000D01*
X139221399Y-36947333D01*
X139180197Y-36919803D01*
X139152667Y-36878601D01*
X139143000Y-36830000D01*
X139143000Y-35810000D01*
X139152667Y-35761399D01*
X139180197Y-35720197D01*
X139221399Y-35692667D01*
X139270000Y-35683000D01*
X139650000Y-35683000D01*
X139698601Y-35692667D01*
G37*
G36*
X38558601Y-34172667D02*
G01*
X38599803Y-34200197D01*
X38614021Y-34221476D01*
X38665979Y-34221476D01*
X38680197Y-34200197D01*
X38721399Y-34172667D01*
X38770000Y-34163000D01*
X39150000Y-34163000D01*
X39198601Y-34172667D01*
X39239803Y-34200197D01*
X39254021Y-34221476D01*
X39305979Y-34221476D01*
X39320197Y-34200197D01*
X39361399Y-34172667D01*
X39410000Y-34163000D01*
X39790000Y-34163000D01*
X39838601Y-34172667D01*
X39879803Y-34200197D01*
X39894021Y-34221476D01*
X39945979Y-34221476D01*
X39960197Y-34200197D01*
X40001399Y-34172667D01*
X40050000Y-34163000D01*
X40430000Y-34163000D01*
X40478601Y-34172667D01*
X40519803Y-34200197D01*
X40534021Y-34221476D01*
X40585979Y-34221476D01*
X40600197Y-34200197D01*
X40641399Y-34172667D01*
X40690000Y-34163000D01*
X41070000Y-34163000D01*
X41118601Y-34172667D01*
X41159803Y-34200197D01*
X41174021Y-34221476D01*
X41225979Y-34221476D01*
X41240197Y-34200197D01*
X41281399Y-34172667D01*
X41330000Y-34163000D01*
X41710000Y-34163000D01*
X41758601Y-34172667D01*
X41799803Y-34200197D01*
X41814021Y-34221476D01*
X41865979Y-34221476D01*
X41880197Y-34200197D01*
X41921399Y-34172667D01*
X41970000Y-34163000D01*
X42350000Y-34163000D01*
X42398601Y-34172667D01*
X42439803Y-34200197D01*
X42454021Y-34221476D01*
X42505979Y-34221476D01*
X42520197Y-34200197D01*
X42561399Y-34172667D01*
X42610000Y-34163000D01*
X42990000Y-34163000D01*
X43038601Y-34172667D01*
X43079803Y-34200197D01*
X43094021Y-34221476D01*
X43145979Y-34221476D01*
X43160197Y-34200197D01*
X43201399Y-34172667D01*
X43250000Y-34163000D01*
X43630000Y-34163000D01*
X43678601Y-34172667D01*
X43719803Y-34200197D01*
X43734021Y-34221476D01*
X43785979Y-34221476D01*
X43800197Y-34200197D01*
X43841399Y-34172667D01*
X43890000Y-34163000D01*
X44270000Y-34163000D01*
X44318601Y-34172667D01*
X44359803Y-34200197D01*
X44374021Y-34221476D01*
X44425979Y-34221476D01*
X44440197Y-34200197D01*
X44481399Y-34172667D01*
X44530000Y-34163000D01*
X44910000Y-34163000D01*
X44958601Y-34172667D01*
X44999803Y-34200197D01*
X45014021Y-34221476D01*
X45065979Y-34221476D01*
X45080197Y-34200197D01*
X45121399Y-34172667D01*
X45170000Y-34163000D01*
X45550000Y-34163000D01*
X45598601Y-34172667D01*
X45639803Y-34200197D01*
X45654021Y-34221476D01*
X45705979Y-34221476D01*
X45720197Y-34200197D01*
X45761399Y-34172667D01*
X45810000Y-34163000D01*
X46190000Y-34163000D01*
X46238601Y-34172667D01*
X46279803Y-34200197D01*
X46294021Y-34221476D01*
X46345979Y-34221476D01*
X46360197Y-34200197D01*
X46401399Y-34172667D01*
X46450000Y-34163000D01*
X46830000Y-34163000D01*
X46878601Y-34172667D01*
X46919803Y-34200197D01*
X46934021Y-34221476D01*
X46985979Y-34221476D01*
X47000197Y-34200197D01*
X47041399Y-34172667D01*
X47090000Y-34163000D01*
X47470000Y-34163000D01*
X47518601Y-34172667D01*
X47559803Y-34200197D01*
X47574021Y-34221476D01*
X47625979Y-34221476D01*
X47640197Y-34200197D01*
X47681399Y-34172667D01*
X47730000Y-34163000D01*
X48110000Y-34163000D01*
X48158601Y-34172667D01*
X48199803Y-34200197D01*
X48214021Y-34221476D01*
X48265979Y-34221476D01*
X48280197Y-34200197D01*
X48321399Y-34172667D01*
X48370000Y-34163000D01*
X48750000Y-34163000D01*
X48798601Y-34172667D01*
X48839803Y-34200197D01*
X48854021Y-34221476D01*
X48905979Y-34221476D01*
X48920197Y-34200197D01*
X48961399Y-34172667D01*
X49010000Y-34163000D01*
X49390000Y-34163000D01*
X49438601Y-34172667D01*
X49479803Y-34200197D01*
X49507333Y-34241399D01*
X49517000Y-34290000D01*
X49517000Y-35310000D01*
X49507333Y-35358601D01*
X49479803Y-35399803D01*
X49438601Y-35427333D01*
X49390000Y-35437000D01*
X49010000Y-35437000D01*
X48961399Y-35427333D01*
X48920197Y-35399803D01*
X48905978Y-35378523D01*
X48854022Y-35378523D01*
X48839803Y-35399803D01*
X48798601Y-35427333D01*
X48750000Y-35437000D01*
X48370000Y-35437000D01*
X48321399Y-35427333D01*
X48280197Y-35399803D01*
X48265978Y-35378523D01*
X48214022Y-35378523D01*
X48199803Y-35399803D01*
X48158601Y-35427333D01*
X48110000Y-35437000D01*
X47730000Y-35437000D01*
X47681399Y-35427333D01*
X47640197Y-35399803D01*
X47625978Y-35378523D01*
X47574022Y-35378523D01*
X47559803Y-35399803D01*
X47518601Y-35427333D01*
X47470000Y-35437000D01*
X47090000Y-35437000D01*
X47041399Y-35427333D01*
X47000197Y-35399803D01*
X46985978Y-35378523D01*
X46934022Y-35378523D01*
X46919803Y-35399803D01*
X46878601Y-35427333D01*
X46830000Y-35437000D01*
X46450000Y-35437000D01*
X46401399Y-35427333D01*
X46360197Y-35399803D01*
X46345978Y-35378523D01*
X46294022Y-35378523D01*
X46279803Y-35399803D01*
X46238601Y-35427333D01*
X46190000Y-35437000D01*
X45810000Y-35437000D01*
X45761399Y-35427333D01*
X45720197Y-35399803D01*
X45705978Y-35378523D01*
X45654022Y-35378523D01*
X45639803Y-35399803D01*
X45598601Y-35427333D01*
X45550000Y-35437000D01*
X45170000Y-35437000D01*
X45121399Y-35427333D01*
X45080197Y-35399803D01*
X45065978Y-35378523D01*
X45014022Y-35378523D01*
X44999803Y-35399803D01*
X44958601Y-35427333D01*
X44910000Y-35437000D01*
X44530000Y-35437000D01*
X44481399Y-35427333D01*
X44440197Y-35399803D01*
X44425978Y-35378523D01*
X44374022Y-35378523D01*
X44359803Y-35399803D01*
X44318601Y-35427333D01*
X44270000Y-35437000D01*
X43890000Y-35437000D01*
X43841399Y-35427333D01*
X43800197Y-35399803D01*
X43785978Y-35378523D01*
X43734022Y-35378523D01*
X43719803Y-35399803D01*
X43678601Y-35427333D01*
X43630000Y-35437000D01*
X43250000Y-35437000D01*
X43201399Y-35427333D01*
X43160197Y-35399803D01*
X43145978Y-35378523D01*
X43094022Y-35378523D01*
X43079803Y-35399803D01*
X43038601Y-35427333D01*
X42990000Y-35437000D01*
X42610000Y-35437000D01*
X42561399Y-35427333D01*
X42520197Y-35399803D01*
X42505978Y-35378523D01*
X42454022Y-35378523D01*
X42439803Y-35399803D01*
X42398601Y-35427333D01*
X42350000Y-35437000D01*
X41970000Y-35437000D01*
X41921399Y-35427333D01*
X41880197Y-35399803D01*
X41865978Y-35378523D01*
X41814022Y-35378523D01*
X41799803Y-35399803D01*
X41758601Y-35427333D01*
X41710000Y-35437000D01*
X41330000Y-35437000D01*
X41281399Y-35427333D01*
X41240197Y-35399803D01*
X41225978Y-35378523D01*
X41174022Y-35378523D01*
X41159803Y-35399803D01*
X41118601Y-35427333D01*
X41070000Y-35437000D01*
X40690000Y-35437000D01*
X40641399Y-35427333D01*
X40600197Y-35399803D01*
X40585978Y-35378523D01*
X40534022Y-35378523D01*
X40519803Y-35399803D01*
X40478601Y-35427333D01*
X40430000Y-35437000D01*
X40050000Y-35437000D01*
X40001399Y-35427333D01*
X39960197Y-35399803D01*
X39945978Y-35378523D01*
X39894022Y-35378523D01*
X39879803Y-35399803D01*
X39838601Y-35427333D01*
X39790000Y-35437000D01*
X39410000Y-35437000D01*
X39361399Y-35427333D01*
X39320197Y-35399803D01*
X39305978Y-35378523D01*
X39254022Y-35378523D01*
X39239803Y-35399803D01*
X39198601Y-35427333D01*
X39150000Y-35437000D01*
X38770000Y-35437000D01*
X38721399Y-35427333D01*
X38680197Y-35399803D01*
X38665978Y-35378523D01*
X38614022Y-35378523D01*
X38599803Y-35399803D01*
X38558601Y-35427333D01*
X38510000Y-35437000D01*
X38130000Y-35437000D01*
X38081399Y-35427333D01*
X38040197Y-35399803D01*
X38012667Y-35358601D01*
X38003000Y-35310000D01*
X38003000Y-34290000D01*
X38012667Y-34241399D01*
X38040197Y-34200197D01*
X38081399Y-34172667D01*
X38130000Y-34163000D01*
X38510000Y-34163000D01*
X38558601Y-34172667D01*
G37*
G36*
X57758601Y-34172667D02*
G01*
X57799803Y-34200197D01*
X57814021Y-34221476D01*
X57865979Y-34221476D01*
X57880197Y-34200197D01*
X57921399Y-34172667D01*
X57970000Y-34163000D01*
X58350000Y-34163000D01*
X58398601Y-34172667D01*
X58439803Y-34200197D01*
X58454021Y-34221476D01*
X58505979Y-34221476D01*
X58520197Y-34200197D01*
X58561399Y-34172667D01*
X58610000Y-34163000D01*
X58990000Y-34163000D01*
X59038601Y-34172667D01*
X59079803Y-34200197D01*
X59094021Y-34221476D01*
X59145979Y-34221476D01*
X59160197Y-34200197D01*
X59201399Y-34172667D01*
X59250000Y-34163000D01*
X59630000Y-34163000D01*
X59678601Y-34172667D01*
X59719803Y-34200197D01*
X59734021Y-34221476D01*
X59785979Y-34221476D01*
X59800197Y-34200197D01*
X59841399Y-34172667D01*
X59890000Y-34163000D01*
X60270000Y-34163000D01*
X60318601Y-34172667D01*
X60359803Y-34200197D01*
X60374021Y-34221476D01*
X60425979Y-34221476D01*
X60440197Y-34200197D01*
X60481399Y-34172667D01*
X60530000Y-34163000D01*
X60910000Y-34163000D01*
X60958601Y-34172667D01*
X60999803Y-34200197D01*
X61014021Y-34221476D01*
X61065979Y-34221476D01*
X61080197Y-34200197D01*
X61121399Y-34172667D01*
X61170000Y-34163000D01*
X61550000Y-34163000D01*
X61598601Y-34172667D01*
X61639803Y-34200197D01*
X61654021Y-34221476D01*
X61705979Y-34221476D01*
X61720197Y-34200197D01*
X61761399Y-34172667D01*
X61810000Y-34163000D01*
X62190000Y-34163000D01*
X62238601Y-34172667D01*
X62279803Y-34200197D01*
X62294021Y-34221476D01*
X62345979Y-34221476D01*
X62360197Y-34200197D01*
X62401399Y-34172667D01*
X62450000Y-34163000D01*
X62830000Y-34163000D01*
X62878601Y-34172667D01*
X62919803Y-34200197D01*
X62934021Y-34221476D01*
X62985979Y-34221476D01*
X63000197Y-34200197D01*
X63041399Y-34172667D01*
X63090000Y-34163000D01*
X63470000Y-34163000D01*
X63518601Y-34172667D01*
X63559803Y-34200197D01*
X63574021Y-34221476D01*
X63625979Y-34221476D01*
X63640197Y-34200197D01*
X63681399Y-34172667D01*
X63730000Y-34163000D01*
X64110000Y-34163000D01*
X64158601Y-34172667D01*
X64199803Y-34200197D01*
X64214021Y-34221476D01*
X64265979Y-34221476D01*
X64280197Y-34200197D01*
X64321399Y-34172667D01*
X64370000Y-34163000D01*
X64750000Y-34163000D01*
X64798601Y-34172667D01*
X64839803Y-34200197D01*
X64854021Y-34221476D01*
X64905979Y-34221476D01*
X64920197Y-34200197D01*
X64961399Y-34172667D01*
X65010000Y-34163000D01*
X65390000Y-34163000D01*
X65438601Y-34172667D01*
X65479803Y-34200197D01*
X65494021Y-34221476D01*
X65545979Y-34221476D01*
X65560197Y-34200197D01*
X65601399Y-34172667D01*
X65650000Y-34163000D01*
X66030000Y-34163000D01*
X66078601Y-34172667D01*
X66119803Y-34200197D01*
X66134021Y-34221476D01*
X66185979Y-34221476D01*
X66200197Y-34200197D01*
X66241399Y-34172667D01*
X66290000Y-34163000D01*
X66670000Y-34163000D01*
X66718601Y-34172667D01*
X66759803Y-34200197D01*
X66774021Y-34221476D01*
X66825979Y-34221476D01*
X66840197Y-34200197D01*
X66881399Y-34172667D01*
X66930000Y-34163000D01*
X67310000Y-34163000D01*
X67358601Y-34172667D01*
X67399803Y-34200197D01*
X67414021Y-34221476D01*
X67465979Y-34221476D01*
X67480197Y-34200197D01*
X67521399Y-34172667D01*
X67570000Y-34163000D01*
X67950000Y-34163000D01*
X67998601Y-34172667D01*
X68039803Y-34200197D01*
X68054021Y-34221476D01*
X68105979Y-34221476D01*
X68120197Y-34200197D01*
X68161399Y-34172667D01*
X68210000Y-34163000D01*
X68590000Y-34163000D01*
X68638601Y-34172667D01*
X68679803Y-34200197D01*
X68707333Y-34241399D01*
X68717000Y-34290000D01*
X68717000Y-35310000D01*
X68707333Y-35358601D01*
X68679803Y-35399803D01*
X68638601Y-35427333D01*
X68590000Y-35437000D01*
X68210000Y-35437000D01*
X68161399Y-35427333D01*
X68120197Y-35399803D01*
X68105978Y-35378523D01*
X68054022Y-35378523D01*
X68039803Y-35399803D01*
X67998601Y-35427333D01*
X67950000Y-35437000D01*
X67570000Y-35437000D01*
X67521399Y-35427333D01*
X67480197Y-35399803D01*
X67465978Y-35378523D01*
X67414022Y-35378523D01*
X67399803Y-35399803D01*
X67358601Y-35427333D01*
X67310000Y-35437000D01*
X66930000Y-35437000D01*
X66881399Y-35427333D01*
X66840197Y-35399803D01*
X66825978Y-35378523D01*
X66774022Y-35378523D01*
X66759803Y-35399803D01*
X66718601Y-35427333D01*
X66670000Y-35437000D01*
X66290000Y-35437000D01*
X66241399Y-35427333D01*
X66200197Y-35399803D01*
X66185978Y-35378523D01*
X66134022Y-35378523D01*
X66119803Y-35399803D01*
X66078601Y-35427333D01*
X66030000Y-35437000D01*
X65650000Y-35437000D01*
X65601399Y-35427333D01*
X65560197Y-35399803D01*
X65545978Y-35378523D01*
X65494022Y-35378523D01*
X65479803Y-35399803D01*
X65438601Y-35427333D01*
X65390000Y-35437000D01*
X65010000Y-35437000D01*
X64961399Y-35427333D01*
X64920197Y-35399803D01*
X64905978Y-35378523D01*
X64854022Y-35378523D01*
X64839803Y-35399803D01*
X64798601Y-35427333D01*
X64750000Y-35437000D01*
X64370000Y-35437000D01*
X64321399Y-35427333D01*
X64280197Y-35399803D01*
X64265978Y-35378523D01*
X64214022Y-35378523D01*
X64199803Y-35399803D01*
X64158601Y-35427333D01*
X64110000Y-35437000D01*
X63730000Y-35437000D01*
X63681399Y-35427333D01*
X63640197Y-35399803D01*
X63625978Y-35378523D01*
X63574022Y-35378523D01*
X63559803Y-35399803D01*
X63518601Y-35427333D01*
X63470000Y-35437000D01*
X63090000Y-35437000D01*
X63041399Y-35427333D01*
X63000197Y-35399803D01*
X62985978Y-35378523D01*
X62934022Y-35378523D01*
X62919803Y-35399803D01*
X62878601Y-35427333D01*
X62830000Y-35437000D01*
X62450000Y-35437000D01*
X62401399Y-35427333D01*
X62360197Y-35399803D01*
X62345978Y-35378523D01*
X62294022Y-35378523D01*
X62279803Y-35399803D01*
X62238601Y-35427333D01*
X62190000Y-35437000D01*
X61810000Y-35437000D01*
X61761399Y-35427333D01*
X61720197Y-35399803D01*
X61705978Y-35378523D01*
X61654022Y-35378523D01*
X61639803Y-35399803D01*
X61598601Y-35427333D01*
X61550000Y-35437000D01*
X61170000Y-35437000D01*
X61121399Y-35427333D01*
X61080197Y-35399803D01*
X61065978Y-35378523D01*
X61014022Y-35378523D01*
X60999803Y-35399803D01*
X60958601Y-35427333D01*
X60910000Y-35437000D01*
X60530000Y-35437000D01*
X60481399Y-35427333D01*
X60440197Y-35399803D01*
X60425978Y-35378523D01*
X60374022Y-35378523D01*
X60359803Y-35399803D01*
X60318601Y-35427333D01*
X60270000Y-35437000D01*
X59890000Y-35437000D01*
X59841399Y-35427333D01*
X59800197Y-35399803D01*
X59785978Y-35378523D01*
X59734022Y-35378523D01*
X59719803Y-35399803D01*
X59678601Y-35427333D01*
X59630000Y-35437000D01*
X59250000Y-35437000D01*
X59201399Y-35427333D01*
X59160197Y-35399803D01*
X59145978Y-35378523D01*
X59094022Y-35378523D01*
X59079803Y-35399803D01*
X59038601Y-35427333D01*
X58990000Y-35437000D01*
X58610000Y-35437000D01*
X58561399Y-35427333D01*
X58520197Y-35399803D01*
X58505978Y-35378523D01*
X58454022Y-35378523D01*
X58439803Y-35399803D01*
X58398601Y-35427333D01*
X58350000Y-35437000D01*
X57970000Y-35437000D01*
X57921399Y-35427333D01*
X57880197Y-35399803D01*
X57865978Y-35378523D01*
X57814022Y-35378523D01*
X57799803Y-35399803D01*
X57758601Y-35427333D01*
X57710000Y-35437000D01*
X57330000Y-35437000D01*
X57281399Y-35427333D01*
X57240197Y-35399803D01*
X57212667Y-35358601D01*
X57203000Y-35310000D01*
X57203000Y-34290000D01*
X57212667Y-34241399D01*
X57240197Y-34200197D01*
X57281399Y-34172667D01*
X57330000Y-34163000D01*
X57710000Y-34163000D01*
X57758601Y-34172667D01*
G37*
G36*
X76958601Y-34172667D02*
G01*
X76999803Y-34200197D01*
X77014021Y-34221476D01*
X77065979Y-34221476D01*
X77080197Y-34200197D01*
X77121399Y-34172667D01*
X77170000Y-34163000D01*
X77550000Y-34163000D01*
X77598601Y-34172667D01*
X77639803Y-34200197D01*
X77654021Y-34221476D01*
X77705979Y-34221476D01*
X77720197Y-34200197D01*
X77761399Y-34172667D01*
X77810000Y-34163000D01*
X78190000Y-34163000D01*
X78238601Y-34172667D01*
X78279803Y-34200197D01*
X78294021Y-34221476D01*
X78345979Y-34221476D01*
X78360197Y-34200197D01*
X78401399Y-34172667D01*
X78450000Y-34163000D01*
X78830000Y-34163000D01*
X78878601Y-34172667D01*
X78919803Y-34200197D01*
X78934021Y-34221476D01*
X78985979Y-34221476D01*
X79000197Y-34200197D01*
X79041399Y-34172667D01*
X79090000Y-34163000D01*
X79470000Y-34163000D01*
X79518601Y-34172667D01*
X79559803Y-34200197D01*
X79574021Y-34221476D01*
X79625979Y-34221476D01*
X79640197Y-34200197D01*
X79681399Y-34172667D01*
X79730000Y-34163000D01*
X80110000Y-34163000D01*
X80158601Y-34172667D01*
X80199803Y-34200197D01*
X80214021Y-34221476D01*
X80265979Y-34221476D01*
X80280197Y-34200197D01*
X80321399Y-34172667D01*
X80370000Y-34163000D01*
X80750000Y-34163000D01*
X80798601Y-34172667D01*
X80839803Y-34200197D01*
X80854021Y-34221476D01*
X80905979Y-34221476D01*
X80920197Y-34200197D01*
X80961399Y-34172667D01*
X81010000Y-34163000D01*
X81390000Y-34163000D01*
X81438601Y-34172667D01*
X81479803Y-34200197D01*
X81494021Y-34221476D01*
X81545979Y-34221476D01*
X81560197Y-34200197D01*
X81601399Y-34172667D01*
X81650000Y-34163000D01*
X82030000Y-34163000D01*
X82078601Y-34172667D01*
X82119803Y-34200197D01*
X82134021Y-34221476D01*
X82185979Y-34221476D01*
X82200197Y-34200197D01*
X82241399Y-34172667D01*
X82290000Y-34163000D01*
X82670000Y-34163000D01*
X82718601Y-34172667D01*
X82759803Y-34200197D01*
X82774021Y-34221476D01*
X82825979Y-34221476D01*
X82840197Y-34200197D01*
X82881399Y-34172667D01*
X82930000Y-34163000D01*
X83310000Y-34163000D01*
X83358601Y-34172667D01*
X83399803Y-34200197D01*
X83414021Y-34221476D01*
X83465979Y-34221476D01*
X83480197Y-34200197D01*
X83521399Y-34172667D01*
X83570000Y-34163000D01*
X83950000Y-34163000D01*
X83998601Y-34172667D01*
X84039803Y-34200197D01*
X84054021Y-34221476D01*
X84105979Y-34221476D01*
X84120197Y-34200197D01*
X84161399Y-34172667D01*
X84210000Y-34163000D01*
X84590000Y-34163000D01*
X84638601Y-34172667D01*
X84679803Y-34200197D01*
X84694021Y-34221476D01*
X84745979Y-34221476D01*
X84760197Y-34200197D01*
X84801399Y-34172667D01*
X84850000Y-34163000D01*
X85230000Y-34163000D01*
X85278601Y-34172667D01*
X85319803Y-34200197D01*
X85334021Y-34221476D01*
X85385979Y-34221476D01*
X85400197Y-34200197D01*
X85441399Y-34172667D01*
X85490000Y-34163000D01*
X85870000Y-34163000D01*
X85918601Y-34172667D01*
X85959803Y-34200197D01*
X85974021Y-34221476D01*
X86025979Y-34221476D01*
X86040197Y-34200197D01*
X86081399Y-34172667D01*
X86130000Y-34163000D01*
X86510000Y-34163000D01*
X86558601Y-34172667D01*
X86599803Y-34200197D01*
X86614021Y-34221476D01*
X86665979Y-34221476D01*
X86680197Y-34200197D01*
X86721399Y-34172667D01*
X86770000Y-34163000D01*
X87150000Y-34163000D01*
X87198601Y-34172667D01*
X87239803Y-34200197D01*
X87254021Y-34221476D01*
X87305979Y-34221476D01*
X87320197Y-34200197D01*
X87361399Y-34172667D01*
X87410000Y-34163000D01*
X87790000Y-34163000D01*
X87838601Y-34172667D01*
X87879803Y-34200197D01*
X87907333Y-34241399D01*
X87917000Y-34290000D01*
X87917000Y-35310000D01*
X87907333Y-35358601D01*
X87879803Y-35399803D01*
X87838601Y-35427333D01*
X87790000Y-35437000D01*
X87410000Y-35437000D01*
X87361399Y-35427333D01*
X87320197Y-35399803D01*
X87305978Y-35378523D01*
X87254022Y-35378523D01*
X87239803Y-35399803D01*
X87198601Y-35427333D01*
X87150000Y-35437000D01*
X86770000Y-35437000D01*
X86721399Y-35427333D01*
X86680197Y-35399803D01*
X86665978Y-35378523D01*
X86614022Y-35378523D01*
X86599803Y-35399803D01*
X86558601Y-35427333D01*
X86510000Y-35437000D01*
X86130000Y-35437000D01*
X86081399Y-35427333D01*
X86040197Y-35399803D01*
X86025978Y-35378523D01*
X85974022Y-35378523D01*
X85959803Y-35399803D01*
X85918601Y-35427333D01*
X85870000Y-35437000D01*
X85490000Y-35437000D01*
X85441399Y-35427333D01*
X85400197Y-35399803D01*
X85385978Y-35378523D01*
X85334022Y-35378523D01*
X85319803Y-35399803D01*
X85278601Y-35427333D01*
X85230000Y-35437000D01*
X84850000Y-35437000D01*
X84801399Y-35427333D01*
X84760197Y-35399803D01*
X84745978Y-35378523D01*
X84694022Y-35378523D01*
X84679803Y-35399803D01*
X84638601Y-35427333D01*
X84590000Y-35437000D01*
X84210000Y-35437000D01*
X84161399Y-35427333D01*
X84120197Y-35399803D01*
X84105978Y-35378523D01*
X84054022Y-35378523D01*
X84039803Y-35399803D01*
X83998601Y-35427333D01*
X83950000Y-35437000D01*
X83570000Y-35437000D01*
X83521399Y-35427333D01*
X83480197Y-35399803D01*
X83465978Y-35378523D01*
X83414022Y-35378523D01*
X83399803Y-35399803D01*
X83358601Y-35427333D01*
X83310000Y-35437000D01*
X82930000Y-35437000D01*
X82881399Y-35427333D01*
X82840197Y-35399803D01*
X82825978Y-35378523D01*
X82774022Y-35378523D01*
X82759803Y-35399803D01*
X82718601Y-35427333D01*
X82670000Y-35437000D01*
X82290000Y-35437000D01*
X82241399Y-35427333D01*
X82200197Y-35399803D01*
X82185978Y-35378523D01*
X82134022Y-35378523D01*
X82119803Y-35399803D01*
X82078601Y-35427333D01*
X82030000Y-35437000D01*
X81650000Y-35437000D01*
X81601399Y-35427333D01*
X81560197Y-35399803D01*
X81545978Y-35378523D01*
X81494022Y-35378523D01*
X81479803Y-35399803D01*
X81438601Y-35427333D01*
X81390000Y-35437000D01*
X81010000Y-35437000D01*
X80961399Y-35427333D01*
X80920197Y-35399803D01*
X80905978Y-35378523D01*
X80854022Y-35378523D01*
X80839803Y-35399803D01*
X80798601Y-35427333D01*
X80750000Y-35437000D01*
X80370000Y-35437000D01*
X80321399Y-35427333D01*
X80280197Y-35399803D01*
X80265978Y-35378523D01*
X80214022Y-35378523D01*
X80199803Y-35399803D01*
X80158601Y-35427333D01*
X80110000Y-35437000D01*
X79730000Y-35437000D01*
X79681399Y-35427333D01*
X79640197Y-35399803D01*
X79625978Y-35378523D01*
X79574022Y-35378523D01*
X79559803Y-35399803D01*
X79518601Y-35427333D01*
X79470000Y-35437000D01*
X79090000Y-35437000D01*
X79041399Y-35427333D01*
X79000197Y-35399803D01*
X78985978Y-35378523D01*
X78934022Y-35378523D01*
X78919803Y-35399803D01*
X78878601Y-35427333D01*
X78830000Y-35437000D01*
X78450000Y-35437000D01*
X78401399Y-35427333D01*
X78360197Y-35399803D01*
X78345978Y-35378523D01*
X78294022Y-35378523D01*
X78279803Y-35399803D01*
X78238601Y-35427333D01*
X78190000Y-35437000D01*
X77810000Y-35437000D01*
X77761399Y-35427333D01*
X77720197Y-35399803D01*
X77705978Y-35378523D01*
X77654022Y-35378523D01*
X77639803Y-35399803D01*
X77598601Y-35427333D01*
X77550000Y-35437000D01*
X77170000Y-35437000D01*
X77121399Y-35427333D01*
X77080197Y-35399803D01*
X77065978Y-35378523D01*
X77014022Y-35378523D01*
X76999803Y-35399803D01*
X76958601Y-35427333D01*
X76910000Y-35437000D01*
X76530000Y-35437000D01*
X76481399Y-35427333D01*
X76440197Y-35399803D01*
X76412667Y-35358601D01*
X76403000Y-35310000D01*
X76403000Y-34290000D01*
X76412667Y-34241399D01*
X76440197Y-34200197D01*
X76481399Y-34172667D01*
X76530000Y-34163000D01*
X76910000Y-34163000D01*
X76958601Y-34172667D01*
G37*
G36*
X101298601Y-34172667D02*
G01*
X101339803Y-34200197D01*
X101354021Y-34221476D01*
X101405979Y-34221476D01*
X101420197Y-34200197D01*
X101461399Y-34172667D01*
X101510000Y-34163000D01*
X101890000Y-34163000D01*
X101938601Y-34172667D01*
X101979803Y-34200197D01*
X101994021Y-34221476D01*
X102045979Y-34221476D01*
X102060197Y-34200197D01*
X102101399Y-34172667D01*
X102150000Y-34163000D01*
X102530000Y-34163000D01*
X102578601Y-34172667D01*
X102619803Y-34200197D01*
X102634021Y-34221476D01*
X102685979Y-34221476D01*
X102700197Y-34200197D01*
X102741399Y-34172667D01*
X102790000Y-34163000D01*
X103170000Y-34163000D01*
X103218601Y-34172667D01*
X103259803Y-34200197D01*
X103274021Y-34221476D01*
X103325979Y-34221476D01*
X103340197Y-34200197D01*
X103381399Y-34172667D01*
X103430000Y-34163000D01*
X103810000Y-34163000D01*
X103858601Y-34172667D01*
X103899803Y-34200197D01*
X103914021Y-34221476D01*
X103965979Y-34221476D01*
X103980197Y-34200197D01*
X104021399Y-34172667D01*
X104070000Y-34163000D01*
X104450000Y-34163000D01*
X104498601Y-34172667D01*
X104539803Y-34200197D01*
X104554021Y-34221476D01*
X104605979Y-34221476D01*
X104620197Y-34200197D01*
X104661399Y-34172667D01*
X104710000Y-34163000D01*
X105090000Y-34163000D01*
X105138601Y-34172667D01*
X105179803Y-34200197D01*
X105194021Y-34221476D01*
X105245979Y-34221476D01*
X105260197Y-34200197D01*
X105301399Y-34172667D01*
X105350000Y-34163000D01*
X105730000Y-34163000D01*
X105778601Y-34172667D01*
X105819803Y-34200197D01*
X105834021Y-34221476D01*
X105885979Y-34221476D01*
X105900197Y-34200197D01*
X105941399Y-34172667D01*
X105990000Y-34163000D01*
X106370000Y-34163000D01*
X106418601Y-34172667D01*
X106459803Y-34200197D01*
X106474021Y-34221476D01*
X106525979Y-34221476D01*
X106540197Y-34200197D01*
X106581399Y-34172667D01*
X106630000Y-34163000D01*
X107010000Y-34163000D01*
X107058601Y-34172667D01*
X107099803Y-34200197D01*
X107114021Y-34221476D01*
X107165979Y-34221476D01*
X107180197Y-34200197D01*
X107221399Y-34172667D01*
X107270000Y-34163000D01*
X107650000Y-34163000D01*
X107698601Y-34172667D01*
X107739803Y-34200197D01*
X107754021Y-34221476D01*
X107805979Y-34221476D01*
X107820197Y-34200197D01*
X107861399Y-34172667D01*
X107910000Y-34163000D01*
X108290000Y-34163000D01*
X108338601Y-34172667D01*
X108379803Y-34200197D01*
X108394021Y-34221476D01*
X108445979Y-34221476D01*
X108460197Y-34200197D01*
X108501399Y-34172667D01*
X108550000Y-34163000D01*
X108930000Y-34163000D01*
X108978601Y-34172667D01*
X109019803Y-34200197D01*
X109034021Y-34221476D01*
X109085979Y-34221476D01*
X109100197Y-34200197D01*
X109141399Y-34172667D01*
X109190000Y-34163000D01*
X109570000Y-34163000D01*
X109618601Y-34172667D01*
X109659803Y-34200197D01*
X109674021Y-34221476D01*
X109725979Y-34221476D01*
X109740197Y-34200197D01*
X109781399Y-34172667D01*
X109830000Y-34163000D01*
X110210000Y-34163000D01*
X110258601Y-34172667D01*
X110299803Y-34200197D01*
X110314021Y-34221476D01*
X110365979Y-34221476D01*
X110380197Y-34200197D01*
X110421399Y-34172667D01*
X110470000Y-34163000D01*
X110850000Y-34163000D01*
X110898601Y-34172667D01*
X110939803Y-34200197D01*
X110954021Y-34221476D01*
X111005979Y-34221476D01*
X111020197Y-34200197D01*
X111061399Y-34172667D01*
X111110000Y-34163000D01*
X111490000Y-34163000D01*
X111538601Y-34172667D01*
X111579803Y-34200197D01*
X111594021Y-34221476D01*
X111645979Y-34221476D01*
X111660197Y-34200197D01*
X111701399Y-34172667D01*
X111750000Y-34163000D01*
X112130000Y-34163000D01*
X112178601Y-34172667D01*
X112219803Y-34200197D01*
X112247333Y-34241399D01*
X112257000Y-34290000D01*
X112257000Y-35310000D01*
X112247333Y-35358601D01*
X112219803Y-35399803D01*
X112178601Y-35427333D01*
X112130000Y-35437000D01*
X111750000Y-35437000D01*
X111701399Y-35427333D01*
X111660197Y-35399803D01*
X111645978Y-35378523D01*
X111594022Y-35378523D01*
X111579803Y-35399803D01*
X111538601Y-35427333D01*
X111490000Y-35437000D01*
X111110000Y-35437000D01*
X111061399Y-35427333D01*
X111020197Y-35399803D01*
X111005978Y-35378523D01*
X110954022Y-35378523D01*
X110939803Y-35399803D01*
X110898601Y-35427333D01*
X110850000Y-35437000D01*
X110470000Y-35437000D01*
X110421399Y-35427333D01*
X110380197Y-35399803D01*
X110365978Y-35378523D01*
X110314022Y-35378523D01*
X110299803Y-35399803D01*
X110258601Y-35427333D01*
X110210000Y-35437000D01*
X109830000Y-35437000D01*
X109781399Y-35427333D01*
X109740197Y-35399803D01*
X109725978Y-35378523D01*
X109674022Y-35378523D01*
X109659803Y-35399803D01*
X109618601Y-35427333D01*
X109570000Y-35437000D01*
X109190000Y-35437000D01*
X109141399Y-35427333D01*
X109100197Y-35399803D01*
X109085978Y-35378523D01*
X109034022Y-35378523D01*
X109019803Y-35399803D01*
X108978601Y-35427333D01*
X108930000Y-35437000D01*
X108550000Y-35437000D01*
X108501399Y-35427333D01*
X108460197Y-35399803D01*
X108445978Y-35378523D01*
X108394022Y-35378523D01*
X108379803Y-35399803D01*
X108338601Y-35427333D01*
X108290000Y-35437000D01*
X107910000Y-35437000D01*
X107861399Y-35427333D01*
X107820197Y-35399803D01*
X107805978Y-35378523D01*
X107754022Y-35378523D01*
X107739803Y-35399803D01*
X107698601Y-35427333D01*
X107650000Y-35437000D01*
X107270000Y-35437000D01*
X107221399Y-35427333D01*
X107180197Y-35399803D01*
X107165978Y-35378523D01*
X107114022Y-35378523D01*
X107099803Y-35399803D01*
X107058601Y-35427333D01*
X107010000Y-35437000D01*
X106630000Y-35437000D01*
X106581399Y-35427333D01*
X106540197Y-35399803D01*
X106525978Y-35378523D01*
X106474022Y-35378523D01*
X106459803Y-35399803D01*
X106418601Y-35427333D01*
X106370000Y-35437000D01*
X105990000Y-35437000D01*
X105941399Y-35427333D01*
X105900197Y-35399803D01*
X105885978Y-35378523D01*
X105834022Y-35378523D01*
X105819803Y-35399803D01*
X105778601Y-35427333D01*
X105730000Y-35437000D01*
X105350000Y-35437000D01*
X105301399Y-35427333D01*
X105260197Y-35399803D01*
X105245978Y-35378523D01*
X105194022Y-35378523D01*
X105179803Y-35399803D01*
X105138601Y-35427333D01*
X105090000Y-35437000D01*
X104710000Y-35437000D01*
X104661399Y-35427333D01*
X104620197Y-35399803D01*
X104605978Y-35378523D01*
X104554022Y-35378523D01*
X104539803Y-35399803D01*
X104498601Y-35427333D01*
X104450000Y-35437000D01*
X104070000Y-35437000D01*
X104021399Y-35427333D01*
X103980197Y-35399803D01*
X103965978Y-35378523D01*
X103914022Y-35378523D01*
X103899803Y-35399803D01*
X103858601Y-35427333D01*
X103810000Y-35437000D01*
X103430000Y-35437000D01*
X103381399Y-35427333D01*
X103340197Y-35399803D01*
X103325978Y-35378523D01*
X103274022Y-35378523D01*
X103259803Y-35399803D01*
X103218601Y-35427333D01*
X103170000Y-35437000D01*
X102790000Y-35437000D01*
X102741399Y-35427333D01*
X102700197Y-35399803D01*
X102685978Y-35378523D01*
X102634022Y-35378523D01*
X102619803Y-35399803D01*
X102578601Y-35427333D01*
X102530000Y-35437000D01*
X102150000Y-35437000D01*
X102101399Y-35427333D01*
X102060197Y-35399803D01*
X102045978Y-35378523D01*
X101994022Y-35378523D01*
X101979803Y-35399803D01*
X101938601Y-35427333D01*
X101890000Y-35437000D01*
X101510000Y-35437000D01*
X101461399Y-35427333D01*
X101420197Y-35399803D01*
X101405978Y-35378523D01*
X101354022Y-35378523D01*
X101339803Y-35399803D01*
X101298601Y-35427333D01*
X101250000Y-35437000D01*
X100870000Y-35437000D01*
X100821399Y-35427333D01*
X100780197Y-35399803D01*
X100752667Y-35358601D01*
X100743000Y-35310000D01*
X100743000Y-34290000D01*
X100752667Y-34241399D01*
X100780197Y-34200197D01*
X100821399Y-34172667D01*
X100870000Y-34163000D01*
X101250000Y-34163000D01*
X101298601Y-34172667D01*
G37*
G36*
X120498601Y-34172667D02*
G01*
X120539803Y-34200197D01*
X120554021Y-34221476D01*
X120605979Y-34221476D01*
X120620197Y-34200197D01*
X120661399Y-34172667D01*
X120710000Y-34163000D01*
X121090000Y-34163000D01*
X121138601Y-34172667D01*
X121179803Y-34200197D01*
X121194021Y-34221476D01*
X121245979Y-34221476D01*
X121260197Y-34200197D01*
X121301399Y-34172667D01*
X121350000Y-34163000D01*
X121730000Y-34163000D01*
X121778601Y-34172667D01*
X121819803Y-34200197D01*
X121834021Y-34221476D01*
X121885979Y-34221476D01*
X121900197Y-34200197D01*
X121941399Y-34172667D01*
X121990000Y-34163000D01*
X122370000Y-34163000D01*
X122418601Y-34172667D01*
X122459803Y-34200197D01*
X122474021Y-34221476D01*
X122525979Y-34221476D01*
X122540197Y-34200197D01*
X122581399Y-34172667D01*
X122630000Y-34163000D01*
X123010000Y-34163000D01*
X123058601Y-34172667D01*
X123099803Y-34200197D01*
X123114021Y-34221476D01*
X123165979Y-34221476D01*
X123180197Y-34200197D01*
X123221399Y-34172667D01*
X123270000Y-34163000D01*
X123650000Y-34163000D01*
X123698601Y-34172667D01*
X123739803Y-34200197D01*
X123754021Y-34221476D01*
X123805979Y-34221476D01*
X123820197Y-34200197D01*
X123861399Y-34172667D01*
X123910000Y-34163000D01*
X124290000Y-34163000D01*
X124338601Y-34172667D01*
X124379803Y-34200197D01*
X124394021Y-34221476D01*
X124445979Y-34221476D01*
X124460197Y-34200197D01*
X124501399Y-34172667D01*
X124550000Y-34163000D01*
X124930000Y-34163000D01*
X124978601Y-34172667D01*
X125019803Y-34200197D01*
X125034021Y-34221476D01*
X125085979Y-34221476D01*
X125100197Y-34200197D01*
X125141399Y-34172667D01*
X125190000Y-34163000D01*
X125570000Y-34163000D01*
X125618601Y-34172667D01*
X125659803Y-34200197D01*
X125674021Y-34221476D01*
X125725979Y-34221476D01*
X125740197Y-34200197D01*
X125781399Y-34172667D01*
X125830000Y-34163000D01*
X126210000Y-34163000D01*
X126258601Y-34172667D01*
X126299803Y-34200197D01*
X126314021Y-34221476D01*
X126365979Y-34221476D01*
X126380197Y-34200197D01*
X126421399Y-34172667D01*
X126470000Y-34163000D01*
X126850000Y-34163000D01*
X126898601Y-34172667D01*
X126939803Y-34200197D01*
X126954021Y-34221476D01*
X127005979Y-34221476D01*
X127020197Y-34200197D01*
X127061399Y-34172667D01*
X127110000Y-34163000D01*
X127490000Y-34163000D01*
X127538601Y-34172667D01*
X127579803Y-34200197D01*
X127594021Y-34221476D01*
X127645979Y-34221476D01*
X127660197Y-34200197D01*
X127701399Y-34172667D01*
X127750000Y-34163000D01*
X128130000Y-34163000D01*
X128178601Y-34172667D01*
X128219803Y-34200197D01*
X128234021Y-34221476D01*
X128285979Y-34221476D01*
X128300197Y-34200197D01*
X128341399Y-34172667D01*
X128390000Y-34163000D01*
X128770000Y-34163000D01*
X128818601Y-34172667D01*
X128859803Y-34200197D01*
X128874021Y-34221476D01*
X128925979Y-34221476D01*
X128940197Y-34200197D01*
X128981399Y-34172667D01*
X129030000Y-34163000D01*
X129410000Y-34163000D01*
X129458601Y-34172667D01*
X129499803Y-34200197D01*
X129514021Y-34221476D01*
X129565979Y-34221476D01*
X129580197Y-34200197D01*
X129621399Y-34172667D01*
X129670000Y-34163000D01*
X130050000Y-34163000D01*
X130098601Y-34172667D01*
X130139803Y-34200197D01*
X130154021Y-34221476D01*
X130205979Y-34221476D01*
X130220197Y-34200197D01*
X130261399Y-34172667D01*
X130310000Y-34163000D01*
X130690000Y-34163000D01*
X130738601Y-34172667D01*
X130779803Y-34200197D01*
X130794021Y-34221476D01*
X130845979Y-34221476D01*
X130860197Y-34200197D01*
X130901399Y-34172667D01*
X130950000Y-34163000D01*
X131330000Y-34163000D01*
X131378601Y-34172667D01*
X131419803Y-34200197D01*
X131447333Y-34241399D01*
X131457000Y-34290000D01*
X131457000Y-35310000D01*
X131447333Y-35358601D01*
X131419803Y-35399803D01*
X131378601Y-35427333D01*
X131330000Y-35437000D01*
X130950000Y-35437000D01*
X130901399Y-35427333D01*
X130860197Y-35399803D01*
X130845978Y-35378523D01*
X130794022Y-35378523D01*
X130779803Y-35399803D01*
X130738601Y-35427333D01*
X130690000Y-35437000D01*
X130310000Y-35437000D01*
X130261399Y-35427333D01*
X130220197Y-35399803D01*
X130205978Y-35378523D01*
X130154022Y-35378523D01*
X130139803Y-35399803D01*
X130098601Y-35427333D01*
X130050000Y-35437000D01*
X129670000Y-35437000D01*
X129621399Y-35427333D01*
X129580197Y-35399803D01*
X129565978Y-35378523D01*
X129514022Y-35378523D01*
X129499803Y-35399803D01*
X129458601Y-35427333D01*
X129410000Y-35437000D01*
X129030000Y-35437000D01*
X128981399Y-35427333D01*
X128940197Y-35399803D01*
X128925978Y-35378523D01*
X128874022Y-35378523D01*
X128859803Y-35399803D01*
X128818601Y-35427333D01*
X128770000Y-35437000D01*
X128390000Y-35437000D01*
X128341399Y-35427333D01*
X128300197Y-35399803D01*
X128285978Y-35378523D01*
X128234022Y-35378523D01*
X128219803Y-35399803D01*
X128178601Y-35427333D01*
X128130000Y-35437000D01*
X127750000Y-35437000D01*
X127701399Y-35427333D01*
X127660197Y-35399803D01*
X127645978Y-35378523D01*
X127594022Y-35378523D01*
X127579803Y-35399803D01*
X127538601Y-35427333D01*
X127490000Y-35437000D01*
X127110000Y-35437000D01*
X127061399Y-35427333D01*
X127020197Y-35399803D01*
X127005978Y-35378523D01*
X126954022Y-35378523D01*
X126939803Y-35399803D01*
X126898601Y-35427333D01*
X126850000Y-35437000D01*
X126470000Y-35437000D01*
X126421399Y-35427333D01*
X126380197Y-35399803D01*
X126365978Y-35378523D01*
X126314022Y-35378523D01*
X126299803Y-35399803D01*
X126258601Y-35427333D01*
X126210000Y-35437000D01*
X125830000Y-35437000D01*
X125781399Y-35427333D01*
X125740197Y-35399803D01*
X125725978Y-35378523D01*
X125674022Y-35378523D01*
X125659803Y-35399803D01*
X125618601Y-35427333D01*
X125570000Y-35437000D01*
X125190000Y-35437000D01*
X125141399Y-35427333D01*
X125100197Y-35399803D01*
X125085978Y-35378523D01*
X125034022Y-35378523D01*
X125019803Y-35399803D01*
X124978601Y-35427333D01*
X124930000Y-35437000D01*
X124550000Y-35437000D01*
X124501399Y-35427333D01*
X124460197Y-35399803D01*
X124445978Y-35378523D01*
X124394022Y-35378523D01*
X124379803Y-35399803D01*
X124338601Y-35427333D01*
X124290000Y-35437000D01*
X123910000Y-35437000D01*
X123861399Y-35427333D01*
X123820197Y-35399803D01*
X123805978Y-35378523D01*
X123754022Y-35378523D01*
X123739803Y-35399803D01*
X123698601Y-35427333D01*
X123650000Y-35437000D01*
X123270000Y-35437000D01*
X123221399Y-35427333D01*
X123180197Y-35399803D01*
X123165978Y-35378523D01*
X123114022Y-35378523D01*
X123099803Y-35399803D01*
X123058601Y-35427333D01*
X123010000Y-35437000D01*
X122630000Y-35437000D01*
X122581399Y-35427333D01*
X122540197Y-35399803D01*
X122525978Y-35378523D01*
X122474022Y-35378523D01*
X122459803Y-35399803D01*
X122418601Y-35427333D01*
X122370000Y-35437000D01*
X121990000Y-35437000D01*
X121941399Y-35427333D01*
X121900197Y-35399803D01*
X121885978Y-35378523D01*
X121834022Y-35378523D01*
X121819803Y-35399803D01*
X121778601Y-35427333D01*
X121730000Y-35437000D01*
X121350000Y-35437000D01*
X121301399Y-35427333D01*
X121260197Y-35399803D01*
X121245978Y-35378523D01*
X121194022Y-35378523D01*
X121179803Y-35399803D01*
X121138601Y-35427333D01*
X121090000Y-35437000D01*
X120710000Y-35437000D01*
X120661399Y-35427333D01*
X120620197Y-35399803D01*
X120605978Y-35378523D01*
X120554022Y-35378523D01*
X120539803Y-35399803D01*
X120498601Y-35427333D01*
X120450000Y-35437000D01*
X120070000Y-35437000D01*
X120021399Y-35427333D01*
X119980197Y-35399803D01*
X119952667Y-35358601D01*
X119943000Y-35310000D01*
X119943000Y-34290000D01*
X119952667Y-34241399D01*
X119980197Y-34200197D01*
X120021399Y-34172667D01*
X120070000Y-34163000D01*
X120450000Y-34163000D01*
X120498601Y-34172667D01*
G37*
G36*
X139698601Y-34172667D02*
G01*
X139739803Y-34200197D01*
X139754021Y-34221476D01*
X139805979Y-34221476D01*
X139820197Y-34200197D01*
X139861399Y-34172667D01*
X139910000Y-34163000D01*
X140290000Y-34163000D01*
X140338601Y-34172667D01*
X140379803Y-34200197D01*
X140394021Y-34221476D01*
X140445979Y-34221476D01*
X140460197Y-34200197D01*
X140501399Y-34172667D01*
X140550000Y-34163000D01*
X140930000Y-34163000D01*
X140978601Y-34172667D01*
X141019803Y-34200197D01*
X141034021Y-34221476D01*
X141085979Y-34221476D01*
X141100197Y-34200197D01*
X141141399Y-34172667D01*
X141190000Y-34163000D01*
X141570000Y-34163000D01*
X141618601Y-34172667D01*
X141659803Y-34200197D01*
X141674021Y-34221476D01*
X141725979Y-34221476D01*
X141740197Y-34200197D01*
X141781399Y-34172667D01*
X141830000Y-34163000D01*
X142210000Y-34163000D01*
X142258601Y-34172667D01*
X142299803Y-34200197D01*
X142314021Y-34221476D01*
X142365979Y-34221476D01*
X142380197Y-34200197D01*
X142421399Y-34172667D01*
X142470000Y-34163000D01*
X142850000Y-34163000D01*
X142898601Y-34172667D01*
X142939803Y-34200197D01*
X142954021Y-34221476D01*
X143005979Y-34221476D01*
X143020197Y-34200197D01*
X143061399Y-34172667D01*
X143110000Y-34163000D01*
X143490000Y-34163000D01*
X143538601Y-34172667D01*
X143579803Y-34200197D01*
X143594021Y-34221476D01*
X143645979Y-34221476D01*
X143660197Y-34200197D01*
X143701399Y-34172667D01*
X143750000Y-34163000D01*
X144130000Y-34163000D01*
X144178601Y-34172667D01*
X144219803Y-34200197D01*
X144234021Y-34221476D01*
X144285979Y-34221476D01*
X144300197Y-34200197D01*
X144341399Y-34172667D01*
X144390000Y-34163000D01*
X144770000Y-34163000D01*
X144818601Y-34172667D01*
X144859803Y-34200197D01*
X144874021Y-34221476D01*
X144925979Y-34221476D01*
X144940197Y-34200197D01*
X144981399Y-34172667D01*
X145030000Y-34163000D01*
X145410000Y-34163000D01*
X145458601Y-34172667D01*
X145499803Y-34200197D01*
X145514021Y-34221476D01*
X145565979Y-34221476D01*
X145580197Y-34200197D01*
X145621399Y-34172667D01*
X145670000Y-34163000D01*
X146050000Y-34163000D01*
X146098601Y-34172667D01*
X146139803Y-34200197D01*
X146154021Y-34221476D01*
X146205979Y-34221476D01*
X146220197Y-34200197D01*
X146261399Y-34172667D01*
X146310000Y-34163000D01*
X146690000Y-34163000D01*
X146738601Y-34172667D01*
X146779803Y-34200197D01*
X146794021Y-34221476D01*
X146845979Y-34221476D01*
X146860197Y-34200197D01*
X146901399Y-34172667D01*
X146950000Y-34163000D01*
X147330000Y-34163000D01*
X147378601Y-34172667D01*
X147419803Y-34200197D01*
X147434021Y-34221476D01*
X147485979Y-34221476D01*
X147500197Y-34200197D01*
X147541399Y-34172667D01*
X147590000Y-34163000D01*
X147970000Y-34163000D01*
X148018601Y-34172667D01*
X148059803Y-34200197D01*
X148074021Y-34221476D01*
X148125979Y-34221476D01*
X148140197Y-34200197D01*
X148181399Y-34172667D01*
X148230000Y-34163000D01*
X148610000Y-34163000D01*
X148658601Y-34172667D01*
X148699803Y-34200197D01*
X148714021Y-34221476D01*
X148765979Y-34221476D01*
X148780197Y-34200197D01*
X148821399Y-34172667D01*
X148870000Y-34163000D01*
X149250000Y-34163000D01*
X149298601Y-34172667D01*
X149339803Y-34200197D01*
X149354021Y-34221476D01*
X149405979Y-34221476D01*
X149420197Y-34200197D01*
X149461399Y-34172667D01*
X149510000Y-34163000D01*
X149890000Y-34163000D01*
X149938601Y-34172667D01*
X149979803Y-34200197D01*
X149994021Y-34221476D01*
X150045979Y-34221476D01*
X150060197Y-34200197D01*
X150101399Y-34172667D01*
X150150000Y-34163000D01*
X150530000Y-34163000D01*
X150578601Y-34172667D01*
X150619803Y-34200197D01*
X150647333Y-34241399D01*
X150657000Y-34290000D01*
X150657000Y-35310000D01*
X150647333Y-35358601D01*
X150619803Y-35399803D01*
X150578601Y-35427333D01*
X150530000Y-35437000D01*
X150150000Y-35437000D01*
X150101399Y-35427333D01*
X150060197Y-35399803D01*
X150045978Y-35378523D01*
X149994022Y-35378523D01*
X149979803Y-35399803D01*
X149938601Y-35427333D01*
X149890000Y-35437000D01*
X149510000Y-35437000D01*
X149461399Y-35427333D01*
X149420197Y-35399803D01*
X149405978Y-35378523D01*
X149354022Y-35378523D01*
X149339803Y-35399803D01*
X149298601Y-35427333D01*
X149250000Y-35437000D01*
X148870000Y-35437000D01*
X148821399Y-35427333D01*
X148780197Y-35399803D01*
X148765978Y-35378523D01*
X148714022Y-35378523D01*
X148699803Y-35399803D01*
X148658601Y-35427333D01*
X148610000Y-35437000D01*
X148230000Y-35437000D01*
X148181399Y-35427333D01*
X148140197Y-35399803D01*
X148125978Y-35378523D01*
X148074022Y-35378523D01*
X148059803Y-35399803D01*
X148018601Y-35427333D01*
X147970000Y-35437000D01*
X147590000Y-35437000D01*
X147541399Y-35427333D01*
X147500197Y-35399803D01*
X147485978Y-35378523D01*
X147434022Y-35378523D01*
X147419803Y-35399803D01*
X147378601Y-35427333D01*
X147330000Y-35437000D01*
X146950000Y-35437000D01*
X146901399Y-35427333D01*
X146860197Y-35399803D01*
X146845978Y-35378523D01*
X146794022Y-35378523D01*
X146779803Y-35399803D01*
X146738601Y-35427333D01*
X146690000Y-35437000D01*
X146310000Y-35437000D01*
X146261399Y-35427333D01*
X146220197Y-35399803D01*
X146205978Y-35378523D01*
X146154022Y-35378523D01*
X146139803Y-35399803D01*
X146098601Y-35427333D01*
X146050000Y-35437000D01*
X145670000Y-35437000D01*
X145621399Y-35427333D01*
X145580197Y-35399803D01*
X145565978Y-35378523D01*
X145514022Y-35378523D01*
X145499803Y-35399803D01*
X145458601Y-35427333D01*
X145410000Y-35437000D01*
X145030000Y-35437000D01*
X144981399Y-35427333D01*
X144940197Y-35399803D01*
X144925978Y-35378523D01*
X144874022Y-35378523D01*
X144859803Y-35399803D01*
X144818601Y-35427333D01*
X144770000Y-35437000D01*
X144390000Y-35437000D01*
X144341399Y-35427333D01*
X144300197Y-35399803D01*
X144285978Y-35378523D01*
X144234022Y-35378523D01*
X144219803Y-35399803D01*
X144178601Y-35427333D01*
X144130000Y-35437000D01*
X143750000Y-35437000D01*
X143701399Y-35427333D01*
X143660197Y-35399803D01*
X143645978Y-35378523D01*
X143594022Y-35378523D01*
X143579803Y-35399803D01*
X143538601Y-35427333D01*
X143490000Y-35437000D01*
X143110000Y-35437000D01*
X143061399Y-35427333D01*
X143020197Y-35399803D01*
X143005978Y-35378523D01*
X142954022Y-35378523D01*
X142939803Y-35399803D01*
X142898601Y-35427333D01*
X142850000Y-35437000D01*
X142470000Y-35437000D01*
X142421399Y-35427333D01*
X142380197Y-35399803D01*
X142365978Y-35378523D01*
X142314022Y-35378523D01*
X142299803Y-35399803D01*
X142258601Y-35427333D01*
X142210000Y-35437000D01*
X141830000Y-35437000D01*
X141781399Y-35427333D01*
X141740197Y-35399803D01*
X141725978Y-35378523D01*
X141674022Y-35378523D01*
X141659803Y-35399803D01*
X141618601Y-35427333D01*
X141570000Y-35437000D01*
X141190000Y-35437000D01*
X141141399Y-35427333D01*
X141100197Y-35399803D01*
X141085978Y-35378523D01*
X141034022Y-35378523D01*
X141019803Y-35399803D01*
X140978601Y-35427333D01*
X140930000Y-35437000D01*
X140550000Y-35437000D01*
X140501399Y-35427333D01*
X140460197Y-35399803D01*
X140445978Y-35378523D01*
X140394022Y-35378523D01*
X140379803Y-35399803D01*
X140338601Y-35427333D01*
X140290000Y-35437000D01*
X139910000Y-35437000D01*
X139861399Y-35427333D01*
X139820197Y-35399803D01*
X139805978Y-35378523D01*
X139754022Y-35378523D01*
X139739803Y-35399803D01*
X139698601Y-35427333D01*
X139650000Y-35437000D01*
X139270000Y-35437000D01*
X139221399Y-35427333D01*
X139180197Y-35399803D01*
X139152667Y-35358601D01*
X139143000Y-35310000D01*
X139143000Y-34290000D01*
X139152667Y-34241399D01*
X139180197Y-34200197D01*
X139221399Y-34172667D01*
X139270000Y-34163000D01*
X139650000Y-34163000D01*
X139698601Y-34172667D01*
G37*
G36*
X30238601Y-28402667D02*
G01*
X30279803Y-28430197D01*
X30294021Y-28451476D01*
X30345979Y-28451476D01*
X30360197Y-28430197D01*
X30401399Y-28402667D01*
X30450000Y-28393000D01*
X30830000Y-28393000D01*
X30878601Y-28402667D01*
X30919803Y-28430197D01*
X30934021Y-28451476D01*
X30985979Y-28451476D01*
X31000197Y-28430197D01*
X31041399Y-28402667D01*
X31090000Y-28393000D01*
X31470000Y-28393000D01*
X31518601Y-28402667D01*
X31559803Y-28430197D01*
X31574021Y-28451476D01*
X31625979Y-28451476D01*
X31640197Y-28430197D01*
X31681399Y-28402667D01*
X31730000Y-28393000D01*
X32110000Y-28393000D01*
X32158601Y-28402667D01*
X32199803Y-28430197D01*
X32214021Y-28451476D01*
X32265979Y-28451476D01*
X32280197Y-28430197D01*
X32321399Y-28402667D01*
X32370000Y-28393000D01*
X32750000Y-28393000D01*
X32798601Y-28402667D01*
X32839803Y-28430197D01*
X32854021Y-28451476D01*
X32905979Y-28451476D01*
X32920197Y-28430197D01*
X32961399Y-28402667D01*
X33010000Y-28393000D01*
X33390000Y-28393000D01*
X33438601Y-28402667D01*
X33479803Y-28430197D01*
X33494021Y-28451476D01*
X33545979Y-28451476D01*
X33560197Y-28430197D01*
X33601399Y-28402667D01*
X33650000Y-28393000D01*
X34030000Y-28393000D01*
X34078601Y-28402667D01*
X34119803Y-28430197D01*
X34134021Y-28451476D01*
X34185979Y-28451476D01*
X34200197Y-28430197D01*
X34241399Y-28402667D01*
X34290000Y-28393000D01*
X34670000Y-28393000D01*
X34718601Y-28402667D01*
X34759803Y-28430197D01*
X34774021Y-28451476D01*
X34825979Y-28451476D01*
X34840197Y-28430197D01*
X34881399Y-28402667D01*
X34930000Y-28393000D01*
X35310000Y-28393000D01*
X35358601Y-28402667D01*
X35399803Y-28430197D01*
X35414021Y-28451476D01*
X35465979Y-28451476D01*
X35480197Y-28430197D01*
X35521399Y-28402667D01*
X35570000Y-28393000D01*
X35950000Y-28393000D01*
X35998601Y-28402667D01*
X36039803Y-28430197D01*
X36054021Y-28451476D01*
X36105979Y-28451476D01*
X36120197Y-28430197D01*
X36161399Y-28402667D01*
X36210000Y-28393000D01*
X36590000Y-28393000D01*
X36638601Y-28402667D01*
X36679803Y-28430197D01*
X36694021Y-28451476D01*
X36745979Y-28451476D01*
X36760197Y-28430197D01*
X36801399Y-28402667D01*
X36850000Y-28393000D01*
X37230000Y-28393000D01*
X37278601Y-28402667D01*
X37319803Y-28430197D01*
X37334021Y-28451476D01*
X37385979Y-28451476D01*
X37400197Y-28430197D01*
X37441399Y-28402667D01*
X37490000Y-28393000D01*
X37870000Y-28393000D01*
X37918601Y-28402667D01*
X37959803Y-28430197D01*
X37974021Y-28451476D01*
X38025979Y-28451476D01*
X38040197Y-28430197D01*
X38081399Y-28402667D01*
X38130000Y-28393000D01*
X38510000Y-28393000D01*
X38558601Y-28402667D01*
X38599803Y-28430197D01*
X38614021Y-28451476D01*
X38665979Y-28451476D01*
X38680197Y-28430197D01*
X38721399Y-28402667D01*
X38770000Y-28393000D01*
X39150000Y-28393000D01*
X39198601Y-28402667D01*
X39239803Y-28430197D01*
X39254021Y-28451476D01*
X39305979Y-28451476D01*
X39320197Y-28430197D01*
X39361399Y-28402667D01*
X39410000Y-28393000D01*
X39790000Y-28393000D01*
X39838601Y-28402667D01*
X39879803Y-28430197D01*
X39894021Y-28451476D01*
X39945979Y-28451476D01*
X39960197Y-28430197D01*
X40001399Y-28402667D01*
X40050000Y-28393000D01*
X40430000Y-28393000D01*
X40478601Y-28402667D01*
X40519803Y-28430197D01*
X40534021Y-28451476D01*
X40585979Y-28451476D01*
X40600197Y-28430197D01*
X40641399Y-28402667D01*
X40690000Y-28393000D01*
X41070000Y-28393000D01*
X41118601Y-28402667D01*
X41159803Y-28430197D01*
X41187333Y-28471399D01*
X41197000Y-28520000D01*
X41197000Y-29540000D01*
X41187333Y-29588601D01*
X41159803Y-29629803D01*
X41118601Y-29657333D01*
X41070000Y-29667000D01*
X40690000Y-29667000D01*
X40641399Y-29657333D01*
X40600197Y-29629803D01*
X40585978Y-29608523D01*
X40534022Y-29608523D01*
X40519803Y-29629803D01*
X40478601Y-29657333D01*
X40430000Y-29667000D01*
X40050000Y-29667000D01*
X40001399Y-29657333D01*
X39960197Y-29629803D01*
X39945978Y-29608523D01*
X39894022Y-29608523D01*
X39879803Y-29629803D01*
X39838601Y-29657333D01*
X39790000Y-29667000D01*
X39410000Y-29667000D01*
X39361399Y-29657333D01*
X39320197Y-29629803D01*
X39305978Y-29608523D01*
X39254022Y-29608523D01*
X39239803Y-29629803D01*
X39198601Y-29657333D01*
X39150000Y-29667000D01*
X38770000Y-29667000D01*
X38721399Y-29657333D01*
X38680197Y-29629803D01*
X38665978Y-29608523D01*
X38614022Y-29608523D01*
X38599803Y-29629803D01*
X38558601Y-29657333D01*
X38510000Y-29667000D01*
X38130000Y-29667000D01*
X38081399Y-29657333D01*
X38040197Y-29629803D01*
X38025978Y-29608523D01*
X37974022Y-29608523D01*
X37959803Y-29629803D01*
X37918601Y-29657333D01*
X37870000Y-29667000D01*
X37490000Y-29667000D01*
X37441399Y-29657333D01*
X37400197Y-29629803D01*
X37385978Y-29608523D01*
X37334022Y-29608523D01*
X37319803Y-29629803D01*
X37278601Y-29657333D01*
X37230000Y-29667000D01*
X36850000Y-29667000D01*
X36801399Y-29657333D01*
X36760197Y-29629803D01*
X36745978Y-29608523D01*
X36694022Y-29608523D01*
X36679803Y-29629803D01*
X36638601Y-29657333D01*
X36590000Y-29667000D01*
X36210000Y-29667000D01*
X36161399Y-29657333D01*
X36120197Y-29629803D01*
X36105978Y-29608523D01*
X36054022Y-29608523D01*
X36039803Y-29629803D01*
X35998601Y-29657333D01*
X35950000Y-29667000D01*
X35570000Y-29667000D01*
X35521399Y-29657333D01*
X35480197Y-29629803D01*
X35465978Y-29608523D01*
X35414022Y-29608523D01*
X35399803Y-29629803D01*
X35358601Y-29657333D01*
X35310000Y-29667000D01*
X34930000Y-29667000D01*
X34881399Y-29657333D01*
X34840197Y-29629803D01*
X34825978Y-29608523D01*
X34774022Y-29608523D01*
X34759803Y-29629803D01*
X34718601Y-29657333D01*
X34670000Y-29667000D01*
X34290000Y-29667000D01*
X34241399Y-29657333D01*
X34200197Y-29629803D01*
X34185978Y-29608523D01*
X34134022Y-29608523D01*
X34119803Y-29629803D01*
X34078601Y-29657333D01*
X34030000Y-29667000D01*
X33650000Y-29667000D01*
X33601399Y-29657333D01*
X33560197Y-29629803D01*
X33545978Y-29608523D01*
X33494022Y-29608523D01*
X33479803Y-29629803D01*
X33438601Y-29657333D01*
X33390000Y-29667000D01*
X33010000Y-29667000D01*
X32961399Y-29657333D01*
X32920197Y-29629803D01*
X32905978Y-29608523D01*
X32854022Y-29608523D01*
X32839803Y-29629803D01*
X32798601Y-29657333D01*
X32750000Y-29667000D01*
X32370000Y-29667000D01*
X32321399Y-29657333D01*
X32280197Y-29629803D01*
X32265978Y-29608523D01*
X32214022Y-29608523D01*
X32199803Y-29629803D01*
X32158601Y-29657333D01*
X32110000Y-29667000D01*
X31730000Y-29667000D01*
X31681399Y-29657333D01*
X31640197Y-29629803D01*
X31625978Y-29608523D01*
X31574022Y-29608523D01*
X31559803Y-29629803D01*
X31518601Y-29657333D01*
X31470000Y-29667000D01*
X31090000Y-29667000D01*
X31041399Y-29657333D01*
X31000197Y-29629803D01*
X30985978Y-29608523D01*
X30934022Y-29608523D01*
X30919803Y-29629803D01*
X30878601Y-29657333D01*
X30830000Y-29667000D01*
X30450000Y-29667000D01*
X30401399Y-29657333D01*
X30360197Y-29629803D01*
X30345978Y-29608523D01*
X30294022Y-29608523D01*
X30279803Y-29629803D01*
X30238601Y-29657333D01*
X30190000Y-29667000D01*
X29810000Y-29667000D01*
X29761399Y-29657333D01*
X29720197Y-29629803D01*
X29692667Y-29588601D01*
X29683000Y-29540000D01*
X29683000Y-28520000D01*
X29692667Y-28471399D01*
X29720197Y-28430197D01*
X29761399Y-28402667D01*
X29810000Y-28393000D01*
X30190000Y-28393000D01*
X30238601Y-28402667D01*
G37*
G36*
X49438601Y-28402667D02*
G01*
X49479803Y-28430197D01*
X49494021Y-28451476D01*
X49545979Y-28451476D01*
X49560197Y-28430197D01*
X49601399Y-28402667D01*
X49650000Y-28393000D01*
X50030000Y-28393000D01*
X50078601Y-28402667D01*
X50119803Y-28430197D01*
X50134021Y-28451476D01*
X50185979Y-28451476D01*
X50200197Y-28430197D01*
X50241399Y-28402667D01*
X50290000Y-28393000D01*
X50670000Y-28393000D01*
X50718601Y-28402667D01*
X50759803Y-28430197D01*
X50774021Y-28451476D01*
X50825979Y-28451476D01*
X50840197Y-28430197D01*
X50881399Y-28402667D01*
X50930000Y-28393000D01*
X51310000Y-28393000D01*
X51358601Y-28402667D01*
X51399803Y-28430197D01*
X51414021Y-28451476D01*
X51465979Y-28451476D01*
X51480197Y-28430197D01*
X51521399Y-28402667D01*
X51570000Y-28393000D01*
X51950000Y-28393000D01*
X51998601Y-28402667D01*
X52039803Y-28430197D01*
X52054021Y-28451476D01*
X52105979Y-28451476D01*
X52120197Y-28430197D01*
X52161399Y-28402667D01*
X52210000Y-28393000D01*
X52590000Y-28393000D01*
X52638601Y-28402667D01*
X52679803Y-28430197D01*
X52694021Y-28451476D01*
X52745979Y-28451476D01*
X52760197Y-28430197D01*
X52801399Y-28402667D01*
X52850000Y-28393000D01*
X53230000Y-28393000D01*
X53278601Y-28402667D01*
X53319803Y-28430197D01*
X53334021Y-28451476D01*
X53385979Y-28451476D01*
X53400197Y-28430197D01*
X53441399Y-28402667D01*
X53490000Y-28393000D01*
X53870000Y-28393000D01*
X53918601Y-28402667D01*
X53959803Y-28430197D01*
X53974021Y-28451476D01*
X54025979Y-28451476D01*
X54040197Y-28430197D01*
X54081399Y-28402667D01*
X54130000Y-28393000D01*
X54510000Y-28393000D01*
X54558601Y-28402667D01*
X54599803Y-28430197D01*
X54614021Y-28451476D01*
X54665979Y-28451476D01*
X54680197Y-28430197D01*
X54721399Y-28402667D01*
X54770000Y-28393000D01*
X55150000Y-28393000D01*
X55198601Y-28402667D01*
X55239803Y-28430197D01*
X55254021Y-28451476D01*
X55305979Y-28451476D01*
X55320197Y-28430197D01*
X55361399Y-28402667D01*
X55410000Y-28393000D01*
X55790000Y-28393000D01*
X55838601Y-28402667D01*
X55879803Y-28430197D01*
X55894021Y-28451476D01*
X55945979Y-28451476D01*
X55960197Y-28430197D01*
X56001399Y-28402667D01*
X56050000Y-28393000D01*
X56430000Y-28393000D01*
X56478601Y-28402667D01*
X56519803Y-28430197D01*
X56534021Y-28451476D01*
X56585979Y-28451476D01*
X56600197Y-28430197D01*
X56641399Y-28402667D01*
X56690000Y-28393000D01*
X57070000Y-28393000D01*
X57118601Y-28402667D01*
X57159803Y-28430197D01*
X57174021Y-28451476D01*
X57225979Y-28451476D01*
X57240197Y-28430197D01*
X57281399Y-28402667D01*
X57330000Y-28393000D01*
X57710000Y-28393000D01*
X57758601Y-28402667D01*
X57799803Y-28430197D01*
X57814021Y-28451476D01*
X57865979Y-28451476D01*
X57880197Y-28430197D01*
X57921399Y-28402667D01*
X57970000Y-28393000D01*
X58350000Y-28393000D01*
X58398601Y-28402667D01*
X58439803Y-28430197D01*
X58454021Y-28451476D01*
X58505979Y-28451476D01*
X58520197Y-28430197D01*
X58561399Y-28402667D01*
X58610000Y-28393000D01*
X58990000Y-28393000D01*
X59038601Y-28402667D01*
X59079803Y-28430197D01*
X59094021Y-28451476D01*
X59145979Y-28451476D01*
X59160197Y-28430197D01*
X59201399Y-28402667D01*
X59250000Y-28393000D01*
X59630000Y-28393000D01*
X59678601Y-28402667D01*
X59719803Y-28430197D01*
X59734021Y-28451476D01*
X59785979Y-28451476D01*
X59800197Y-28430197D01*
X59841399Y-28402667D01*
X59890000Y-28393000D01*
X60270000Y-28393000D01*
X60318601Y-28402667D01*
X60359803Y-28430197D01*
X60387333Y-28471399D01*
X60397000Y-28520000D01*
X60397000Y-29540000D01*
X60387333Y-29588601D01*
X60359803Y-29629803D01*
X60318601Y-29657333D01*
X60270000Y-29667000D01*
X59890000Y-29667000D01*
X59841399Y-29657333D01*
X59800197Y-29629803D01*
X59785978Y-29608523D01*
X59734022Y-29608523D01*
X59719803Y-29629803D01*
X59678601Y-29657333D01*
X59630000Y-29667000D01*
X59250000Y-29667000D01*
X59201399Y-29657333D01*
X59160197Y-29629803D01*
X59145978Y-29608523D01*
X59094022Y-29608523D01*
X59079803Y-29629803D01*
X59038601Y-29657333D01*
X58990000Y-29667000D01*
X58610000Y-29667000D01*
X58561399Y-29657333D01*
X58520197Y-29629803D01*
X58505978Y-29608523D01*
X58454022Y-29608523D01*
X58439803Y-29629803D01*
X58398601Y-29657333D01*
X58350000Y-29667000D01*
X57970000Y-29667000D01*
X57921399Y-29657333D01*
X57880197Y-29629803D01*
X57865978Y-29608523D01*
X57814022Y-29608523D01*
X57799803Y-29629803D01*
X57758601Y-29657333D01*
X57710000Y-29667000D01*
X57330000Y-29667000D01*
X57281399Y-29657333D01*
X57240197Y-29629803D01*
X57225978Y-29608523D01*
X57174022Y-29608523D01*
X57159803Y-29629803D01*
X57118601Y-29657333D01*
X57070000Y-29667000D01*
X56690000Y-29667000D01*
X56641399Y-29657333D01*
X56600197Y-29629803D01*
X56585978Y-29608523D01*
X56534022Y-29608523D01*
X56519803Y-29629803D01*
X56478601Y-29657333D01*
X56430000Y-29667000D01*
X56050000Y-29667000D01*
X56001399Y-29657333D01*
X55960197Y-29629803D01*
X55945978Y-29608523D01*
X55894022Y-29608523D01*
X55879803Y-29629803D01*
X55838601Y-29657333D01*
X55790000Y-29667000D01*
X55410000Y-29667000D01*
X55361399Y-29657333D01*
X55320197Y-29629803D01*
X55305978Y-29608523D01*
X55254022Y-29608523D01*
X55239803Y-29629803D01*
X55198601Y-29657333D01*
X55150000Y-29667000D01*
X54770000Y-29667000D01*
X54721399Y-29657333D01*
X54680197Y-29629803D01*
X54665978Y-29608523D01*
X54614022Y-29608523D01*
X54599803Y-29629803D01*
X54558601Y-29657333D01*
X54510000Y-29667000D01*
X54130000Y-29667000D01*
X54081399Y-29657333D01*
X54040197Y-29629803D01*
X54025978Y-29608523D01*
X53974022Y-29608523D01*
X53959803Y-29629803D01*
X53918601Y-29657333D01*
X53870000Y-29667000D01*
X53490000Y-29667000D01*
X53441399Y-29657333D01*
X53400197Y-29629803D01*
X53385978Y-29608523D01*
X53334022Y-29608523D01*
X53319803Y-29629803D01*
X53278601Y-29657333D01*
X53230000Y-29667000D01*
X52850000Y-29667000D01*
X52801399Y-29657333D01*
X52760197Y-29629803D01*
X52745978Y-29608523D01*
X52694022Y-29608523D01*
X52679803Y-29629803D01*
X52638601Y-29657333D01*
X52590000Y-29667000D01*
X52210000Y-29667000D01*
X52161399Y-29657333D01*
X52120197Y-29629803D01*
X52105978Y-29608523D01*
X52054022Y-29608523D01*
X52039803Y-29629803D01*
X51998601Y-29657333D01*
X51950000Y-29667000D01*
X51570000Y-29667000D01*
X51521399Y-29657333D01*
X51480197Y-29629803D01*
X51465978Y-29608523D01*
X51414022Y-29608523D01*
X51399803Y-29629803D01*
X51358601Y-29657333D01*
X51310000Y-29667000D01*
X50930000Y-29667000D01*
X50881399Y-29657333D01*
X50840197Y-29629803D01*
X50825978Y-29608523D01*
X50774022Y-29608523D01*
X50759803Y-29629803D01*
X50718601Y-29657333D01*
X50670000Y-29667000D01*
X50290000Y-29667000D01*
X50241399Y-29657333D01*
X50200197Y-29629803D01*
X50185978Y-29608523D01*
X50134022Y-29608523D01*
X50119803Y-29629803D01*
X50078601Y-29657333D01*
X50030000Y-29667000D01*
X49650000Y-29667000D01*
X49601399Y-29657333D01*
X49560197Y-29629803D01*
X49545978Y-29608523D01*
X49494022Y-29608523D01*
X49479803Y-29629803D01*
X49438601Y-29657333D01*
X49390000Y-29667000D01*
X49010000Y-29667000D01*
X48961399Y-29657333D01*
X48920197Y-29629803D01*
X48892667Y-29588601D01*
X48883000Y-29540000D01*
X48883000Y-28520000D01*
X48892667Y-28471399D01*
X48920197Y-28430197D01*
X48961399Y-28402667D01*
X49010000Y-28393000D01*
X49390000Y-28393000D01*
X49438601Y-28402667D01*
G37*
G36*
X68638601Y-28402667D02*
G01*
X68679803Y-28430197D01*
X68694021Y-28451476D01*
X68745979Y-28451476D01*
X68760197Y-28430197D01*
X68801399Y-28402667D01*
X68850000Y-28393000D01*
X69230000Y-28393000D01*
X69278601Y-28402667D01*
X69319803Y-28430197D01*
X69334021Y-28451476D01*
X69385979Y-28451476D01*
X69400197Y-28430197D01*
X69441399Y-28402667D01*
X69490000Y-28393000D01*
X69870000Y-28393000D01*
X69918601Y-28402667D01*
X69959803Y-28430197D01*
X69974021Y-28451476D01*
X70025979Y-28451476D01*
X70040197Y-28430197D01*
X70081399Y-28402667D01*
X70130000Y-28393000D01*
X70510000Y-28393000D01*
X70558601Y-28402667D01*
X70599803Y-28430197D01*
X70614021Y-28451476D01*
X70665979Y-28451476D01*
X70680197Y-28430197D01*
X70721399Y-28402667D01*
X70770000Y-28393000D01*
X71150000Y-28393000D01*
X71198601Y-28402667D01*
X71239803Y-28430197D01*
X71254021Y-28451476D01*
X71305979Y-28451476D01*
X71320197Y-28430197D01*
X71361399Y-28402667D01*
X71410000Y-28393000D01*
X71790000Y-28393000D01*
X71838601Y-28402667D01*
X71879803Y-28430197D01*
X71894021Y-28451476D01*
X71945979Y-28451476D01*
X71960197Y-28430197D01*
X72001399Y-28402667D01*
X72050000Y-28393000D01*
X72430000Y-28393000D01*
X72478601Y-28402667D01*
X72519803Y-28430197D01*
X72534021Y-28451476D01*
X72585979Y-28451476D01*
X72600197Y-28430197D01*
X72641399Y-28402667D01*
X72690000Y-28393000D01*
X73070000Y-28393000D01*
X73118601Y-28402667D01*
X73159803Y-28430197D01*
X73174021Y-28451476D01*
X73225979Y-28451476D01*
X73240197Y-28430197D01*
X73281399Y-28402667D01*
X73330000Y-28393000D01*
X73710000Y-28393000D01*
X73758601Y-28402667D01*
X73799803Y-28430197D01*
X73814021Y-28451476D01*
X73865979Y-28451476D01*
X73880197Y-28430197D01*
X73921399Y-28402667D01*
X73970000Y-28393000D01*
X74350000Y-28393000D01*
X74398601Y-28402667D01*
X74439803Y-28430197D01*
X74454021Y-28451476D01*
X74505979Y-28451476D01*
X74520197Y-28430197D01*
X74561399Y-28402667D01*
X74610000Y-28393000D01*
X74990000Y-28393000D01*
X75038601Y-28402667D01*
X75079803Y-28430197D01*
X75094021Y-28451476D01*
X75145979Y-28451476D01*
X75160197Y-28430197D01*
X75201399Y-28402667D01*
X75250000Y-28393000D01*
X75630000Y-28393000D01*
X75678601Y-28402667D01*
X75719803Y-28430197D01*
X75734021Y-28451476D01*
X75785979Y-28451476D01*
X75800197Y-28430197D01*
X75841399Y-28402667D01*
X75890000Y-28393000D01*
X76270000Y-28393000D01*
X76318601Y-28402667D01*
X76359803Y-28430197D01*
X76374021Y-28451476D01*
X76425979Y-28451476D01*
X76440197Y-28430197D01*
X76481399Y-28402667D01*
X76530000Y-28393000D01*
X76910000Y-28393000D01*
X76958601Y-28402667D01*
X76999803Y-28430197D01*
X77014021Y-28451476D01*
X77065979Y-28451476D01*
X77080197Y-28430197D01*
X77121399Y-28402667D01*
X77170000Y-28393000D01*
X77550000Y-28393000D01*
X77598601Y-28402667D01*
X77639803Y-28430197D01*
X77654021Y-28451476D01*
X77705979Y-28451476D01*
X77720197Y-28430197D01*
X77761399Y-28402667D01*
X77810000Y-28393000D01*
X78190000Y-28393000D01*
X78238601Y-28402667D01*
X78279803Y-28430197D01*
X78294021Y-28451476D01*
X78345979Y-28451476D01*
X78360197Y-28430197D01*
X78401399Y-28402667D01*
X78450000Y-28393000D01*
X78830000Y-28393000D01*
X78878601Y-28402667D01*
X78919803Y-28430197D01*
X78934021Y-28451476D01*
X78985979Y-28451476D01*
X79000197Y-28430197D01*
X79041399Y-28402667D01*
X79090000Y-28393000D01*
X79470000Y-28393000D01*
X79518601Y-28402667D01*
X79559803Y-28430197D01*
X79587333Y-28471399D01*
X79597000Y-28520000D01*
X79597000Y-29540000D01*
X79587333Y-29588601D01*
X79559803Y-29629803D01*
X79518601Y-29657333D01*
X79470000Y-29667000D01*
X79090000Y-29667000D01*
X79041399Y-29657333D01*
X79000197Y-29629803D01*
X78985978Y-29608523D01*
X78934022Y-29608523D01*
X78919803Y-29629803D01*
X78878601Y-29657333D01*
X78830000Y-29667000D01*
X78450000Y-29667000D01*
X78401399Y-29657333D01*
X78360197Y-29629803D01*
X78345978Y-29608523D01*
X78294022Y-29608523D01*
X78279803Y-29629803D01*
X78238601Y-29657333D01*
X78190000Y-29667000D01*
X77810000Y-29667000D01*
X77761399Y-29657333D01*
X77720197Y-29629803D01*
X77705978Y-29608523D01*
X77654022Y-29608523D01*
X77639803Y-29629803D01*
X77598601Y-29657333D01*
X77550000Y-29667000D01*
X77170000Y-29667000D01*
X77121399Y-29657333D01*
X77080197Y-29629803D01*
X77065978Y-29608523D01*
X77014022Y-29608523D01*
X76999803Y-29629803D01*
X76958601Y-29657333D01*
X76910000Y-29667000D01*
X76530000Y-29667000D01*
X76481399Y-29657333D01*
X76440197Y-29629803D01*
X76425978Y-29608523D01*
X76374022Y-29608523D01*
X76359803Y-29629803D01*
X76318601Y-29657333D01*
X76270000Y-29667000D01*
X75890000Y-29667000D01*
X75841399Y-29657333D01*
X75800197Y-29629803D01*
X75785978Y-29608523D01*
X75734022Y-29608523D01*
X75719803Y-29629803D01*
X75678601Y-29657333D01*
X75630000Y-29667000D01*
X75250000Y-29667000D01*
X75201399Y-29657333D01*
X75160197Y-29629803D01*
X75145978Y-29608523D01*
X75094022Y-29608523D01*
X75079803Y-29629803D01*
X75038601Y-29657333D01*
X74990000Y-29667000D01*
X74610000Y-29667000D01*
X74561399Y-29657333D01*
X74520197Y-29629803D01*
X74505978Y-29608523D01*
X74454022Y-29608523D01*
X74439803Y-29629803D01*
X74398601Y-29657333D01*
X74350000Y-29667000D01*
X73970000Y-29667000D01*
X73921399Y-29657333D01*
X73880197Y-29629803D01*
X73865978Y-29608523D01*
X73814022Y-29608523D01*
X73799803Y-29629803D01*
X73758601Y-29657333D01*
X73710000Y-29667000D01*
X73330000Y-29667000D01*
X73281399Y-29657333D01*
X73240197Y-29629803D01*
X73225978Y-29608523D01*
X73174022Y-29608523D01*
X73159803Y-29629803D01*
X73118601Y-29657333D01*
X73070000Y-29667000D01*
X72690000Y-29667000D01*
X72641399Y-29657333D01*
X72600197Y-29629803D01*
X72585978Y-29608523D01*
X72534022Y-29608523D01*
X72519803Y-29629803D01*
X72478601Y-29657333D01*
X72430000Y-29667000D01*
X72050000Y-29667000D01*
X72001399Y-29657333D01*
X71960197Y-29629803D01*
X71945978Y-29608523D01*
X71894022Y-29608523D01*
X71879803Y-29629803D01*
X71838601Y-29657333D01*
X71790000Y-29667000D01*
X71410000Y-29667000D01*
X71361399Y-29657333D01*
X71320197Y-29629803D01*
X71305978Y-29608523D01*
X71254022Y-29608523D01*
X71239803Y-29629803D01*
X71198601Y-29657333D01*
X71150000Y-29667000D01*
X70770000Y-29667000D01*
X70721399Y-29657333D01*
X70680197Y-29629803D01*
X70665978Y-29608523D01*
X70614022Y-29608523D01*
X70599803Y-29629803D01*
X70558601Y-29657333D01*
X70510000Y-29667000D01*
X70130000Y-29667000D01*
X70081399Y-29657333D01*
X70040197Y-29629803D01*
X70025978Y-29608523D01*
X69974022Y-29608523D01*
X69959803Y-29629803D01*
X69918601Y-29657333D01*
X69870000Y-29667000D01*
X69490000Y-29667000D01*
X69441399Y-29657333D01*
X69400197Y-29629803D01*
X69385978Y-29608523D01*
X69334022Y-29608523D01*
X69319803Y-29629803D01*
X69278601Y-29657333D01*
X69230000Y-29667000D01*
X68850000Y-29667000D01*
X68801399Y-29657333D01*
X68760197Y-29629803D01*
X68745978Y-29608523D01*
X68694022Y-29608523D01*
X68679803Y-29629803D01*
X68638601Y-29657333D01*
X68590000Y-29667000D01*
X68210000Y-29667000D01*
X68161399Y-29657333D01*
X68120197Y-29629803D01*
X68092667Y-29588601D01*
X68083000Y-29540000D01*
X68083000Y-28520000D01*
X68092667Y-28471399D01*
X68120197Y-28430197D01*
X68161399Y-28402667D01*
X68210000Y-28393000D01*
X68590000Y-28393000D01*
X68638601Y-28402667D01*
G37*
G36*
X91438601Y-28402667D02*
G01*
X91479803Y-28430197D01*
X91494021Y-28451476D01*
X91545979Y-28451476D01*
X91560197Y-28430197D01*
X91601399Y-28402667D01*
X91650000Y-28393000D01*
X92030000Y-28393000D01*
X92078601Y-28402667D01*
X92119803Y-28430197D01*
X92134021Y-28451476D01*
X92185979Y-28451476D01*
X92200197Y-28430197D01*
X92241399Y-28402667D01*
X92290000Y-28393000D01*
X92670000Y-28393000D01*
X92718601Y-28402667D01*
X92759803Y-28430197D01*
X92774021Y-28451476D01*
X92825979Y-28451476D01*
X92840197Y-28430197D01*
X92881399Y-28402667D01*
X92930000Y-28393000D01*
X93310000Y-28393000D01*
X93358601Y-28402667D01*
X93399803Y-28430197D01*
X93414021Y-28451476D01*
X93465979Y-28451476D01*
X93480197Y-28430197D01*
X93521399Y-28402667D01*
X93570000Y-28393000D01*
X93950000Y-28393000D01*
X93998601Y-28402667D01*
X94039803Y-28430197D01*
X94054021Y-28451476D01*
X94105979Y-28451476D01*
X94120197Y-28430197D01*
X94161399Y-28402667D01*
X94210000Y-28393000D01*
X94590000Y-28393000D01*
X94638601Y-28402667D01*
X94679803Y-28430197D01*
X94694021Y-28451476D01*
X94745979Y-28451476D01*
X94760197Y-28430197D01*
X94801399Y-28402667D01*
X94850000Y-28393000D01*
X95230000Y-28393000D01*
X95278601Y-28402667D01*
X95319803Y-28430197D01*
X95334021Y-28451476D01*
X95385979Y-28451476D01*
X95400197Y-28430197D01*
X95441399Y-28402667D01*
X95490000Y-28393000D01*
X95870000Y-28393000D01*
X95918601Y-28402667D01*
X95959803Y-28430197D01*
X95974021Y-28451476D01*
X96025979Y-28451476D01*
X96040197Y-28430197D01*
X96081399Y-28402667D01*
X96130000Y-28393000D01*
X96510000Y-28393000D01*
X96558601Y-28402667D01*
X96599803Y-28430197D01*
X96614021Y-28451476D01*
X96665979Y-28451476D01*
X96680197Y-28430197D01*
X96721399Y-28402667D01*
X96770000Y-28393000D01*
X97150000Y-28393000D01*
X97198601Y-28402667D01*
X97239803Y-28430197D01*
X97254021Y-28451476D01*
X97305979Y-28451476D01*
X97320197Y-28430197D01*
X97361399Y-28402667D01*
X97410000Y-28393000D01*
X97790000Y-28393000D01*
X97838601Y-28402667D01*
X97879803Y-28430197D01*
X97894021Y-28451476D01*
X97945979Y-28451476D01*
X97960197Y-28430197D01*
X98001399Y-28402667D01*
X98050000Y-28393000D01*
X98430000Y-28393000D01*
X98478601Y-28402667D01*
X98519803Y-28430197D01*
X98534021Y-28451476D01*
X98585979Y-28451476D01*
X98600197Y-28430197D01*
X98641399Y-28402667D01*
X98690000Y-28393000D01*
X99070000Y-28393000D01*
X99118601Y-28402667D01*
X99159803Y-28430197D01*
X99174021Y-28451476D01*
X99225979Y-28451476D01*
X99240197Y-28430197D01*
X99281399Y-28402667D01*
X99330000Y-28393000D01*
X99710000Y-28393000D01*
X99758601Y-28402667D01*
X99799803Y-28430197D01*
X99814021Y-28451476D01*
X99865979Y-28451476D01*
X99880197Y-28430197D01*
X99921399Y-28402667D01*
X99970000Y-28393000D01*
X100350000Y-28393000D01*
X100398601Y-28402667D01*
X100439803Y-28430197D01*
X100454021Y-28451476D01*
X100505979Y-28451476D01*
X100520197Y-28430197D01*
X100561399Y-28402667D01*
X100610000Y-28393000D01*
X100990000Y-28393000D01*
X101038601Y-28402667D01*
X101079803Y-28430197D01*
X101094021Y-28451476D01*
X101145979Y-28451476D01*
X101160197Y-28430197D01*
X101201399Y-28402667D01*
X101250000Y-28393000D01*
X101630000Y-28393000D01*
X101678601Y-28402667D01*
X101719803Y-28430197D01*
X101734021Y-28451476D01*
X101785979Y-28451476D01*
X101800197Y-28430197D01*
X101841399Y-28402667D01*
X101890000Y-28393000D01*
X102270000Y-28393000D01*
X102318601Y-28402667D01*
X102359803Y-28430197D01*
X102387333Y-28471399D01*
X102397000Y-28520000D01*
X102397000Y-29540000D01*
X102387333Y-29588601D01*
X102359803Y-29629803D01*
X102318601Y-29657333D01*
X102270000Y-29667000D01*
X101890000Y-29667000D01*
X101841399Y-29657333D01*
X101800197Y-29629803D01*
X101785978Y-29608523D01*
X101734022Y-29608523D01*
X101719803Y-29629803D01*
X101678601Y-29657333D01*
X101630000Y-29667000D01*
X101250000Y-29667000D01*
X101201399Y-29657333D01*
X101160197Y-29629803D01*
X101145978Y-29608523D01*
X101094022Y-29608523D01*
X101079803Y-29629803D01*
X101038601Y-29657333D01*
X100990000Y-29667000D01*
X100610000Y-29667000D01*
X100561399Y-29657333D01*
X100520197Y-29629803D01*
X100505978Y-29608523D01*
X100454022Y-29608523D01*
X100439803Y-29629803D01*
X100398601Y-29657333D01*
X100350000Y-29667000D01*
X99970000Y-29667000D01*
X99921399Y-29657333D01*
X99880197Y-29629803D01*
X99865978Y-29608523D01*
X99814022Y-29608523D01*
X99799803Y-29629803D01*
X99758601Y-29657333D01*
X99710000Y-29667000D01*
X99330000Y-29667000D01*
X99281399Y-29657333D01*
X99240197Y-29629803D01*
X99225978Y-29608523D01*
X99174022Y-29608523D01*
X99159803Y-29629803D01*
X99118601Y-29657333D01*
X99070000Y-29667000D01*
X98690000Y-29667000D01*
X98641399Y-29657333D01*
X98600197Y-29629803D01*
X98585978Y-29608523D01*
X98534022Y-29608523D01*
X98519803Y-29629803D01*
X98478601Y-29657333D01*
X98430000Y-29667000D01*
X98050000Y-29667000D01*
X98001399Y-29657333D01*
X97960197Y-29629803D01*
X97945978Y-29608523D01*
X97894022Y-29608523D01*
X97879803Y-29629803D01*
X97838601Y-29657333D01*
X97790000Y-29667000D01*
X97410000Y-29667000D01*
X97361399Y-29657333D01*
X97320197Y-29629803D01*
X97305978Y-29608523D01*
X97254022Y-29608523D01*
X97239803Y-29629803D01*
X97198601Y-29657333D01*
X97150000Y-29667000D01*
X96770000Y-29667000D01*
X96721399Y-29657333D01*
X96680197Y-29629803D01*
X96665978Y-29608523D01*
X96614022Y-29608523D01*
X96599803Y-29629803D01*
X96558601Y-29657333D01*
X96510000Y-29667000D01*
X96130000Y-29667000D01*
X96081399Y-29657333D01*
X96040197Y-29629803D01*
X96025978Y-29608523D01*
X95974022Y-29608523D01*
X95959803Y-29629803D01*
X95918601Y-29657333D01*
X95870000Y-29667000D01*
X95490000Y-29667000D01*
X95441399Y-29657333D01*
X95400197Y-29629803D01*
X95385978Y-29608523D01*
X95334022Y-29608523D01*
X95319803Y-29629803D01*
X95278601Y-29657333D01*
X95230000Y-29667000D01*
X94850000Y-29667000D01*
X94801399Y-29657333D01*
X94760197Y-29629803D01*
X94745978Y-29608523D01*
X94694022Y-29608523D01*
X94679803Y-29629803D01*
X94638601Y-29657333D01*
X94590000Y-29667000D01*
X94210000Y-29667000D01*
X94161399Y-29657333D01*
X94120197Y-29629803D01*
X94105978Y-29608523D01*
X94054022Y-29608523D01*
X94039803Y-29629803D01*
X93998601Y-29657333D01*
X93950000Y-29667000D01*
X93570000Y-29667000D01*
X93521399Y-29657333D01*
X93480197Y-29629803D01*
X93465978Y-29608523D01*
X93414022Y-29608523D01*
X93399803Y-29629803D01*
X93358601Y-29657333D01*
X93310000Y-29667000D01*
X92930000Y-29667000D01*
X92881399Y-29657333D01*
X92840197Y-29629803D01*
X92825978Y-29608523D01*
X92774022Y-29608523D01*
X92759803Y-29629803D01*
X92718601Y-29657333D01*
X92670000Y-29667000D01*
X92290000Y-29667000D01*
X92241399Y-29657333D01*
X92200197Y-29629803D01*
X92185978Y-29608523D01*
X92134022Y-29608523D01*
X92119803Y-29629803D01*
X92078601Y-29657333D01*
X92030000Y-29667000D01*
X91650000Y-29667000D01*
X91601399Y-29657333D01*
X91560197Y-29629803D01*
X91545978Y-29608523D01*
X91494022Y-29608523D01*
X91479803Y-29629803D01*
X91438601Y-29657333D01*
X91390000Y-29667000D01*
X91010000Y-29667000D01*
X90961399Y-29657333D01*
X90920197Y-29629803D01*
X90892667Y-29588601D01*
X90883000Y-29540000D01*
X90883000Y-28520000D01*
X90892667Y-28471399D01*
X90920197Y-28430197D01*
X90961399Y-28402667D01*
X91010000Y-28393000D01*
X91390000Y-28393000D01*
X91438601Y-28402667D01*
G37*
G36*
X110638601Y-28402667D02*
G01*
X110679803Y-28430197D01*
X110694021Y-28451476D01*
X110745979Y-28451476D01*
X110760197Y-28430197D01*
X110801399Y-28402667D01*
X110850000Y-28393000D01*
X111230000Y-28393000D01*
X111278601Y-28402667D01*
X111319803Y-28430197D01*
X111334021Y-28451476D01*
X111385979Y-28451476D01*
X111400197Y-28430197D01*
X111441399Y-28402667D01*
X111490000Y-28393000D01*
X111870000Y-28393000D01*
X111918601Y-28402667D01*
X111959803Y-28430197D01*
X111974021Y-28451476D01*
X112025979Y-28451476D01*
X112040197Y-28430197D01*
X112081399Y-28402667D01*
X112130000Y-28393000D01*
X112510000Y-28393000D01*
X112558601Y-28402667D01*
X112599803Y-28430197D01*
X112614021Y-28451476D01*
X112665979Y-28451476D01*
X112680197Y-28430197D01*
X112721399Y-28402667D01*
X112770000Y-28393000D01*
X113150000Y-28393000D01*
X113198601Y-28402667D01*
X113239803Y-28430197D01*
X113254021Y-28451476D01*
X113305979Y-28451476D01*
X113320197Y-28430197D01*
X113361399Y-28402667D01*
X113410000Y-28393000D01*
X113790000Y-28393000D01*
X113838601Y-28402667D01*
X113879803Y-28430197D01*
X113894021Y-28451476D01*
X113945979Y-28451476D01*
X113960197Y-28430197D01*
X114001399Y-28402667D01*
X114050000Y-28393000D01*
X114430000Y-28393000D01*
X114478601Y-28402667D01*
X114519803Y-28430197D01*
X114534021Y-28451476D01*
X114585979Y-28451476D01*
X114600197Y-28430197D01*
X114641399Y-28402667D01*
X114690000Y-28393000D01*
X115070000Y-28393000D01*
X115118601Y-28402667D01*
X115159803Y-28430197D01*
X115174021Y-28451476D01*
X115225979Y-28451476D01*
X115240197Y-28430197D01*
X115281399Y-28402667D01*
X115330000Y-28393000D01*
X115710000Y-28393000D01*
X115758601Y-28402667D01*
X115799803Y-28430197D01*
X115814021Y-28451476D01*
X115865979Y-28451476D01*
X115880197Y-28430197D01*
X115921399Y-28402667D01*
X115970000Y-28393000D01*
X116350000Y-28393000D01*
X116398601Y-28402667D01*
X116439803Y-28430197D01*
X116454021Y-28451476D01*
X116505979Y-28451476D01*
X116520197Y-28430197D01*
X116561399Y-28402667D01*
X116610000Y-28393000D01*
X116990000Y-28393000D01*
X117038601Y-28402667D01*
X117079803Y-28430197D01*
X117094021Y-28451476D01*
X117145979Y-28451476D01*
X117160197Y-28430197D01*
X117201399Y-28402667D01*
X117250000Y-28393000D01*
X117630000Y-28393000D01*
X117678601Y-28402667D01*
X117719803Y-28430197D01*
X117734021Y-28451476D01*
X117785979Y-28451476D01*
X117800197Y-28430197D01*
X117841399Y-28402667D01*
X117890000Y-28393000D01*
X118270000Y-28393000D01*
X118318601Y-28402667D01*
X118359803Y-28430197D01*
X118374021Y-28451476D01*
X118425979Y-28451476D01*
X118440197Y-28430197D01*
X118481399Y-28402667D01*
X118530000Y-28393000D01*
X118910000Y-28393000D01*
X118958601Y-28402667D01*
X118999803Y-28430197D01*
X119014021Y-28451476D01*
X119065979Y-28451476D01*
X119080197Y-28430197D01*
X119121399Y-28402667D01*
X119170000Y-28393000D01*
X119550000Y-28393000D01*
X119598601Y-28402667D01*
X119639803Y-28430197D01*
X119654021Y-28451476D01*
X119705979Y-28451476D01*
X119720197Y-28430197D01*
X119761399Y-28402667D01*
X119810000Y-28393000D01*
X120190000Y-28393000D01*
X120238601Y-28402667D01*
X120279803Y-28430197D01*
X120294021Y-28451476D01*
X120345979Y-28451476D01*
X120360197Y-28430197D01*
X120401399Y-28402667D01*
X120450000Y-28393000D01*
X120830000Y-28393000D01*
X120878601Y-28402667D01*
X120919803Y-28430197D01*
X120934021Y-28451476D01*
X120985979Y-28451476D01*
X121000197Y-28430197D01*
X121041399Y-28402667D01*
X121090000Y-28393000D01*
X121470000Y-28393000D01*
X121518601Y-28402667D01*
X121559803Y-28430197D01*
X121587333Y-28471399D01*
X121597000Y-28520000D01*
X121597000Y-29540000D01*
X121587333Y-29588601D01*
X121559803Y-29629803D01*
X121518601Y-29657333D01*
X121470000Y-29667000D01*
X121090000Y-29667000D01*
X121041399Y-29657333D01*
X121000197Y-29629803D01*
X120985978Y-29608523D01*
X120934022Y-29608523D01*
X120919803Y-29629803D01*
X120878601Y-29657333D01*
X120830000Y-29667000D01*
X120450000Y-29667000D01*
X120401399Y-29657333D01*
X120360197Y-29629803D01*
X120345978Y-29608523D01*
X120294022Y-29608523D01*
X120279803Y-29629803D01*
X120238601Y-29657333D01*
X120190000Y-29667000D01*
X119810000Y-29667000D01*
X119761399Y-29657333D01*
X119720197Y-29629803D01*
X119705978Y-29608523D01*
X119654022Y-29608523D01*
X119639803Y-29629803D01*
X119598601Y-29657333D01*
X119550000Y-29667000D01*
X119170000Y-29667000D01*
X119121399Y-29657333D01*
X119080197Y-29629803D01*
X119065978Y-29608523D01*
X119014022Y-29608523D01*
X118999803Y-29629803D01*
X118958601Y-29657333D01*
X118910000Y-29667000D01*
X118530000Y-29667000D01*
X118481399Y-29657333D01*
X118440197Y-29629803D01*
X118425978Y-29608523D01*
X118374022Y-29608523D01*
X118359803Y-29629803D01*
X118318601Y-29657333D01*
X118270000Y-29667000D01*
X117890000Y-29667000D01*
X117841399Y-29657333D01*
X117800197Y-29629803D01*
X117785978Y-29608523D01*
X117734022Y-29608523D01*
X117719803Y-29629803D01*
X117678601Y-29657333D01*
X117630000Y-29667000D01*
X117250000Y-29667000D01*
X117201399Y-29657333D01*
X117160197Y-29629803D01*
X117145978Y-29608523D01*
X117094022Y-29608523D01*
X117079803Y-29629803D01*
X117038601Y-29657333D01*
X116990000Y-29667000D01*
X116610000Y-29667000D01*
X116561399Y-29657333D01*
X116520197Y-29629803D01*
X116505978Y-29608523D01*
X116454022Y-29608523D01*
X116439803Y-29629803D01*
X116398601Y-29657333D01*
X116350000Y-29667000D01*
X115970000Y-29667000D01*
X115921399Y-29657333D01*
X115880197Y-29629803D01*
X115865978Y-29608523D01*
X115814022Y-29608523D01*
X115799803Y-29629803D01*
X115758601Y-29657333D01*
X115710000Y-29667000D01*
X115330000Y-29667000D01*
X115281399Y-29657333D01*
X115240197Y-29629803D01*
X115225978Y-29608523D01*
X115174022Y-29608523D01*
X115159803Y-29629803D01*
X115118601Y-29657333D01*
X115070000Y-29667000D01*
X114690000Y-29667000D01*
X114641399Y-29657333D01*
X114600197Y-29629803D01*
X114585978Y-29608523D01*
X114534022Y-29608523D01*
X114519803Y-29629803D01*
X114478601Y-29657333D01*
X114430000Y-29667000D01*
X114050000Y-29667000D01*
X114001399Y-29657333D01*
X113960197Y-29629803D01*
X113945978Y-29608523D01*
X113894022Y-29608523D01*
X113879803Y-29629803D01*
X113838601Y-29657333D01*
X113790000Y-29667000D01*
X113410000Y-29667000D01*
X113361399Y-29657333D01*
X113320197Y-29629803D01*
X113305978Y-29608523D01*
X113254022Y-29608523D01*
X113239803Y-29629803D01*
X113198601Y-29657333D01*
X113150000Y-29667000D01*
X112770000Y-29667000D01*
X112721399Y-29657333D01*
X112680197Y-29629803D01*
X112665978Y-29608523D01*
X112614022Y-29608523D01*
X112599803Y-29629803D01*
X112558601Y-29657333D01*
X112510000Y-29667000D01*
X112130000Y-29667000D01*
X112081399Y-29657333D01*
X112040197Y-29629803D01*
X112025978Y-29608523D01*
X111974022Y-29608523D01*
X111959803Y-29629803D01*
X111918601Y-29657333D01*
X111870000Y-29667000D01*
X111490000Y-29667000D01*
X111441399Y-29657333D01*
X111400197Y-29629803D01*
X111385978Y-29608523D01*
X111334022Y-29608523D01*
X111319803Y-29629803D01*
X111278601Y-29657333D01*
X111230000Y-29667000D01*
X110850000Y-29667000D01*
X110801399Y-29657333D01*
X110760197Y-29629803D01*
X110745978Y-29608523D01*
X110694022Y-29608523D01*
X110679803Y-29629803D01*
X110638601Y-29657333D01*
X110590000Y-29667000D01*
X110210000Y-29667000D01*
X110161399Y-29657333D01*
X110120197Y-29629803D01*
X110092667Y-29588601D01*
X110083000Y-29540000D01*
X110083000Y-28520000D01*
X110092667Y-28471399D01*
X110120197Y-28430197D01*
X110161399Y-28402667D01*
X110210000Y-28393000D01*
X110590000Y-28393000D01*
X110638601Y-28402667D01*
G37*
G36*
X129838601Y-28402667D02*
G01*
X129879803Y-28430197D01*
X129894021Y-28451476D01*
X129945979Y-28451476D01*
X129960197Y-28430197D01*
X130001399Y-28402667D01*
X130050000Y-28393000D01*
X130430000Y-28393000D01*
X130478601Y-28402667D01*
X130519803Y-28430197D01*
X130534021Y-28451476D01*
X130585979Y-28451476D01*
X130600197Y-28430197D01*
X130641399Y-28402667D01*
X130690000Y-28393000D01*
X131070000Y-28393000D01*
X131118601Y-28402667D01*
X131159803Y-28430197D01*
X131174021Y-28451476D01*
X131225979Y-28451476D01*
X131240197Y-28430197D01*
X131281399Y-28402667D01*
X131330000Y-28393000D01*
X131710000Y-28393000D01*
X131758601Y-28402667D01*
X131799803Y-28430197D01*
X131814021Y-28451476D01*
X131865979Y-28451476D01*
X131880197Y-28430197D01*
X131921399Y-28402667D01*
X131970000Y-28393000D01*
X132350000Y-28393000D01*
X132398601Y-28402667D01*
X132439803Y-28430197D01*
X132454021Y-28451476D01*
X132505979Y-28451476D01*
X132520197Y-28430197D01*
X132561399Y-28402667D01*
X132610000Y-28393000D01*
X132990000Y-28393000D01*
X133038601Y-28402667D01*
X133079803Y-28430197D01*
X133094021Y-28451476D01*
X133145979Y-28451476D01*
X133160197Y-28430197D01*
X133201399Y-28402667D01*
X133250000Y-28393000D01*
X133630000Y-28393000D01*
X133678601Y-28402667D01*
X133719803Y-28430197D01*
X133734021Y-28451476D01*
X133785979Y-28451476D01*
X133800197Y-28430197D01*
X133841399Y-28402667D01*
X133890000Y-28393000D01*
X134270000Y-28393000D01*
X134318601Y-28402667D01*
X134359803Y-28430197D01*
X134374021Y-28451476D01*
X134425979Y-28451476D01*
X134440197Y-28430197D01*
X134481399Y-28402667D01*
X134530000Y-28393000D01*
X134910000Y-28393000D01*
X134958601Y-28402667D01*
X134999803Y-28430197D01*
X135014021Y-28451476D01*
X135065979Y-28451476D01*
X135080197Y-28430197D01*
X135121399Y-28402667D01*
X135170000Y-28393000D01*
X135550000Y-28393000D01*
X135598601Y-28402667D01*
X135639803Y-28430197D01*
X135654021Y-28451476D01*
X135705979Y-28451476D01*
X135720197Y-28430197D01*
X135761399Y-28402667D01*
X135810000Y-28393000D01*
X136190000Y-28393000D01*
X136238601Y-28402667D01*
X136279803Y-28430197D01*
X136294021Y-28451476D01*
X136345979Y-28451476D01*
X136360197Y-28430197D01*
X136401399Y-28402667D01*
X136450000Y-28393000D01*
X136830000Y-28393000D01*
X136878601Y-28402667D01*
X136919803Y-28430197D01*
X136934021Y-28451476D01*
X136985979Y-28451476D01*
X137000197Y-28430197D01*
X137041399Y-28402667D01*
X137090000Y-28393000D01*
X137470000Y-28393000D01*
X137518601Y-28402667D01*
X137559803Y-28430197D01*
X137574021Y-28451476D01*
X137625979Y-28451476D01*
X137640197Y-28430197D01*
X137681399Y-28402667D01*
X137730000Y-28393000D01*
X138110000Y-28393000D01*
X138158601Y-28402667D01*
X138199803Y-28430197D01*
X138214021Y-28451476D01*
X138265979Y-28451476D01*
X138280197Y-28430197D01*
X138321399Y-28402667D01*
X138370000Y-28393000D01*
X138750000Y-28393000D01*
X138798601Y-28402667D01*
X138839803Y-28430197D01*
X138854021Y-28451476D01*
X138905979Y-28451476D01*
X138920197Y-28430197D01*
X138961399Y-28402667D01*
X139010000Y-28393000D01*
X139390000Y-28393000D01*
X139438601Y-28402667D01*
X139479803Y-28430197D01*
X139494021Y-28451476D01*
X139545979Y-28451476D01*
X139560197Y-28430197D01*
X139601399Y-28402667D01*
X139650000Y-28393000D01*
X140030000Y-28393000D01*
X140078601Y-28402667D01*
X140119803Y-28430197D01*
X140134021Y-28451476D01*
X140185979Y-28451476D01*
X140200197Y-28430197D01*
X140241399Y-28402667D01*
X140290000Y-28393000D01*
X140670000Y-28393000D01*
X140718601Y-28402667D01*
X140759803Y-28430197D01*
X140787333Y-28471399D01*
X140797000Y-28520000D01*
X140797000Y-29540000D01*
X140787333Y-29588601D01*
X140759803Y-29629803D01*
X140718601Y-29657333D01*
X140670000Y-29667000D01*
X140290000Y-29667000D01*
X140241399Y-29657333D01*
X140200197Y-29629803D01*
X140185978Y-29608523D01*
X140134022Y-29608523D01*
X140119803Y-29629803D01*
X140078601Y-29657333D01*
X140030000Y-29667000D01*
X139650000Y-29667000D01*
X139601399Y-29657333D01*
X139560197Y-29629803D01*
X139545978Y-29608523D01*
X139494022Y-29608523D01*
X139479803Y-29629803D01*
X139438601Y-29657333D01*
X139390000Y-29667000D01*
X139010000Y-29667000D01*
X138961399Y-29657333D01*
X138920197Y-29629803D01*
X138905978Y-29608523D01*
X138854022Y-29608523D01*
X138839803Y-29629803D01*
X138798601Y-29657333D01*
X138750000Y-29667000D01*
X138370000Y-29667000D01*
X138321399Y-29657333D01*
X138280197Y-29629803D01*
X138265978Y-29608523D01*
X138214022Y-29608523D01*
X138199803Y-29629803D01*
X138158601Y-29657333D01*
X138110000Y-29667000D01*
X137730000Y-29667000D01*
X137681399Y-29657333D01*
X137640197Y-29629803D01*
X137625978Y-29608523D01*
X137574022Y-29608523D01*
X137559803Y-29629803D01*
X137518601Y-29657333D01*
X137470000Y-29667000D01*
X137090000Y-29667000D01*
X137041399Y-29657333D01*
X137000197Y-29629803D01*
X136985978Y-29608523D01*
X136934022Y-29608523D01*
X136919803Y-29629803D01*
X136878601Y-29657333D01*
X136830000Y-29667000D01*
X136450000Y-29667000D01*
X136401399Y-29657333D01*
X136360197Y-29629803D01*
X136345978Y-29608523D01*
X136294022Y-29608523D01*
X136279803Y-29629803D01*
X136238601Y-29657333D01*
X136190000Y-29667000D01*
X135810000Y-29667000D01*
X135761399Y-29657333D01*
X135720197Y-29629803D01*
X135705978Y-29608523D01*
X135654022Y-29608523D01*
X135639803Y-29629803D01*
X135598601Y-29657333D01*
X135550000Y-29667000D01*
X135170000Y-29667000D01*
X135121399Y-29657333D01*
X135080197Y-29629803D01*
X135065978Y-29608523D01*
X135014022Y-29608523D01*
X134999803Y-29629803D01*
X134958601Y-29657333D01*
X134910000Y-29667000D01*
X134530000Y-29667000D01*
X134481399Y-29657333D01*
X134440197Y-29629803D01*
X134425978Y-29608523D01*
X134374022Y-29608523D01*
X134359803Y-29629803D01*
X134318601Y-29657333D01*
X134270000Y-29667000D01*
X133890000Y-29667000D01*
X133841399Y-29657333D01*
X133800197Y-29629803D01*
X133785978Y-29608523D01*
X133734022Y-29608523D01*
X133719803Y-29629803D01*
X133678601Y-29657333D01*
X133630000Y-29667000D01*
X133250000Y-29667000D01*
X133201399Y-29657333D01*
X133160197Y-29629803D01*
X133145978Y-29608523D01*
X133094022Y-29608523D01*
X133079803Y-29629803D01*
X133038601Y-29657333D01*
X132990000Y-29667000D01*
X132610000Y-29667000D01*
X132561399Y-29657333D01*
X132520197Y-29629803D01*
X132505978Y-29608523D01*
X132454022Y-29608523D01*
X132439803Y-29629803D01*
X132398601Y-29657333D01*
X132350000Y-29667000D01*
X131970000Y-29667000D01*
X131921399Y-29657333D01*
X131880197Y-29629803D01*
X131865978Y-29608523D01*
X131814022Y-29608523D01*
X131799803Y-29629803D01*
X131758601Y-29657333D01*
X131710000Y-29667000D01*
X131330000Y-29667000D01*
X131281399Y-29657333D01*
X131240197Y-29629803D01*
X131225978Y-29608523D01*
X131174022Y-29608523D01*
X131159803Y-29629803D01*
X131118601Y-29657333D01*
X131070000Y-29667000D01*
X130690000Y-29667000D01*
X130641399Y-29657333D01*
X130600197Y-29629803D01*
X130585978Y-29608523D01*
X130534022Y-29608523D01*
X130519803Y-29629803D01*
X130478601Y-29657333D01*
X130430000Y-29667000D01*
X130050000Y-29667000D01*
X130001399Y-29657333D01*
X129960197Y-29629803D01*
X129945978Y-29608523D01*
X129894022Y-29608523D01*
X129879803Y-29629803D01*
X129838601Y-29657333D01*
X129790000Y-29667000D01*
X129410000Y-29667000D01*
X129361399Y-29657333D01*
X129320197Y-29629803D01*
X129292667Y-29588601D01*
X129283000Y-29540000D01*
X129283000Y-28520000D01*
X129292667Y-28471399D01*
X129320197Y-28430197D01*
X129361399Y-28402667D01*
X129410000Y-28393000D01*
X129790000Y-28393000D01*
X129838601Y-28402667D01*
G37*
G36*
X30238601Y-26882667D02*
G01*
X30279803Y-26910197D01*
X30294021Y-26931476D01*
X30345979Y-26931476D01*
X30360197Y-26910197D01*
X30401399Y-26882667D01*
X30450000Y-26873000D01*
X30830000Y-26873000D01*
X30878601Y-26882667D01*
X30919803Y-26910197D01*
X30934021Y-26931476D01*
X30985979Y-26931476D01*
X31000197Y-26910197D01*
X31041399Y-26882667D01*
X31090000Y-26873000D01*
X31470000Y-26873000D01*
X31518601Y-26882667D01*
X31559803Y-26910197D01*
X31574021Y-26931476D01*
X31625979Y-26931476D01*
X31640197Y-26910197D01*
X31681399Y-26882667D01*
X31730000Y-26873000D01*
X32110000Y-26873000D01*
X32158601Y-26882667D01*
X32199803Y-26910197D01*
X32214021Y-26931476D01*
X32265979Y-26931476D01*
X32280197Y-26910197D01*
X32321399Y-26882667D01*
X32370000Y-26873000D01*
X32750000Y-26873000D01*
X32798601Y-26882667D01*
X32839803Y-26910197D01*
X32854021Y-26931476D01*
X32905979Y-26931476D01*
X32920197Y-26910197D01*
X32961399Y-26882667D01*
X33010000Y-26873000D01*
X33390000Y-26873000D01*
X33438601Y-26882667D01*
X33479803Y-26910197D01*
X33494021Y-26931476D01*
X33545979Y-26931476D01*
X33560197Y-26910197D01*
X33601399Y-26882667D01*
X33650000Y-26873000D01*
X34030000Y-26873000D01*
X34078601Y-26882667D01*
X34119803Y-26910197D01*
X34134021Y-26931476D01*
X34185979Y-26931476D01*
X34200197Y-26910197D01*
X34241399Y-26882667D01*
X34290000Y-26873000D01*
X34670000Y-26873000D01*
X34718601Y-26882667D01*
X34759803Y-26910197D01*
X34774021Y-26931476D01*
X34825979Y-26931476D01*
X34840197Y-26910197D01*
X34881399Y-26882667D01*
X34930000Y-26873000D01*
X35310000Y-26873000D01*
X35358601Y-26882667D01*
X35399803Y-26910197D01*
X35414021Y-26931476D01*
X35465979Y-26931476D01*
X35480197Y-26910197D01*
X35521399Y-26882667D01*
X35570000Y-26873000D01*
X35950000Y-26873000D01*
X35998601Y-26882667D01*
X36039803Y-26910197D01*
X36054021Y-26931476D01*
X36105979Y-26931476D01*
X36120197Y-26910197D01*
X36161399Y-26882667D01*
X36210000Y-26873000D01*
X36590000Y-26873000D01*
X36638601Y-26882667D01*
X36679803Y-26910197D01*
X36694021Y-26931476D01*
X36745979Y-26931476D01*
X36760197Y-26910197D01*
X36801399Y-26882667D01*
X36850000Y-26873000D01*
X37230000Y-26873000D01*
X37278601Y-26882667D01*
X37319803Y-26910197D01*
X37334021Y-26931476D01*
X37385979Y-26931476D01*
X37400197Y-26910197D01*
X37441399Y-26882667D01*
X37490000Y-26873000D01*
X37870000Y-26873000D01*
X37918601Y-26882667D01*
X37959803Y-26910197D01*
X37974021Y-26931476D01*
X38025979Y-26931476D01*
X38040197Y-26910197D01*
X38081399Y-26882667D01*
X38130000Y-26873000D01*
X38510000Y-26873000D01*
X38558601Y-26882667D01*
X38599803Y-26910197D01*
X38614021Y-26931476D01*
X38665979Y-26931476D01*
X38680197Y-26910197D01*
X38721399Y-26882667D01*
X38770000Y-26873000D01*
X39150000Y-26873000D01*
X39198601Y-26882667D01*
X39239803Y-26910197D01*
X39254021Y-26931476D01*
X39305979Y-26931476D01*
X39320197Y-26910197D01*
X39361399Y-26882667D01*
X39410000Y-26873000D01*
X39790000Y-26873000D01*
X39838601Y-26882667D01*
X39879803Y-26910197D01*
X39894021Y-26931476D01*
X39945979Y-26931476D01*
X39960197Y-26910197D01*
X40001399Y-26882667D01*
X40050000Y-26873000D01*
X40430000Y-26873000D01*
X40478601Y-26882667D01*
X40519803Y-26910197D01*
X40534021Y-26931476D01*
X40585979Y-26931476D01*
X40600197Y-26910197D01*
X40641399Y-26882667D01*
X40690000Y-26873000D01*
X41070000Y-26873000D01*
X41118601Y-26882667D01*
X41159803Y-26910197D01*
X41187333Y-26951399D01*
X41197000Y-27000000D01*
X41197000Y-28020000D01*
X41187333Y-28068601D01*
X41159803Y-28109803D01*
X41118601Y-28137333D01*
X41070000Y-28147000D01*
X40690000Y-28147000D01*
X40641399Y-28137333D01*
X40600197Y-28109803D01*
X40585978Y-28088523D01*
X40534022Y-28088523D01*
X40519803Y-28109803D01*
X40478601Y-28137333D01*
X40430000Y-28147000D01*
X40050000Y-28147000D01*
X40001399Y-28137333D01*
X39960197Y-28109803D01*
X39945978Y-28088523D01*
X39894022Y-28088523D01*
X39879803Y-28109803D01*
X39838601Y-28137333D01*
X39790000Y-28147000D01*
X39410000Y-28147000D01*
X39361399Y-28137333D01*
X39320197Y-28109803D01*
X39305978Y-28088523D01*
X39254022Y-28088523D01*
X39239803Y-28109803D01*
X39198601Y-28137333D01*
X39150000Y-28147000D01*
X38770000Y-28147000D01*
X38721399Y-28137333D01*
X38680197Y-28109803D01*
X38665978Y-28088523D01*
X38614022Y-28088523D01*
X38599803Y-28109803D01*
X38558601Y-28137333D01*
X38510000Y-28147000D01*
X38130000Y-28147000D01*
X38081399Y-28137333D01*
X38040197Y-28109803D01*
X38025978Y-28088523D01*
X37974022Y-28088523D01*
X37959803Y-28109803D01*
X37918601Y-28137333D01*
X37870000Y-28147000D01*
X37490000Y-28147000D01*
X37441399Y-28137333D01*
X37400197Y-28109803D01*
X37385978Y-28088523D01*
X37334022Y-28088523D01*
X37319803Y-28109803D01*
X37278601Y-28137333D01*
X37230000Y-28147000D01*
X36850000Y-28147000D01*
X36801399Y-28137333D01*
X36760197Y-28109803D01*
X36745978Y-28088523D01*
X36694022Y-28088523D01*
X36679803Y-28109803D01*
X36638601Y-28137333D01*
X36590000Y-28147000D01*
X36210000Y-28147000D01*
X36161399Y-28137333D01*
X36120197Y-28109803D01*
X36105978Y-28088523D01*
X36054022Y-28088523D01*
X36039803Y-28109803D01*
X35998601Y-28137333D01*
X35950000Y-28147000D01*
X35570000Y-28147000D01*
X35521399Y-28137333D01*
X35480197Y-28109803D01*
X35465978Y-28088523D01*
X35414022Y-28088523D01*
X35399803Y-28109803D01*
X35358601Y-28137333D01*
X35310000Y-28147000D01*
X34930000Y-28147000D01*
X34881399Y-28137333D01*
X34840197Y-28109803D01*
X34825978Y-28088523D01*
X34774022Y-28088523D01*
X34759803Y-28109803D01*
X34718601Y-28137333D01*
X34670000Y-28147000D01*
X34290000Y-28147000D01*
X34241399Y-28137333D01*
X34200197Y-28109803D01*
X34185978Y-28088523D01*
X34134022Y-28088523D01*
X34119803Y-28109803D01*
X34078601Y-28137333D01*
X34030000Y-28147000D01*
X33650000Y-28147000D01*
X33601399Y-28137333D01*
X33560197Y-28109803D01*
X33545978Y-28088523D01*
X33494022Y-28088523D01*
X33479803Y-28109803D01*
X33438601Y-28137333D01*
X33390000Y-28147000D01*
X33010000Y-28147000D01*
X32961399Y-28137333D01*
X32920197Y-28109803D01*
X32905978Y-28088523D01*
X32854022Y-28088523D01*
X32839803Y-28109803D01*
X32798601Y-28137333D01*
X32750000Y-28147000D01*
X32370000Y-28147000D01*
X32321399Y-28137333D01*
X32280197Y-28109803D01*
X32265978Y-28088523D01*
X32214022Y-28088523D01*
X32199803Y-28109803D01*
X32158601Y-28137333D01*
X32110000Y-28147000D01*
X31730000Y-28147000D01*
X31681399Y-28137333D01*
X31640197Y-28109803D01*
X31625978Y-28088523D01*
X31574022Y-28088523D01*
X31559803Y-28109803D01*
X31518601Y-28137333D01*
X31470000Y-28147000D01*
X31090000Y-28147000D01*
X31041399Y-28137333D01*
X31000197Y-28109803D01*
X30985978Y-28088523D01*
X30934022Y-28088523D01*
X30919803Y-28109803D01*
X30878601Y-28137333D01*
X30830000Y-28147000D01*
X30450000Y-28147000D01*
X30401399Y-28137333D01*
X30360197Y-28109803D01*
X30345978Y-28088523D01*
X30294022Y-28088523D01*
X30279803Y-28109803D01*
X30238601Y-28137333D01*
X30190000Y-28147000D01*
X29810000Y-28147000D01*
X29761399Y-28137333D01*
X29720197Y-28109803D01*
X29692667Y-28068601D01*
X29683000Y-28020000D01*
X29683000Y-27000000D01*
X29692667Y-26951399D01*
X29720197Y-26910197D01*
X29761399Y-26882667D01*
X29810000Y-26873000D01*
X30190000Y-26873000D01*
X30238601Y-26882667D01*
G37*
G36*
X49438601Y-26882667D02*
G01*
X49479803Y-26910197D01*
X49494021Y-26931476D01*
X49545979Y-26931476D01*
X49560197Y-26910197D01*
X49601399Y-26882667D01*
X49650000Y-26873000D01*
X50030000Y-26873000D01*
X50078601Y-26882667D01*
X50119803Y-26910197D01*
X50134021Y-26931476D01*
X50185979Y-26931476D01*
X50200197Y-26910197D01*
X50241399Y-26882667D01*
X50290000Y-26873000D01*
X50670000Y-26873000D01*
X50718601Y-26882667D01*
X50759803Y-26910197D01*
X50774021Y-26931476D01*
X50825979Y-26931476D01*
X50840197Y-26910197D01*
X50881399Y-26882667D01*
X50930000Y-26873000D01*
X51310000Y-26873000D01*
X51358601Y-26882667D01*
X51399803Y-26910197D01*
X51414021Y-26931476D01*
X51465979Y-26931476D01*
X51480197Y-26910197D01*
X51521399Y-26882667D01*
X51570000Y-26873000D01*
X51950000Y-26873000D01*
X51998601Y-26882667D01*
X52039803Y-26910197D01*
X52054021Y-26931476D01*
X52105979Y-26931476D01*
X52120197Y-26910197D01*
X52161399Y-26882667D01*
X52210000Y-26873000D01*
X52590000Y-26873000D01*
X52638601Y-26882667D01*
X52679803Y-26910197D01*
X52694021Y-26931476D01*
X52745979Y-26931476D01*
X52760197Y-26910197D01*
X52801399Y-26882667D01*
X52850000Y-26873000D01*
X53230000Y-26873000D01*
X53278601Y-26882667D01*
X53319803Y-26910197D01*
X53334021Y-26931476D01*
X53385979Y-26931476D01*
X53400197Y-26910197D01*
X53441399Y-26882667D01*
X53490000Y-26873000D01*
X53870000Y-26873000D01*
X53918601Y-26882667D01*
X53959803Y-26910197D01*
X53974021Y-26931476D01*
X54025979Y-26931476D01*
X54040197Y-26910197D01*
X54081399Y-26882667D01*
X54130000Y-26873000D01*
X54510000Y-26873000D01*
X54558601Y-26882667D01*
X54599803Y-26910197D01*
X54614021Y-26931476D01*
X54665979Y-26931476D01*
X54680197Y-26910197D01*
X54721399Y-26882667D01*
X54770000Y-26873000D01*
X55150000Y-26873000D01*
X55198601Y-26882667D01*
X55239803Y-26910197D01*
X55254021Y-26931476D01*
X55305979Y-26931476D01*
X55320197Y-26910197D01*
X55361399Y-26882667D01*
X55410000Y-26873000D01*
X55790000Y-26873000D01*
X55838601Y-26882667D01*
X55879803Y-26910197D01*
X55894021Y-26931476D01*
X55945979Y-26931476D01*
X55960197Y-26910197D01*
X56001399Y-26882667D01*
X56050000Y-26873000D01*
X56430000Y-26873000D01*
X56478601Y-26882667D01*
X56519803Y-26910197D01*
X56534021Y-26931476D01*
X56585979Y-26931476D01*
X56600197Y-26910197D01*
X56641399Y-26882667D01*
X56690000Y-26873000D01*
X57070000Y-26873000D01*
X57118601Y-26882667D01*
X57159803Y-26910197D01*
X57174021Y-26931476D01*
X57225979Y-26931476D01*
X57240197Y-26910197D01*
X57281399Y-26882667D01*
X57330000Y-26873000D01*
X57710000Y-26873000D01*
X57758601Y-26882667D01*
X57799803Y-26910197D01*
X57814021Y-26931476D01*
X57865979Y-26931476D01*
X57880197Y-26910197D01*
X57921399Y-26882667D01*
X57970000Y-26873000D01*
X58350000Y-26873000D01*
X58398601Y-26882667D01*
X58439803Y-26910197D01*
X58454021Y-26931476D01*
X58505979Y-26931476D01*
X58520197Y-26910197D01*
X58561399Y-26882667D01*
X58610000Y-26873000D01*
X58990000Y-26873000D01*
X59038601Y-26882667D01*
X59079803Y-26910197D01*
X59094021Y-26931476D01*
X59145979Y-26931476D01*
X59160197Y-26910197D01*
X59201399Y-26882667D01*
X59250000Y-26873000D01*
X59630000Y-26873000D01*
X59678601Y-26882667D01*
X59719803Y-26910197D01*
X59734021Y-26931476D01*
X59785979Y-26931476D01*
X59800197Y-26910197D01*
X59841399Y-26882667D01*
X59890000Y-26873000D01*
X60270000Y-26873000D01*
X60318601Y-26882667D01*
X60359803Y-26910197D01*
X60387333Y-26951399D01*
X60397000Y-27000000D01*
X60397000Y-28020000D01*
X60387333Y-28068601D01*
X60359803Y-28109803D01*
X60318601Y-28137333D01*
X60270000Y-28147000D01*
X59890000Y-28147000D01*
X59841399Y-28137333D01*
X59800197Y-28109803D01*
X59785978Y-28088523D01*
X59734022Y-28088523D01*
X59719803Y-28109803D01*
X59678601Y-28137333D01*
X59630000Y-28147000D01*
X59250000Y-28147000D01*
X59201399Y-28137333D01*
X59160197Y-28109803D01*
X59145978Y-28088523D01*
X59094022Y-28088523D01*
X59079803Y-28109803D01*
X59038601Y-28137333D01*
X58990000Y-28147000D01*
X58610000Y-28147000D01*
X58561399Y-28137333D01*
X58520197Y-28109803D01*
X58505978Y-28088523D01*
X58454022Y-28088523D01*
X58439803Y-28109803D01*
X58398601Y-28137333D01*
X58350000Y-28147000D01*
X57970000Y-28147000D01*
X57921399Y-28137333D01*
X57880197Y-28109803D01*
X57865978Y-28088523D01*
X57814022Y-28088523D01*
X57799803Y-28109803D01*
X57758601Y-28137333D01*
X57710000Y-28147000D01*
X57330000Y-28147000D01*
X57281399Y-28137333D01*
X57240197Y-28109803D01*
X57225978Y-28088523D01*
X57174022Y-28088523D01*
X57159803Y-28109803D01*
X57118601Y-28137333D01*
X57070000Y-28147000D01*
X56690000Y-28147000D01*
X56641399Y-28137333D01*
X56600197Y-28109803D01*
X56585978Y-28088523D01*
X56534022Y-28088523D01*
X56519803Y-28109803D01*
X56478601Y-28137333D01*
X56430000Y-28147000D01*
X56050000Y-28147000D01*
X56001399Y-28137333D01*
X55960197Y-28109803D01*
X55945978Y-28088523D01*
X55894022Y-28088523D01*
X55879803Y-28109803D01*
X55838601Y-28137333D01*
X55790000Y-28147000D01*
X55410000Y-28147000D01*
X55361399Y-28137333D01*
X55320197Y-28109803D01*
X55305978Y-28088523D01*
X55254022Y-28088523D01*
X55239803Y-28109803D01*
X55198601Y-28137333D01*
X55150000Y-28147000D01*
X54770000Y-28147000D01*
X54721399Y-28137333D01*
X54680197Y-28109803D01*
X54665978Y-28088523D01*
X54614022Y-28088523D01*
X54599803Y-28109803D01*
X54558601Y-28137333D01*
X54510000Y-28147000D01*
X54130000Y-28147000D01*
X54081399Y-28137333D01*
X54040197Y-28109803D01*
X54025978Y-28088523D01*
X53974022Y-28088523D01*
X53959803Y-28109803D01*
X53918601Y-28137333D01*
X53870000Y-28147000D01*
X53490000Y-28147000D01*
X53441399Y-28137333D01*
X53400197Y-28109803D01*
X53385978Y-28088523D01*
X53334022Y-28088523D01*
X53319803Y-28109803D01*
X53278601Y-28137333D01*
X53230000Y-28147000D01*
X52850000Y-28147000D01*
X52801399Y-28137333D01*
X52760197Y-28109803D01*
X52745978Y-28088523D01*
X52694022Y-28088523D01*
X52679803Y-28109803D01*
X52638601Y-28137333D01*
X52590000Y-28147000D01*
X52210000Y-28147000D01*
X52161399Y-28137333D01*
X52120197Y-28109803D01*
X52105978Y-28088523D01*
X52054022Y-28088523D01*
X52039803Y-28109803D01*
X51998601Y-28137333D01*
X51950000Y-28147000D01*
X51570000Y-28147000D01*
X51521399Y-28137333D01*
X51480197Y-28109803D01*
X51465978Y-28088523D01*
X51414022Y-28088523D01*
X51399803Y-28109803D01*
X51358601Y-28137333D01*
X51310000Y-28147000D01*
X50930000Y-28147000D01*
X50881399Y-28137333D01*
X50840197Y-28109803D01*
X50825978Y-28088523D01*
X50774022Y-28088523D01*
X50759803Y-28109803D01*
X50718601Y-28137333D01*
X50670000Y-28147000D01*
X50290000Y-28147000D01*
X50241399Y-28137333D01*
X50200197Y-28109803D01*
X50185978Y-28088523D01*
X50134022Y-28088523D01*
X50119803Y-28109803D01*
X50078601Y-28137333D01*
X50030000Y-28147000D01*
X49650000Y-28147000D01*
X49601399Y-28137333D01*
X49560197Y-28109803D01*
X49545978Y-28088523D01*
X49494022Y-28088523D01*
X49479803Y-28109803D01*
X49438601Y-28137333D01*
X49390000Y-28147000D01*
X49010000Y-28147000D01*
X48961399Y-28137333D01*
X48920197Y-28109803D01*
X48892667Y-28068601D01*
X48883000Y-28020000D01*
X48883000Y-27000000D01*
X48892667Y-26951399D01*
X48920197Y-26910197D01*
X48961399Y-26882667D01*
X49010000Y-26873000D01*
X49390000Y-26873000D01*
X49438601Y-26882667D01*
G37*
G36*
X68638601Y-26882667D02*
G01*
X68679803Y-26910197D01*
X68694021Y-26931476D01*
X68745979Y-26931476D01*
X68760197Y-26910197D01*
X68801399Y-26882667D01*
X68850000Y-26873000D01*
X69230000Y-26873000D01*
X69278601Y-26882667D01*
X69319803Y-26910197D01*
X69334021Y-26931476D01*
X69385979Y-26931476D01*
X69400197Y-26910197D01*
X69441399Y-26882667D01*
X69490000Y-26873000D01*
X69870000Y-26873000D01*
X69918601Y-26882667D01*
X69959803Y-26910197D01*
X69974021Y-26931476D01*
X70025979Y-26931476D01*
X70040197Y-26910197D01*
X70081399Y-26882667D01*
X70130000Y-26873000D01*
X70510000Y-26873000D01*
X70558601Y-26882667D01*
X70599803Y-26910197D01*
X70614021Y-26931476D01*
X70665979Y-26931476D01*
X70680197Y-26910197D01*
X70721399Y-26882667D01*
X70770000Y-26873000D01*
X71150000Y-26873000D01*
X71198601Y-26882667D01*
X71239803Y-26910197D01*
X71254021Y-26931476D01*
X71305979Y-26931476D01*
X71320197Y-26910197D01*
X71361399Y-26882667D01*
X71410000Y-26873000D01*
X71790000Y-26873000D01*
X71838601Y-26882667D01*
X71879803Y-26910197D01*
X71894021Y-26931476D01*
X71945979Y-26931476D01*
X71960197Y-26910197D01*
X72001399Y-26882667D01*
X72050000Y-26873000D01*
X72430000Y-26873000D01*
X72478601Y-26882667D01*
X72519803Y-26910197D01*
X72534021Y-26931476D01*
X72585979Y-26931476D01*
X72600197Y-26910197D01*
X72641399Y-26882667D01*
X72690000Y-26873000D01*
X73070000Y-26873000D01*
X73118601Y-26882667D01*
X73159803Y-26910197D01*
X73174021Y-26931476D01*
X73225979Y-26931476D01*
X73240197Y-26910197D01*
X73281399Y-26882667D01*
X73330000Y-26873000D01*
X73710000Y-26873000D01*
X73758601Y-26882667D01*
X73799803Y-26910197D01*
X73814021Y-26931476D01*
X73865979Y-26931476D01*
X73880197Y-26910197D01*
X73921399Y-26882667D01*
X73970000Y-26873000D01*
X74350000Y-26873000D01*
X74398601Y-26882667D01*
X74439803Y-26910197D01*
X74454021Y-26931476D01*
X74505979Y-26931476D01*
X74520197Y-26910197D01*
X74561399Y-26882667D01*
X74610000Y-26873000D01*
X74990000Y-26873000D01*
X75038601Y-26882667D01*
X75079803Y-26910197D01*
X75094021Y-26931476D01*
X75145979Y-26931476D01*
X75160197Y-26910197D01*
X75201399Y-26882667D01*
X75250000Y-26873000D01*
X75630000Y-26873000D01*
X75678601Y-26882667D01*
X75719803Y-26910197D01*
X75734021Y-26931476D01*
X75785979Y-26931476D01*
X75800197Y-26910197D01*
X75841399Y-26882667D01*
X75890000Y-26873000D01*
X76270000Y-26873000D01*
X76318601Y-26882667D01*
X76359803Y-26910197D01*
X76374021Y-26931476D01*
X76425979Y-26931476D01*
X76440197Y-26910197D01*
X76481399Y-26882667D01*
X76530000Y-26873000D01*
X76910000Y-26873000D01*
X76958601Y-26882667D01*
X76999803Y-26910197D01*
X77014021Y-26931476D01*
X77065979Y-26931476D01*
X77080197Y-26910197D01*
X77121399Y-26882667D01*
X77170000Y-26873000D01*
X77550000Y-26873000D01*
X77598601Y-26882667D01*
X77639803Y-26910197D01*
X77654021Y-26931476D01*
X77705979Y-26931476D01*
X77720197Y-26910197D01*
X77761399Y-26882667D01*
X77810000Y-26873000D01*
X78190000Y-26873000D01*
X78238601Y-26882667D01*
X78279803Y-26910197D01*
X78294021Y-26931476D01*
X78345979Y-26931476D01*
X78360197Y-26910197D01*
X78401399Y-26882667D01*
X78450000Y-26873000D01*
X78830000Y-26873000D01*
X78878601Y-26882667D01*
X78919803Y-26910197D01*
X78934021Y-26931476D01*
X78985979Y-26931476D01*
X79000197Y-26910197D01*
X79041399Y-26882667D01*
X79090000Y-26873000D01*
X79470000Y-26873000D01*
X79518601Y-26882667D01*
X79559803Y-26910197D01*
X79587333Y-26951399D01*
X79597000Y-27000000D01*
X79597000Y-28020000D01*
X79587333Y-28068601D01*
X79559803Y-28109803D01*
X79518601Y-28137333D01*
X79470000Y-28147000D01*
X79090000Y-28147000D01*
X79041399Y-28137333D01*
X79000197Y-28109803D01*
X78985978Y-28088523D01*
X78934022Y-28088523D01*
X78919803Y-28109803D01*
X78878601Y-28137333D01*
X78830000Y-28147000D01*
X78450000Y-28147000D01*
X78401399Y-28137333D01*
X78360197Y-28109803D01*
X78345978Y-28088523D01*
X78294022Y-28088523D01*
X78279803Y-28109803D01*
X78238601Y-28137333D01*
X78190000Y-28147000D01*
X77810000Y-28147000D01*
X77761399Y-28137333D01*
X77720197Y-28109803D01*
X77705978Y-28088523D01*
X77654022Y-28088523D01*
X77639803Y-28109803D01*
X77598601Y-28137333D01*
X77550000Y-28147000D01*
X77170000Y-28147000D01*
X77121399Y-28137333D01*
X77080197Y-28109803D01*
X77065978Y-28088523D01*
X77014022Y-28088523D01*
X76999803Y-28109803D01*
X76958601Y-28137333D01*
X76910000Y-28147000D01*
X76530000Y-28147000D01*
X76481399Y-28137333D01*
X76440197Y-28109803D01*
X76425978Y-28088523D01*
X76374022Y-28088523D01*
X76359803Y-28109803D01*
X76318601Y-28137333D01*
X76270000Y-28147000D01*
X75890000Y-28147000D01*
X75841399Y-28137333D01*
X75800197Y-28109803D01*
X75785978Y-28088523D01*
X75734022Y-28088523D01*
X75719803Y-28109803D01*
X75678601Y-28137333D01*
X75630000Y-28147000D01*
X75250000Y-28147000D01*
X75201399Y-28137333D01*
X75160197Y-28109803D01*
X75145978Y-28088523D01*
X75094022Y-28088523D01*
X75079803Y-28109803D01*
X75038601Y-28137333D01*
X74990000Y-28147000D01*
X74610000Y-28147000D01*
X74561399Y-28137333D01*
X74520197Y-28109803D01*
X74505978Y-28088523D01*
X74454022Y-28088523D01*
X74439803Y-28109803D01*
X74398601Y-28137333D01*
X74350000Y-28147000D01*
X73970000Y-28147000D01*
X73921399Y-28137333D01*
X73880197Y-28109803D01*
X73865978Y-28088523D01*
X73814022Y-28088523D01*
X73799803Y-28109803D01*
X73758601Y-28137333D01*
X73710000Y-28147000D01*
X73330000Y-28147000D01*
X73281399Y-28137333D01*
X73240197Y-28109803D01*
X73225978Y-28088523D01*
X73174022Y-28088523D01*
X73159803Y-28109803D01*
X73118601Y-28137333D01*
X73070000Y-28147000D01*
X72690000Y-28147000D01*
X72641399Y-28137333D01*
X72600197Y-28109803D01*
X72585978Y-28088523D01*
X72534022Y-28088523D01*
X72519803Y-28109803D01*
X72478601Y-28137333D01*
X72430000Y-28147000D01*
X72050000Y-28147000D01*
X72001399Y-28137333D01*
X71960197Y-28109803D01*
X71945978Y-28088523D01*
X71894022Y-28088523D01*
X71879803Y-28109803D01*
X71838601Y-28137333D01*
X71790000Y-28147000D01*
X71410000Y-28147000D01*
X71361399Y-28137333D01*
X71320197Y-28109803D01*
X71305978Y-28088523D01*
X71254022Y-28088523D01*
X71239803Y-28109803D01*
X71198601Y-28137333D01*
X71150000Y-28147000D01*
X70770000Y-28147000D01*
X70721399Y-28137333D01*
X70680197Y-28109803D01*
X70665978Y-28088523D01*
X70614022Y-28088523D01*
X70599803Y-28109803D01*
X70558601Y-28137333D01*
X70510000Y-28147000D01*
X70130000Y-28147000D01*
X70081399Y-28137333D01*
X70040197Y-28109803D01*
X70025978Y-28088523D01*
X69974022Y-28088523D01*
X69959803Y-28109803D01*
X69918601Y-28137333D01*
X69870000Y-28147000D01*
X69490000Y-28147000D01*
X69441399Y-28137333D01*
X69400197Y-28109803D01*
X69385978Y-28088523D01*
X69334022Y-28088523D01*
X69319803Y-28109803D01*
X69278601Y-28137333D01*
X69230000Y-28147000D01*
X68850000Y-28147000D01*
X68801399Y-28137333D01*
X68760197Y-28109803D01*
X68745978Y-28088523D01*
X68694022Y-28088523D01*
X68679803Y-28109803D01*
X68638601Y-28137333D01*
X68590000Y-28147000D01*
X68210000Y-28147000D01*
X68161399Y-28137333D01*
X68120197Y-28109803D01*
X68092667Y-28068601D01*
X68083000Y-28020000D01*
X68083000Y-27000000D01*
X68092667Y-26951399D01*
X68120197Y-26910197D01*
X68161399Y-26882667D01*
X68210000Y-26873000D01*
X68590000Y-26873000D01*
X68638601Y-26882667D01*
G37*
G36*
X91438601Y-26882667D02*
G01*
X91479803Y-26910197D01*
X91494021Y-26931476D01*
X91545979Y-26931476D01*
X91560197Y-26910197D01*
X91601399Y-26882667D01*
X91650000Y-26873000D01*
X92030000Y-26873000D01*
X92078601Y-26882667D01*
X92119803Y-26910197D01*
X92134021Y-26931476D01*
X92185979Y-26931476D01*
X92200197Y-26910197D01*
X92241399Y-26882667D01*
X92290000Y-26873000D01*
X92670000Y-26873000D01*
X92718601Y-26882667D01*
X92759803Y-26910197D01*
X92774021Y-26931476D01*
X92825979Y-26931476D01*
X92840197Y-26910197D01*
X92881399Y-26882667D01*
X92930000Y-26873000D01*
X93310000Y-26873000D01*
X93358601Y-26882667D01*
X93399803Y-26910197D01*
X93414021Y-26931476D01*
X93465979Y-26931476D01*
X93480197Y-26910197D01*
X93521399Y-26882667D01*
X93570000Y-26873000D01*
X93950000Y-26873000D01*
X93998601Y-26882667D01*
X94039803Y-26910197D01*
X94054021Y-26931476D01*
X94105979Y-26931476D01*
X94120197Y-26910197D01*
X94161399Y-26882667D01*
X94210000Y-26873000D01*
X94590000Y-26873000D01*
X94638601Y-26882667D01*
X94679803Y-26910197D01*
X94694021Y-26931476D01*
X94745979Y-26931476D01*
X94760197Y-26910197D01*
X94801399Y-26882667D01*
X94850000Y-26873000D01*
X95230000Y-26873000D01*
X95278601Y-26882667D01*
X95319803Y-26910197D01*
X95334021Y-26931476D01*
X95385979Y-26931476D01*
X95400197Y-26910197D01*
X95441399Y-26882667D01*
X95490000Y-26873000D01*
X95870000Y-26873000D01*
X95918601Y-26882667D01*
X95959803Y-26910197D01*
X95974021Y-26931476D01*
X96025979Y-26931476D01*
X96040197Y-26910197D01*
X96081399Y-26882667D01*
X96130000Y-26873000D01*
X96510000Y-26873000D01*
X96558601Y-26882667D01*
X96599803Y-26910197D01*
X96614021Y-26931476D01*
X96665979Y-26931476D01*
X96680197Y-26910197D01*
X96721399Y-26882667D01*
X96770000Y-26873000D01*
X97150000Y-26873000D01*
X97198601Y-26882667D01*
X97239803Y-26910197D01*
X97254021Y-26931476D01*
X97305979Y-26931476D01*
X97320197Y-26910197D01*
X97361399Y-26882667D01*
X97410000Y-26873000D01*
X97790000Y-26873000D01*
X97838601Y-26882667D01*
X97879803Y-26910197D01*
X97894021Y-26931476D01*
X97945979Y-26931476D01*
X97960197Y-26910197D01*
X98001399Y-26882667D01*
X98050000Y-26873000D01*
X98430000Y-26873000D01*
X98478601Y-26882667D01*
X98519803Y-26910197D01*
X98534021Y-26931476D01*
X98585979Y-26931476D01*
X98600197Y-26910197D01*
X98641399Y-26882667D01*
X98690000Y-26873000D01*
X99070000Y-26873000D01*
X99118601Y-26882667D01*
X99159803Y-26910197D01*
X99174021Y-26931476D01*
X99225979Y-26931476D01*
X99240197Y-26910197D01*
X99281399Y-26882667D01*
X99330000Y-26873000D01*
X99710000Y-26873000D01*
X99758601Y-26882667D01*
X99799803Y-26910197D01*
X99814021Y-26931476D01*
X99865979Y-26931476D01*
X99880197Y-26910197D01*
X99921399Y-26882667D01*
X99970000Y-26873000D01*
X100350000Y-26873000D01*
X100398601Y-26882667D01*
X100439803Y-26910197D01*
X100454021Y-26931476D01*
X100505979Y-26931476D01*
X100520197Y-26910197D01*
X100561399Y-26882667D01*
X100610000Y-26873000D01*
X100990000Y-26873000D01*
X101038601Y-26882667D01*
X101079803Y-26910197D01*
X101094021Y-26931476D01*
X101145979Y-26931476D01*
X101160197Y-26910197D01*
X101201399Y-26882667D01*
X101250000Y-26873000D01*
X101630000Y-26873000D01*
X101678601Y-26882667D01*
X101719803Y-26910197D01*
X101734021Y-26931476D01*
X101785979Y-26931476D01*
X101800197Y-26910197D01*
X101841399Y-26882667D01*
X101890000Y-26873000D01*
X102270000Y-26873000D01*
X102318601Y-26882667D01*
X102359803Y-26910197D01*
X102387333Y-26951399D01*
X102397000Y-27000000D01*
X102397000Y-28020000D01*
X102387333Y-28068601D01*
X102359803Y-28109803D01*
X102318601Y-28137333D01*
X102270000Y-28147000D01*
X101890000Y-28147000D01*
X101841399Y-28137333D01*
X101800197Y-28109803D01*
X101785978Y-28088523D01*
X101734022Y-28088523D01*
X101719803Y-28109803D01*
X101678601Y-28137333D01*
X101630000Y-28147000D01*
X101250000Y-28147000D01*
X101201399Y-28137333D01*
X101160197Y-28109803D01*
X101145978Y-28088523D01*
X101094022Y-28088523D01*
X101079803Y-28109803D01*
X101038601Y-28137333D01*
X100990000Y-28147000D01*
X100610000Y-28147000D01*
X100561399Y-28137333D01*
X100520197Y-28109803D01*
X100505978Y-28088523D01*
X100454022Y-28088523D01*
X100439803Y-28109803D01*
X100398601Y-28137333D01*
X100350000Y-28147000D01*
X99970000Y-28147000D01*
X99921399Y-28137333D01*
X99880197Y-28109803D01*
X99865978Y-28088523D01*
X99814022Y-28088523D01*
X99799803Y-28109803D01*
X99758601Y-28137333D01*
X99710000Y-28147000D01*
X99330000Y-28147000D01*
X99281399Y-28137333D01*
X99240197Y-28109803D01*
X99225978Y-28088523D01*
X99174022Y-28088523D01*
X99159803Y-28109803D01*
X99118601Y-28137333D01*
X99070000Y-28147000D01*
X98690000Y-28147000D01*
X98641399Y-28137333D01*
X98600197Y-28109803D01*
X98585978Y-28088523D01*
X98534022Y-28088523D01*
X98519803Y-28109803D01*
X98478601Y-28137333D01*
X98430000Y-28147000D01*
X98050000Y-28147000D01*
X98001399Y-28137333D01*
X97960197Y-28109803D01*
X97945978Y-28088523D01*
X97894022Y-28088523D01*
X97879803Y-28109803D01*
X97838601Y-28137333D01*
X97790000Y-28147000D01*
X97410000Y-28147000D01*
X97361399Y-28137333D01*
X97320197Y-28109803D01*
X97305978Y-28088523D01*
X97254022Y-28088523D01*
X97239803Y-28109803D01*
X97198601Y-28137333D01*
X97150000Y-28147000D01*
X96770000Y-28147000D01*
X96721399Y-28137333D01*
X96680197Y-28109803D01*
X96665978Y-28088523D01*
X96614022Y-28088523D01*
X96599803Y-28109803D01*
X96558601Y-28137333D01*
X96510000Y-28147000D01*
X96130000Y-28147000D01*
X96081399Y-28137333D01*
X96040197Y-28109803D01*
X96025978Y-28088523D01*
X95974022Y-28088523D01*
X95959803Y-28109803D01*
X95918601Y-28137333D01*
X95870000Y-28147000D01*
X95490000Y-28147000D01*
X95441399Y-28137333D01*
X95400197Y-28109803D01*
X95385978Y-28088523D01*
X95334022Y-28088523D01*
X95319803Y-28109803D01*
X95278601Y-28137333D01*
X95230000Y-28147000D01*
X94850000Y-28147000D01*
X94801399Y-28137333D01*
X94760197Y-28109803D01*
X94745978Y-28088523D01*
X94694022Y-28088523D01*
X94679803Y-28109803D01*
X94638601Y-28137333D01*
X94590000Y-28147000D01*
X94210000Y-28147000D01*
X94161399Y-28137333D01*
X94120197Y-28109803D01*
X94105978Y-28088523D01*
X94054022Y-28088523D01*
X94039803Y-28109803D01*
X93998601Y-28137333D01*
X93950000Y-28147000D01*
X93570000Y-28147000D01*
X93521399Y-28137333D01*
X93480197Y-28109803D01*
X93465978Y-28088523D01*
X93414022Y-28088523D01*
X93399803Y-28109803D01*
X93358601Y-28137333D01*
X93310000Y-28147000D01*
X92930000Y-28147000D01*
X92881399Y-28137333D01*
X92840197Y-28109803D01*
X92825978Y-28088523D01*
X92774022Y-28088523D01*
X92759803Y-28109803D01*
X92718601Y-28137333D01*
X92670000Y-28147000D01*
X92290000Y-28147000D01*
X92241399Y-28137333D01*
X92200197Y-28109803D01*
X92185978Y-28088523D01*
X92134022Y-28088523D01*
X92119803Y-28109803D01*
X92078601Y-28137333D01*
X92030000Y-28147000D01*
X91650000Y-28147000D01*
X91601399Y-28137333D01*
X91560197Y-28109803D01*
X91545978Y-28088523D01*
X91494022Y-28088523D01*
X91479803Y-28109803D01*
X91438601Y-28137333D01*
X91390000Y-28147000D01*
X91010000Y-28147000D01*
X90961399Y-28137333D01*
X90920197Y-28109803D01*
X90892667Y-28068601D01*
X90883000Y-28020000D01*
X90883000Y-27000000D01*
X90892667Y-26951399D01*
X90920197Y-26910197D01*
X90961399Y-26882667D01*
X91010000Y-26873000D01*
X91390000Y-26873000D01*
X91438601Y-26882667D01*
G37*
G36*
X110638601Y-26882667D02*
G01*
X110679803Y-26910197D01*
X110694021Y-26931476D01*
X110745979Y-26931476D01*
X110760197Y-26910197D01*
X110801399Y-26882667D01*
X110850000Y-26873000D01*
X111230000Y-26873000D01*
X111278601Y-26882667D01*
X111319803Y-26910197D01*
X111334021Y-26931476D01*
X111385979Y-26931476D01*
X111400197Y-26910197D01*
X111441399Y-26882667D01*
X111490000Y-26873000D01*
X111870000Y-26873000D01*
X111918601Y-26882667D01*
X111959803Y-26910197D01*
X111974021Y-26931476D01*
X112025979Y-26931476D01*
X112040197Y-26910197D01*
X112081399Y-26882667D01*
X112130000Y-26873000D01*
X112510000Y-26873000D01*
X112558601Y-26882667D01*
X112599803Y-26910197D01*
X112614021Y-26931476D01*
X112665979Y-26931476D01*
X112680197Y-26910197D01*
X112721399Y-26882667D01*
X112770000Y-26873000D01*
X113150000Y-26873000D01*
X113198601Y-26882667D01*
X113239803Y-26910197D01*
X113254021Y-26931476D01*
X113305979Y-26931476D01*
X113320197Y-26910197D01*
X113361399Y-26882667D01*
X113410000Y-26873000D01*
X113790000Y-26873000D01*
X113838601Y-26882667D01*
X113879803Y-26910197D01*
X113894021Y-26931476D01*
X113945979Y-26931476D01*
X113960197Y-26910197D01*
X114001399Y-26882667D01*
X114050000Y-26873000D01*
X114430000Y-26873000D01*
X114478601Y-26882667D01*
X114519803Y-26910197D01*
X114534021Y-26931476D01*
X114585979Y-26931476D01*
X114600197Y-26910197D01*
X114641399Y-26882667D01*
X114690000Y-26873000D01*
X115070000Y-26873000D01*
X115118601Y-26882667D01*
X115159803Y-26910197D01*
X115174021Y-26931476D01*
X115225979Y-26931476D01*
X115240197Y-26910197D01*
X115281399Y-26882667D01*
X115330000Y-26873000D01*
X115710000Y-26873000D01*
X115758601Y-26882667D01*
X115799803Y-26910197D01*
X115814021Y-26931476D01*
X115865979Y-26931476D01*
X115880197Y-26910197D01*
X115921399Y-26882667D01*
X115970000Y-26873000D01*
X116350000Y-26873000D01*
X116398601Y-26882667D01*
X116439803Y-26910197D01*
X116454021Y-26931476D01*
X116505979Y-26931476D01*
X116520197Y-26910197D01*
X116561399Y-26882667D01*
X116610000Y-26873000D01*
X116990000Y-26873000D01*
X117038601Y-26882667D01*
X117079803Y-26910197D01*
X117094021Y-26931476D01*
X117145979Y-26931476D01*
X117160197Y-26910197D01*
X117201399Y-26882667D01*
X117250000Y-26873000D01*
X117630000Y-26873000D01*
X117678601Y-26882667D01*
X117719803Y-26910197D01*
X117734021Y-26931476D01*
X117785979Y-26931476D01*
X117800197Y-26910197D01*
X117841399Y-26882667D01*
X117890000Y-26873000D01*
X118270000Y-26873000D01*
X118318601Y-26882667D01*
X118359803Y-26910197D01*
X118374021Y-26931476D01*
X118425979Y-26931476D01*
X118440197Y-26910197D01*
X118481399Y-26882667D01*
X118530000Y-26873000D01*
X118910000Y-26873000D01*
X118958601Y-26882667D01*
X118999803Y-26910197D01*
X119014021Y-26931476D01*
X119065979Y-26931476D01*
X119080197Y-26910197D01*
X119121399Y-26882667D01*
X119170000Y-26873000D01*
X119550000Y-26873000D01*
X119598601Y-26882667D01*
X119639803Y-26910197D01*
X119654021Y-26931476D01*
X119705979Y-26931476D01*
X119720197Y-26910197D01*
X119761399Y-26882667D01*
X119810000Y-26873000D01*
X120190000Y-26873000D01*
X120238601Y-26882667D01*
X120279803Y-26910197D01*
X120294021Y-26931476D01*
X120345979Y-26931476D01*
X120360197Y-26910197D01*
X120401399Y-26882667D01*
X120450000Y-26873000D01*
X120830000Y-26873000D01*
X120878601Y-26882667D01*
X120919803Y-26910197D01*
X120934021Y-26931476D01*
X120985979Y-26931476D01*
X121000197Y-26910197D01*
X121041399Y-26882667D01*
X121090000Y-26873000D01*
X121470000Y-26873000D01*
X121518601Y-26882667D01*
X121559803Y-26910197D01*
X121587333Y-26951399D01*
X121597000Y-27000000D01*
X121597000Y-28020000D01*
X121587333Y-28068601D01*
X121559803Y-28109803D01*
X121518601Y-28137333D01*
X121470000Y-28147000D01*
X121090000Y-28147000D01*
X121041399Y-28137333D01*
X121000197Y-28109803D01*
X120985978Y-28088523D01*
X120934022Y-28088523D01*
X120919803Y-28109803D01*
X120878601Y-28137333D01*
X120830000Y-28147000D01*
X120450000Y-28147000D01*
X120401399Y-28137333D01*
X120360197Y-28109803D01*
X120345978Y-28088523D01*
X120294022Y-28088523D01*
X120279803Y-28109803D01*
X120238601Y-28137333D01*
X120190000Y-28147000D01*
X119810000Y-28147000D01*
X119761399Y-28137333D01*
X119720197Y-28109803D01*
X119705978Y-28088523D01*
X119654022Y-28088523D01*
X119639803Y-28109803D01*
X119598601Y-28137333D01*
X119550000Y-28147000D01*
X119170000Y-28147000D01*
X119121399Y-28137333D01*
X119080197Y-28109803D01*
X119065978Y-28088523D01*
X119014022Y-28088523D01*
X118999803Y-28109803D01*
X118958601Y-28137333D01*
X118910000Y-28147000D01*
X118530000Y-28147000D01*
X118481399Y-28137333D01*
X118440197Y-28109803D01*
X118425978Y-28088523D01*
X118374022Y-28088523D01*
X118359803Y-28109803D01*
X118318601Y-28137333D01*
X118270000Y-28147000D01*
X117890000Y-28147000D01*
X117841399Y-28137333D01*
X117800197Y-28109803D01*
X117785978Y-28088523D01*
X117734022Y-28088523D01*
X117719803Y-28109803D01*
X117678601Y-28137333D01*
X117630000Y-28147000D01*
X117250000Y-28147000D01*
X117201399Y-28137333D01*
X117160197Y-28109803D01*
X117145978Y-28088523D01*
X117094022Y-28088523D01*
X117079803Y-28109803D01*
X117038601Y-28137333D01*
X116990000Y-28147000D01*
X116610000Y-28147000D01*
X116561399Y-28137333D01*
X116520197Y-28109803D01*
X116505978Y-28088523D01*
X116454022Y-28088523D01*
X116439803Y-28109803D01*
X116398601Y-28137333D01*
X116350000Y-28147000D01*
X115970000Y-28147000D01*
X115921399Y-28137333D01*
X115880197Y-28109803D01*
X115865978Y-28088523D01*
X115814022Y-28088523D01*
X115799803Y-28109803D01*
X115758601Y-28137333D01*
X115710000Y-28147000D01*
X115330000Y-28147000D01*
X115281399Y-28137333D01*
X115240197Y-28109803D01*
X115225978Y-28088523D01*
X115174022Y-28088523D01*
X115159803Y-28109803D01*
X115118601Y-28137333D01*
X115070000Y-28147000D01*
X114690000Y-28147000D01*
X114641399Y-28137333D01*
X114600197Y-28109803D01*
X114585978Y-28088523D01*
X114534022Y-28088523D01*
X114519803Y-28109803D01*
X114478601Y-28137333D01*
X114430000Y-28147000D01*
X114050000Y-28147000D01*
X114001399Y-28137333D01*
X113960197Y-28109803D01*
X113945978Y-28088523D01*
X113894022Y-28088523D01*
X113879803Y-28109803D01*
X113838601Y-28137333D01*
X113790000Y-28147000D01*
X113410000Y-28147000D01*
X113361399Y-28137333D01*
X113320197Y-28109803D01*
X113305978Y-28088523D01*
X113254022Y-28088523D01*
X113239803Y-28109803D01*
X113198601Y-28137333D01*
X113150000Y-28147000D01*
X112770000Y-28147000D01*
X112721399Y-28137333D01*
X112680197Y-28109803D01*
X112665978Y-28088523D01*
X112614022Y-28088523D01*
X112599803Y-28109803D01*
X112558601Y-28137333D01*
X112510000Y-28147000D01*
X112130000Y-28147000D01*
X112081399Y-28137333D01*
X112040197Y-28109803D01*
X112025978Y-28088523D01*
X111974022Y-28088523D01*
X111959803Y-28109803D01*
X111918601Y-28137333D01*
X111870000Y-28147000D01*
X111490000Y-28147000D01*
X111441399Y-28137333D01*
X111400197Y-28109803D01*
X111385978Y-28088523D01*
X111334022Y-28088523D01*
X111319803Y-28109803D01*
X111278601Y-28137333D01*
X111230000Y-28147000D01*
X110850000Y-28147000D01*
X110801399Y-28137333D01*
X110760197Y-28109803D01*
X110745978Y-28088523D01*
X110694022Y-28088523D01*
X110679803Y-28109803D01*
X110638601Y-28137333D01*
X110590000Y-28147000D01*
X110210000Y-28147000D01*
X110161399Y-28137333D01*
X110120197Y-28109803D01*
X110092667Y-28068601D01*
X110083000Y-28020000D01*
X110083000Y-27000000D01*
X110092667Y-26951399D01*
X110120197Y-26910197D01*
X110161399Y-26882667D01*
X110210000Y-26873000D01*
X110590000Y-26873000D01*
X110638601Y-26882667D01*
G37*
G36*
X129838601Y-26882667D02*
G01*
X129879803Y-26910197D01*
X129894021Y-26931476D01*
X129945979Y-26931476D01*
X129960197Y-26910197D01*
X130001399Y-26882667D01*
X130050000Y-26873000D01*
X130430000Y-26873000D01*
X130478601Y-26882667D01*
X130519803Y-26910197D01*
X130534021Y-26931476D01*
X130585979Y-26931476D01*
X130600197Y-26910197D01*
X130641399Y-26882667D01*
X130690000Y-26873000D01*
X131070000Y-26873000D01*
X131118601Y-26882667D01*
X131159803Y-26910197D01*
X131174021Y-26931476D01*
X131225979Y-26931476D01*
X131240197Y-26910197D01*
X131281399Y-26882667D01*
X131330000Y-26873000D01*
X131710000Y-26873000D01*
X131758601Y-26882667D01*
X131799803Y-26910197D01*
X131814021Y-26931476D01*
X131865979Y-26931476D01*
X131880197Y-26910197D01*
X131921399Y-26882667D01*
X131970000Y-26873000D01*
X132350000Y-26873000D01*
X132398601Y-26882667D01*
X132439803Y-26910197D01*
X132454021Y-26931476D01*
X132505979Y-26931476D01*
X132520197Y-26910197D01*
X132561399Y-26882667D01*
X132610000Y-26873000D01*
X132990000Y-26873000D01*
X133038601Y-26882667D01*
X133079803Y-26910197D01*
X133094021Y-26931476D01*
X133145979Y-26931476D01*
X133160197Y-26910197D01*
X133201399Y-26882667D01*
X133250000Y-26873000D01*
X133630000Y-26873000D01*
X133678601Y-26882667D01*
X133719803Y-26910197D01*
X133734021Y-26931476D01*
X133785979Y-26931476D01*
X133800197Y-26910197D01*
X133841399Y-26882667D01*
X133890000Y-26873000D01*
X134270000Y-26873000D01*
X134318601Y-26882667D01*
X134359803Y-26910197D01*
X134374021Y-26931476D01*
X134425979Y-26931476D01*
X134440197Y-26910197D01*
X134481399Y-26882667D01*
X134530000Y-26873000D01*
X134910000Y-26873000D01*
X134958601Y-26882667D01*
X134999803Y-26910197D01*
X135014021Y-26931476D01*
X135065979Y-26931476D01*
X135080197Y-26910197D01*
X135121399Y-26882667D01*
X135170000Y-26873000D01*
X135550000Y-26873000D01*
X135598601Y-26882667D01*
X135639803Y-26910197D01*
X135654021Y-26931476D01*
X135705979Y-26931476D01*
X135720197Y-26910197D01*
X135761399Y-26882667D01*
X135810000Y-26873000D01*
X136190000Y-26873000D01*
X136238601Y-26882667D01*
X136279803Y-26910197D01*
X136294021Y-26931476D01*
X136345979Y-26931476D01*
X136360197Y-26910197D01*
X136401399Y-26882667D01*
X136450000Y-26873000D01*
X136830000Y-26873000D01*
X136878601Y-26882667D01*
X136919803Y-26910197D01*
X136934021Y-26931476D01*
X136985979Y-26931476D01*
X137000197Y-26910197D01*
X137041399Y-26882667D01*
X137090000Y-26873000D01*
X137470000Y-26873000D01*
X137518601Y-26882667D01*
X137559803Y-26910197D01*
X137574021Y-26931476D01*
X137625979Y-26931476D01*
X137640197Y-26910197D01*
X137681399Y-26882667D01*
X137730000Y-26873000D01*
X138110000Y-26873000D01*
X138158601Y-26882667D01*
X138199803Y-26910197D01*
X138214021Y-26931476D01*
X138265979Y-26931476D01*
X138280197Y-26910197D01*
X138321399Y-26882667D01*
X138370000Y-26873000D01*
X138750000Y-26873000D01*
X138798601Y-26882667D01*
X138839803Y-26910197D01*
X138854021Y-26931476D01*
X138905979Y-26931476D01*
X138920197Y-26910197D01*
X138961399Y-26882667D01*
X139010000Y-26873000D01*
X139390000Y-26873000D01*
X139438601Y-26882667D01*
X139479803Y-26910197D01*
X139494021Y-26931476D01*
X139545979Y-26931476D01*
X139560197Y-26910197D01*
X139601399Y-26882667D01*
X139650000Y-26873000D01*
X140030000Y-26873000D01*
X140078601Y-26882667D01*
X140119803Y-26910197D01*
X140134021Y-26931476D01*
X140185979Y-26931476D01*
X140200197Y-26910197D01*
X140241399Y-26882667D01*
X140290000Y-26873000D01*
X140670000Y-26873000D01*
X140718601Y-26882667D01*
X140759803Y-26910197D01*
X140787333Y-26951399D01*
X140797000Y-27000000D01*
X140797000Y-28020000D01*
X140787333Y-28068601D01*
X140759803Y-28109803D01*
X140718601Y-28137333D01*
X140670000Y-28147000D01*
X140290000Y-28147000D01*
X140241399Y-28137333D01*
X140200197Y-28109803D01*
X140185978Y-28088523D01*
X140134022Y-28088523D01*
X140119803Y-28109803D01*
X140078601Y-28137333D01*
X140030000Y-28147000D01*
X139650000Y-28147000D01*
X139601399Y-28137333D01*
X139560197Y-28109803D01*
X139545978Y-28088523D01*
X139494022Y-28088523D01*
X139479803Y-28109803D01*
X139438601Y-28137333D01*
X139390000Y-28147000D01*
X139010000Y-28147000D01*
X138961399Y-28137333D01*
X138920197Y-28109803D01*
X138905978Y-28088523D01*
X138854022Y-28088523D01*
X138839803Y-28109803D01*
X138798601Y-28137333D01*
X138750000Y-28147000D01*
X138370000Y-28147000D01*
X138321399Y-28137333D01*
X138280197Y-28109803D01*
X138265978Y-28088523D01*
X138214022Y-28088523D01*
X138199803Y-28109803D01*
X138158601Y-28137333D01*
X138110000Y-28147000D01*
X137730000Y-28147000D01*
X137681399Y-28137333D01*
X137640197Y-28109803D01*
X137625978Y-28088523D01*
X137574022Y-28088523D01*
X137559803Y-28109803D01*
X137518601Y-28137333D01*
X137470000Y-28147000D01*
X137090000Y-28147000D01*
X137041399Y-28137333D01*
X137000197Y-28109803D01*
X136985978Y-28088523D01*
X136934022Y-28088523D01*
X136919803Y-28109803D01*
X136878601Y-28137333D01*
X136830000Y-28147000D01*
X136450000Y-28147000D01*
X136401399Y-28137333D01*
X136360197Y-28109803D01*
X136345978Y-28088523D01*
X136294022Y-28088523D01*
X136279803Y-28109803D01*
X136238601Y-28137333D01*
X136190000Y-28147000D01*
X135810000Y-28147000D01*
X135761399Y-28137333D01*
X135720197Y-28109803D01*
X135705978Y-28088523D01*
X135654022Y-28088523D01*
X135639803Y-28109803D01*
X135598601Y-28137333D01*
X135550000Y-28147000D01*
X135170000Y-28147000D01*
X135121399Y-28137333D01*
X135080197Y-28109803D01*
X135065978Y-28088523D01*
X135014022Y-28088523D01*
X134999803Y-28109803D01*
X134958601Y-28137333D01*
X134910000Y-28147000D01*
X134530000Y-28147000D01*
X134481399Y-28137333D01*
X134440197Y-28109803D01*
X134425978Y-28088523D01*
X134374022Y-28088523D01*
X134359803Y-28109803D01*
X134318601Y-28137333D01*
X134270000Y-28147000D01*
X133890000Y-28147000D01*
X133841399Y-28137333D01*
X133800197Y-28109803D01*
X133785978Y-28088523D01*
X133734022Y-28088523D01*
X133719803Y-28109803D01*
X133678601Y-28137333D01*
X133630000Y-28147000D01*
X133250000Y-28147000D01*
X133201399Y-28137333D01*
X133160197Y-28109803D01*
X133145978Y-28088523D01*
X133094022Y-28088523D01*
X133079803Y-28109803D01*
X133038601Y-28137333D01*
X132990000Y-28147000D01*
X132610000Y-28147000D01*
X132561399Y-28137333D01*
X132520197Y-28109803D01*
X132505978Y-28088523D01*
X132454022Y-28088523D01*
X132439803Y-28109803D01*
X132398601Y-28137333D01*
X132350000Y-28147000D01*
X131970000Y-28147000D01*
X131921399Y-28137333D01*
X131880197Y-28109803D01*
X131865978Y-28088523D01*
X131814022Y-28088523D01*
X131799803Y-28109803D01*
X131758601Y-28137333D01*
X131710000Y-28147000D01*
X131330000Y-28147000D01*
X131281399Y-28137333D01*
X131240197Y-28109803D01*
X131225978Y-28088523D01*
X131174022Y-28088523D01*
X131159803Y-28109803D01*
X131118601Y-28137333D01*
X131070000Y-28147000D01*
X130690000Y-28147000D01*
X130641399Y-28137333D01*
X130600197Y-28109803D01*
X130585978Y-28088523D01*
X130534022Y-28088523D01*
X130519803Y-28109803D01*
X130478601Y-28137333D01*
X130430000Y-28147000D01*
X130050000Y-28147000D01*
X130001399Y-28137333D01*
X129960197Y-28109803D01*
X129945978Y-28088523D01*
X129894022Y-28088523D01*
X129879803Y-28109803D01*
X129838601Y-28137333D01*
X129790000Y-28147000D01*
X129410000Y-28147000D01*
X129361399Y-28137333D01*
X129320197Y-28109803D01*
X129292667Y-28068601D01*
X129283000Y-28020000D01*
X129283000Y-27000000D01*
X129292667Y-26951399D01*
X129320197Y-26910197D01*
X129361399Y-26882667D01*
X129410000Y-26873000D01*
X129790000Y-26873000D01*
X129838601Y-26882667D01*
G37*
M02*
