M48
INCH,TZ
T1C0.0079
%
G90
G05
T1
X51496Y-11811
X51732Y-12311
X51969Y-11811
X52205Y-12311
X52441Y-11811
X52677Y-12311
X52913Y-11811
X53150Y-12311
X53386Y-11811
X53622Y-12311
X53858Y-11811
X54094Y-12311
X54331Y-11811
X54567Y-12311
X54803Y-11811
X55039Y-12311
X55276Y-12811
X55512Y-13311
X55748Y-12811
X55984Y-13311
X56220Y-12811
X56457Y-13311
X56693Y-12811
X56929Y-13311
X57165Y-12811
X57402Y-13311
X57638Y-12811
X57874Y-13311
X58110Y-12811
X58346Y-13311
X58583Y-12811
X58819Y-13311
T0
M30
